<?xml version="1.0" encoding="UTF-8" standalone="no"?><!DOCTYPE svg PUBLIC "-//W3C//DTD SVG 1.1//EN" "http://www.w3.org/Graphics/SVG/1.1/DTD/svg11.dtd"><svg width="100%" height="100%" viewBox="0 0 1080 768" version="1.1" xmlns="http://www.w3.org/2000/svg" xmlns:xlink="http://www.w3.org/1999/xlink" xml:space="preserve" xmlns:serif="http://www.serif.com/" style="fill-rule:evenodd;clip-rule:evenodd;stroke-linejoin:round;stroke-miterlimit:2;"><rect id="img2" x="0" y="-0" width="1080" height="768" style="fill:none;"/><clipPath id="_clip1"><rect x="0" y="-0" width="1080" height="768"/></clipPath><g clip-path="url(#_clip1)"><g id="Gemini_Generated_Image_s32447s32447s324.png"><path d="M236.221,405.332c0.6,-3.682 8.005,-42.553 8.353,-45.283c0.861,-6.757 1.167,-6.688 2.05,-12.197c1.593,-9.945 2.476,-9.762 3.484,-16.575c2.085,-14.098 4.25,-20.692 3.879,-29.879c-0.047,-1.172 -0.167,-4.132 2.484,-14.448c3.589,-13.964 2.676,-20.65 3.454,-27.632c0.551,-4.946 1.524,-4.772 4.486,-25.446c2.329,-16.253 5.031,-15.757 6.562,-32.105c0.613,-6.55 -3.176,-10.174 0.941,-13.524c1.298,-1.056 4.668,-1.467 4.694,-1.472c0.969,-0.175 6.753,-1.216 11.9,-3.164c0.201,-0.076 1.386,-0.524 1.889,-1.913c0.3,-0.828 3.692,-17.483 4.145,-18.537c2.705,-6.293 4.252,-7.155 4.49,-7.333c0.967,-0.722 12.165,-3.608 16.21,-6.099c1.556,-0.958 1.196,-2.572 2.176,-8.835c2.793,-17.845 1.099,-17.997 2.067,-25.474c2.201,-17.002 2.659,-19.421 2.975,-21.096c1.473,-7.786 2.179,-7.647 5.805,-33.144c1.319,-9.275 1.467,-9.238 3.181,-15.568c1.54,-5.691 0.069,-6.237 2.286,-8.993c3.553,-4.418 6.924,-4.979 8.07,-6.404c1.479,-1.838 0.148,-12.695 0.197,-17.688c0.048,-4.942 -0.499,-7.513 1.37,-9.549c3.774,-4.112 8.329,-0.505 8.431,7.331c0.116,8.875 -0.12,8.85 -0.051,17.709c0.026,3.32 2.005,2.56 4.617,4.153c4.986,3.04 4.592,4.058 5.434,6.897c0.554,1.868 0.991,1.67 1.624,3.504c0.599,1.737 0.125,11.108 1.109,17.614c1.177,7.79 1.101,14.937 1.648,18.74c1.006,6.99 0.532,7.013 0.846,15.506c0.642,17.382 -0.018,17.42 1.331,26.555c1.059,7.176 -0.33,12.858 -0.407,15.475c-0.262,8.841 -0.648,10.12 0.478,11.036c0.501,0.407 2.962,1.221 3.226,1.309c0.748,0.247 6.909,2.285 8.853,4.323c1.861,1.951 3.709,12.798 5.282,17.743c1.823,5.73 1.591,5.817 1.888,6.246c0.94,1.358 9.784,2.973 16.125,5.839c2.309,1.043 2.233,2.179 3.2,8.872c1.185,8.196 1.443,8.138 2.401,14.362c1.187,7.709 -0.007,10.852 0.741,18.853c1.252,13.391 4.094,18.551 5.111,20.829c5.087,11.406 0.952,19.538 3.902,31.197c0.513,2.028 4.973,11.485 5.978,29.83c0.098,1.798 0.498,9.103 4.286,22.103c2.969,10.191 0.83,12.881 3.423,23.224c5.898,23.525 4.027,25.03 6.679,38.744c2.042,10.562 0.89,10.822 4.376,20.995c6.623,19.327 2.562,21.073 5.709,36.518c2.57,12.615 0.983,12.809 2.828,25.554c2.088,14.423 1.837,14.435 4.019,28.84c1.666,10.997 1.575,10.991 2.844,22.041c0.895,7.792 2.526,7.671 1.754,15.483c-0.346,3.505 1.211,2.842 4.663,3.625c9.102,2.067 10.739,3.365 12.315,3.894c2.804,0.942 6.203,-0.447 6.472,6.9c0.135,3.692 1.725,4.351 3.479,8.825c1.241,3.165 1.85,3.065 4.417,2.635c3.313,-0.554 8.324,0.197 8.835,0.244c5.4,0.497 7.757,-0.144 12.145,0.366c10.175,1.183 16.969,1.369 18.702,2.5c4.62,3.015 4.827,17.538 5.505,23.074c0.809,6.61 0.422,6.633 1.352,12.139c1.873,11.083 2.509,11.417 3.384,11.877c2.057,1.081 16.261,0.678 24.167,1.433c7.747,0.74 7.782,0.017 15.517,0.895c14.081,1.598 16.762,-1.115 18.637,5.777c4.643,17.065 4.67,18.242 4.709,19.876c0.098,4.17 -1.194,4.67 2.308,14.313c1.755,4.833 2.472,4.746 2.834,15.58c0.151,4.518 -0.215,5.234 3.817,7.295c4.204,2.149 4.267,1.964 8.476,4.075c10.963,5.5 13.951,2.856 17.696,13.029c1.865,5.065 2.498,4.896 2.963,9.937c0.722,7.83 1.547,7.697 2.418,15.498c1.222,10.943 3.798,18.553 0.008,21.739c-2.28,1.917 -10.235,2.017 -11.879,1.957c-5.786,-0.208 -21.294,0.711 -28.766,0.498c-7.214,-0.205 -7.166,0.732 -14.385,0.774c-5.774,0.034 -7.606,-2.15 -22.141,-1.826c-10.144,0.226 -10.558,0.047 -12.292,0.969c-2.856,1.518 0.255,7.295 0.969,12.41c0.881,6.315 -4.889,6.086 -5.341,6.018c-4.493,-0.672 -5.192,-5.859 -6.256,-10.559c-2.656,-11.734 -6.496,-24.613 -7.573,-29.912c-1.828,-8.992 -1.447,-9.095 -4.551,-17.735c-3.62,-10.076 -3.997,-9.905 -8.126,-19.785c-1.876,-4.49 -3.651,-1.595 -21.02,-1.197c-11.327,0.26 -11.314,0.706 -16.619,0.477c-7.733,-0.333 -7.716,0.705 -15.449,0.33c-4.516,-0.219 -4.513,-0.314 -13.312,0.291c-8.314,0.572 -8.288,-0.113 -16.62,-0.665c-7.767,-0.514 -7.727,-0.732 -15.469,-1.456c-13.282,-1.243 -20.614,-3.098 -26.552,-2.837c-12.98,0.571 -15.434,-1.348 -28.803,-2.47c-6.447,-0.541 -7.996,0.897 -13.225,0.435c-15.289,-1.349 -18.021,-0.841 -18.856,-0.817c-8.044,0.227 -7.988,0.757 -15.496,1.036c-4.123,0.153 -14.075,-0.483 -16.604,-0.799c-7.791,-0.972 -7.813,-0.248 -12.144,-0.518c-7.215,-0.45 -7.204,-0.239 -14.374,-0.963c-7.705,-0.778 -11.352,-0.186 -15.545,-0.637c-5.115,-0.551 -5.128,-0.587 -9.907,0.13c-4.09,0.614 -4.784,-0.955 -12.248,0.637c-9.526,2.033 -9.808,1.429 -10.869,2.54c-0.695,0.728 -1.063,3.93 -1.104,4.282c-2.208,19.172 -2.657,20.594 -10.916,49.871c-4.099,14.529 -2.769,15.217 -4.446,18.866c-1.381,3.005 -5.092,3.481 -6.744,2.708c-3.9,-1.824 -2.057,-5.316 -0.731,-11.81c2.468,-12.085 10.584,-36.655 12.296,-50.858c1.115,-9.252 1.667,-10.811 -1.794,-11.043c-5.009,-0.337 -4.975,-0.864 -9.989,-0.497c-7.26,0.532 -10.648,0.142 -15.476,0.307c-19.352,0.66 -19.333,1.01 -21.016,0.999c-5.134,-0.035 -5.106,2.028 -10.08,0.778c-3.759,-0.944 -3.781,-0.684 -7.636,-0.554c-5.774,0.195 -7.387,-1.049 -8.942,2.278c-3.953,8.457 -4.688,17.931 -11.067,34.318c-3.351,8.609 -2.03,12.363 -4.506,19.901c-3.866,11.773 -3.973,11.734 -4.23,12.243c-1.928,3.814 -6.914,2.616 -8.168,1.605c-3.392,-2.735 -0.255,-7.142 -2.763,-8.523c-4.416,-2.431 -10.999,0.588 -37.79,0.736c-8.499,0.047 -8.408,-0.73 -14.466,-2.44c-2.005,-0.566 -8.729,-0.769 -25.452,-3.059c-11.228,-1.538 -11.292,-0.373 -17.599,-0.887c-6.668,-0.544 -6.644,-0.744 -13.315,-0.647c-1.691,0.025 -5.167,0.608 -6.32,-7.876c-0.533,-3.925 0.365,-5.746 0.637,-6.643c1.844,-6.066 0.959,-6.282 3.021,-12.281c1.693,-4.928 -0.124,-5.191 1.325,-13.171c2.127,-11.719 2.332,-12.877 4.809,-18.703c6.432,-15.129 6.377,-15.141 6.975,-16.439c4.196,-9.115 3.656,-9.301 5.934,-19.092c1.706,-7.332 4.046,-6.894 4.009,-17.663c-0.022,-6.449 1.942,-6.189 8.369,-6.799c8.164,-0.775 10.95,0.048 12.172,-0.964c3.226,-2.673 2.395,-17.936 8.976,-35.352c2.695,-7.132 3.045,-8.281 7.659,-8.414c13.594,-0.391 13.598,-0.149 16.627,0.395c4.928,0.887 4.951,0.57 9.945,0.986c5.519,0.459 5.515,0.194 11.042,0.265c11.212,0.143 11.201,-0.035 12.174,-0.012c10.021,0.236 11.519,-1.062 14.103,2.493c1.185,1.63 2.244,4.824 2.562,27.487c0.077,5.467 1.752,4.98 4.373,4.946c2.871,-0.037 2.956,0.373 4.465,-0.445c1.123,-0.609 2.177,-4.536 2.482,-5.507c4.513,-14.336 5.183,-14.197 5.403,-18.906c0.507,-10.844 1.833,-10.652 3.281,-21.011c1.076,-7.696 3.357,-17.923 4.298,-19.934c2.725,-5.821 15.849,-5.036 22.054,-4.071c7.212,1.122 7.285,0.326 14.504,1.425c7.134,1.086 7.235,-0.698 8.857,-1.686c1.199,-0.73 2.844,-0.445 5.496,-1.114c11.288,-2.849 11.956,-4.546 12.353,-5.554c0.578,-1.469 3.957,-22.258 6.062,-38.869c3.111,-24.543 6.506,-34.502 6.924,-47.538c0.388,-12.113 2.451,-21.111 2.959,-28.809c0.57,-8.636 1.136,-10.522 2.203,-16.638Zm97.215,-323.016c-1.397,7.945 -3.498,13.899 -5.242,30.88c-1.468,14.295 0.171,15.429 -2.852,29.933c-0.037,0.178 -0.394,1.889 -0.317,2.254c0.041,0.192 0.357,1.687 2.322,0.805c0.006,-0.003 2.94,-2.052 7.836,-3.074c8.034,-1.677 20.809,1.478 22.144,1.136c2.144,-0.549 0.624,-2.059 1.874,-10.048c1.196,-7.644 -0.479,-14.756 -0.617,-19.872c-0.682,-25.443 -0.272,-25.463 -1.488,-35.381c-0.324,-2.644 -0.213,-10.492 -1.371,-19.884c-0.582,-4.717 -0.018,-8.51 -1.655,-17.791c-0.312,-1.768 -2.325,-3.404 -3.522,-1.181c-1.652,3.068 -3.397,1.611 -8.794,3.275c-4.031,1.242 -5.051,18.398 -8.32,38.947Zm-131.203,472.443c-1.298,4.353 -6.838,29.245 -7.37,34.386c-1.581,15.281 -2.413,15.132 -5.964,29.813c-4.149,17.158 -12.959,42.009 -14.043,45.469c-0.104,0.43 -1.061,4.402 -0.923,5.455c0.061,0.465 0.129,0.985 2.247,5.413c1.097,2.294 1.927,2.235 6.243,1.892c9.557,-0.76 20.305,-0.754 24.364,-0.953c12.446,-0.61 13.928,1.899 15.564,-1.87c2.285,-5.265 7.103,-1.513 8.78,-1.064c1.114,0.298 2.174,0.581 14.332,-1.564c3.39,-0.598 3.626,-1.08 3.733,-4.018c0.243,-6.631 1.504,-10.193 3.096,-27.676c0.761,-8.352 1.067,-8.302 1.981,-16.624c0.195,-1.779 1.092,-9.94 3.762,-22.052c2.555,-11.592 1.998,-11.684 3.61,-20.086c4.363,-22.738 4.408,-24.551 6.353,-30.788c2.533,-8.118 4.275,-11.07 0.727,-11.814c-0.767,-0.161 -7.328,0.447 -15.364,2.145c-9.901,2.092 -9.958,1.637 -19.959,3.169c-7.738,1.185 -9.138,0.484 -14.352,2.195c-12.324,4.046 -12.59,3.582 -14.493,5.272c-1.53,1.359 -1.303,1.528 -2.325,3.3Zm20.478,23.392c-1.68,6.037 -3.11,6.583 -8.116,6.149c-2.567,-0.222 -5.12,0.831 -6.766,-2.885c-1.698,-3.835 -4.062,-5.884 -1.385,-10.225c3.76,-6.098 0.979,-10.417 7.065,-11.617c5.459,-1.077 7.776,4.258 9.057,6.14c3.453,5.073 1.648,8.021 0.145,12.438Zm-21.474,81.022c-4.993,-0.154 -5.834,0.307 -8.968,-1.129c-5.911,-2.707 -1.458,-14.685 0.942,-18.205c1.743,-2.556 2.537,-3.18 4.849,-3.71c4.016,-0.92 4.99,-0.916 5.431,-0.915c7.234,0.029 6.016,3.504 4.591,15.905c-0.938,8.162 -2.52,8.308 -6.844,8.054Zm37.766,-34.24c-3.322,0.547 -3.42,0.758 -6.642,-0.631c-5.921,-2.552 -6.686,-1.945 -7.218,-4.069c-0.386,-1.54 0.563,-1.874 0.228,-6.746c-0.42,-6.105 -1.253,-9.915 0.45,-10.681c1.365,-0.614 1.51,0.509 7.518,-0.542c1.914,-0.335 5.445,-2.535 8.128,-0.34c3.226,2.64 1.499,7.401 1.742,17.085c0.12,4.773 -2.297,5.169 -4.206,5.924Zm-2.032,26.222c-1.11,4.501 -1.174,5.734 -5.795,5.295c-2.495,-0.237 -7.524,1.369 -10.28,-1.791c-2.685,-3.078 0.682,-15.178 2.71,-17.787c1.773,-2.281 9.486,-4.054 9.76,-4.047c4.586,0.106 5.505,7.719 3.605,18.33Zm-17.953,-46.553c0.631,2.774 1.608,4.29 -1.194,12.172c-1.723,4.848 -5.644,7.886 -9.699,5.222c-4.573,-3.004 -5.344,-1.91 -7.489,-4.472c-1.55,-1.851 -2.144,-7.351 3.794,-14.144c1.669,-1.91 1.848,-1.719 5.758,-2.992c6.104,-1.987 7.423,1.266 8.83,4.214Zm17.191,-41.033c0.212,-1.041 0.344,-4.325 3.681,-5.722c3.133,-1.312 4.426,-0.906 5.792,0.068c5.748,4.1 5.121,5.021 5.246,13.506c0.011,0.72 0.096,6.509 -3.466,8.312c-0.608,0.308 -1.831,0.927 -8.516,0.117c-8.814,-1.068 -4.227,-10.516 -2.738,-16.281Zm103.317,-393.386c7.556,1.677 7.6,1.336 14.476,1.449c14.567,0.24 24.587,7.226 24.094,1.38c-0.052,-0.618 -2.283,-12.608 -2.471,-13.159c-1.102,-3.244 -2.806,-5.145 -7.17,-6.005c-4.074,-0.803 -5.58,2.745 -8.714,-0.95c-2.186,-2.577 -2.571,-2.137 -10.16,-4.289c-16.357,-4.638 -20.726,3.43 -20.749,3.473c-0.862,1.648 -1.839,11.031 -1.94,11.998c-0.092,0.882 -0.865,3.898 0.068,4.942c0.899,1.006 3.346,0.377 4.903,0.374c0.616,-0.001 1.352,-0.002 7.662,0.786Zm-23.191,1.619c2.508,-1.213 2.87,-0.883 3.341,-2.136c0.097,-0.258 0.212,-0.565 0.577,-3.39c1.405,-10.879 2.405,-11.895 1.406,-12.971c-1.141,-1.229 -1.39,-0.513 -2.947,0.111c-4.357,1.744 -12.121,4.261 -13.553,4.864c-0.233,0.098 -3.539,-0.456 -5.544,13.587c-1.014,7.104 -1.108,7.157 -0.778,7.678c1.142,1.803 1.664,0.141 17.498,-7.743Zm166.082,508.525c13.845,-0.517 14.205,0.505 23.223,-0.286c0.014,-0.001 2.184,0.054 2.776,-1.397c0.257,-0.629 -0.921,-5.384 -1.317,-8.782c-0.155,-1.33 -1.138,-9.776 -2.806,-16.499c-2.773,-11.178 -5.104,-25.871 -8.27,-36.677c-4.573,-15.608 -3.617,-15.924 -8.189,-26.423c-5.89,-13.529 -6.729,-18.425 -8.145,-21.959c-4.272,-10.663 -4.193,-10.715 -4.883,-11.431c-4.015,-4.167 -15.538,-6.056 -20.034,-6.845c-16.085,-2.823 -20.997,-2.002 -22.2,-1.974c-9.848,0.222 -10.382,-0.733 -18.837,-1.924c-8.783,-1.237 -8.889,-0.153 -17.601,-1.725c-6.551,-1.182 -6.599,-0.134 -17.798,-0.376c-12.251,-0.264 -12.872,0.763 -21.019,0.793c-7.138,0.026 -7.126,0.068 -7.746,0.066c-3.987,-0.011 -3.719,-1.933 -9.951,-1.797c-6.661,0.146 -6.624,-0.591 -13.29,-0.435c-14.913,0.351 -23.121,-2.468 -30.999,-3.205c-3.227,-0.302 -3.437,2.612 -3.641,3.047c-1.359,2.903 -3.587,2.452 -4.451,1.726c-2.75,-2.31 0.102,-6.011 -4.07,-6.076c-2.558,-0.04 -2.754,1.634 -2.962,2.358c-2.082,7.25 -2.574,7.09 -4.43,14.393c-1.38,5.431 -4.721,24.321 -5.063,26.435c-2.534,15.643 -3.07,15.523 -5.942,31.104c-0.986,5.351 -3.323,26.632 -3.917,33.112c-1.409,15.357 -2.802,17.487 -2.659,21.044c0.147,3.635 0.309,4.594 3.946,4.464c6.993,-0.251 6.97,0.317 17.718,0.635c13.106,0.388 13.854,1.028 18.817,0.884c10.789,-0.312 15.447,2.327 32.084,0.693c18.282,-1.796 20.345,1.028 34.297,-0.129c1.776,-0.147 5.455,-0.452 22.203,1.838c8.08,1.105 8.104,0.571 13.211,0.753c10.84,0.388 12.34,1.234 15.543,1.593c20.337,2.281 20.342,2.221 22.108,2.439c14.316,1.765 14.345,1.711 28.736,0.742c7.77,-0.523 7.776,0.251 15.558,-0.18Zm-62.981,-38.006c0.755,-1.25 2.686,-5.164 6.436,-5.932c4.617,-0.946 6.65,1.872 6.996,2.351c0.68,0.943 1.681,2.33 0.33,14.528c-0.941,8.498 -4.213,8.955 -6.147,9.071c-4.991,0.298 -11.219,2.366 -10.869,-6.802c0.258,-6.759 2.795,-12.227 3.253,-13.215Zm-84.876,5.515c1.355,-8.688 0.927,-10.523 7.251,-11.264c9.431,-1.106 13.353,-0.362 14.607,4.514c0.833,3.239 -0.531,12.096 -1.124,14.499c-0.613,2.486 -1.197,2.141 -3.582,3.127c-0.9,0.372 -1.998,1.853 -2.325,2.144c-4.051,3.602 -11.04,0.531 -11.769,-0.075c-4.976,-4.14 -3.606,-8.379 -3.058,-12.944Zm-0.8,-34.42c1.425,-7.054 2.512,-13.433 8.133,-15.231c2.95,-0.944 9.49,-3.619 11.29,3.039c0.689,2.551 0.873,11.685 0.859,12.247c-0.175,7.174 -6.888,12.521 -7.89,13.088c-1.996,1.131 -5.453,0.364 -6.423,-0.088c-1.328,-0.62 -1.245,-0.748 -2.572,-1.387c-5.555,-2.677 -4.888,-4.303 -3.398,-11.668Zm54.496,-30.01c-5.378,0.957 -5.527,-0.055 -8.884,1.017c-4.041,1.29 -9.873,4.204 -9.209,-5.288c0.425,-6.078 0.326,-6.057 0.696,-12.125c0.161,-2.635 0.154,-6.279 7.427,-7.195c0.596,-0.075 8.319,-0.454 10.367,1.17c1.027,0.814 3.641,2.888 3.655,15.965c0.006,5.648 -2.626,5.764 -4.052,6.456Zm-76.257,30.066c-0.146,2.521 -0.046,15.016 -6.703,13.303c-1.309,-0.337 -1.381,-1.023 -6.616,-0.737c-3.322,0.181 -5.059,2.913 -7.103,-0.11c-3.11,-4.599 1.288,-26.144 6.888,-28.406c0.218,-0.088 5.824,-1.627 7.875,-1.251c6.595,1.21 5.823,9.804 5.659,17.201Zm0.541,-31.189c-1.171,1.625 -0.805,3.974 -9.448,3.468c-5.899,-0.345 -7.319,0.285 -8.615,-2.262c-1.246,-2.448 -0.035,-8.374 2.317,-21.974c1.607,-9.297 6.004,-5.242 9.512,-6.054c2.244,-0.52 2.215,-0.572 4.513,-0.82c2.116,-0.228 3.956,-0.891 4.048,4.614c0.055,3.304 -0.351,6.048 -0.7,12.16c-0.343,5.995 -0.314,6.365 -1.626,10.867Zm19.966,-8.729c1.132,-7.167 2.025,-9.766 2.492,-11.068c2.017,-5.627 8.509,-6.792 10.298,-5.785c6.488,3.651 6.935,6.318 6.378,15.813c-0.593,10.095 -1.11,15.201 -6.668,13.745c-3.788,-0.992 -3.712,0.882 -7.609,0.879c-8.124,-0.008 -5.719,-8.385 -4.89,-13.584Zm65.6,79.727c-1.273,7.624 -0.085,8.424 -2.981,10.322c-2.061,1.35 -13.805,-0.376 -14.786,-1.047c-4.097,-2.801 -1.481,-9.385 0.497,-16.914c0.865,-3.293 2.143,-9.027 8.603,-9.554c3.896,-0.318 7.366,3.318 7.848,3.824c3.09,3.238 2.13,7.562 0.819,13.37Zm11.932,-82.983c0.301,-1.879 0.067,-1.95 0.748,-3.127c2.677,-4.629 6.705,-4.614 7.403,-4.612c4.432,0.016 4.416,-0.082 8.836,-0.274c6.146,-0.266 5.881,4.881 5.859,10.24c-0.024,5.806 1.057,12.466 -5.852,13.141c-7.957,0.777 -7.87,2.125 -11.11,1.543c-0.514,-0.092 -5.235,0.242 -5.884,-16.911Zm42.405,75.242c0.107,-0.192 1.688,-4.081 5.662,-5.187c1,-0.278 4.777,-0.336 6.509,0.004c5.538,1.087 6.359,1.974 6.026,9.653c-0.548,12.639 0.324,12.958 -1.159,14.683c-2.186,2.543 -5.559,0.989 -6.987,0.638c-5.633,-1.386 -5.957,0.15 -8.739,-1.239c-1.851,-0.924 -1.827,-1.008 -2.869,-2.781c-0.589,-1.002 -2.294,-5.745 1.558,-15.771Zm-163.363,-3.22c0.709,-2.489 0.509,-4.618 6.306,-5.223c6.524,-0.681 9.188,0.244 11.045,5.141c0.41,1.08 1.453,3.831 0.319,14.438c-0.901,8.428 -4.893,6.418 -8.095,5.518c-3.215,-0.904 -5.172,1.977 -8.601,-0.381c-2.57,-1.768 -2.291,-5.738 -2.254,-6.269c0.623,-8.876 0.547,-8.878 1.28,-13.224Zm141.577,-24.351c-0.759,3.434 -1.155,6.455 -5.866,5.662c-4.499,-0.757 -8.412,0.486 -10.786,-3.645c-2.143,-3.729 -0.083,-22.743 11.962,-23.968c2.376,-0.242 7.39,0.792 6.929,8.616c-0.447,7.581 -1.374,9.968 -2.238,13.335Zm-55.202,-13.213c0.184,-0.435 0.331,-0.884 0.515,-1.319c2.606,-6.163 7.618,-3.558 7.98,-3.46c2.471,0.666 5.296,-0.505 7.31,0.759c2.631,1.652 3.546,12.995 -0.03,19.137c-2.722,4.675 -4.685,4.362 -6.343,4.035c-3.848,-0.759 -3.923,-0.353 -7.671,-1.505c-0.454,-0.14 -3.81,-1.171 -3.848,-4.525c-0.051,-4.408 1.835,-12.091 2.088,-13.123Zm76.185,-29.992c0.52,-3.768 0.436,-7.864 3.291,-9.651c3.339,-2.09 10.904,-0.118 12.12,0.321c5.674,2.048 4.523,8.512 4.379,9.323c-1.667,9.367 -2.235,9.32 -3.119,10.243c-2.789,2.908 -4.904,0.869 -10.321,1.395c-7.9,0.767 -7.068,-4.461 -6.35,-11.631Zm13.085,50.457c-0.333,-0.111 -0.707,-0.102 -2.236,-0.746c-3.763,-1.586 -7.932,-0.35 -9.885,-3.327c-1.466,-2.235 -0.532,-10.336 0.798,-13.304c0.969,-2.162 2.854,-3.523 3.172,-3.753c2.982,-2.153 9.743,-1.332 11.235,-0.292c3.743,2.608 2.863,3.864 2.341,16.311c-0.019,0.454 -0.151,3.598 -3.118,4.754c-1.205,0.47 -2.293,0.355 -2.308,0.358Zm-153.406,-265.142c-1.844,20.351 -0.316,24.842 -2.049,35.299c-1.385,8.352 -1.298,8.352 -2.863,16.668c-1.717,9.129 0.3,13.71 -2.089,33.219c-0.559,4.568 -0.149,16.618 -1.681,24.239c-0.407,2.028 -0.107,2.069 -4.178,25.511c-2.562,14.759 -1.84,14.83 -3.806,32.185c-0.037,0.326 -0.371,3.278 0.075,4.096c1.131,2.075 12.163,1.699 20.449,3.013c12.078,1.916 13.139,-0.775 25.468,1.053c7.905,1.172 7.96,0.417 16.713,1.354c4.886,0.523 4.875,-0.817 24.309,-0.78c11.621,0.022 11.645,-0.464 19.973,0.805c5.337,0.813 5.451,-0.175 17.725,2.148c14.113,2.672 14.777,0.602 23.19,1.352c6.047,0.539 8.802,1.639 9.692,0.055c1.204,-2.143 -0.994,-5.437 -1.792,-14.274c-1.865,-20.635 -3.666,-20.383 -5.79,-40.924c-0.976,-9.443 -1.843,-9.343 -2.196,-18.823c-0.321,-8.618 -0.454,-8.599 -1.797,-15.565c-2.628,-13.632 0.538,-14.916 -4.413,-33.223c-2.359,-8.723 -2.825,-8.621 -3.852,-17.603c-0.761,-6.658 -1.863,-7.762 -3.801,-22.208c-2.742,-20.439 -3.564,-20.292 -4.609,-27.657c-1.395,-9.831 0.058,-10.401 -2.257,-18.826c-5.064,-18.432 -3.888,-18.65 -5.133,-30.891c-1.313,-12.911 -3.14,-12.653 -4.776,-17.832c-2.296,-7.267 -1.176,-9.652 -2.753,-28.663c-0.535,-6.444 -5.206,-6.298 -6.624,-25.46c-0.658,-8.891 -0.361,-8.886 -0.537,-17.785c-0.1,-5.087 -1.596,-6.536 -2.572,-14.327c-0.424,-3.381 0.256,-5.94 -2.134,-6.765c-6.641,-2.293 -6.796,-1.732 -13.455,-3.945c-7.327,-2.436 -7.7,-0.862 -19.899,-4.434c-9.114,-2.669 -11.22,-0.286 -24.167,-2.959c-0.613,-0.127 -6.834,-1.411 -7.795,-0.655c-0.235,0.185 -0.191,0.578 -0.368,0.819c-0.105,0.144 -0.373,0.13 -0.448,0.292c-0.289,0.628 0.307,1.092 -1.493,3.195c-3.093,3.612 -1.899,4.191 -5.123,25.558c-1.856,12.3 -1.926,16.225 -1.952,17.645c-0.029,1.593 -1.16,28.679 -2.558,36.589c-1.1,6.226 -2.431,7.006 -2.55,13.232c-0.181,9.446 0.278,9.464 -1.016,18.818c-1.404,10.147 1.649,11.037 -2.441,32.05c-1.5,7.708 0.438,13.191 -1.649,26.658c-0.096,0.617 -0.457,2.948 -0.979,7.741Zm11.684,19.872c0.125,-1.173 0.347,-7.033 2.688,-9.529c2.883,-3.073 7.645,-2.329 8.326,-2.223c5.767,0.901 8.255,1.722 7.411,8.39c-1.137,8.977 -1.197,14.495 -5.158,15.453c-2.999,0.725 -5.497,-1.504 -5.749,-1.626c-1.121,-0.544 -1.177,-0.247 -4.182,-0.182c-5.375,0.115 -4.003,-4.009 -3.337,-10.283Zm8.633,-1.099c-0.18,-0.485 0.072,-0.51 -0.106,-0.991c-0.021,-0.056 -0.065,-0.176 -0.473,-0.574c-1.075,-1.048 -2.31,1.072 -1.654,2.826c0.408,1.089 1.892,0.342 2.124,-0.268c0.118,-0.311 -0.009,-0.682 0.109,-0.994Zm93.236,127.609c3.076,-0.308 7.137,-1.12 9.276,1.515c1.217,1.499 1.18,4.394 0.952,9.227c-0.419,8.889 -3.179,8.078 -9.163,8.11c-2.201,0.012 -3.77,0.938 -6.653,1.793c-7.061,2.095 -4.702,-6.711 -3.682,-13.302c1.158,-7.487 4.195,-6.575 9.27,-7.343Zm-94.112,-106.583c0.779,0.056 2.019,-0.349 4.379,1.169c0.428,0.275 0.808,0.622 1.245,0.882c2.388,1.421 9.35,0.516 6.805,8c-1.449,4.263 -1.155,4.318 -1.802,7.57c-1.828,9.199 -6.717,5.876 -12.842,5.757c-6.659,-0.13 -4.88,-3.029 -5.011,-8.996c-0.299,-13.689 6.901,-14.262 7.225,-14.382Zm47.191,-13.491c-3.514,6.744 -5.487,4.374 -9.542,4.157c-1.084,-0.058 -3.384,0.259 -4.917,-1.275c-2.847,-2.849 0.606,-7.622 -0.679,-14.843c-0.092,-0.518 -0.753,-4.234 3.309,-5.682c2.108,-0.752 2.167,-0.124 8.894,-0.267c4.65,-0.099 7.953,1.048 5.441,11.449c-0.13,0.539 -0.543,2.25 -2.506,6.461Zm-11.49,100.907c-0.052,-3.962 -0.616,-5.631 2.892,-7.974c2.898,-1.935 7.338,-2.745 7.939,-2.913c0.051,-0.014 7.708,-4.091 8.133,5.345c0.59,13.097 -1.744,14.623 -2.785,15.304c-0.204,0.134 -6.805,2.657 -8.676,2.843c-8.156,0.809 -7.303,-6.348 -7.502,-12.605Zm22.965,-283.573c5.872,0.466 8.421,-0.059 9.161,3.469c0.845,4.029 -0.929,3.722 -2.415,7.899c-1.011,2.842 -2.671,5.724 -10.188,3.696c-4.702,-1.269 -3.961,-5.336 -3.549,-8.217c0.313,-2.191 1.117,-3.718 2.715,-5.311c1.685,-1.68 1.932,-1.252 4.276,-1.536Zm-49.791,6.687c-0.208,-0.041 -0.887,-0.058 -2.356,-0.466c-2.764,-0.768 -3.829,-1.908 -1.802,-9.201c2.056,-7.395 9.037,-6.992 11.458,-5.085c0.292,0.23 3.231,2.544 3.618,2.918c2.251,2.173 2.184,9.621 -0.581,12.443c-1.918,1.957 -3.938,1.196 -5.708,0.244c-1.675,-0.901 -3.557,-0.753 -4.629,-0.853Zm23.238,80.74c-3.572,-0.846 -5.875,-1.059 -4.874,-6.464c0.738,-3.984 1.303,-11.514 8.186,-11.393c10.181,0.178 7.923,8.335 6.939,12.665c-1.52,6.689 -3.711,5.314 -10.251,5.192Zm22.089,-23.432c-2.464,-0.115 -5.67,0.307 -4.439,-7.298c1.23,-7.605 2.985,-10.061 7.795,-11.018c1.003,-0.199 7.897,-0.891 8.494,3.335c0.022,0.157 0.368,7.943 -0.817,10.984c-1.642,4.215 -6.999,3.846 -11.032,3.996Zm-53.963,-20.52c1.127,-3.446 1.454,-6.182 10.886,-3.578c5.991,1.654 6.97,18.77 -3.446,17.223c-5.822,-0.865 -6.207,-1.027 -6.71,-1.24c-3.214,-1.358 -2.065,-3.675 -0.731,-12.405Zm34.046,-32.906c-3.594,-0.625 -5.484,-0.958 -4.803,-7.044c0.921,-8.228 9.089,-8.055 10.384,-7.813c4.636,0.868 5.176,2.41 5.512,4.548c0.568,3.606 -2.072,9.217 -2.499,9.705c-2.003,2.286 -4.161,0.997 -8.594,0.605Zm25.418,12.522c2.263,-0.236 2.236,-0.26 4.495,-0.36c1.883,-0.083 3.469,-0.018 3.988,1.958c0.206,0.784 0.018,0.773 -0.461,3.285c-0.493,2.59 0.03,5.36 -0.803,7.883c-0.202,0.61 -1.27,3.846 -7.187,3.583c-6.332,-0.281 -6.342,-2.623 -6.147,-4.842c0.924,-10.495 3.565,-10.682 6.114,-11.506Zm-57.894,-3.025c0.768,-2.727 0.856,-4.804 4.845,-5.257c4.321,-0.49 5.915,0.628 6.572,1.022c2.07,1.242 5.108,7.592 0.563,12.556c-3.565,3.893 -6.111,2.511 -7.271,2.006c-1.596,-0.695 -1.588,-0.676 -3.267,-1.092c-4.65,-1.153 -2.735,-4.886 -1.442,-9.234Zm42.099,2.313c-0.342,7.09 -0.48,11.736 -7.375,11.642c-4.402,-0.06 -7.266,0.888 -8.433,-1.874c-0.988,-2.339 0.152,-13.416 6.262,-15.088c4.378,-1.198 6.02,-1.022 6.546,-0.965c3.895,0.418 3.005,5.254 3,6.286Zm34.33,267.806c0.365,-3.035 0.365,-3.015 0.394,-3.278c0.587,-5.261 -1.433,-9.438 4.417,-10.866c4.605,-1.124 4.447,-1.682 7.74,-2.123c4.261,-0.57 9.66,-2.672 9.16,6.361c-0.732,13.24 -2.735,17.947 -11.332,16.205c-4.014,-0.813 -6.735,1.001 -9.196,-1.594c-1.674,-1.765 -1.184,-4.078 -1.183,-4.707Zm-8.542,-98.067c-2.734,-0.627 -5.567,-0.761 -5.32,-7.027c0.473,-12.03 1.323,-13.467 1.918,-14.472c1.769,-2.991 9.243,-2.16 10.06,-2.069c5.7,0.634 8.606,0.037 8.661,5.467c0.117,11.61 -0.38,11.715 -0.516,12.265c-1.729,6.99 -5.575,4.323 -9.323,4.99c-2.753,0.49 -2.71,0.651 -5.48,0.847Zm7.408,57.092c0.198,-0.737 1.335,-4.961 3.627,-8.829c1.474,-2.488 5.607,-3.623 9.026,-2.474c4.862,1.634 5.876,2.976 6.13,5.876c0.506,5.785 -0.811,5.8 -0.076,12.179c0.457,3.964 -2.895,7.125 -3.986,7.639c-2.979,1.405 -3.225,-0.182 -8.895,0.743c-7.551,1.233 -6.232,-6.273 -6.151,-9.527c0.071,-2.812 0.131,-2.794 0.324,-5.607Zm-71.53,19.518c1.617,0.139 3.921,-0.449 6.031,2.297c3.225,4.198 -0.581,10.554 -1.229,13.745c-0.423,2.084 -0.434,8.723 -5.918,9.162c-3.476,0.278 -4.517,-1.974 -6.663,-2.643c-4.204,-1.31 -3.699,-2.252 -4.492,-6.591c-1.529,-8.359 2.182,-17.741 8.911,-16.631c0.27,0.045 0.249,0.049 3.361,0.661Zm8.409,36.006c3.248,13.944 0.075,15.503 -0.938,16.114c-1.702,1.026 -5.105,0.998 -6.449,1.264c-4.763,0.943 -6.905,2.163 -10.196,-1.782c-2.861,-3.43 -1.832,-4.551 -0.722,-10.163c1.001,-5.06 1.316,-9.763 6.538,-11.07c2.939,-0.735 9.325,0.08 11.245,4.318c0.195,0.431 0.326,0.888 0.522,1.319Zm25.846,-185.002c-3.692,0.597 -5.402,1.293 -9.91,-0.077c-5.377,-1.633 -3.233,-6.56 -3.355,-12.044c-0.087,-3.909 -1.352,-9.836 9.968,-9.339c5.158,0.226 9.614,-1.849 10.218,5.995c0.409,5.32 0.198,7.775 -1.351,11.103c-1.865,4.007 -4.531,4.106 -5.568,4.362Zm15.859,131.777c-0.368,2.93 -1.222,12.387 -8.095,12.047c-0.738,-0.036 -1.472,-0.121 -2.21,-0.16c-3.982,-0.21 -9.092,1.248 -8.868,-8.59c0.222,-9.755 0.181,-14.387 5.406,-15.927c2.311,-0.681 4.69,-0.167 7.897,-0.536c4.849,-0.558 6.344,0.891 5.87,13.166Zm-55.694,-14.788c3.587,0.135 6.465,-0.241 7.417,1.66c1.305,2.607 0.19,11.078 -0.419,14.279c-1.179,6.199 -4.636,8.123 -8.342,5.87c-3.047,-1.852 -4.347,0.234 -7.649,-1.212c-2.991,-1.31 -2.314,-3.906 -1.329,-10.318c0.103,-0.673 0.817,-5.319 3.713,-7.658c3.355,-2.709 3.572,-2.422 6.609,-2.622Zm90.85,-25.078c-0.03,8.372 -0.916,17.136 -8.813,15.031c-2.235,-0.596 -2.248,-0.383 -4.543,-0.31c-5.961,0.19 -4.502,-5.418 -4.532,-8.079c-0.075,-6.703 -0.962,-12.46 6.746,-12.924c0.53,-0.032 0.517,0.122 6.626,0.34c4.249,0.151 4.252,3.268 4.516,5.942Zm-86.335,-93.667c-1.833,0.036 -4.939,1.275 -6.098,-5.86c-0.558,-3.438 0.953,-5.711 1.134,-8.954c0.145,-2.601 -1.146,-8.306 8.209,-8.428c8.783,-0.114 12.003,14.63 4.162,20.24c-0.86,0.615 -3.618,1.478 -4.084,1.688c-1.632,0.736 -1.604,0.753 -3.323,1.314Zm40.945,18.414c-0.685,11.982 -0.892,17.259 -5.65,18.698c-2.453,0.742 -8.91,0.374 -9.872,-0.01c-2.099,-0.837 -2.03,-3.916 -2.021,-4.295c0.43,-18.962 6.489,-19.561 13.04,-19.591c5.005,-0.023 4.472,3.115 4.503,5.199Zm34.181,15.471c-1.488,2.53 -1.257,3.27 -5.433,3.886c-4.717,0.696 -5.235,1.378 -8.648,-1.924c-1.206,-1.166 -1.629,-2.029 -1.125,-9.675c0.486,-7.361 3.187,-9.311 10.825,-9.53c5.794,-0.166 5.959,6.288 5.737,10.626c-0.193,3.768 -1.299,6.437 -1.356,6.616Zm-43.724,55.455c0.763,-3.166 0.532,-4.021 5.189,-6.429c6.823,-3.527 11.298,0.649 10.445,7.384c-1.054,8.321 -1.832,11.382 -4.047,13.222c-3.331,2.767 -10.925,-0.296 -11.267,-0.533c-2.031,-1.403 -2.461,-1.985 -0.32,-13.644Zm-31.519,-142.15c0.017,0 3.528,-0.535 5.363,1.675c2.407,2.9 3.28,11.747 1.083,15.168c-3.264,5.082 -7.323,3.189 -7.454,3.161c-2.502,-0.537 -4.327,-0.259 -6.745,-1.859c-1.952,-1.291 -0.742,-5.861 -0.471,-7.855c0.567,-4.173 -0.319,-5.623 -0.27,-6.552c0.145,-2.75 6.535,-3.468 8.495,-3.739Zm-6.638,88.15c-0.137,-0.041 -1.543,-0.029 -2.549,-1.114c-1.948,-2.101 -0.243,-12.698 2.252,-16.054c1.793,-2.413 2.791,-3.322 5.859,-3.351c2.151,-0.02 5.003,-0.099 6.711,4.67c2.171,6.063 0.091,9.443 -0.667,11.299c-2.311,5.657 -4.368,4.581 -11.606,4.55Zm60.886,-77.029c1.118,-0.02 8.452,-0.91 10.544,2.864c1.005,1.814 3.977,14.475 -3.854,13.698c-3.351,-0.333 -3.323,0.344 -6.675,0.339c-6.281,-0.008 -6.441,-1.973 -6.253,-5.484c0.404,-7.529 1.671,-9.082 2.174,-9.698c1.459,-1.788 1.77,-1.326 4.064,-1.719Zm-0.399,31.304c0.015,-0.234 -0.183,-3.971 1.748,-5.165c2.063,-1.275 10.365,-0.663 10.886,-0.528c6.077,1.576 4.68,15.537 4.128,16.671c-2.442,5.01 -7.383,3.588 -7.512,3.575c-2.644,-0.277 -4.033,0.092 -5.511,-0.174c-4.946,-0.89 -3.99,-6.084 -3.738,-14.379Zm-2.608,200.344c-0.273,2.8 -1.541,11.776 -2.295,13.395c-1.18,2.535 -4.527,2.102 -6.734,2.568c-0.529,0.112 -4.679,0.989 -6.739,-0.514c-2.569,-1.874 -1.962,-4.44 -0.916,-13.213c0.588,-4.936 2.044,-6.573 8.627,-7.826c2.741,-0.522 5.216,0.811 5.618,1.028c2.922,1.574 2.389,4.09 2.438,4.562Zm-21.31,-264.133c1.1,0.019 3.354,-0.742 6.316,3.162c2.452,3.232 0.139,8.981 -1.212,10.466c-0.4,0.439 -1.722,1.893 -7.314,1.281c-2.1,-0.23 -4.55,-1.577 -5.071,-2.364c-1.466,-2.215 0.937,-7.936 1.33,-8.679c1.97,-3.728 3.281,-3.389 5.951,-3.865Zm-128.796,220.901c-2.78,16.056 -3.036,16 -5.011,32.173c-0.763,6.246 -5.625,35.582 -5.232,36.396c0.072,0.149 0.534,1.107 1.788,1.032c0.986,-0.059 0.951,-0.233 12.17,-2.053c12.083,-1.96 15.224,-4.578 33.202,-5.582c4.572,-0.255 3.917,-3.301 6.7,-3.969c1.097,-0.263 1.645,0.844 1.715,0.986c0.146,0.294 0.164,0.638 0.29,0.942c0.546,1.313 3.799,2.604 4.922,-1.108c2.96,-9.784 1.819,-15.933 3.88,-26.695c0.449,-2.345 3.339,-18.275 3.627,-19.865c2.843,-15.672 1.696,-26.167 3.665,-37.577c2.184,-12.651 0.35,-25.668 2.738,-33.312c0.916,-2.932 2.645,-12.709 3.326,-24.317c0.812,-13.824 -0.029,-13.854 1.444,-27.635c2.411,-22.558 1.547,-23.139 1.665,-27.71c0.179,-6.893 2.891,-10.725 3.056,-22.109c0.144,-9.98 -0.126,-9.976 0.821,-19.909c1.108,-11.617 -0.303,-11.788 2.43,-23.147c1.679,-6.976 1.364,-7.033 2.883,-31.103c0.594,-9.418 -0.023,-9.451 1.248,-18.797c1.363,-10.021 1.489,-9.983 3.085,-19.952c0.892,-5.571 0.103,-5.713 2.047,-12.224c1.064,-3.564 -2.583,-2.705 -4.186,-2.78c-5.809,-0.275 -5.722,0.519 -10.859,3.221c-1.02,0.537 -3.458,1.819 -13.514,4.993c-5.001,1.578 -15.599,3.089 -16.604,5.673c-0.438,1.128 -0.018,3.511 -0.405,6.61c-1.269,10.153 -0.481,10.348 -3.92,19.995c-2.119,5.944 -1.971,18.388 -5.281,33.239c-1.211,5.431 -1.569,14.19 -1.619,15.43c-0.471,11.535 -4.35,23.046 -4.371,29.888c-0.031,10.08 -0.511,11.153 -4.032,31.031c-1.634,9.224 -3.922,12.639 -6.147,30.898c-1.059,8.692 -8.259,41.549 -10.256,59.854c-1.568,14.379 -2.754,14.27 -2.854,28.734c-0.011,1.512 -0.03,4.39 -2.411,18.751Zm40.392,-116.072c-2.126,3.402 -2.811,2.689 -6.808,3.004c-0.862,0.068 -7.715,2.346 -7.234,-4.16c0.717,-9.686 3.545,-11.777 7.156,-12.611c3.865,-0.893 8.294,1.512 7.959,8.165c-0.144,2.866 -0.268,2.841 -1.073,5.602Zm17.469,-10.012c2.323,14.013 -5.4,12.482 -7.671,12.363c-3.747,-0.195 -5.945,0.114 -5.36,-6.834c0.716,-8.51 1.131,-9.258 5.329,-10.152c0.264,-0.056 2.769,-0.59 3.331,-0.495c1.709,0.287 2.865,1.764 3.045,1.993c0.663,0.847 0.518,0.919 1.326,3.125Zm-19.004,68.528c0.469,-1.466 0.191,-2.526 3.757,-5.254c7.723,-5.909 11.635,1.176 10.085,7.61c-1.885,7.823 -1.995,9.444 -4.828,10.664c-0.7,0.301 -4.425,0.755 -6.418,0.037c-5.564,-2.004 -4.055,-4.264 -2.596,-13.057Zm4.649,-92.901c-0.219,2.013 -0.088,7.401 -4.291,8.237c-0.442,0.088 -0.916,0.182 -5.621,-0.42c-5.301,-0.679 -4.013,-5.36 -3.981,-5.52c2.334,-11.692 4.258,-13.572 5.135,-14.429c0.357,-0.349 3.097,-3.027 6.2,-0.644c4.466,3.43 3.252,7.476 2.558,12.775Zm14.504,-100.666c-1.399,1.54 -1.344,1.651 -3.257,2.45c-0.603,0.251 -4.264,1.779 -8.095,-1.062c-3.238,-2.401 -0.348,-3.623 0.746,-13.558c0.504,-4.573 0.74,-5.599 6.159,-6.296c5.085,-0.654 5.855,3.337 5.962,3.897c0.728,3.776 -0.367,7.846 -0.556,10.084c-0.235,2.772 -0.192,2.778 -0.314,3.131c-0.164,0.473 -0.482,0.882 -0.646,1.354Zm-1.541,36.484c0.041,-1.432 -0.215,-9.536 2.987,-12.899c2.735,-2.873 6.681,-2.738 8.299,-1.321c2.772,2.427 2.17,8.213 2.169,8.682c-0.002,0.812 1.32,9.257 -4.263,10.97c-2.032,0.623 -4.7,-0.08 -5.439,-0.236c-3.925,-0.83 -3.538,-2.519 -3.754,-5.195Zm-2.477,25.518c0.202,-1.274 0.116,-4.798 4.176,-7.473c2.783,-1.834 5.846,1.158 7.368,4.162c1.659,3.274 2.073,15.25 -4.25,15.685c-0.759,0.052 -4.624,-0.665 -5.674,-0.983c-3.363,-1.021 -3.179,-2.471 -1.619,-11.39Zm-33.303,210.365c-0.609,1.213 -0.559,2.808 -5.83,3.652c-3.337,0.534 -3.903,-0.782 -5.705,-1.161c-2.648,-0.557 -5.076,0.485 -4.738,-5.988c0.243,-4.66 1.683,-13.277 2.953,-15.276c1.614,-2.541 6.451,-5.865 9.846,-3.951c8.166,4.602 6.11,10.603 5.97,11.452c-0.698,4.226 -2.268,10.376 -2.496,11.271Zm-21.023,23.13c0.157,-0.774 0.246,-1.56 0.403,-2.334c1.614,-7.973 10.06,-13.807 13.34,-8.607c1.1,1.744 0.617,2.095 2.727,3.968c2.422,2.15 1.971,2.603 1.63,11.328c-0.382,9.77 -9.689,5.409 -11.913,5.001c-6.566,-1.206 -6.673,-2.703 -6.185,-9.355Zm18.631,-105.079c0.264,-0.384 2.313,-5.593 10.91,-5.016c3.825,0.257 5.803,4.15 5.334,9.331c-0.83,9.157 -2.271,13.072 -7.609,12.372c-4.466,-0.586 -4.516,0.418 -7.722,-0.17c-5.941,-1.09 -3.889,-5.829 -3.674,-6.743c1.17,-4.963 0.742,-5.087 2.76,-9.773Zm15.261,30.791c6.321,-2.901 7.049,-3.574 8.758,-2.849c3.016,1.278 3.107,5.052 3.184,6.278c1.132,18.146 -5.192,17.533 -6.369,17.634c-3.398,0.293 -3.382,0.616 -5.565,0.383c-7.228,-0.77 -5.695,-4.042 -5.199,-6.911c1.674,-9.671 0.432,-11.74 5.19,-14.535Zm21.477,-57.406c-0.084,0.284 -0.248,2.228 -2.212,4.703c-3.557,4.482 -5.709,3.092 -10.384,1.955c-4.201,-1.021 -2.634,-4.192 -1.767,-12.171c0.681,-6.271 2.067,-6.454 4.787,-9.227c0.168,-0.172 1.486,-1.515 2.558,-1.579c0.808,-0.049 5.374,1.357 5.603,6.307c0.157,3.398 -0.008,3.419 0.948,6.663c0.664,2.252 0.393,2.287 0.467,3.349Zm-16.263,-135.136c0.119,-0.51 1.186,-5.068 1.967,-6.243c0.975,-1.468 3.748,-2.214 5.02,-2.093c3.294,0.313 3.549,2.685 5.27,5.266c3.893,5.836 0.478,13.212 -1.11,15.042c-3.213,3.705 -11.264,0.746 -11.96,-0.8c-0.368,-0.817 -0.627,-1.394 0.813,-11.173Zm-17.815,135.002c0.576,-2.78 0.585,-2.762 1.387,-5.503c0.98,-3.349 1.111,-7.134 4.626,-7.623c2.619,-0.365 4.993,1.482 5.67,1.923c2.816,1.834 5.315,1.753 4.411,7.989c-1.037,7.158 -1.722,12.069 -5.681,13.206c-3.469,0.996 -5.511,-0.784 -5.631,-0.851c-1.558,-0.864 -3.014,-1.222 -3.209,-1.298c-3.183,-1.234 -1.881,-5.487 -1.573,-7.842Zm41.37,-68.525c0.935,13.38 -2.913,14.461 -4.511,15.21c-2.187,1.024 -4.192,-0.118 -7.605,-0.874c-5.943,-1.315 -2.842,-7.15 -2.4,-9.949c1.17,-7.415 1.242,-11.108 7.897,-11.561c5.433,-0.369 6.61,7.139 6.619,7.174Zm-53.098,133.903c0.93,-3.079 0.981,-4.697 5.313,-8.078c1.781,-1.39 3.965,-3.885 5.644,-2.806c0.361,0.232 1.167,1.858 1.251,2.029c1.265,2.554 3.933,2.777 4.352,6.658c0.364,3.371 -1.518,10.768 -1.977,12.231c-0.313,0.999 -1.54,2.721 -3.515,3.156c-4.12,0.908 -3.513,-2.328 -7.717,-2.452c-6.05,-0.177 -5.121,-2.93 -3.352,-10.739Zm33.292,29.889c-0.393,8.573 0.93,14.314 -5.598,14.227c-2.773,-0.037 -2.752,-0.015 -5.501,0.384c-1.86,0.27 -6.08,0.032 -6.665,-2.443c-0.514,-2.175 2.524,-12.906 3.484,-14.268c2.979,-4.226 14.479,-8.588 14.328,0.991c-0.006,0.37 -0.042,0.739 -0.048,1.109Zm-3.768,34.304c-0.274,7.069 -0.081,11.103 -8.471,11.119c-2.166,0.004 -2.892,-0.203 -6.529,-2.459c-1.23,-0.763 -3.276,-1.285 -2.656,-7.595c0.063,-0.644 0.284,-2.883 2.715,-7.626c1.31,-2.554 2.222,-2.878 3.997,-3.884c4.258,-2.416 5.322,0.667 8.268,3.534c2.653,2.583 2.383,3.46 2.676,6.911Zm37.356,-299.828c-0.157,0.631 -0.352,3.325 -2.813,5.235c-1.352,1.049 -8.763,2.48 -10.906,0.19c-1.397,-1.493 -0.575,-1.787 0.188,-8.801c0.303,-2.784 -0.456,-10.457 8.627,-11.326c6.604,-0.631 5.609,5.299 5.422,10.179c-0.058,1.523 -0.119,1.504 -0.518,4.522Zm-42.148,75.192c0.335,-3.052 0.245,-3.045 0.694,-5.569c1.218,-6.847 1.285,-6.976 1.567,-7.522c1.049,-2.032 7.554,-3.326 9.426,-2.226c4.114,2.417 1.882,8.996 2.374,17.501c0.272,4.691 -3.582,7.155 -5.588,7.262c-0.443,0.024 -0.43,-0.081 -5.451,-1.023c-4.931,-0.925 -3.534,-2.891 -3.023,-8.423Zm-87.468,300.079c0.182,-0.396 1.586,-2.628 1.677,-6.827c0.132,-6.12 -0.536,-7.233 -0.858,-7.769c-0.598,-0.996 -6.206,-4.67 -9.155,-1.3c-1.307,1.493 -2.844,8.774 -3.083,10.175c-0.844,4.952 -0.036,5.462 4.66,7.206c5.107,1.897 5.913,-0.448 6.759,-1.485Zm378.005,81.396c1.258,-0.71 4.369,-1.918 4.153,-6.312c-0.281,-5.719 -4.935,-4.666 -7.307,-4.584c-5.72,0.198 -12.792,-3.014 -12.826,4.584c-0.015,3.447 -0.651,8.134 5.103,8.595c7.181,0.575 9.188,-1.416 10.877,-2.283Zm-456.893,-8.43c2.083,-0.415 5.246,-0.061 7.216,-7.975c3.537,-14.207 -4.994,-13.404 -7.236,-13.278c-2.767,0.155 -2.748,-0.043 -5.519,-0.13c-5.956,-0.188 -7.054,1.627 -7.321,15.748c-0.154,8.169 6.552,6.196 12.86,5.636Zm-39.618,-16.642c-1.312,4.244 -4.491,14.142 0.844,15.53c1.662,0.432 4.39,0.093 6.598,0.386c5.607,0.743 5.121,-1.477 6.104,-7.033c0.328,-1.852 1.476,-9.528 1.5,-10.063c0.147,-3.265 -2.551,-6.565 -7.584,-5.804c-3.087,0.467 -4.408,0.759 -5.291,1.588c-1.023,0.961 -1.446,2.733 -2.171,5.396Zm29.875,-36.581c0.174,8.363 -0.283,12.222 5.271,12.627c7.52,0.549 11.549,1.114 11.225,-8.208c-0.164,-4.712 -0.077,-9.558 -5.676,-9.069c-1.938,0.169 -1.965,0.619 -5.378,-0.264c-5.322,-1.376 -5.274,1.685 -5.443,4.913Zm-10.607,3.248c0.185,-1.38 1.225,-5.765 -0.609,-8.843c-1.286,-2.157 -9.245,-4.308 -11.678,-1.473c-0.668,0.779 -1.163,3.5 -1.221,3.815c-1.348,7.406 -4.447,13.483 2.798,14.641c5.923,0.946 8.275,0.811 9.187,-1.3c0.435,-1.007 1.419,-6.289 1.522,-6.84Zm83.926,66.892c-0.126,0.255 -0.359,0.447 -0.485,0.702c-0.076,0.153 -0.718,1.453 0.03,2.134c0.698,0.635 2.433,0.102 2.451,-0.978c0.02,-1.171 -0.371,-1.01 -1.437,-1.478c-0.207,-0.091 -0.353,-0.289 -0.56,-0.38Zm383.527,-30.711c2.363,0.002 6.985,0.276 10.098,-1.618c1.652,-1.005 2.261,-3.818 1.084,-6.871c-2.371,-6.151 -13.902,-3.395 -15.751,-2.401c-2.795,1.502 -2.367,9.135 0.025,10.383c1.632,0.851 4.247,0.507 4.544,0.508Zm-33.204,-59.276c-0.365,-0.048 -0.736,-0.042 -1.101,-0.09c-3.062,-0.403 -7.346,-2.755 -7.446,5.549c-0.124,10.224 3.292,9.998 6.336,9.906c3.673,-0.111 5.225,0.12 6.506,-1.184c1.584,-1.612 1.885,-5.892 1.317,-8.74c-1.199,-6.023 -4.649,-5.331 -5.612,-5.44Zm74.961,53.064c-0.459,-2.002 -0.233,-2.08 -0.998,-3.21c-0.055,-0.081 -0.958,-1.03 -1.03,-1.083c-2.647,-1.945 -9.38,-0.6 -9.936,-0.426c-3.655,1.144 -4.183,5.463 -3.94,6.866c0.704,4.06 3.677,3.019 9.564,3.004c7.14,-0.019 6.301,-4.638 6.339,-5.15Zm1.703,20.802c-0.015,-0.015 -0.952,-1.643 -3.589,-2.143c-0.697,-0.132 -1.175,-0.223 -8.843,0.576c-4.954,0.516 -5.87,4.645 -4.877,7.479c1.562,4.457 7.184,2.531 11.468,1.957c1.691,-0.226 9.728,-0.309 5.84,-7.869Zm-417.073,-51.788c-0.025,-0.457 0.302,-3.429 -1.866,-6.448c-1.39,-1.936 -2.665,-2.934 -4.181,-2.747c-2.206,0.273 -3.504,4.264 -3.648,4.571c-0.637,1.367 -2.281,3.409 -2.652,6.852c-0.61,5.648 1.782,5.048 7.462,5.107c4.618,0.048 4.588,-4.248 4.884,-7.336Zm162.898,-566.701c0.479,-0.192 1.067,0.132 1.546,-0.06c0.156,-0.062 2.021,-0.811 0.899,-1.892c-0.691,-0.666 -2.204,-0.304 -2.456,0.732c-0.096,0.395 0.107,0.825 0.011,1.22Zm406.234,606.4c-1.232,6.108 -1.012,6.127 -2.072,12.255c-1.998,11.548 -0.617,13.401 -3.884,31.091c-2.392,12.95 -2.961,32.029 -1.141,34.011c1.132,1.232 2.903,1.141 2.221,5.812c-2.275,15.575 -2.877,16.417 -3.713,17.588c-2.135,2.989 -7.296,3.893 -6.928,-2.165c0.08,-1.322 0.441,-7.256 0.065,-16.554c-0.135,-3.338 -0.384,-3.301 -0.376,-6.655c0.023,-10.021 -1.585,-13.577 3.719,-38.796c1.978,-9.406 0.697,-9.572 2.499,-20.975c0.022,-0.142 1.529,-11.828 1.494,-12.214c-0.227,-2.526 -1.273,-1.934 -3.74,-1.38c-0.366,0.082 -9.332,1.642 -15.439,1.569c-2.88,-0.034 -14.227,-0.98 -24.188,-4.017c-13.459,-4.104 -13.983,-4.933 -14.66,-6.005c-1.441,-2.282 -0.749,-4.004 -1.541,-6.543c-0.383,-1.226 -1.5,-3.945 -2.448,-9.098c-0.845,-4.592 -2.872,-2.504 -7.973,-3.693c-11.167,-2.604 -14.01,-5.766 -21.276,-9.209c-3.251,-1.54 -18.635,-7.952 -23.886,-17.089c-1.791,-3.117 -1.73,-6.24 -6.681,-18.745c-2.632,-6.648 -2.872,-8.442 -6.533,-33.143c-0.195,-1.315 0.236,-1.355 -1.61,-16.541c-1.004,-8.261 -0.035,-11.336 0.526,-17.686c0.387,-4.374 1.658,-9.363 2.996,-24.377c0.209,-2.342 0.497,-5.584 9.744,-27.734c6.631,-15.884 21.883,-27.882 25.542,-29.911c7.283,-4.038 7.792,-3.025 25.244,-12.58c11.276,-6.174 13.624,-3.831 15.618,-4.394c0.107,-0.03 0.105,-0.038 10.182,-4.902c7.089,-3.422 16.624,-9.45 23.125,-11.355c6.565,-1.924 6.666,-1.489 13.19,-3.581c7.37,-2.364 7.529,-1.4 15.628,-1.523c8.037,-0.122 13.241,0.454 28.847,6.091c0.06,0.022 5.09,1.451 8.675,4.861c0.507,0.482 0.519,0.487 1.203,0.477c1.812,-0.028 0.465,-2.538 2.492,-13.9c1.953,-10.951 10.079,-13.997 19.469,-18.133c2.51,-1.106 3.064,-0.649 3.254,-1.919c0.219,-1.465 -0.515,-1.204 -5.47,-4.021c-6.996,-3.977 -9.73,-1.799 -14.727,-7.643c-0.501,-0.586 -3.259,-3.81 -2.632,-9.272c0.736,-6.408 13.515,-5.109 17.758,-2.634c2.272,1.326 14.385,10.047 17.51,9.866c3.024,-0.175 2.172,-4.996 9.839,-11.788c4.283,-3.794 5.941,-2.392 13.19,-5.839c7.068,-3.361 7.092,-3.372 12.344,-4.136c5.098,-0.742 10.993,-3.421 18.994,0.924c4.009,2.177 4.344,1.384 10.99,4.566c4.424,2.118 5.056,1.233 10.865,6.934c5.203,5.106 7.515,6.486 7.964,19.795c0.256,7.6 -5.186,8.821 -5.84,12.13c-0.685,3.466 4.828,3.447 10.299,9.896c3.318,3.911 10.281,19.849 14.515,26.517c2.924,4.605 4.384,6.857 4.806,21.195c0.152,5.172 -0.6,6.133 -0.698,22.124c-0.062,10.223 -3.668,11.329 -1.066,12.213c1.916,0.651 3.082,-0.896 13.358,0.682c13.373,2.054 13.558,1.705 23.025,6.255c9.746,4.684 18.418,5.518 26.598,13.083c0.703,0.65 12.489,12.686 14.014,14.635c1.353,1.729 8.017,13.216 9.068,17.392c0.598,2.377 0.276,2.548 1.22,3.435c1.173,1.104 4.358,0.383 4.82,3.091c0.528,3.098 -2.373,2.865 -1.345,6.689c1.922,7.147 3.328,6.873 3.626,15.479c0.394,11.375 4.27,16.049 3.17,24.381c-0.505,3.822 2.096,3.542 11.398,17.363c11.965,17.778 9.702,19.025 14.278,26.663c2.153,3.594 5.483,7.9 9.355,16.926c4.283,9.986 -2.599,10.897 -3.051,13.183c-0.644,3.262 5.175,6.058 10.268,20.909c4.831,14.086 7.132,14.678 7.391,18.928c0.291,4.766 -4.784,6.163 -6.63,3.329c-1.093,-1.679 -0.947,-1.746 -1.957,-3.467c-4.808,-8.189 -2.989,-9.545 -7.425,-19.547c-4.324,-9.751 -5.753,-10.749 -7.885,-13.846c-0.341,-0.495 -1.554,-3.623 -4.664,-2.471c-8.887,3.292 -8.783,3.563 -17.878,6.189c-8.136,2.349 -8.519,0.244 -18.919,2.922c-0.589,0.152 -21.085,4.535 -32.906,9.674c-0.461,0.201 -4.13,1.796 -5.484,3.074c-1.643,1.551 -0.523,1.943 1.822,11.96c1.93,8.241 2.099,8.179 3.995,16.444c0.267,1.165 1.828,7.965 4.419,14.279c2.478,6.037 6.693,9.073 6.495,14.637c-0.19,5.356 -7.136,6.912 -9.697,0.162c-1.676,-4.419 -1.948,-7.862 -4.832,-15.763c-0.989,-2.709 -3.915,-12.158 -5.922,-20.907c-1.034,-4.507 -1.4,-5.117 -4.268,-13.317c-1.602,-4.58 -2.459,-4.421 -5.499,-4.036c-11.917,1.511 -11.175,-3.251 -15.037,-8.507c-4.527,-6.161 -12.181,-12.624 -15.078,-25.035c-0.981,-4.203 -2.91,-1.994 -9.748,-2.644c-1.026,-0.098 -4.782,-0.455 -12.268,-3.913c-4.394,-2.03 -4.99,-3.786 -7.447,-1.026c-3.92,4.403 -4.55,3.546 -10.276,5.043c-2.567,0.671 -5.474,2.181 -15.48,-0.607c-3.757,-1.047 -3.748,-1.408 -7.64,-0.979c-2.356,0.259 -2.919,0.042 -6.803,-2.379c-5.568,-3.471 -15.136,-13.82 -15.724,-17.84c-0.333,-2.277 -1.07,-23.004 0.63,-28.738c1.147,-3.87 2.418,-5.312 9.773,-8.727c5.891,-2.735 16.952,-3.118 21.867,-5.032c4.036,-1.572 4.582,-0.549 5.545,-1.887c0.319,-0.443 0.467,-10.243 0.26,-12.116c-1.042,-9.46 -1.431,-9.45 -0.838,-15.446c0.664,-6.715 -1.185,-8.246 1.861,-19.957c0.045,-0.174 0.453,-1.743 0.02,-2.242c-1.17,-1.349 -4.583,1.634 -4.78,1.76c-5.349,3.421 -5.132,3.692 -7.588,5.848c-2.515,2.207 -3.98,1.958 -8.71,0.194c-3.719,-1.387 -5.829,-3.941 -7.087,-5.082c-5.567,-5.049 -5.806,-7.495 -6.497,-7.815c-0.053,-0.024 -1.528,0.035 -1.59,0.065c-1.28,0.613 -5.383,11.1 -8.1,11.426c-1.637,0.197 -5.579,-2.394 -6.567,-2.411c-0.159,-0.003 -1.247,-0.022 -1.834,0.777c-0.273,0.372 -0.034,0.512 -3.138,4.832c-3.447,4.798 -8.265,2.252 -18.32,1.903c-2.753,-0.096 -7.977,-0.016 -13.387,-5.816c-0.205,-0.219 -0.494,-0.39 -0.964,-1.243c-0.137,-0.249 -0.153,-0.595 -0.383,-0.763c-0.218,-0.159 -0.536,-0.062 -0.803,-0.1c-0.331,-0.047 -0.673,-0.256 -0.991,-0.153c-0.207,0.067 -2.784,4.842 -6.961,10.815c-4.35,6.219 -2.062,7.31 -8.96,21.015c-4.861,9.658 -4.399,9.839 -6.625,17.795c-2.478,8.856 -8.447,18.871 -12.024,35.474c-2.519,11.692 -3.459,11.485 -5.032,23.324c-0.431,3.241 -1.005,6.711 -3.513,7.098c-2.595,0.4 -3.942,-0.695 -6.005,4.915Zm64.935,-197.184c-4.872,-3.625 -5.58,-3.027 -9.421,-6.069c-9.964,-7.892 -9.682,-21.181 -11.053,-22.183c-1.527,-1.116 -4.424,2.007 -6.749,3.839c-4.2,3.31 -5.234,2.036 -8.813,4.409c-6.523,4.324 -16.473,5.287 -18.609,5.7c-0.242,0.047 -7.406,1.693 -7.43,1.72c-0.174,0.192 -0.014,0.519 -0.04,0.777c-0.032,0.324 -0.264,0.669 -0.135,0.968c0.13,0.302 1.999,0.994 2.18,1.061c0.627,0.232 2.927,1.085 7.421,3.858c13.433,8.293 14.326,7.618 15.431,10.751c0.671,1.901 -0.536,7.472 -1.053,8.644c-1.867,4.231 -7.946,6.987 -9.786,7.559c-5.94,1.849 -5.87,2.288 -12.076,2.54c-10.417,0.422 -14.335,-0.663 -15.536,-0.996c-8.518,-2.359 -9.406,-3.626 -10.791,-3.041c-0.924,0.391 -0.709,0.617 -1.859,2.537c-0.655,1.093 -3.849,3.911 -4.323,4.256c-1.229,0.894 -6.867,3.093 -16.445,18.084c-2.164,3.388 -2.658,16.791 -2.084,22.31c0.534,5.138 0.71,7.627 2.308,7.88c0.619,0.098 2.991,-0.51 3.247,-0.575c9.868,-2.528 21.753,-3.753 23.349,-3.767c6.094,-0.055 6.086,0.036 12.137,-0.557c13.522,-1.324 15.057,0.565 17.882,-0.343c2.673,-0.86 5.159,-6.581 11.554,-13.076c4.034,-4.098 6.166,-6.278 11.411,-8.679c9.32,-4.267 11.624,-3.668 20.066,-3.151c1.406,0.086 3.435,-0.603 5.527,0.116c2.848,0.978 3.524,3.316 4.385,3.466c1.874,0.325 1.818,-2.147 1.812,-2.386c-0.032,-1.415 -0.311,-13.729 -0.484,-17.686c-0.242,-5.55 0.194,-5.529 0.094,-11.071c-0.071,-3.899 0.159,-3.877 0.362,-7.774c0.378,-7.258 0.003,-7.7 -2.478,-9.122Zm-3.125,8.525c0.177,0.399 0.144,0.392 0.32,0.788c0.031,0.069 0.053,0.055 0.406,0.848c0.296,0.663 1.873,4.201 1.138,9.003c-0.588,3.847 -5.078,9.033 -13.48,11.11c-9.742,2.408 -14.232,-9.423 -14.636,-11.093c-1.778,-7.354 5.99,-19.922 13.519,-18.936c4.905,0.642 8.532,1.981 12.732,8.28Zm-10.412,14.309c0.081,-0.028 1.605,-0.405 3.306,-1.325c0.572,-0.309 3.892,-2.106 1.986,-7.881c-1.779,-5.39 -4.291,-5.582 -5.36,-5.842c-4.126,-1.002 -5.072,-1.453 -6.871,2.394c-2.461,5.264 -2.534,8.463 -0.774,11.051c2.755,4.051 7.013,1.813 7.713,1.602Zm129.272,160.023c0.031,-0.388 0.501,-0.535 0.172,-2.168c-0.129,-0.64 -1.888,-6.551 -3.438,-15.472c-1.084,-6.24 -1.027,-6.252 -3.201,-12.207c-0.18,-0.492 -2.622,-9.056 -3.046,-11.105c-1.106,-5.338 1.493,-14.251 -1.848,-29.733c-2.378,-11.016 -1.01,-15.997 -1.216,-33.272c-0.106,-8.881 2.108,-11.398 2.767,-12.146c2.324,-2.641 3.896,-1.851 10.063,-5.287c4.012,-2.235 9.286,-4.218 8.838,-9.159c-0.523,-5.78 -2.3,-4.964 -7.806,-6.838c-3.067,-1.044 -3.169,-1.294 -11.115,0.348c-4.504,0.931 -4.072,1.978 -15.423,7.81c-2.435,1.251 -3.334,2.111 -6.026,9.617c-1.531,4.269 -3.495,14.278 -3.728,17.868c-0.098,1.508 -0.632,16.365 -0.134,23.216c0.563,7.752 0.562,7.739 0.584,18.819c0.014,7.213 0.484,7.181 0.604,14.39c0.11,6.612 0.965,13.183 6.353,25.473c2.717,6.196 4.417,6.402 5.69,8.764c1.655,3.072 1.284,5.322 10.883,9.076c3.501,1.37 3.42,1.51 5.502,2.31c3.715,1.427 4.455,0.525 5.527,-0.302Zm-181.362,-71.851c-5.097,7.444 -8.576,14.013 -9.245,15.275c-0.619,1.168 -3.079,5.813 -5.222,15.679c-0.17,0.784 -0.697,3.208 -1.317,9.94c-0.327,3.55 0.476,5.763 -0.279,12.145c-1.065,9.003 1.5,12.343 10.612,17.542c3.045,1.737 7.41,4.92 8.958,-0.819c0.594,-2.202 2.992,-12.244 3.246,-13.31c3.144,-13.168 2.328,-13.447 11.912,-37.708c3.244,-8.212 2.423,-9.758 7.222,-19.648c4.48,-9.233 4.748,-9.111 7.658,-17.811c2.658,-7.945 6.934,-11.048 13.503,-22.54c1.463,-2.56 1.417,-2.563 3.008,-5.065c1.282,-2.017 4.389,-9.013 6.797,-11.013c0.167,-0.139 0.494,-0.096 0.58,-0.295c0.038,-0.088 -0.047,-1.876 -0.088,-1.921c-0.109,-0.117 -8.846,-1.034 -12.998,0.189c-9.383,2.763 -13.458,7.621 -18.057,13.788c-1.465,1.965 -1.726,3.756 -4.42,6.604c-3.975,4.202 -3.188,4.74 -9.444,15.867c-4.411,7.846 -4.309,12.043 -11.545,21.84c-0.465,0.629 -0.44,0.629 -0.882,1.26Zm-55.042,1.107c-1.159,17.969 0.032,18.081 -2.121,28.835c-3.554,17.754 -1.845,17.869 -1.21,19.709c0.869,2.519 0.334,4.753 0.675,6.781c0.473,2.806 0.634,3.101 -1.445,5.05c-0.762,0.714 -3.261,2.62 0.362,11.569c1.717,4.241 2.423,4.033 13.438,7.486c12.863,4.032 24.371,2.658 26.483,2.406c6.831,-0.815 12.84,-1.13 12.215,-4.403c-0.357,-1.867 -9.555,-4.305 -15.155,-12.432c-4.52,-6.56 -1.021,-10.977 -1.387,-25.189c-0.188,-7.309 3.164,-21.826 7.929,-29.728c0.984,-1.632 4.681,-8.542 9.839,-15.532c8.654,-11.727 6.021,-13.171 14.896,-29.102c0.121,-0.218 1.413,-2.536 -0.683,-3.044c-0.099,-0.024 -5.508,-0.31 -8.823,0.063c-7.757,0.871 -7.713,1.419 -15.511,1.121c-4.644,-0.178 -6.177,0.802 -16.546,2.353c-11.939,1.785 -11.234,3.81 -12.245,6.354c-1.497,3.768 -4.843,4.245 -7.777,14.382c-2.713,9.372 -2.704,11.557 -2.934,13.322Zm64.958,-164.586c-10.233,-0.13 -10.224,-0.072 -11.084,-0.19c-2.991,-0.411 -3.195,-1.524 -8.879,-0.361c-13.189,2.699 -17.831,5.982 -22.154,7.806c-5.559,2.346 -6.773,2.674 -18.675,12.415c-2.979,2.438 -2.026,3.219 0.087,6.443c7.08,10.799 10.354,11.402 12.978,16.775c1.639,3.356 2.091,3.047 9.15,10.85c4.215,4.659 4.775,4.082 8.965,8.77c3.564,3.987 4.762,1.741 8.466,2.841c5.053,1.501 5.305,1.373 21.134,0.448c12.782,-0.747 12.966,-5.756 9.916,-8.524c-3.016,-2.737 -4.404,-0.247 -7.067,-2.893c-3.128,-3.107 -6.169,-3.023 -8.217,-4.11c-6.042,-3.209 -6.124,-3.027 -6.647,-3.309c-7.104,-3.83 -7.492,-3.056 -10.292,-4.977c-5.44,-3.732 2.853,-5.569 8.997,-7.087c7.468,-1.845 7.943,-3.105 14.428,-4.27c6.251,-1.122 6.372,-0.679 12.287,-3.032c3.844,-1.529 5.638,-0.315 8.511,-1.804c1.973,-1.022 4.812,-4.21 5.182,-4.624c0.434,-0.487 4.327,-3.665 4.755,-4.074c3.548,-3.396 0.78,-4.375 -0.75,-5.407c-3.301,-2.226 -2.48,-3.491 -12.467,-8.301c-7.898,-3.804 -8.12,-3.509 -18.625,-3.385Zm65.006,98.165c0.153,3.881 0.461,3.865 0.238,7.731c-0.203,3.529 2.588,2.09 9.906,7.9c6.197,4.92 5.847,5.488 5.95,8.692c0.101,3.169 2.106,3.591 3.681,0.844c6.24,-10.882 15.956,-19.279 20.284,-20.951c5.407,-2.088 13.159,-4.385 14.846,-8.485c1.118,-2.716 0.966,-3.996 -0.007,-14.596c-0.261,-2.848 -0.866,-2.756 -1.376,-9.94c-0.142,-2 -0.552,-11.514 -1.332,-12.027c-0.293,-0.193 -1.561,-0.051 -1.788,0.189c-0.13,0.138 0,0.229 -1.356,1.942c-2.309,2.917 0.747,3.083 1.147,6.574c0.399,3.474 -1.146,7.687 -2.546,9.828c-2.813,4.3 -4.456,9.571 -13.006,10.56c-4.95,0.573 -6.059,-2.081 -11.096,-2.226c-5.331,-0.153 -7.509,-5.463 -5.35,-10.342c0.076,-0.173 0.869,-1.963 0.751,-2.235c-0.744,-1.718 -1.316,-0.628 -3.179,-0.367c-0.138,0.019 -5.121,0.474 -8.879,-0.599c-2.776,-0.793 -4.922,-2.553 -5.206,-2.839c-0.884,-0.891 -0.793,-1.039 -1.306,-1.101c-1.34,-0.162 -1.534,0.128 -1.538,1.471c-0.004,1.335 0.151,1.313 0.201,16.687c0.016,4.917 0.901,5.263 0.934,7.754c0.037,2.769 -0.012,2.745 0.027,5.535Zm132.074,-21.479c-7.77,-1.345 -11.161,-2.933 -19.977,-2.412c-3.952,0.234 -4.515,-0.518 -7.001,2.575c-4.378,5.445 -7.736,4.305 -12.016,6.559c-9.445,4.975 -18.191,-0.992 -22.141,-2.446c-2.46,-0.906 -6.905,0.315 -7.373,0.772c-0.371,0.363 -1.011,0.988 -0.819,6.437c0.149,4.215 4.325,2.433 6.068,1.932c0.665,-0.191 5.495,-1.582 7.849,3.624c1.489,3.293 1.567,3.253 1.671,3.549c0.775,2.206 0.346,2.816 1.682,2.887c0.706,0.038 0.715,0.048 1.287,-0.358c2.466,-1.747 5.744,-2.024 7.54,-4.963c1.7,-2.782 2.265,-2.278 5.52,-2.083c1.132,0.068 6.17,-0.877 6.703,-0.976c5.6,-1.049 5.54,0.242 11.1,1.456c8.646,1.888 9.839,7.424 11.279,11.448c1.003,2.803 6.127,1.921 11.748,4.799c6.113,3.129 6.063,3.225 13.301,5.578c3.82,1.242 6.245,-0.005 8.931,5.24c0.37,0.723 1.547,3.02 6.919,7.432c3.909,3.21 5.826,-0.047 17.425,-1.109c7.23,-0.662 12.371,1.159 9.287,-5.411c-5.473,-11.661 -7.524,-14.004 -10.817,-17.021c-9.992,-9.151 -7.831,-12.424 -23.766,-18.538c-13.195,-5.062 -12.675,-6.634 -24.399,-8.97Zm-64.995,-3.203c1.381,0.397 1.352,0.45 2.801,0.595c4.611,0.464 5.025,1.868 6.81,3.005c1.055,0.672 6.669,4.251 15.622,-0.746c6.666,-3.72 13.775,-8.084 13.776,-18.02c0.002,-11.789 0.581,-11.765 0.597,-21.032c0.023,-14.098 -0.533,-14.424 -5.308,-22.348c-6.116,-10.148 -8.284,-15.722 -8.524,-16.174c-3.916,-7.369 -4.075,-7.342 -6.9,-9.608c-4.881,-3.914 -7.349,-4.054 -11.774,-6.783c-9.277,-5.72 -9.468,-5.792 -22.962,-7.179c-7.147,-0.735 -6.988,-1.664 -11.092,-1.891c-4.478,-0.248 -4.45,-0.392 -8.88,-1.071c-4.791,-0.734 -8.709,-2.047 -11.037,-2.136c-6.249,-0.24 -10.804,2.894 -17.723,3.934c-4.773,0.718 -4.749,0.898 -8.938,3.299c-8.189,4.693 -13.083,4.689 -15.024,11.365c-3.213,11.052 -1.229,20.404 -0.861,22.138c0.914,4.306 -0.158,4.792 0.209,9.872c0.951,13.167 3.861,16.446 6.741,19.02c2.641,2.361 2.471,2.502 2.7,2.704c1,0.883 1.693,0.365 1.81,0.277c1.6,-1.197 -3.368,-7.671 7.853,-8.749c9.522,-0.915 12.678,1.795 16.604,1.841c6.646,0.078 6.637,-0.177 13.287,0.2c6.833,0.387 7.565,-1.932 15.518,-2.882c6.496,-0.776 6.361,-1.404 12.149,-2.429c5.662,-1.003 5.923,3.39 5.75,4.424c-0.512,3.067 -4.571,3.058 -4.712,3.09c-1.532,0.352 -1.638,1.14 -1.661,1.308c-0.082,0.608 1.575,2.742 1.818,3.254c0.142,0.3 0.206,0.634 0.357,0.929c0.94,1.827 1.767,1.958 2.876,0.243c0.197,-0.304 1.095,-1.694 3.551,-2.814c5.097,-2.324 5.228,-2.082 10.837,-1.925c8.245,0.231 7.421,9.176 7.348,11.362c-0.26,7.832 -1.403,9.64 -2.079,10.949c-0.271,0.525 -3.131,6.065 -3.452,6.526c-3.561,5.111 -7.742,2.932 -8.165,3.921c-0.201,0.469 0.279,1.06 0.079,1.53Zm-3.713,24.331c-1.342,0.212 -1.574,-0.324 -4.238,1.696c-2.825,2.143 -12.448,5.689 -13.565,6.101c-3.312,1.22 -2.999,1.722 -5.844,4.274c-2.491,2.235 -1.74,2.681 -1.619,4.856c0.097,1.751 -1.393,3.054 -1.038,4.374c0.192,0.714 2.95,5.468 5.453,7.617c3.821,3.282 4.489,1.94 8.852,-0.612c7.056,-4.127 6.924,-4.321 14.239,-8.015c3.358,-1.696 1.677,-3.569 3.611,-6.472c2.772,-4.161 3.2,-6.289 2.066,-11.302c-0.19,-0.839 -0.512,-2.349 -2.316,-2.59c-0.444,-0.059 -0.439,0.12 -5.603,0.072Zm13.014,128.96c-5.376,-6.891 -8.465,-19.399 -8.906,-21.184c-3.972,-16.081 -1.473,-19.642 -2.891,-21.186c-1.205,-1.313 -1.521,-0.304 -12.271,2.295c-5.484,1.326 -11.779,1.496 -15.203,3.779c-2.737,1.825 -2.879,2.69 -2.799,13.922c0.095,13.363 -0.981,14.046 3.361,19.028c8.179,9.384 9.53,8.824 11.316,8.886c9.526,0.332 10.733,3.879 17.707,3.043c5.974,-0.716 7.59,-1.097 9.64,-3.542c2.358,-2.813 1.101,-3.817 0.046,-5.04Zm-205.905,-91.148c1.894,-4.549 1.318,-4.712 0.635,-14.254c-0.439,-6.136 0.365,-14.271 0.487,-15.506c1.725,-17.446 12.318,-24.738 16.824,-28.845c4.107,-3.743 5.449,-2.17 7.609,-5.558c3.889,-6.101 0.294,-7.888 -2.596,-10.369c-1.413,-1.213 -9.927,-10.402 -11.055,-12.002c-7.657,-10.855 -13.501,-17.018 -16.713,-23.092c-1.982,-3.748 -1.554,-3.9 -1.877,-5.22c-0.044,-0.181 -0.347,-1.42 -1.823,-1.452c-1.785,-0.039 -15.684,8.046 -18.816,9.134c-1.115,0.387 -6.621,2.301 -12.965,7.043c-7.425,5.55 -12.506,11.81 -13.448,12.971c-1.545,1.904 -7.342,9.046 -13.5,27.522c-4.621,13.864 -4.198,18.012 -4.244,18.841c-1.158,20.932 -4.606,21.584 -2.842,33.27c1.527,10.115 1.648,16.847 2.72,23.167c2.588,15.268 1.75,16.597 5.645,26.517c5.135,13.078 4.538,15.754 7.438,19.026c7.182,8.104 15.019,9.589 22.481,13.957c11.35,6.643 20.18,7.819 22.067,7.049c2.887,-1.178 -0.169,-10.471 1.959,-19.006c0.989,-3.968 2.364,-3.751 2.539,-15.445c0.1,-6.661 0.323,-6.632 0.51,-13.298c0.353,-12.586 1.82,-12.375 3.288,-21.076c0.671,-3.979 0.848,-3.958 5.678,-13.374Zm159.591,-92.991c0.004,-0.268 0.17,-0.605 -0.001,-0.799c-0.746,-0.841 -0.672,0.15 -0.667,0.205c0.038,0.5 0.483,0.332 0.669,0.593Zm0,0c-0.001,0.094 0.017,0.18 0.078,0.248c-0.008,-0.111 -0.037,-0.19 -0.078,-0.248Zm87.09,192.913c1.148,3.312 1.159,3.286 2.287,6.61c5.685,16.756 11.533,18.648 16.922,27.578c2.571,4.261 5.957,1.896 13.418,0.39c4.494,-0.907 9.272,-4.905 16.518,-7.078c16.383,-4.913 22.476,-7.53 36.532,-8.765c10.931,-0.96 10.858,-1.511 21.073,-5.488c5.206,-2.027 4.665,-3.106 5.608,-4.474c2.499,-3.626 5.205,-2.026 5.331,-1.992c3.527,0.955 2.468,-2.403 2.428,-2.547c-0.434,-1.598 -0.329,-1.595 -0.576,-3.251c-0.36,-2.415 -3.38,-8.441 -7.163,-13.421c-3.356,-4.417 -7.023,-13.774 -10.625,-20.647c-3.037,-5.795 -9.347,-14.456 -10.425,-15.864c-3.92,-5.119 -3.826,-5.176 -5.368,-6.824c-4.843,-5.179 -4.989,-5.028 -9.567,-10.447c-2.297,-2.719 -2.191,-2.777 -4.37,-5.601c-1.02,-1.322 -9.981,-11.273 -10.934,-12.206c-2.56,-2.505 -3.092,-1.87 -5.504,-4.497c-6.292,-6.854 -6.017,-8.627 -13.421,-15.271c-9.455,-8.484 -9.365,-8.626 -9.807,-8.754c-1.933,-0.556 -12.207,3.397 -14.379,4.701c-6.688,4.014 -9.365,7.097 -10.034,7.867c-8.771,10.099 -9.23,9.803 -12.167,15.579c-5.965,11.729 -6.507,20.995 -6.815,23.321c-0.348,2.636 -2.955,22.352 2.879,33.116c2.368,4.369 2.484,4.313 3.98,9.056c1.08,3.424 2.109,3.243 1.737,6.62c-0.569,5.168 2.161,11.545 2.443,12.288Zm-14.227,-75.7c3.264,-13.94 5.311,-15.542 10.23,-21.871c0.588,-0.757 2.499,-2.577 2.725,-2.792c1.147,-1.092 1.181,-1.035 2.27,-2.18c7.608,-7.991 7.877,-7.876 18.083,-12.031c1.855,-0.755 2.973,-0.938 3.182,-1.087c0.041,-0.029 0.216,-1.631 0.182,-1.689c-0.25,-0.44 -11.679,-3.099 -14.164,-4.68c-2.579,-1.641 -3.009,-2.655 -5.237,-0.581c-2.757,2.565 -3.548,2.844 -9.019,5.575c-6.752,3.37 -9.535,1.981 -9.728,9.548c-0.296,11.623 0.615,11.622 -0.077,23.22c-0.041,0.693 -0.493,8.272 -0.103,8.673c0.093,0.095 0.11,-0.007 1.655,-0.105Zm-109.308,-28.101c4.765,0.426 4.748,0.357 6.68,0.669c3.649,0.588 3.717,-0.8 5.878,-4.176c4.178,-6.529 3.358,-7.606 -0.027,-10.53c-2.73,-2.358 -12.018,-8.043 -14.691,-7.996c-2.484,0.044 -8.965,4.493 -7.539,10.512c0.532,2.246 0.55,2.321 -0.426,4.391c-0.541,1.146 -1.735,2.339 3.605,5.477c2.605,1.531 5.486,1.556 6.52,1.653Zm190.393,1.025c-0.92,0.048 -10.756,0.563 -11.111,3.005c-0.101,0.692 -0.23,1.586 5.171,7.052c4.572,4.627 5.283,3.939 12.314,12.005c0.581,0.666 4.556,5.225 7.169,8.4c2.591,3.147 2.927,4.681 4.16,4.735c2.455,0.107 -0.217,-2.749 -1.047,-12.271c-0.721,-8.272 0.563,-8.755 -2.53,-16.484c-1.936,-4.84 -2.202,-7.366 -5.296,-6.933c-3.805,0.533 -3.79,0.569 -4.408,0.564c-2.234,-0.017 -2.206,-0.063 -4.422,-0.074Zm-185.988,-91.526c-0.367,0.152 -0.797,0.1 -1.164,0.252c-1.828,0.757 -0.395,4.673 2.473,2.608c0.993,-0.715 0.928,-0.797 2.046,-1.306c1.657,-0.753 1.82,-1.951 0.011,-2.171c-0.46,-0.056 -1.014,0.046 -1.101,0.061c-1.161,0.213 -1.113,0.344 -2.266,0.555Zm6.458,13.865c-0.415,-0.206 -0.466,0.181 -0.887,-0.027c-0.874,-0.433 -0.558,-0.726 -0.636,-0.728c-0.217,-0.003 -0.875,2.324 -0.358,3.943c2.875,8.993 10.425,8.46 14.327,5.596c3.225,-2.368 0.947,-11.538 -1.045,-14.54c-0.84,-1.267 -1.8,-0.565 -1.929,-0.471c-1.788,1.307 2.501,4.965 1.096,10.659c-1.195,4.846 -5.733,2.85 -6.979,2.022c-3.005,-1.995 -3.28,-5.016 -3.589,-6.453Zm30.072,-8.924c0.388,0.011 0.744,0.257 1.132,0.268c0.178,0.005 1.532,-0.409 4.457,-0.36c5.89,0.1 2.408,7.4 0.684,8.443c-0.302,0.183 -0.993,0.054 -2.105,1.42c-1.431,1.756 1.201,1.647 1.372,1.64c4.09,-0.169 7.662,-7.975 5.665,-12.607c-1.002,-2.324 -4.699,-1.817 -7.842,-1.756c-0.332,0.006 -3.606,0.07 -3.754,1.766c-0.036,0.415 0.428,0.771 0.392,1.185Zm-13.251,2.172c2.648,5.997 2.269,13.015 5.34,12.812c0.092,-0.006 0.792,-0.672 0.86,-0.853c0.753,-2.005 -2.676,-4.235 -1.655,-11.952c0.097,-0.73 0.216,-1.458 0.324,-2.187c0.178,-1.207 0.404,-1.336 -0.454,-2.227c-0.721,-0.749 -4.476,-1.003 -5.437,0.037c-0.754,0.817 -0.165,2.007 1.021,4.37Zm41.424,11.068c0.011,0.357 -0.035,0.715 -0.024,1.072c0.127,4.194 6.314,4.286 7.676,-0.988c0.926,-3.586 0.541,-10.738 -1.55,-12.154c-1.001,-0.677 -5.118,-1.481 -5.617,4.301c-0.335,3.884 -0.14,3.877 -0.485,7.769Zm-23.823,16.475c0.377,-0.461 3.347,-4.088 3.627,-6.497c0.543,-4.666 -8.333,-5.216 -10.867,-2.937c-2.966,2.667 -3.766,4.54 -3.967,5.01c-2.184,5.113 -1.513,6.188 1.34,6.873c6.597,1.585 8.843,-1.469 9.867,-2.449Zm-340.442,-164.836c-0.79,-4.101 -0.907,-4.069 -0.972,-4.425c-0.401,-2.213 1.036,-3.123 -1.121,-11.143c-1.477,-5.489 4.662,-6.765 8.417,-7.659c17.521,-4.172 19.76,-2.299 21.019,-2.09c3.139,0.521 3.411,-2.106 6.675,-1.256c4.608,1.2 3.87,7.119 4.697,8.786c2.16,4.359 13.121,10.698 13.158,10.707c1.184,0.288 1.791,-0.583 1.884,-0.715c0.04,-0.057 0.649,-1.8 0.889,-4.37c0.468,-5.017 -0.012,-5.67 -3.753,-10.158c-8.415,-10.095 -1.817,-13.87 -1.355,-14.062c4.082,-1.696 5.171,2.935 5.283,3.287c1.088,3.437 1.256,3.371 3.123,5.793c6.536,8.478 6.658,9.036 5.301,19.668c-0.471,3.689 0.188,9.838 -2.816,11.93c-0.723,0.504 -2.944,2.05 -10.766,-2.349c-6.89,-3.875 -6.323,-4.646 -6.933,-4.95c-0.12,-0.06 -1.163,-0.581 -1.674,-0.016c-0.831,0.918 1.124,3.829 2.499,9.787c1.101,4.769 -1.717,6.464 -4.117,5.89c-8.703,-2.083 -9.216,-27.529 -12.371,-29.961c-1.265,-0.975 -1.462,-0.179 -8.519,-0.15c-4.303,0.018 -10.887,1.933 -11.405,2.95c-1.354,2.66 1.181,2.518 1.411,2.505c0.316,-0.018 0.303,-0.064 2.383,-0.918c3.082,-1.265 8.199,-2.361 8.985,-0.465c1.336,3.219 -3.876,6.532 -9.165,10.108c-2.547,1.722 -1.811,3.942 -0.359,10.058c0.188,0.794 2.255,9.494 2.588,9.863c1.796,1.99 2.254,0.522 10.995,-2.395c0.49,-0.163 4.57,-1.525 6.261,1.566c2.481,4.534 -4.805,7.319 -5.102,7.454c-8.546,3.891 -15.83,5.857 -19.448,-0.23c-1.055,-1.775 -4.126,-13.661 -5.689,-23.04Zm170.963,-41.877c-6.634,-15.749 -7.016,-18.736 -9.549,-34.459c-0.543,-3.369 1.933,-4.284 2.752,-4.922c0.924,-0.72 1.211,-1.618 3.702,-1.363c5.186,0.53 7.441,-2.412 15.58,-1.917c13.051,0.793 10.993,19.947 5.083,24.287c-4,2.936 -10.541,-0.626 -13.093,-2.459c-2.962,-2.128 -2.951,-2.833 -4.014,-2.197c-1.006,0.602 -0.791,0.856 -0.306,1.903c0.181,0.392 1.025,2.212 3.734,3.896c16.846,10.474 21.934,9.669 27.291,14.969c0.251,0.248 2.724,2.695 1.102,4.267c-2.238,2.169 -8.205,-1.003 -17.89,-6.041c-8.052,-4.189 -7.812,-4.801 -8.597,-4.754c-0.149,0.009 -0.08,0.309 -0.196,0.402c-0.276,0.221 -0.769,0.19 -0.934,0.502c-0.275,0.521 -0.021,0.554 2.351,6.613c1.907,4.871 3.984,9.39 1.012,10.034c-4.024,0.872 -7.164,-6.773 -8.029,-8.76Zm3.033,-31.362c1.38,2.348 2.406,4.01 5.059,5.656c4.542,2.817 5.701,-1.506 5.829,-1.982c0.471,-1.759 1.377,-8.126 -2.614,-8.648c-1.533,-0.2 -8.463,0.651 -8.901,1.853c-0.577,1.583 -0.046,1.574 0.628,3.12Zm-65.823,124.222c3.462,-3.13 13.068,-10.261 18.795,-10.188c1.203,0.015 6.454,0.082 9.947,11.276c3.43,10.99 1.552,16.935 -7.459,22.564c-5.12,3.199 -8.623,5.269 -12.541,4.426c-3.36,-0.723 -12.928,-6.728 -13.463,-15.913c-0.224,-3.841 1.421,-6.475 1.482,-6.622c1.251,-3.003 1.018,-3.165 3.238,-5.542Zm8.775,2.137c-2.94,2.825 -5.663,4.786 -3.323,10.041c1.317,2.957 4.656,5.594 7.743,5.082c0.297,-0.049 6.319,-1.424 7.46,-4.169c1.691,-4.067 -1.274,-14.765 -2.885,-15.456c-1.475,-0.632 -2.361,0.001 -4.559,1.149c-2.486,1.298 -2.439,1.37 -4.436,3.352Zm67.546,-39.822c1.144,-0.732 10.411,-6.662 15.49,-6.959c6.458,-0.378 10.765,10.129 8.486,17.954c-2.13,7.313 -5.729,7.713 -8.454,7.603c-5.755,-0.232 -10.033,-4.138 -11.135,-3.155c-1.911,1.704 3.046,4.198 3.445,4.399c10.276,5.17 20.117,4.543 23.25,5.405c2.682,0.738 2.779,2.759 1.286,3.894c-1.761,1.338 -11.677,0.492 -12.388,0.414c-6.208,-0.678 -7.563,-2.073 -7.61,0.334c-0.005,0.259 2.346,3.027 2.391,3.082c5.067,6.114 -1.137,6.187 -1.501,6.147c-4.962,-0.54 -8.219,-7.452 -9.154,-9.008c-5.324,-8.863 -7.012,-7.975 -9.811,-16.729c-2.17,-6.786 -2.156,-7.854 -1.048,-10.102c1.233,-2.503 2.548,-0.614 6.753,-3.279Zm11.213,1.419c-5.304,2.433 -10.553,4.39 -5.664,7.477c0.899,0.568 6.071,4.146 8.508,2.76c2.043,-1.162 3.027,-10.102 0.5,-10.866c-1.69,-0.511 -1.664,0.041 -3.344,0.63Zm-100.66,-33.543c-4.07,-11.766 -10.957,-24.673 -9.924,-28.661c1.961,-7.573 12.402,-11.581 19.707,-11.093c7.519,0.502 11.249,12.668 10.767,15.432c-0.662,3.796 -3.362,3.702 -8.516,4.663c-7.504,1.399 -11.289,-3.074 -12.252,-3.307c-0.302,-0.073 -1.146,0.502 -1.195,0.84c-0.079,0.557 -0.139,0.974 2.78,6.456c1.862,3.496 2.95,4.082 10.539,8.158c7.592,4.077 14.874,9.106 15.651,9.715c2.768,2.169 2.184,4.848 -0.02,4.952c-1.284,0.06 -1.385,0.065 -14.261,-7.403c-2.382,-1.382 -2.309,-1.452 -4.667,-2.857c-0.197,-0.118 -3.582,-2.133 -2.732,0.879c0.203,0.721 0.734,0.523 3.205,8.801c0.11,0.37 1.25,4.187 -1.505,4.582c-3.926,0.564 -5.923,-6.534 -7.576,-11.158Zm4.226,-33.215c-3.6,1.225 -3.678,1.088 -4.081,1.528c-0.234,0.256 -0.321,1.513 -0.148,1.753c0.36,0.497 4.692,2.654 5.112,2.863c0.411,0.205 2.752,1.37 5.729,0.43c2.325,-0.734 1.224,-3.679 1.052,-4.255c-1.488,-4.982 -5.657,-2.814 -7.665,-2.32Zm136.074,65.023c-5.002,1.203 -7.268,0.774 -6.074,5.777c0.487,2.039 0.778,5.813 9.464,6.819c7.427,0.86 12.462,-5.904 17.708,-5.489c2.269,0.179 5.891,3.667 -1.014,7.773c-10.524,6.256 -15.247,5.974 -26.621,2.008c-5.731,-1.998 -7.171,-3.363 -9.118,-15.389c-0.542,-3.347 -0.19,-3.361 -0.47,-10.027c-0.139,-3.322 -1.313,-5.815 7.28,-9.007c7.864,-2.921 16.926,-7.09 17.637,-3.108c0.697,3.904 -7.74,5.706 -14.351,8.586c-1.197,0.521 -2.561,1.174 -1.943,4.625c0.151,0.84 -0.002,1.009 0.786,1.334c2.029,0.834 4.583,-0.573 8.934,-1.597c7.819,-1.84 13.231,-4.43 15.279,-1.691c0.593,0.793 1.48,3.497 -3.066,5.227c-2.104,0.801 -5.408,1.991 -14.431,4.161Zm-96.189,26.903c-1.461,-2.987 -1.674,-4.151 -1.112,-5.519c0.399,-0.97 1.4,-1.438 3.062,-3.519c2.256,-2.824 10.139,-7.479 19.057,-7.284c9.965,0.218 10.937,10.799 5.277,14.827c-4.128,2.937 -13.58,0.232 -14.052,0.052c-0.42,-0.16 -0.806,-0.404 -1.232,-0.546c-0.138,-0.046 -1.237,-0.413 -1.82,0.122c-0.919,0.843 0.16,1.987 0.277,2.111c0.256,0.271 0.788,1.141 2.713,1.952c13.535,5.698 21.847,6.581 26.737,8.392c5.029,1.862 1.438,4.025 1.139,4.204c-1.398,0.842 -5.347,-0.125 -5.797,-0.235c-7.17,-1.755 -11.939,-2.585 -15.407,-3.673c-0.956,-0.3 -5.556,-2.163 -2.801,2.637c4.653,8.109 -1.908,11.048 -5.374,7.93c-1.324,-1.191 -1.649,-2.455 -2.097,-3.643c-3.537,-9.376 -4.741,-9.086 -8.569,-17.809Zm15.507,-5.782c1.541,0.079 3.566,0.427 5.603,-0.724c1.624,-0.918 1.982,-5.357 -5.64,-3.474c-0.42,0.104 -4.683,1.157 -5.177,1.572c-0.251,0.211 -0.436,1.438 -0.263,1.701c0.298,0.455 4.612,0.817 5.478,0.925Zm-3.234,-96.158c1.606,1.557 5.385,4.331 13.517,22.109c0.239,0.523 2.386,5.216 2.132,6.859c-0.234,1.513 -2.294,3.443 -7.237,-3.132c-4.25,-5.652 -5.734,-11.62 -8.56,-12.304c-0.872,-0.211 -7.834,-0.231 -10.974,-0.668c-2.445,-0.34 -2.647,-1.006 -3.805,0.057c-0.683,0.628 -0.685,0.664 -0.694,1.595c-0.057,5.931 2.978,20.8 0.022,22.154c-2.655,1.216 -5.066,-2.253 -5.668,-4.407c-0.455,-1.628 -1.53,-5.474 -1.618,-21.068c-0.032,-5.568 0.127,-11.732 3.307,-15.067c2.2,-2.307 4.788,-0.989 6.212,-0.835c4.372,0.472 7.815,0.106 13.366,4.707Zm-10.142,1.546c-2.848,-0.286 -2.988,-0.772 -4.066,0.052c-0.195,0.149 -1.362,1.041 -0.421,3.037c0.356,0.755 2.061,1.241 2.262,1.298c0.528,0.15 4.041,1.151 6.752,1.2c2.092,0.037 3.129,-1.617 -0.054,-3.661c-2.937,-1.886 -4.069,-1.802 -4.473,-1.925Zm-44.544,149.244c0.811,2.145 3.811,8.562 0.662,11.314c-4.013,3.507 -8.209,-7.094 -8.553,-7.963c-5.39,-13.616 -8.224,-23.998 -9.362,-24.661c-1.13,-0.659 -1.198,-0.639 -2.426,-0.215c-5.015,1.731 -13.241,8.352 -16.239,5.605c-1.356,-1.242 0.223,-3.16 0.395,-3.37c5.007,-6.082 6.512,-6.712 19.389,-12.665c6.466,-2.99 17.956,-8.669 21.589,-5.335c1.585,1.455 -0.508,4.804 -0.7,5.035c-1.281,1.544 -4.242,1.671 -11.098,4.338c-3.701,1.44 -3.589,2.402 -2.238,5.662c2.915,7.033 3.919,11.726 7.6,19.995c0.149,0.335 0.901,2.079 0.979,2.26Zm29.186,-75.208c-6.04,2.17 -7.407,1.964 -7.716,5.346c-0.428,4.69 -0.192,12.636 -4.51,12.048c-4.11,-0.56 -3.375,-7.669 -2.909,-16.452c0.202,-3.804 2.229,-14.634 6.27,-17.659c4.491,-3.361 8.283,0.395 13.254,4.304c2.227,1.751 11.028,10.073 12.762,12.58c6.657,9.622 0.182,9.413 -0.53,9.215c-3.472,-0.963 -5.193,-4.91 -9.33,-9.174c-2.872,-2.961 -3.507,-1.841 -7.292,-0.208Zm-5.713,-9.081c0.031,0.391 -0.215,0.771 -0.184,1.162c0.2,2.504 4.694,1.523 3.925,-1.267c-0.068,-0.247 -1.018,-1.191 -1.283,-1.266c-2.078,-0.591 -2.408,1.301 -2.458,1.371Zm31.032,-11.01c4.378,11.967 5.131,16.786 13.603,12.696c11.633,-5.615 15.892,-7.989 18.602,-5.017c1.103,1.209 1.318,3.984 -1.181,5.534c-0.892,0.553 -18.198,8.89 -19.821,9.218c-4.467,0.903 -11.335,-3.104 -14.479,-10.273c-2.983,-6.801 -2.481,-6.97 -5.439,-14.426c-2.721,-6.859 3.034,-6.376 4.245,-5.368c2.061,1.715 4.182,7.006 4.468,7.635Zm-86.424,-34.745c11.419,-4.573 11.33,-4.77 12.353,-5.076c0.364,-0.109 3.57,-1.07 4.203,2.21c0.969,5.02 -0.365,6.362 -0.748,6.748c-2.209,2.222 -5.306,1.238 -7.08,2.968c-1.005,0.98 -0.541,1.166 -0.16,2.525c1.284,4.577 4.398,10.805 4.53,11.104c0.95,2.141 4.367,12.492 4.817,14.23c0.095,0.365 1.197,4.623 -2.215,4.162c-3.376,-0.456 -5.122,-6.797 -9.554,-18.709c-4.212,-11.32 -3.754,-11.525 -4.422,-12.332c-2.077,-2.511 -7.077,-0.171 -8.442,-1.606c-2.829,-2.974 5.075,-5.518 6.716,-6.223Zm217.923,351.237c0.122,-0.759 -0.116,-1.864 1.411,-4.394c0.495,-0.819 1.337,-1.685 2.168,-2.249c4.304,-2.922 5.058,-3.125 5.555,-3.259c6.567,-1.768 10.302,5.911 8.234,12.292c-1.503,4.637 -8.18,8.805 -10.423,9.057c-7.429,0.834 -6.895,-7.662 -6.946,-11.447Zm9.365,60.867c-0.047,1.761 0.308,3.507 -2.235,7.894c-0.425,0.733 -2.983,5.146 -9.075,5.45c-0.579,0.029 -4.321,0.475 -5.647,-4.45c-2.829,-10.515 8.868,-17.323 13.121,-15.067c0.345,0.183 2.42,1.999 3.118,3.123c0.625,1.007 0.4,1.071 0.717,3.05Zm14.249,-129.066l2.102,-0.446c2.691,-0.38 7.577,1.693 8.436,2.644c4.92,5.449 -5.465,18.323 -12.866,14.002c-0.487,-0.284 -0.689,-0.402 -3.971,-5.828c-0.073,-0.12 -1.603,-2.305 -0.201,-5.138c2.163,-4.372 4.964,-4.695 6.5,-5.235Z" style="fill:#197367;"/></g></g></svg>