<?xml version="1.0" encoding="UTF-8" standalone="no"?><!DOCTYPE svg PUBLIC "-//W3C//DTD SVG 1.1//EN" "http://www.w3.org/Graphics/SVG/1.1/DTD/svg11.dtd"><svg width="100%" height="100%" viewBox="0 0 1080 641" version="1.1" xmlns="http://www.w3.org/2000/svg" xmlns:xlink="http://www.w3.org/1999/xlink" xml:space="preserve" xmlns:serif="http://www.serif.com/" style="fill-rule:evenodd;clip-rule:evenodd;stroke-linejoin:round;stroke-miterlimit:2;"><rect id="img3" x="0" y="-0" width="1080" height="640.476" style="fill:none;"/><clipPath id="_clip1"><rect x="0" y="-0" width="1080" height="640.476"/></clipPath><g clip-path="url(#_clip1)"><g id="Gemini_Generated_Image_g14i1hg14i1hg14i.png"><path d="M442.322,398.334c-4.231,0.964 -9.649,2.233 -16.405,3.849c-76.103,18.196 -112.941,32.618 -106.196,19.373c2.643,-5.19 5.238,-0.784 70.133,-19.54c24.343,-7.036 51.862,-9.967 42.145,-13.574c-3.834,-1.423 -121.588,33.108 -125.285,29.228c-4.163,-4.368 3.588,-9.374 117.108,-36.745c17.559,-4.234 4.063,-13.453 10.978,-30.756c12.673,-31.706 9.108,-33.231 45.501,-94.99c3.262,-5.535 4.846,-3.65 74.777,-16.03c107.208,-18.979 108.172,-18.782 179.251,-26.094c6.296,-0.648 5.96,-2.537 78.463,-10.112c8.652,-0.904 56.237,-7.907 57.229,-9.106c1.923,-2.324 21.381,-57.873 65.916,-35.027c8.558,4.39 11.224,12.634 22.14,31.753c8.55,14.975 14.553,92.06 12.423,124.16c-1.381,20.815 4.048,36.196 -14.411,26.431c-0.857,-0.454 -3.888,-4.762 -4.351,0.42c-0.467,5.226 -102.961,33.583 -124.796,37.865c-16.315,3.199 -60.761,19.008 -104.245,27.285c-20.27,3.858 -19.353,6.63 -39.933,10.184c-4.441,0.767 -3.924,3.038 -55.024,12.087c-18.464,3.269 -41.191,13.8 -140.595,37.533c-2.651,0.633 -2.019,2.308 -31.907,11.96c-9.744,3.147 -10.649,-0.535 -37.453,9.596c-19.478,7.362 -16.688,-4.462 -15.028,-5.486c1.535,-0.947 2.899,2.024 5.763,1.183c9.849,-2.893 9.674,-3.156 122.905,-36.879c22.574,-6.927 -13.163,-4.125 -27.815,1.959c-35.033,14.549 -105.238,31.188 -106.691,29.794c-2.262,-2.171 -0.677,-4.788 0.284,-5.118c35.126,-12.06 132.89,-37.578 104.971,-35.136c-3.852,0.337 -109.861,33.207 -111.334,32.304c-2.577,-1.578 -3.269,-7.351 32.984,-18.408c72.318,-22.056 75.1,-20.647 74.515,-24.986c-0.789,-5.844 -3.397,-3.678 -24.366,-10.186c-6.891,-2.139 -4.478,7.257 -11.669,5.811c-9.063,-1.824 -8.523,-5.202 -17.46,-3.595c-30.267,5.442 -30.485,4.047 -77.501,16.952c-24.085,6.611 -26.84,3.47 -28.339,1.763c-0.254,-0.289 -9.113,-4.084 -4.836,-7.657c0.798,-0.667 78.324,-21.627 108.585,-30.555c3.261,9.851 13.544,14.409 15.193,15.14c8.47,3.755 6.628,-2.068 8.217,-11.088c0.124,-6.215 -24.369,-13.122 -24.4,-10.553c-0.021,1.786 0.182,3.448 0.557,4.992Zm123.92,-110.632c2.621,-12.928 2.65,-12.837 2.83,-13.962c1.113,-6.948 -33.371,-6.872 -36.329,-6.865c-2.041,0.005 -1.676,0.975 -7.464,24.402c-0.625,2.529 2.886,2.656 27.456,7.752c13.391,2.777 11.495,-3.743 13.506,-11.327Zm114.025,116.818c-42.119,9.461 -41.069,13.552 -91.194,20.926c-2.696,0.397 -1.996,2.216 -31.624,12.665c-57.557,20.299 44.199,-12 77.294,-17.356c30.679,-4.966 307.555,-77.26 305.371,-82.205c-1.272,-2.879 -24.744,4.713 -47.709,10.92c-80.04,21.636 -81.514,15.468 -160.531,41.182c-0.089,0.029 -21.1,2.959 -51.608,13.868Zm-114.276,-90.853c-4.62,42.84 -14.402,61.489 -5.518,67.283c6.364,4.15 -4.541,4.911 -3.195,12.349c3.281,18.135 -0.89,18.058 -0.323,36.376c0.246,7.932 11.754,-6.908 44.8,-13.481c1.65,-0.328 19.943,-3.967 20.002,-6.497c1.83,-79.371 -4.421,-87.657 -2.95,-105.46c0.264,-3.195 3.35,-40.552 -4.053,-39.868c-3.234,0.299 -38.207,3.528 -39.47,9.483c-0.679,3.2 -5.468,25.782 -9.292,39.815Zm27.642,-29.233c0.523,0.162 13.176,-2.78 13.646,18.615c0.525,23.929 -2.979,33.559 -25.113,24.092c-5.142,-2.199 -4.883,-5.126 -5.312,-32.309c-0.161,-10.224 15.199,-10.382 16.779,-10.398Zm-41.108,20.249c-2.32,-0.461 -27.515,-5.472 -29.144,-5.02c-1.189,0.331 -7.378,16.11 -7.941,17.544c-1.202,3.063 -0.319,5.712 38.454,14.599c1.876,0.43 3.938,0.151 6.933,-24.076c0.201,-1.626 -0.559,-1.061 -8.303,-3.047Zm-107.425,37.167c-0.264,0.755 -3.298,9.449 -1.309,9.913c14.029,3.274 21.041,3.699 17.675,-10.116c-0.794,-3.259 -7.884,-10.576 -8.681,-11.399c-3.221,-3.324 -2.742,0.709 -7.685,11.602Zm328.652,-65.663c-1.285,-2.671 -2.604,-7.356 -25.154,3.806c-5.081,2.515 -2.308,44.249 -2.164,45.253c6.328,44.07 3.751,44.269 4.545,48.047c1.157,5.503 27.442,-3.663 27.097,-6.997c-2.276,-22.032 1.087,-60.369 -4.324,-90.11Zm-1.318,50.211c-0.443,1.485 -6.278,21.059 -15.583,11.509c-4.363,-4.478 0.429,-25.206 -4.053,-43.013c-1.259,-5.002 9.288,-10.467 14.379,-9.93c9.578,1.011 5.356,39.895 5.256,41.433Zm-142.038,51.638c-0.064,14.735 -1.237,14.559 -1.167,29.287c0.024,4.97 20.809,-1.668 20.998,-4.596c0.882,-13.68 -8.38,-100.711 3.376,-111.21c1.644,-1.468 29.646,-13.508 34.723,-1.261c18.823,45.41 -1.672,104.313 9.697,100.919c22.168,-6.618 22.444,-4.984 44.496,-11.929c2.955,-0.931 1.887,-2.112 0.29,-38.721c-0.823,-18.878 -3.19,-18.545 -2.938,-37.49c0.191,-14.362 -7.57,-27.591 29.532,-35.486c17.946,-3.819 13.75,29.23 15.028,67.149c0.971,28.796 -1.697,32.528 3.794,31.666c21.479,-3.37 20.767,-5.654 42.226,-9.222c7.176,-1.193 3.235,-5.019 2.247,-89.263c-0.165,-14.036 36.461,-26.496 38.885,-12.915c7.262,40.693 5.845,89.471 10.41,88.934c6.885,-0.81 35.496,-8.779 38.558,-9.632c7.364,-2.051 5.915,-5.444 4.488,-45.28c-0.656,-18.292 0.081,-18.2 -2.8,-36.398c-3.789,-23.929 2.676,-32.318 -12.096,-31.335c-16.074,1.07 -126.013,15.208 -129.001,15.9c-57.431,13.298 -58.289,7.702 -115.938,19.272c-36.811,7.388 -39.767,5.645 -39.193,10.322c1.085,8.844 -0.891,8.811 4.385,111.291Zm162.909,-97.279c-0.016,-0.411 -3.387,-24.161 4.31,-28.087c30.591,-15.604 21.809,26.477 21.218,29.311c-0.729,3.493 -23.48,14.212 -25.528,-1.224Zm113.359,-42.373c6.657,4.127 9.59,33.935 -4.753,35.315c-17.14,1.649 -13.681,-6.2 -15.265,-23.399c-1.41,-15.308 4.922,-14.328 20.019,-11.916Zm-184.207,66.57c-4.64,1.059 -19.649,7.9 -20.813,-5.449c-1.932,-22.147 -6.022,-30.699 15.081,-31.634c2.379,-0.105 13.121,-4.554 12.349,25.772c-0.205,8.057 -0.637,8.602 -6.617,11.31Zm-237.935,99.183c-8.872,-3.242 -11.546,-3.522 -13.5,5.647c-0.922,4.328 26.072,10.178 27.266,7.904c5.725,-10.897 -2.354,-8.929 -13.767,-13.551Zm472.54,-164.208c-3.489,2.359 -7.5,5.071 -2.558,52.579c3.16,30.376 2.362,32.141 4.827,31.492c6.435,-1.693 8.43,-3.929 3.62,-83.098c-0.153,-2.52 -5.429,-1.098 -5.89,-0.973Zm-115.09,21.799c-2.59,2.341 -2.902,2.733 -1.733,70.6c0.377,21.884 1.222,22.625 3.039,22.535c1.112,-0.055 29.8,-5.616 29.506,-10.802c-0.41,-7.251 -4.825,-85.324 -9.51,-90.281c-2.472,-2.615 -3.056,-0.509 -21.302,7.948Zm2.589,42.47c-1.33,-16.008 -4.429,-36.949 10.44,-38.906c14.011,-1.845 8.232,41.987 5.849,44.746c-10.679,12.362 -15.881,-4.517 -16.289,-5.84Zm70.432,-94.988c1.341,3.494 1.319,4.841 6.893,3.865c32.551,-5.698 33.553,-5.727 33.828,-8.503c0.795,-8.027 -5.826,-12.356 -6.809,-12.998c-7.999,-5.229 -46.452,5.254 -50.37,6.322c-13.961,3.806 9.953,-0.201 16.458,11.315Zm-3.796,2.538c-58.888,-18.185 -62.491,-4.91 -112.456,-1.74c-31.95,2.027 -31.352,5.377 -63.269,8.561c-12.155,1.213 -105.73,10.547 -151.269,20.807c-52.603,11.851 -77.214,10.516 -67.714,14.108c1.296,0.49 15.146,5.727 16.285,5.914c18.269,2.987 18.514,0.223 36.317,4.768c6.782,1.732 19.876,-3.852 40.991,-5.489c47.562,-3.687 56.356,-12.292 78.534,-13.758c53.064,-3.509 79.604,-13.371 111.37,-17.601c46.868,-6.24 46.866,-4.865 93.777,-11.695c6.92,-1.008 19.648,0.438 17.434,-3.874Zm-359.356,148.784c-0.105,-1.184 0.608,-2.346 0.503,-3.53c-0.259,-2.92 -15.26,0.478 -18.326,4.739c-8.044,11.177 -0.864,12.598 12.711,15.487c4.582,0.975 2.697,-2.066 5.112,-16.696Zm-46.943,59.732c1.292,10.088 6.915,5.107 11.123,9.622c12.351,13.254 39.936,10.498 34.229,-9.621c-0.496,-1.749 -1.416,-0.234 -22.112,-5.245c-1.695,-0.41 -20.911,-5.063 -21.564,-3.164c-0.223,0.649 -0.124,0.623 -1.676,8.407Zm184.092,-87.926c-0.114,-2.238 -0.051,-25.962 -5.556,-38.459c-3.877,-8.803 -26.211,1.985 -27.208,3.622c-4.634,7.607 -0.168,100.849 -0.066,101.592c0.859,6.286 30.04,-4.697 30.618,-5.349c1.248,-1.408 2.133,-56.49 2.212,-61.405Zm-21.393,-30.242c4.254,-0.663 4.201,-1.761 8.057,-0.125c5.629,2.387 11.835,61.251 -10.238,53.239c-2.521,-0.915 -6.776,-43.388 2.181,-53.114Zm-126.569,81.332c-16.376,-3.914 -16.197,-3.642 -32.857,-6.916c-33.378,-6.558 -31.982,-10.622 -64.623,-19.225c-2.162,-0.57 -9.523,-0.267 -1.306,27.917c0.183,0.626 24.558,10.145 30.673,10.001c15.392,-0.363 13.944,7.262 72.634,16.002c0.745,0.111 7.504,1.118 7.095,-6.196c-1.37,-24.439 -8.498,-20.72 -11.614,-21.584Zm-41.189,-15.617c4.852,0.915 26.24,6.174 27.003,3.208c4.125,-16.034 5.847,-17.086 24.614,-19.941c2.421,-0.368 7.031,-12.376 1.107,-13.759c-36.578,-8.543 -38.26,-14.366 -40.392,-9.392c-5.998,13.992 -4.27,17.975 -9.89,15.981c-3.247,-1.152 -46.831,-16.611 -41.707,-10.703c11.463,13.217 -3.039,19.178 4.027,22.778c17.848,9.092 32.301,11.366 35.238,11.828Zm459.919,-152.798c-3.089,-5.959 -4.684,-3.064 -11.057,-1.497c-13.559,3.332 -24.471,1.752 -23.636,6.351c8.137,44.797 5.009,54.99 7.818,104.243c0.472,8.277 9.926,2.985 14.762,3.037c8.245,0.088 0.344,-20.786 -0.861,-73.349c-0.3,-13.101 -2.731,-17.376 10.287,-19.457c11.995,-1.917 4.381,-7.288 2.687,-19.328Zm-669.013,334.341c0.184,5.225 0.722,5.176 -0.905,10.296c-4.914,15.465 -28.92,-1.784 -10.927,-26.507c17.332,-23.815 24.211,7.506 12.215,13.464l-0.383,2.747Zm-4.249,-15.476c-7.936,10.746 3.67,5.544 3.812,4.811c1.041,-5.355 -0.506,-8.064 -3.812,-4.811Zm653.992,32.745c-18.769,3.662 -17.753,8.413 -37.393,11.903c-17.952,3.19 -17.515,4.362 -35.314,8.8c-15.63,3.898 -15.664,2.733 -33.799,7.687c-3.582,0.978 -35.381,46.695 -54.188,14.058c-2.248,-3.901 -50.05,9.494 -54.856,8.05c-16.591,-4.985 -107.327,-0.896 -127.572,-22.404c-12.631,-13.419 20.962,-71.669 16.042,-74.54c-18.108,-10.568 -12.684,-16.601 0.729,-32.675c6.163,-7.386 7.557,-5.252 17.01,-2.576c3.41,0.965 9.258,-28.467 26.915,-32.175c14.203,-2.983 14.182,-1.752 28.306,-5.053c17.151,-3.738 165.35,-33.051 168.647,-34.521c13.635,-6.081 35.889,7.118 46.466,-6.257c2.979,-3.767 123.413,-20.393 125.878,-19.616c19.037,5.999 51.156,11.642 51.898,36.454c0.852,28.494 2.25,55.741 -4.266,85.476c-2.495,11.385 -13.246,12.937 -13.211,16.519c0.41,42.09 -34.318,37.048 -37.033,22.302c-1.752,-9.515 -5.616,-4.887 -15.024,-3.902c-9.803,1.026 -8.104,4 -12.262,12.927c-11.884,25.514 -27.791,15.57 -32.82,7.667c-0.988,-1.552 -1.471,-2.312 -22.943,1.645l-0.012,0.002c0.547,-5.178 1.292,-13.074 2.283,-24.258c0.695,-7.851 4.783,-54.011 4.45,-98.419c-0.005,-0.704 -2.215,0.059 -2.76,-8.35c-0.021,-0.322 -4.184,-7.892 -3.824,1.285c0.62,15.839 0.888,15.625 1.456,24.541c1.564,12.268 -2.152,81.909 -2.8,105.427Zm-124.94,22.515c0.64,-13.244 -14.616,-7.29 -15.03,3.455c-0.322,8.359 7.666,11.143 15.03,-3.455Zm217.469,-99.031c-48.764,9.773 -80.65,11.288 -80.876,15.654c-2.598,50.141 -3.776,53.887 1.363,52.892c15.401,-2.981 4.773,-12.623 18.013,-31.41c5.77,-8.188 20.152,-14.091 26.283,3.266c2.25,6.371 0.82,10.177 7.241,8.067c13.307,-4.372 17.326,0.355 22.835,-12.588c2.11,-4.958 14.023,-20.7 30.944,-9.397c10.413,6.956 15.643,-35.308 10.67,-34.978c-18.821,1.248 -18.573,1.983 -36.473,8.493Zm-315.241,-21.286c-4.806,-1.384 -25.494,-7.339 -62.021,-7.816c-3.639,-0.048 -10.511,9.713 -10.624,10.804c-0.399,3.84 51.891,10.769 59.875,11.719c22.428,2.669 43.328,11.477 45.78,10.751c3.198,-0.946 11.441,-14.292 -33.01,-25.457Zm215.516,-20.732c-4.877,13.045 2.98,43.524 -5.375,112.811c-0.254,2.109 5.711,4.712 6.092,-5.83c0.285,-7.87 5.84,-97.73 -0.129,-119.679c-3.333,-12.257 -56.987,-27.935 -33.219,-17.382c7.474,3.318 31.092,8.811 32.63,30.081Zm-15.987,-39.331c0.549,0.371 -0.573,1.618 -0.024,1.989c2.738,1.849 6.039,2.685 9.028,4.093c1.285,0.605 8.534,4.019 15.048,9.413c9.557,7.915 9.359,14.919 33.285,9.094c25.561,-6.223 26.069,-2.829 43.389,-6.916c20.897,-4.931 21,-3.518 42.127,-7.305c0.999,-0.179 16.216,-2.907 7.689,-10.093c-29.166,-24.578 -67.112,-13.049 -150.543,-0.276Zm-0.041,37.751c-76.94,21.309 -158.886,35.573 -158.881,39.337c0.012,8.719 -2.033,13.79 6.267,11.306c18.072,-5.408 43.617,-8.628 68.155,-15.793c12.99,-3.793 13.491,-1.288 25.838,-6.985c13.271,-6.124 14.528,-1.633 32.731,-9.568c6.467,-2.819 32.816,-1.216 32.974,-7.02c0.025,-0.922 0.29,-10.62 -0.451,-11.518c-0.907,-1.101 -0.989,-0.502 -6.634,0.241Zm-235.636,8.909l-0.073,1.175c17.095,0.866 18.322,1.098 19.889,1.394c35.398,6.701 45.478,13.272 48.917,15.514c13.284,8.66 14.328,1.575 77.62,-11.51c64.125,-13.258 63.24,-16.541 95.067,-21.688c15.641,-2.529 -39.872,-27.278 -63.432,-21.656c-57.281,13.67 -62.968,12.086 -71.491,14.099c-46.936,11.085 -47.259,9.289 -51.308,10.355c-51.205,13.491 -55.138,7.793 -55.189,12.316Zm-31.009,146.863c-13.584,-4.209 -19.51,-1.535 -18.228,-15.593c0.303,-3.321 -30.922,-11.185 -31.912,-8.325c-7.098,20.515 37.706,23.203 50.542,25.749c7.32,1.452 -0.257,-1.796 -0.403,-1.831Zm39.294,-112.22c-9.876,-2.963 -9.785,-3.064 -10.666,-3.2c-32.643,-5.055 -36.432,-11.806 -41.724,-0.744c-1.993,4.165 -14.227,29.738 -24.116,52.436c-3.983,9.142 3.72,5.204 4.409,3.417c1.645,-4.265 18.285,-47.41 22.955,-52.33c2.713,-2.859 19.346,1.19 20.981,1.588c32.442,7.897 67.922,7.958 80.679,15.883c6.713,4.17 2.117,6.309 -11.814,53.75c-0.86,2.93 4.385,2.218 4.802,2.161c1.667,-0.226 13.242,-47.348 14.77,-56.124c1.976,-11.349 -55.29,-16.397 -60.278,-16.837Zm-27.719,114.974c6.097,1.597 53.39,3.981 58.039,4.215c9.09,0.458 11.942,-16.714 7.037,-16.611c-4.191,0.088 -52.201,1.094 -52.386,1.337c-4.824,6.309 -4.57,6.448 -11.721,9.678c-0.123,0.056 0,0 -0.968,1.381Zm-53.439,-99.286c-1.594,8.497 6.872,12.716 11.323,3.308c0.661,-1.397 8.077,-17.071 6.248,-18.278c-6.886,-4.545 -13.669,9.287 -17.572,14.97Zm442.014,-57.402c-10.339,4.011 -2.546,36.513 1.846,25.59c1.555,-3.866 1.737,-21.358 1.756,-23.22c0.028,-2.678 -0.862,-2.22 -3.603,-2.37Zm-196.115,50.446c1.103,19.345 2.288,19.937 3.819,19.507c2.522,-0.707 7.388,-2.073 3.969,-32.495c-0.39,-3.474 -3.441,-2.023 -3.744,-1.879c-5.888,2.799 -3.976,12.061 -4.043,14.867Zm139.962,-51.12c32.199,-5.979 32.035,-5.863 64.359,-9.846c11.913,-1.468 14.694,-2.166 13.578,-13.936c-0.325,-3.43 -69.777,13.129 -115.584,17.265c-2.941,0.266 -3.629,10.926 -3.694,11.922c-0.215,3.328 2.205,2.652 41.341,-5.405Zm-14.855,27.694c1.873,-13.766 1.362,-14.137 0.402,-14.834c-9.822,-7.134 -13.792,33.289 -4.225,29.421c2.788,-1.127 3.731,-13.383 3.823,-14.586Zm62.667,54.949c-8.06,17.73 5.87,10.479 6.285,9.657c0.959,-1.898 2.194,-17.773 -6.285,-9.657Zm-141.446,-36.224c-0.005,-0.396 -0.168,-20.661 -0.403,-21.031c-7.37,-11.612 -10.55,31.972 -5.527,34.664c1.048,0.562 5.379,2.344 5.929,-13.633Zm79.019,47.872c-4.881,19.984 7.541,11.186 8.214,10.37c7.362,-8.925 -0.997,-21.145 -8.214,-10.37Zm-185.273,-25.667c0.658,-14.964 1.175,-15.211 0.156,-15.92c-8.745,-6.083 -12.519,35.682 -6.683,34.453c5.829,-1.228 6.299,-17.16 6.527,-18.533Zm-62.767,52.783c-3.914,0.184 -8.442,-3.608 -8.269,5.882c0.08,4.373 -5.114,11.03 -3.276,11.204c17.678,1.673 15.179,-14.128 14.907,-15.847c-0.206,-1.305 -0.677,-0.787 -3.362,-1.239Zm92.261,-43.843c0.769,-0.777 2.365,-1.204 2.549,-5.369c1.183,-26.726 1.905,-26.903 1.012,-27.815c-8.094,-8.271 -7.91,20.094 -7.898,21.961c0.051,7.905 -3.531,12.925 4.337,11.222Zm-168.476,64.238c-16.324,-2.944 -16.163,-4.269 -17.42,-3.603c-10.431,5.523 16.572,15.385 23.438,13.02c19.653,-6.769 -5.128,-9.325 -6.017,-9.417Zm56.007,-13.405c0.198,11.174 8.326,-0.405 4.953,-3.428c-2.275,-2.039 -4.741,2.995 -4.953,3.428Zm-3.303,-10.271c-37.128,-5.386 -36.344,-10.07 -73.798,-11.428c-12.529,-0.454 -25.538,-9.399 -28.882,3.118c-2.163,8.099 -4.505,10.215 3.15,13.872l5.863,2.829c15.687,2.654 51.242,14.78 92.602,12.626c4.71,-0.245 -6.539,-7.438 1.684,-18.702c0.457,-0.626 0.098,-0.59 0.21,-1.262l-0.83,-1.053Zm-94.731,5.58c-4.165,-4.472 -5.195,-4.399 -4.251,-10.366c0.108,-0.684 0.858,-5.421 5.642,-6.57c15.915,-3.821 19.281,23.355 -1.391,16.936Zm5.572,-3.91c3.031,-2.651 4.607,-3.039 2.079,-6.214c-4.128,-5.184 -11.029,6.234 -2.079,6.214Zm299.179,-56.452c-30.39,6.1 -29.439,9.621 -50.551,12.34c-6.52,0.84 -5.029,5.786 -79.592,20.427c-2.655,0.521 -2.491,0.972 -32.797,8.248c-14.376,3.451 -11.206,7.701 -15.558,21.691c-0.81,2.602 -11,35.356 -3.332,33.902c39.735,-7.531 43.077,-5.54 45.705,-16.258c4.425,-18.05 4.914,-18.998 21.375,-27.645c9.573,-5.029 25.322,-1.962 28.11,19.415c1.183,9.073 5.732,0.919 29.004,-1.711c3.523,-0.398 3.018,-2.455 43.347,-9.214c19.439,-3.258 18.174,-8.136 19.152,-27.704c0.131,-2.631 1.392,-27.852 1.187,-32.906c-0.164,-4.03 -2.105,-1.484 -6.047,-0.587Zm-143.828,2.946c-3.688,-16.024 -15.063,4.002 -12.49,15.374c0.35,1.546 11.52,9.8 12.49,-15.374Zm243.514,-35.111c1.298,-24.921 0.655,-26.033 -1.371,-25.678c-8.593,1.507 -5.716,18.812 -4.993,26.885c0.114,1.278 4.444,8.402 6.365,-1.207Zm-340.16,74.237c9.528,-1.084 8.287,-13.74 3.726,-15.016c-18.376,-5.14 -22.373,-5.067 -24.938,7.564c-0.917,4.515 11.246,5.349 21.212,7.451Zm-575.479,-497.857c38.748,-5.013 39.989,-1.626 45.882,-0.013c23.109,6.325 23.982,8.209 31.028,31.122c2.064,6.712 16.174,103.401 16.749,108.914c0.621,5.947 12.592,-14.948 22.379,-28.2c47.872,-64.819 45.885,-69.602 64.533,-72.185c5.695,-0.789 55.423,33.237 63.151,40.668c21.858,21.021 49.362,33.953 53.451,50.452c4.673,18.855 -25.949,68.869 -75.049,124.547c-32.456,36.804 -32.502,60.629 -75.307,36.551c-56.247,-31.639 -74.245,-46.076 -80.168,-50.828c-2.875,-2.306 -39.636,10.966 -65.502,14.458c-68.643,9.267 -72.464,-3.955 -76.188,-14.693c-2.435,-7.022 -8.293,-44.816 -8.484,-49.234c-0.874,-20.26 -3.742,-19.725 -6.121,-39.922c-7.875,-66.871 -20.193,-110.186 -7.198,-128.584c10.014,-14.177 72.747,-19.986 96.844,-23.055Zm185.036,207.093c-12.197,-8.174 -15.861,-11.898 -16.422,-5.004c-0.137,1.68 -0.21,2.587 16.545,13.04c0.414,0.258 8.089,-2.385 -0.123,-8.035Zm-87.575,-23.823l0.983,0.198c12.689,-10.164 10.02,-13.604 8.235,-13.221c-9.114,1.959 -9.151,3.676 -9.218,13.023Zm35.992,0.258c-7.748,-6.693 -9.344,-11.235 -15.676,-5.553c-2.327,2.088 11.486,10.675 13.568,10.527c4.687,-0.334 2.318,-4.596 2.108,-4.973Zm20.13,2.118c-12.899,-0.144 -30.342,23.54 -32.317,26.221c-1.072,1.455 -5.073,6.888 13.901,17.814c7.935,4.57 40.835,-32.12 18.416,-44.035Zm-40.07,0.281c-14.701,-8.073 5.025,16.908 9.426,12.474c5.203,-5.243 -3.035,-8.284 -9.426,-12.474Zm21.431,-21.671c16.804,7.769 12.075,-4.474 11.228,-4.972c-8.125,-4.784 -11.071,-7.043 -14.573,1.859c-0.598,1.519 0.245,1.163 3.345,3.114Zm44.393,85.879c-5.204,8.533 5.489,11.833 11.423,1.014c0.402,-0.733 3.712,-6.768 -0.82,-10.418c-4.053,-3.264 -10.529,9.295 -10.603,9.404Zm-5.737,-64.341c2.37,-2.353 4.469,-2.496 2.035,-4.603c-1.61,-1.393 -19.405,-16.791 -21.882,-15.138c-11.763,7.85 -0.344,9.236 10.135,18.73c4.228,3.831 4.933,4.076 9.712,1.01Zm-37.801,-14.963c-6.405,-2.184 -5.515,1.249 -5.171,1.509c10.043,7.573 8.965,8.801 10.034,8.884c0.915,0.072 5.678,-2.368 -4.863,-10.393Zm29.599,45.704c7.3,-2.038 21.179,20.653 19.325,7.856c-0.424,-2.927 -16.959,-15.456 -19.182,-12.756c-9.082,11.03 -6.273,12.691 -5.289,13.272c1.936,1.144 17.08,20.912 19.806,11.017c0.844,-3.064 -18.31,-12.571 -14.66,-19.389Zm26.509,-41.377c-2.591,-13.222 -6.518,-10.774 -11.009,-16.751c-9.608,-12.791 -26.024,-3.914 -27.001,-2.875c-3.778,4.016 31.921,26.684 34.973,28.622c0.641,0.407 1.919,0.529 3.037,-8.995Zm-76.652,31.832c0.822,-1.71 1.543,-1.762 0.185,-2.93c-11.861,-10.203 -10.909,-11.246 -12.233,-11.454c-7.449,-1.169 3.628,21.482 12.048,14.384Zm78.206,-6.032c3.785,-4.399 -10.686,-14.495 -11.37,-13.571c-10.344,13.973 7.989,16.066 11.37,13.571Zm-21.849,47.124c1.579,-5.124 -9.954,-11.807 -14.068,-17.036c-5.836,-7.417 -8.664,0.519 -9.767,1.583c-5.075,4.898 0.792,4.277 6.48,8.722c6.98,5.455 12.899,12.896 17.355,6.731Zm-99.383,-202.983c-4.117,-21.12 -6.197,-20.508 -6.442,-22.353c-0.61,-4.591 -3.187,-23.97 -55.196,-17.478c-84.769,10.581 -84.073,14.26 -91.434,15.149c-2.37,0.286 -15.75,1.903 -15.027,25.783c0.443,14.638 15.271,114.708 15.292,114.816c12.586,64.779 6.364,78.426 21.175,88.652c20.306,14.02 117.798,-12.678 131.973,-17.473c31.504,-10.657 18.837,-21.541 17.268,-54.689c-1.757,-37.117 -10.234,-77.896 -17.608,-132.407Zm-105.342,172.25c2.753,-13.33 7.468,1.627 6.881,5.8c-0.1,0.713 -4.701,6.001 -6.881,-5.8Zm-7.867,-10.265c-34.947,-10.176 2.952,-54.656 6.746,-31.918c1.205,7.223 -8.141,0.553 -10.036,3.658c-1.214,1.99 -9.046,24.456 6.752,14.995c7.768,-4.652 10.85,9.835 -3.462,13.265Zm41.968,9.146c1.438,14.898 -11.152,-1.616 -6.332,-5.358c2.545,-1.976 6.028,4.769 6.332,5.358Zm50.601,-12.96c0.16,-8.435 5.762,-2.244 6.646,-0.924c1.931,2.883 -1.921,9.406 -6.646,0.924Zm-93.635,-161.248c27.514,-3.517 61.059,-8.294 79.202,6.972c2.311,1.944 15.936,51.49 11.117,71.097c-0.782,3.184 -3.183,12.95 -35.486,20.498c-62.897,14.697 -65.574,-3.003 -71.487,-38.099c-0.628,-3.725 -7.211,-42.803 -5.634,-46.88c4.296,-11.104 18.656,-12.446 22.288,-13.588Zm24.542,83.865c0.306,0.07 0.157,0.283 3.682,1.356c0.073,0.825 1.115,12.593 4.553,9.299c0.415,-0.398 0.024,-10.691 4.33,-6.863c3.577,3.179 1.156,8.451 5.004,5.667c0.615,-0.445 -0.136,-12.519 4.623,-7.07c0.33,0.378 0.949,7.147 6.054,4.983c1.36,-0.577 0.434,-18.847 6.752,-3.775c3.024,7.213 4.937,-12.214 9.303,-5.764c4.581,6.768 17.649,2.076 14.959,-18.85c-1.831,-14.239 0.08,-14.322 -2.807,-28.313c-6.289,-30.481 -12.389,-31.112 -43.608,-30.466c-4.234,0.088 -52.891,1.094 -51.852,10.652c5.849,53.804 6.467,78.196 23.792,81.741c12.087,2.473 14.114,0.761 13.58,-4.319c-0.071,-0.671 -0.256,-2.432 1.636,-8.279Zm10.751,-4.721c-3.515,-21.303 5.847,0.689 5.965,1.161c0.118,0.472 -2.325,9.338 -5.965,-1.161Zm17.176,-3.403c1.396,6.083 -4.985,5.974 -5.704,-0.059c-0.054,-0.453 0.728,-9.507 5.704,0.059Zm-40.59,4.598c0.604,-7.68 4.709,-3.14 5.483,0.054c0.103,0.426 -1.83,11.057 -5.483,-0.054Zm16.278,-58.469c1.073,-1.27 11.641,-13.777 15.085,-14.288c11.383,-1.689 -0.279,28.577 0.163,30.555c2.911,13.042 8.446,-8.477 8.702,-9.474c11.348,-44.114 43.665,16.352 14.282,33.638c-20.92,12.307 -30.956,-3.667 -33.319,-0.416c-15.523,21.362 -50.459,1.724 -40.369,-31.956c11.25,-37.551 25.938,13.319 34.133,14.292c7.781,0.924 -7.575,-6.936 1.323,-22.35Zm43.398,24.594c0.501,-1.814 3.494,-12.641 -2.77,-23.361c-9.449,-16.171 -15.487,25.035 -24.355,31.493c-5.827,4.243 -5.302,-12.124 -5.546,-13.003c-2.978,-10.724 1.395,-10.307 3.814,-21.112c3.222,-14.397 -15.003,6.517 -12.052,14.067c5.906,15.109 0.762,18.061 10.35,24.607c15.12,10.324 29.085,-10.493 30.56,-12.691Zm-42.419,11.61c2.406,-6.41 -0.202,-6.025 -3.167,-8.541c-19.654,-16.676 -17.329,-24.168 -19.475,-27.391c-1.227,-1.843 -7.814,-3.345 -10.912,25.429c-0.482,4.474 20.801,28.499 33.553,10.504Zm35.191,14.101c0.813,8.615 -5.801,3.287 -5.102,-0.121c1.042,-5.082 4.851,-0.201 5.102,0.121Zm49.614,86.639c0.013,11.222 -10.707,-1.44 -6.028,-4.314c3,-1.843 5.766,3.782 6.028,4.314Zm-29.256,6.917c2.525,9.922 -9.696,3.374 -6.482,-2.308c2.114,-3.737 6.16,1.862 6.482,2.308Zm-33.562,3.803c0.303,-7.406 5.368,-4.422 7.422,1.07c0.21,0.562 -1.513,9.422 -7.422,-1.07Zm-16.173,-42.103c29.602,23.923 -11.443,46.408 -15.416,25.674c-0.41,-2.141 -4.806,-25.078 -1.037,-27.224c4.667,-2.657 15.208,1.106 16.453,1.55Zm-7.691,22.016c3.864,14.335 18.383,-12.819 0.738,-16.106c-4.976,-0.927 -1.935,2.447 -0.738,16.106Zm44.35,17.511c4.36,11.244 -10.387,2.248 -6.788,-3.02c2.057,-3.011 6.421,2.552 6.788,3.02Zm23.241,-45.6c9.397,7.496 6.581,-8.324 14.099,-7.421c5.474,0.657 -1.96,16.876 -0.008,19.137c0.663,0.768 13.881,16.072 2.427,12.453c-3.718,-1.175 -5.675,-7.311 -8.692,-0.845c-2.084,4.467 -9.504,6.705 -7.579,-4.485c1.293,-7.517 0.643,-7.758 -4.872,-13.048c-0.428,-0.41 -10.783,-13.905 4.624,-5.791Zm-66.142,55.186c-2.18,14.148 -10.145,-5.921 -4.16,-6.883c1.82,-0.293 3.961,6.271 4.16,6.883Zm43.581,-53.017c16.798,-17.272 17.858,28.586 16.787,29.631c-7.102,6.924 -10.46,-20.966 -10.571,-21.295c-2.968,-8.795 -1.753,22.2 -11.698,12.837c-8.158,-7.681 -1.741,4.044 -4.149,10.466c-4.438,11.833 -12.289,-17.985 -11.097,-27.89c0.119,-0.989 1.302,-6.638 12.1,2.929c2.694,2.387 3.727,1.152 8.627,-6.677Zm92.034,103.301c21.732,12.849 41.083,30.599 54.723,26.94c6.992,-1.875 6.447,-3.043 59.837,-67.876c0.123,-0.165 53.232,-67.305 55.316,-90.274c0.343,-3.779 1.212,-13.362 -31.122,-35.801c-25.884,-17.963 -22.958,-21.624 -50.275,-37.628c-16.405,-9.612 -31.062,-26.232 -43.901,-11.816c-21.541,24.186 -48.701,66.675 -52.567,72.723c-12.507,19.565 -19.981,17.581 -17.494,40.804c0.472,4.407 5.673,-2.804 13.514,-0.455c7.835,2.348 10.935,7.022 12.645,-0.922c4.759,-22.114 21.264,-11.114 25.628,-13.368c16.932,-8.741 17.899,-6.338 30.782,-1.827c8.083,2.83 11.631,-10.517 16.147,-7.717c6.893,4.275 -12.029,7.917 -2.582,18.724c13.941,15.947 -1.045,24.528 7.217,36.075c3.567,4.985 -5.354,9.632 -5.464,13.872c-0.3,11.509 -0.503,11.307 -4.633,22.303c-0.981,2.611 14.254,8.46 7.747,20.899c-10.219,19.536 -18.063,9.098 -22.03,7.377c-27.048,-11.73 -25.861,-18.053 -34.161,-21.929c-3.526,-1.646 -12.117,-5.658 -38.566,-29.639c-5.159,-4.678 -3.076,1.765 -5.325,11.631c-2.435,10.681 -27.084,15.239 -21.344,19.654c22.862,17.587 25.629,18.61 28.205,19.561c5.415,2 10.746,4.673 15.946,7.663c4.872,-7.374 12.893,-18.49 13.154,-18.825c2.606,-1.493 3.653,-1.779 4.138,1.272c0.726,4.571 1.758,4.491 6.396,3.912c6.009,-0.75 0.06,12.941 -2.674,15.483c-9.02,8.387 -0.368,-7.371 -0.063,-7.927c1.526,-2.78 -4.062,-0.406 -4.386,-0.269c-0.981,0.417 -2.592,-0.304 -2.899,-1.108c-1.129,-2.966 -2.121,-3.135 -4.037,-0.823c-3.312,3.998 -5.897,7.05 -7.871,9.31Zm28.752,-3.487c0.084,-0.464 4.994,-27.269 4.739,-3.496c-0.043,4.002 0.994,4.089 4.825,3.717c8.165,-0.792 -2.866,4.686 -3.289,4.896c-2.28,1.132 -2.076,7.513 -2.246,7.971c-2.199,5.911 -1.413,-4.564 -7.49,-5.55c-5.511,-0.894 1.549,-2.294 3.461,-7.538Zm-57.571,-29.302c0.341,-1.289 3.187,-12.047 13.179,-10.213c9.55,1.753 6.823,12.212 3.741,7.781c-0.525,-0.754 -6.414,-9.22 -11.456,-0.772c-4.783,8.013 4.506,7.926 5.104,8.363c1.464,1.07 -7.393,10.238 -10.567,-5.159Zm34.761,9.345c-1.341,15.491 -23.047,7.277 -17.461,-0.715c7.499,-10.73 13.739,-11.858 17.461,0.715Zm-9.738,4.258c9.394,-0.977 3.094,-11.887 -0.558,-6.912c-1.46,1.989 -6.485,4.539 0.558,6.912Zm95.865,-125.049c-6.719,7.974 -7.877,1.955 -7.69,1.36c1.666,-5.288 9.022,-16.311 -2.76,-9.595c-13.425,7.651 -25.31,-17.649 -4.632,-16.046c7.258,0.563 12.41,5.699 10.497,-1.355c-2.149,-7.923 -12.623,-9.484 -4.602,-11.716c4.871,-1.356 5.744,9.142 10.64,3.57c6.638,-7.554 1.186,16.329 7.976,10.31c10.248,-9.083 17.131,-6.658 16.106,7.121c-0.971,13.051 -25.79,-3.056 -17.458,7.264c0.588,0.728 10.387,12.865 2.685,11.387c-1.489,-0.286 -3.663,-4.088 -5.056,-5.289c-3.099,-2.673 -2.941,0.1 -5.708,2.99Zm15.468,-20.931c-2.609,5.407 4.949,5.52 4.119,1.223c-0.582,-3.011 -1.567,-2.894 -4.119,-1.223Zm-13.066,1.275c-2.272,-0.348 -2.821,-1.23 -3.502,0.975c-1.118,3.618 6.226,3.364 3.502,-0.975Zm-18.582,1.872c-0.399,0.041 -5.913,0.613 -3.377,3.702c2.298,2.798 11.628,-0.051 3.377,-3.702Zm223.74,-64.447c6.384,-0.844 6.342,-1.48 9.373,-0.578c1.566,0.466 25.9,16.208 -9.349,18.156c-2.551,0.141 -5.754,10.361 1.173,8.331c4.267,-1.25 7.674,-0.192 8.308,0.005c22.621,7.026 -2.526,22.317 -7.07,22.631c-15.397,1.067 -14.634,-17.058 -14.554,-18.969c0.76,-18.047 -4.762,-23.226 12.118,-29.575Zm2.213,10.097c11.578,4.903 6.501,-3.92 5.641,-4.535c-2.55,-1.824 -14.774,-1.099 -5.641,4.535Zm3.839,31.469c0.709,-0.551 12.974,-10.088 -2.448,-10.955c-12.711,-0.715 -8.685,14.398 2.448,10.955Zm-129.369,-68.249c-0.069,-4.46 -0.982,-9.012 5.009,-9.415c30.262,-2.036 27.501,35.47 11.637,39.59c-22.495,5.842 -18.714,-6.93 -16.646,-30.175Zm22.692,11.785c0.263,-1.968 5.318,-11.559 -13.036,-14.848c-5.458,-0.978 -5.429,27.145 -3.569,27.897c9.449,3.821 15.946,-11.494 16.605,-13.05Zm72.793,28.52c-6.563,7.094 -9.274,17.207 -20.203,10.211c-12.108,-7.75 -2.638,6.507 -7.722,19.959c-7.15,18.916 -12.609,-41.185 -0.419,-36.465c1.299,0.503 -0.239,2.185 12.976,11.604c6.283,4.478 21.07,-34.166 24.113,-2.168c0.2,2.104 3.486,36.651 -6.466,25.612c-1.187,-1.317 -1.8,-1.997 -0.979,-22.139c0.078,-1.912 0.753,-3.849 0.383,-5.727c-0.122,-0.623 -1.562,-0.265 -1.684,-0.888Zm-51.937,-43.648c-0.598,0.291 -1.976,-1.121 -2.263,2.184c-2.312,26.682 -0.497,26.951 -1.605,28.993c-7.207,13.29 -7.668,-30.964 -1.87,-38.373c6.741,-8.615 11.308,13.325 16.759,3.743c13.707,-24.094 17.653,25.539 14.173,29.473c-7.359,8.317 -6.153,-26.959 -6.555,-27.127c-4.582,-1.909 -6.277,17.389 -6.96,18.417c-4.323,6.506 -8.659,-8.204 -11.68,-17.31Zm2.323,565.3c-21.688,-8.818 2.221,-26.886 2.68,-27.11c24.869,-12.141 25.9,39.363 -2.68,27.11Zm14.481,-14.507c-1.679,-21.588 -18.82,-0.39 -14.978,4.232c9.433,11.345 14.56,-3.059 14.978,-4.232Zm-143.568,3.352c-0.171,0.995 -3.331,19.403 -6.735,10.675c-3.25,-8.331 8.556,-52.337 20.986,-24.518c1.801,4.032 19.413,-19.486 22.696,-2.507c5.591,28.913 -5.285,36.01 -6.327,28.228c-1.138,-8.5 3.57,-31.955 -5.323,-25.347c-9.149,6.799 -14.852,17.259 -17.316,3.159c-1.049,-6 -2.611,-5.092 -2.967,-4.813c-1.002,0.788 -0.619,0.998 -5.015,15.123Zm-80.224,-85.126c-0.264,1.906 -2.179,30.757 -8.534,24.292c-3.741,-3.805 5.97,-53.176 12.687,-33.932c3.774,10.814 5.148,10.825 5.703,10.082c1.252,-1.676 18.388,-31.444 20.104,-3.1c1.858,30.691 -6.415,29.871 -7.711,27.948c-0.979,-1.453 5.093,-37.272 -0.319,-31.497c-2.097,2.238 -13.809,22.467 -18.923,10.669c-1.569,-3.62 -0.949,-4.399 -3.006,-4.462Zm139.256,-4.869c0.47,-0.242 10.428,-7.564 15.806,-0.941c18.89,23.263 -17.881,36.181 -21.504,24.155c-3.748,-12.444 4.437,-21.776 5.698,-23.214Zm5.773,21.447c1.142,-0.296 11.212,-2.909 8.24,-12.23c-6.206,-19.461 -22.857,9.547 -8.24,12.23Zm90.206,-461.076c0.847,-8.858 1.782,-8.44 6.054,-16.379c1.75,-3.252 -10.461,-16.353 -9.576,-20.017c1.61,-6.669 3.843,-0.786 14.192,8.047c1.839,1.569 11.278,-15.703 16.327,-15.797c8.062,-0.15 -4.133,15.707 -9.028,23.222c-3.435,5.273 12.849,15.356 8.848,19.56c-3.544,3.723 -12.484,-8.621 -12.873,-8.992c-3.187,-3.046 -5.428,14.189 -13.944,10.358Zm-219.35,-57.494c0.406,-1.442 3.277,-11.634 9.887,-15.902c5.549,-3.583 -1.936,-4.11 -1.692,-7.551c0.879,-12.398 21.632,19.897 17.416,25.558c-2.64,3.544 -4.465,1.087 -7.054,4.612c-2.727,3.712 -16.1,8.035 -18.557,-6.716Zm5.863,-1.225c-0.443,15.776 17.725,1.34 9.029,-8.748c-0.657,-0.762 -2.605,-2.339 -9.029,8.748Zm100.746,596.756c-4.321,-35.102 27.435,-41.314 25.581,-20.065c-1.083,12.403 -17.978,-2.008 -18.948,11.778c-1.062,15.105 7.325,-1.41 7.476,-1.527c8.915,-6.929 -4.068,29.137 -14.109,9.815Zm19.524,-23.583c-1.424,-5.227 -3.547,-3.619 -7.447,0.136c-2.837,2.732 5.945,6.585 7.447,-0.136Zm15.613,-577.737c0.701,4.047 2.727,8.619 -4.51,6.206c-1.548,-0.516 -11.962,10.752 -18.285,-0.581c-2.339,-4.193 0.596,-16.438 11.378,-16.885c9.496,-0.394 -10.024,-11.229 -1.301,-12.811c2.863,-0.519 5.138,1.915 5.461,2.26c3.113,3.329 6.854,20.017 7.256,21.811Zm-12.624,4.619c0.484,-0.62 5.173,-6.633 3.343,-9.251c-4.851,-6.938 -15.21,13.129 -3.343,9.251Zm-0.093,64.364c0.484,-0.421 8.7,-7.582 7.944,-1.087c-0.412,3.537 -5.169,7.718 -7.952,9.2c-26.878,14.303 -23.887,-56.965 5.838,-41.763c6.972,3.565 4.228,8.69 0.27,6.528c-20.805,-11.363 -27.415,40.147 -6.099,27.122Zm-45.693,-60.805c6.999,11.693 5.913,-8.214 10.777,-7.485c7.42,1.112 -5.077,25.986 -14.848,11.762c-14.663,-21.345 14.67,-48.115 16.899,-19.542c0.565,7.25 -15.572,2.426 -14.278,9.412c0.63,3.402 0.795,3.207 1.45,5.854Zm0.228,-19.858c-3.607,8.62 7,4.627 6.859,2.246c-0.5,-8.392 -6.443,-2.647 -6.859,-2.246Zm23.635,536.838c-14.631,26.472 -26.956,-12.248 -5.793,-27.73c14.488,-10.599 18.578,18.475 10.481,10.837c-0.504,-0.476 -2.212,-7.367 -6.242,-5.575c-6.446,2.867 -14.547,26.797 -5.67,23.827c1.484,-0.497 4.023,-18.46 7.584,-9.49c1.062,2.676 0.36,2.662 -0.36,8.131Zm51.256,53.783l-0.153,1.141c-3.791,5.817 -9.256,-1.656 -11.185,4.873c-2.741,9.277 -4.887,33.203 -9.758,23.281c-5.568,-11.344 7.118,-22.645 1.081,-32.77c-2.019,-3.386 3.336,-1.124 5.45,-6.096c0.395,-0.928 6.59,-15.497 8.66,-9.162c0.947,2.898 -3.816,14.467 -0.162,15.639c3.115,0.999 3.573,0.053 6.068,3.094Zm-94.118,-60.771c0.533,1.006 9.823,18.545 1.335,14.162c-1.996,-1.03 -6.578,-10.723 -8.674,-7.963c-0.542,0.713 -11.732,15.44 -10.408,4.111c0.392,-3.357 8.895,-10.885 7.448,-15.139c-0.349,-1.026 -5.072,-14.903 -0.052,-13.543c4.366,1.182 3.13,10.722 8.599,4.393c2.548,-2.949 7.157,-1.68 4.053,4.254c-2.498,4.777 -3.606,4.562 -2.301,9.725Zm185.439,20.874c-0.581,0.946 -9.827,16.002 -11.221,8.161c-0.828,-4.658 7.414,-12.01 7.011,-15.159c-0.214,-1.673 -3.509,-27.365 2.914,-20.878c2.495,2.52 2.125,16.888 4.86,13.824c7.316,-8.193 9.253,-15.352 11.355,-8.078c1.147,3.971 -14.572,21.727 -14.919,22.13Zm-267.083,-556.171c12.606,-1.673 12.656,-2.26 15.025,-1.36c8.286,3.147 -8.291,6.707 -9.19,6.9c-4.724,1.015 -0.442,25.535 -2.886,28.726c-5.546,7.24 -5.18,-22.255 -5.156,-24.237c0.06,-4.822 -10.883,-4.049 -14.119,-6.139c-8.96,-5.786 12.202,-4.116 16.326,-3.89Zm208.726,519.464c10.793,5.826 4.073,8.463 3.346,8.446c-1.804,-0.042 -13.335,-13.589 -19.992,4.859c-4.366,12.096 5.825,18.631 11.23,6.811c0.225,-0.493 9.314,-20.366 5.895,-3.339c-4.884,24.327 -32.904,14.224 -21.374,-7.942c6.019,-11.571 19.11,-9.162 20.895,-8.834Zm-18.929,81.365c12.668,4.432 11.747,14.738 4.773,12.559c-4.534,-1.417 -6.986,-10.255 -11.329,-0.685c-5.519,12.161 -8.477,2.841 -8.359,2.16c4.524,-26.084 7.722,-26.378 9.302,-24.949c3.06,2.766 -0.856,11.399 1.969,11.411c1.226,0.005 2.418,-0.501 3.644,-0.496Zm-22.423,-600.183c0.355,-1.096 3.487,-10.761 10.741,-9.586c4.058,0.658 3.215,4.734 0.924,5.557c-9.075,3.261 -5.899,7.928 2.711,11.992c8.05,3.799 -4.339,27.746 -13.922,17.583c-5.121,-5.431 7.197,-4.711 7.468,-4.989c8.942,-9.181 -6.862,-7.934 -7.922,-20.558Zm91.019,537.626c-8.994,5.167 -12.225,-1.845 -14.149,2.979c-3.901,9.782 -2.162,13.979 -7.566,11.472c-6.361,-2.951 6.694,-9.784 -2.042,-15.651c-5.124,-3.441 5.885,-4.838 6.281,-5.743c4.297,-9.805 2.739,-17.841 8.886,-11.66c3.292,3.31 -4.809,13.386 0.798,14.765c4.44,1.092 5.121,-0.089 7.791,3.839Zm-176.945,-501.47c-9.065,17.996 -18.763,-17.15 -8.86,-17.461c4.549,-0.143 -0.535,28.816 4.409,12.843c4.839,-15.632 -2.27,-30.228 4.727,-23.067c6.515,6.668 0.405,25.577 -0.275,27.685Zm42.231,-19.772c0.308,-8.14 1.46,-8.687 -0.576,-9.488c-4.222,-1.66 -6.429,-3.441 -2.271,-5.243c5.298,-2.296 3.128,-9.06 3.864,-10.825c3.851,-9.242 5.198,9.024 6.518,9.105c15.723,0.961 0.307,6.625 -0.204,6.813c-2.359,0.867 -1.174,19.558 -3.224,21.512c-4.746,4.524 -4.146,-10.87 -4.107,-11.875Zm-77.662,-3.539c-0.923,-8.209 -2.165,-8.758 -0.057,-9.996c2.208,-1.298 3.867,2.777 4.021,3.156c2.176,5.346 3.711,1.985 6.179,0.98c8.927,-3.637 14,10.088 5.969,6.88c-12.825,-5.122 -6.437,13.075 -7.721,16.849c-4.254,12.505 -8.178,-16.304 -8.391,-17.869Zm51.593,506.712c1.855,-0.177 1.706,-0.169 1.855,-0.177c3.987,-0.218 -2.351,27.457 -2.548,27.88c-5.093,10.971 -7.716,-14.561 0.693,-27.703Zm128.103,20.577c-0.558,1.167 -10.698,22.351 -10.964,11.88c-0.29,-11.397 21.342,-35.734 10.964,-11.88Zm-122.889,-25.802c-15.209,9.892 -11.816,-10.203 -3.211,-11.088c10.473,-1.077 3.684,10.295 3.211,11.088Zm-21.797,-520.202c-1.753,13.51 -15.065,3.063 -9.378,-3.294c5.501,-6.149 9.076,2.559 9.378,3.294Zm146.284,519.364c11.934,4.178 -1.872,13.124 -5.634,10.126c-7.296,-5.813 4.755,-9.833 5.634,-10.126Z" style="fill:#1ea4b2;"/></g></g></svg>