<?xml version="1.0" encoding="UTF-8" standalone="no"?><!DOCTYPE svg PUBLIC "-//W3C//DTD SVG 1.1//EN" "http://www.w3.org/Graphics/SVG/1.1/DTD/svg11.dtd"><svg width="100%" height="100%" viewBox="0 0 1080 652" version="1.1" xmlns="http://www.w3.org/2000/svg" xmlns:xlink="http://www.w3.org/1999/xlink" xml:space="preserve" xmlns:serif="http://www.serif.com/" style="fill-rule:evenodd;clip-rule:evenodd;stroke-linejoin:round;stroke-miterlimit:2;"><rect id="img4" x="0" y="-0" width="1080" height="652" style="fill:none;"/><g id="Gemini_Generated_Image_zfjhc4zfjhc4zfjh.png"><path d="M1054.288,493.296c-0.663,0.112 -0.508,-0.563 -1.168,-0.451c-0.065,0.011 -0.089,0.015 -0.408,0.718c-3.083,6.789 -3.196,10.432 -5.177,16.189c-3.905,11.351 -3.013,12.293 -3.983,18.644c-0.406,2.663 -3.153,10.831 -5.335,15.156c-5.02,9.948 -7.11,17.117 -12.647,21.018c-2.89,2.036 -3.615,3.373 -11.015,7.79c-8.906,5.316 -8.968,8.091 -21.464,12.88c-8.305,3.183 -8.631,1.804 -17.325,3.713c-18.681,4.101 -24.603,1.526 -29.772,0.791c-8.837,-1.257 -10.21,0.42 -17.31,1.12c-5.602,0.552 -5.585,0.514 -11.163,1.269c-13.704,1.855 -13.85,0.158 -21.152,0.166c-8.974,0.011 -8.931,-0.613 -16.134,-0.882c-1.247,-0.047 -17.687,-0.248 -18.646,-0.232c-6.83,0.116 -15.439,-1.87 -24.863,-2.816c-17.405,-1.749 -17.261,-3.421 -34.761,-3.441c-7.643,-0.009 -23.407,-4.585 -27.632,-7.473c-4.227,-2.89 -3.704,-4.188 -5.812,-3.933c-0.867,0.105 -0.857,0.191 -1.289,0.958c-5.122,9.088 -6.961,25.497 -12.249,27.718c-1.649,0.693 -7.792,1.518 -5.296,-4.202c2.913,-6.674 2.444,-6.817 4.803,-13.709c1.524,-4.452 1.591,-4.412 1.722,-4.798c3.502,-10.336 4.753,-9.815 5.777,-12.578c0.87,-2.345 -0.404,-2.21 -6,-12.308c-2.287,-4.126 -4.993,-2.777 -13.601,-3.044c-2.587,-0.08 -14.517,-2.323 -14.82,-2.396c-6.73,-1.62 -9.536,-7.047 -5.524,-12.294c7.013,-9.17 17.736,-10.721 21.646,-11.697c13.629,-3.402 20.907,0.189 24.982,-2.545c3.154,-2.115 0.971,-3.444 0.72,-3.596c-1,-0.608 -1.107,-0.278 -14.603,0.862c-13.265,1.121 -17.407,5.852 -27.45,2.751c-6.048,-1.867 -7.078,-5.45 -7.818,-7.636c-4.739,-13.99 1.364,-16.954 0.623,-20.103c-0.281,-1.195 -1.805,-1.173 -10.04,-2.613c-9.969,-1.744 -9.638,-3.178 -18.52,-5.361c-4.958,-1.218 -4.974,-1.017 -7.661,-1.629c-6.939,-1.581 -6.574,-3.548 -17.327,-3.808c-19.723,-0.477 -36.13,-5.926 -38.498,-6.399c-9.477,-1.896 -10.562,-5.922 -13.754,-5.422c-1.999,0.313 -0.996,1.517 -9.202,12.442c-9.236,12.297 -9.647,16.97 -16.78,16.471c-8.387,-0.588 -12.188,-6.024 -23.556,-7.664c-11.257,-1.624 -12.295,-2.195 -21.374,-6.715c-5.336,-2.657 -7.674,-2.991 -9.757,-4.086c-0.679,-0.357 -3.703,-1.948 -3.954,-8.738c-0.399,-10.768 0.591,-14.669 8.083,-25.84c8.606,-12.83 10.602,-21.551 18.709,-32.197c7.47,-9.809 5.321,-11.09 12.079,-21.388c4.527,-6.898 4.59,-6.846 4.955,-7.462c0.411,-0.693 1.794,-3.023 5.441,-8.482c1.97,-2.949 -0.439,-3.034 -1.975,-3.626c-5.408,-2.086 -7.771,-14.343 -5.636,-18.843c1.262,-2.659 2.268,-2.765 1.157,-4.174c-0.654,-0.83 -0.832,-0.495 -2.835,-0.834c-1.273,-0.216 -5.372,-1.575 -7.329,-0.003c-2.628,2.11 -0.324,4.117 -7.62,9.725c-5.857,4.502 -2.547,6.098 -3.131,16.257c-0.491,8.528 0.246,13.022 -2.643,21.227c-0.344,0.977 -3.77,10.707 -4.344,12.194c-3.288,8.519 -1.97,9.053 -4.456,12.682c-11.579,16.902 -15.441,15.482 -17.565,17.318c-0.436,0.377 -0.925,0.8 -3.883,6.066c-3.735,6.649 -4.024,6.591 -4.786,11.241c-1.558,9.515 -16.448,35.409 -22.117,41.289c-6.877,7.134 -13.468,11.419 -23.919,13.458c-7.725,1.507 -7.502,2.204 -14.753,5.251c-10.273,4.317 -26.245,2.153 -26.269,2.148c-4.884,-1.02 -10.126,-5.121 -9.995,-0.065c0.19,7.366 8.051,15.679 8.584,16.299c1.045,1.214 6.757,7.848 10.313,17.156c4.065,10.643 4.885,10.719 7.705,16.007c2.809,5.267 -0.62,6.746 4.398,12.738c4.608,5.502 6.164,10.16 8.694,17.33c1.938,5.493 -4.815,8.677 -9.586,2.234c-1.978,-2.672 -1.643,-2.88 -1.847,-3.082c-0.118,-0.118 -1.171,-1.163 -2.048,-0.392c-1.017,0.894 1.754,2.533 -0.118,22.305c-0.973,10.279 -10.745,9.353 -19.603,-6.402c-0.12,-0.213 -1.186,-2.11 -2.4,-1.88c-2.858,0.542 4.884,26.9 -2.743,30.701c-4.138,2.062 -8.367,0.837 -20.866,-13.971c-6.749,-7.996 -5.981,-10.879 -7.02,-11.638c-0.071,-0.052 -1.425,-0.063 -1.498,-0.012c-0.659,0.461 -0.529,2.942 -0.516,3.201c0.768,14.674 -0.28,15.656 -2.323,17.51c-7.72,7.005 -17.72,-6.547 -19.809,-8.951c-4.05,-4.659 -5.311,-9.085 -5.554,-9.408c-0.134,-0.179 -1.71,-0.378 -1.906,-0.234c-0.333,0.246 -0.471,3.221 -0.484,3.504c-0.037,0.796 -1.48,12.163 -1.744,13.783c-0.135,0.828 -0.211,6.228 -4.014,7.7c-4.291,1.661 -6.476,-1.206 -11.751,-9.97c-4.202,-6.981 -4.41,-6.868 -6.074,-11.329c-4.132,-11.073 -4.232,-12.588 -4.995,-14.906c-2.558,-7.773 -4.317,-6.769 -8.102,-12.689c-1.906,-2.981 -5.39,-15.278 -7.134,-18.741c-1.541,-3.06 -2.353,-2.826 -6.77,-3.522c-8.372,-1.318 -10.876,-2.114 -18.637,-1.864c-5.489,0.177 -8.446,-1.69 -12.474,-2.847c-4.222,-1.213 -6.492,1.119 -9.845,1.434c-5.664,0.533 -11.989,-6.174 -23.579,-4.812c-4.814,0.566 -4.814,0.352 -14.979,-0.196c-7.772,-0.419 -10.522,-2.662 -12.399,-2.597c-3.036,0.105 -4.652,6.976 -7.94,11.856c-3.553,5.275 -3.653,5.197 -3.955,5.659c-3.414,5.216 -3.597,5.089 -8.365,9.116c-3.856,3.257 -5.049,3.173 -4.603,7.911c1.255,13.324 -1.39,15.021 -2.804,24.778c-2.394,16.528 -3.942,23.418 -9.627,22.633c-2.442,-0.337 -4.912,-3.302 -5.24,-3.696c-7.749,-9.299 -7.097,-16.722 -7.694,-17.242c-0.208,-0.181 -0.552,0.056 -0.827,0.033c-0.308,-0.026 -0.635,-0.319 -0.91,-0.177c-0.48,0.247 -0.971,3.327 -1.018,3.625c-0.866,5.439 -4.491,15.523 -10.493,14.066c-5.093,-1.236 -5.844,-7.723 -6.847,-11.84c-2.777,-11.401 -2.042,-17.338 -2.777,-21.098c-0.26,-1.331 -0.064,-1.772 -1.421,-1.828c-0.221,-0.009 -0.492,-0.209 -0.661,-0.066c-1.415,1.196 0.477,17.61 -4.743,34.13c-2.307,7.302 -2.419,10.744 -5.758,11.405c-6.676,1.321 -8.355,-9.351 -8.507,-10.055c-1.829,-8.452 -2.184,-8.345 -4.186,-14.779c-2.041,-6.557 0.103,-17.062 -1.418,-16.864c-0.366,0.048 -0.431,0.624 -0.746,0.817c-0.237,0.145 -0.685,-0.099 -0.821,0.144c-0.431,0.769 -1.017,7.856 -1.955,10.767c-3.363,10.438 -5.842,15.684 -13.062,21.643c-8.835,7.292 -13.918,-4.427 -14.105,-14.104c-0.318,-16.5 1.568,-16.731 0.619,-17.794c-0.201,-0.226 -0.458,-0.398 -0.659,-0.624l-1.16,-0.252c-2.782,5.278 -1.514,6.202 -9.325,17.799c-5.977,8.873 -7.806,10.006 -10.55,10.312c-2.683,0.3 -4.559,-1.753 -4.843,-2.064c-4.302,-4.709 -3.779,-10.162 -3.689,-11.093c0.695,-7.234 4.72,-10.239 6.884,-24.917c1.653,-11.213 8.065,-21.826 8.615,-26.081c0.942,-7.286 -0.201,-7.396 1.305,-14.933c1.289,-6.45 0.12,-7.943 2.005,-15.979c3.996,-17.037 4.561,-16.959 5.036,-18.607c1.595,-5.531 -2.514,-3.366 -17.76,-3.367c-3.38,-0 -8.981,0.592 -18.616,-2.971c-0.45,-0.166 -11.724,-5.373 -14.521,-7.858c-3.451,-3.066 -3.249,-3.319 -9.041,-7.081c-4.265,-2.771 -7.013,-9.92 -9.296,-14.566c-6.182,-12.584 -7.334,-17.4 -7.716,-18.995c-0.855,-3.575 -1.798,-10.154 -1.925,-11.042c-0.967,-6.748 -1.048,-21.159 1.148,-32.403c2.033,-10.409 -0.12,-10.565 1.031,-21.101c0.205,-1.877 0.385,-3.525 2.012,-23.518c0.939,-11.539 0.216,-13.996 0.899,-18.666c2.134,-14.588 0.969,-14.761 4.613,-29.91c1.644,-6.835 -0.143,-8.629 1.877,-14.738c3.593,-10.866 9.927,-22.682 12.457,-25.987c6.948,-9.078 7.976,-8.148 16.663,-18.008c4.16,-4.721 4.863,-3.931 11.371,-9.847c4.371,-3.974 4.371,-5.384 24.144,-12.731c9.186,-3.414 10.142,-1.32 25.674,-8.459c6.827,-3.138 6.857,-3.033 13.967,-5.476c9.057,-3.112 26.044,-11.211 40.844,-13.046c14.25,-1.767 26.721,-4.55 31.086,-4.382c5.553,0.214 7.352,1.939 12.555,0.131c15.542,-5.402 17.152,-4.455 18.389,-6.637c2.784,-4.912 2.105,-5.942 7.454,-7.822c2.889,-1.015 2.466,-1.652 3.274,-4.605c1.526,-5.581 -2.64,-2.118 -2.852,-1.942c-0.981,0.815 -1.636,2.597 -12.82,5.346c-6.059,1.49 -8.33,0.07 -18.431,-2.506c-12.148,-3.099 -15.303,-8.671 -14.912,-19.444c0.065,-1.783 1.344,-11.02 2.914,-14.679c2.17,-5.06 5.772,-8.677 11.706,-12.919c1.405,-1.004 9.9,-5.367 11.429,-5.685c1.807,-0.375 4.168,0.082 6.424,-1.215c0.749,-0.43 0.9,-0.45 0.838,-1.497c-0.055,-0.944 -0.261,-0.95 -1.194,-1.026c-0.505,-0.041 -8.044,-0.097 -18.54,-1.594c-8.663,-1.236 -9.47,0.613 -19.693,-6.391c-11.628,-7.968 -10.795,-9.045 -13.97,-17.051c-2.226,-5.613 -4.654,-7.387 2.317,-12.828c1.613,-1.259 1.663,-1.181 9.873,-6.393c11.999,-7.616 13.112,-8.22 14.295,-8.861c4.011,-2.174 3.889,-2.338 7.379,-5.243c4.443,-3.696 10.053,-3.053 27.022,-6.849c5.587,-1.25 5.639,-0.884 11.223,-2.25c17.253,-4.22 19.022,-0.025 21.088,-3.614c1.156,-2.008 7.074,-15.904 8.148,-22.408c1.113,-6.743 1.703,-17.727 13.136,-29.61c6.135,-6.377 6.312,-10.062 18.442,-15.18c0.68,-0.287 6.169,-3.389 13.76,-2.438c4.07,0.51 11.601,4.293 15.643,8.111c0.306,0.289 0.262,0.329 3.776,3.661c2.44,2.314 7.574,8.945 9.015,14.469c1.146,4.391 0.905,4.436 2.147,8.801c2.243,7.882 1.133,8.302 -2.811,28.513c-0.055,0.283 -0.611,3.13 -0.347,3.593c1.073,1.879 1.597,1.034 3.693,0.479c1.338,-0.354 3.716,-0.983 17.294,-0.221c4.616,0.259 5.243,0.83 14.911,0.754c14.313,-0.113 14.264,1.493 28.586,0.887c12.512,-0.53 16.487,-0.026 28.457,7.001c0.974,0.572 2.71,1.591 10.921,8.938c4.168,3.729 3.834,5.963 6.282,12.125c2.59,6.517 5.202,12.343 -0.996,22.226c-1.216,1.94 -4.682,5.26 -7.564,9.87c-3.424,5.477 -4.5,4.365 -14.644,10.226c-2.68,1.548 -3.147,2.89 -17.507,3.485c-11.356,0.471 -12.902,-2.058 -27.224,1.68c-9.183,2.396 -9.249,2.297 -18.713,1.787c-11.176,-0.602 -15.402,2.529 -22.403,2.267c-3.157,-0.118 -3.518,-0.32 -4.005,0.174c-0.795,0.807 -1.011,1.031 -0.194,1.792c1.683,1.567 1.962,1.216 5.14,2.84c1.067,0.545 0.925,0.787 7.856,4.271c3.021,1.518 6.807,4.881 8.649,6.31c2.242,1.739 8.493,8.22 9.293,9.217c3.332,4.15 3.732,3.838 6.49,8.402c2.722,4.504 4.741,14.311 1.229,22c-0.584,1.278 -0.639,1.231 -1.21,2.503c-1.776,3.957 0.913,3.566 5.268,5.154c11.679,4.259 12.178,2.576 23.802,6.914c28.033,10.46 26.286,14.395 39.687,27.677c5.725,5.674 5.36,5.981 8.723,11.211c0.462,0.718 1.532,2.383 6.244,8.655c5.664,7.539 6.285,20.541 8.979,32.314c1.721,7.522 1.62,17.359 2.445,18.456c0.778,1.035 3.033,0.364 3.286,0.288c11.713,-3.489 11.921,-2.584 23.744,-5.646c12.538,-3.247 18.808,-2.514 24.832,-5.231c12.245,-5.523 12.002,-7.876 24.711,-6.594c0.689,0.07 5.164,0.521 8.529,-1.451c5.91,-3.465 -4.268,-5.977 -1.163,-15.879c1.059,-3.378 6.485,-12.824 11.156,-11.825c3.015,0.645 10.278,6.753 11.235,8.156c4.332,6.358 1.725,9.216 1.79,9.89c0.018,0.186 0.394,0.012 0.55,0.116c0.183,0.123 0.219,0.405 0.405,0.523c1.126,0.713 1.164,0.147 2.291,-0.56c1.157,-0.726 3.507,-1.791 3.751,-2.519c1.17,-3.493 -5.349,-4.809 -3.953,-13.719c0.623,-3.977 2.562,-6.229 6.275,-11.234c0.643,-0.867 3.391,-5.382 8.827,-5.893c4.21,-0.395 5.919,1.139 12.047,9.935c0.788,1.131 2.522,4.179 2.928,5.952c0.541,2.363 0.466,2.398 0.737,2.758c1.402,1.866 2.074,0.849 6.518,2.515c8.285,3.106 15.11,7.239 19.793,22.137c0.041,0.132 1.922,1.388 -1.412,13.517c-3.338,12.143 -11.457,17.18 -7.068,19.909c6.29,3.91 13.758,9.839 9.258,18.969c-0.722,1.464 -0.987,2.682 -4.014,5.086c-4.546,3.61 -16.749,7.631 -20.483,-1.53c-2.323,-5.7 -2.417,-12.462 -2.417,-12.464c-0.62,-1.838 -3.12,-1.037 -3.388,-0.951c-0.506,0.162 -3.777,1.21 -6.268,2.201c-0.824,0.328 -0.912,0.352 -1.025,1.227c-0.248,1.921 0.418,1.746 1.462,3.363c2.24,3.467 4.436,12.254 -5.72,18.676c-0.67,0.424 -0.891,0.354 -0.924,1.486c-0.031,1.064 0.099,1.191 1.148,1.347c2.568,0.382 2.616,0.01 8.633,1.547c15.1,3.859 16.545,-0.163 23.936,2.778c4.477,1.781 4.655,0.074 8.781,-2.707c8.418,-5.672 19.062,-5.797 20.789,-5.817c13.632,-0.16 13.721,-0.07 20.087,2.301c6.467,2.409 6.607,1.96 14.819,5.181c1.86,0.73 12.563,4.584 13.658,4.978c4.983,1.794 5.137,1.164 18.402,4.497c19.2,4.823 21.08,1.615 33.561,3.715c20.104,3.384 32.718,7.633 39.785,-1.706c2.199,-2.906 2.46,-2.763 3.668,-6.213c1.345,-3.84 3.846,-6.539 7.326,-11.289c7.183,-9.806 10.029,-10.596 15.775,-17.734c8.942,-11.111 23.291,-25.952 28.559,-33.442c7.026,-9.989 8.76,-9.245 15.345,-20.802c2.85,-5.002 3.287,-7.314 9.846,-11.509c5.449,-3.485 8.677,-3.237 13.026,-9.269c4.897,-6.792 11.16,-6.425 11.243,-11.416c0.093,-5.587 -0.186,-5.561 -0.029,-11.171c0.245,-8.74 0.736,-8.73 0.158,-17.44c-0.596,-8.979 0.994,-16.264 0.549,-17.301c-0.019,-0.045 -1.136,-1.015 -1.193,-1.036c-1.704,-0.611 -14.684,1.207 -18.221,-0.781c-3.561,-2 -2.395,-8.651 3.356,-7.809c0.09,0.013 0.174,1.385 12.487,-1.529c4.356,-1.031 5.904,-1.568 6.015,-3.803c0.027,-0.549 -0.168,-3.439 0.284,-8.678c0.39,-4.518 2.819,-10.523 5.418,-14.666c1.995,-3.181 -3.073,-3.02 -8.739,-10.568c-0.611,-0.814 -0.445,-0.898 -7.12,-10.54c-1.071,-1.547 -5.549,-9.262 -6.104,-12.619c-1.003,-6.07 2.693,-16.904 6.421,-27.405c1.962,-5.527 5.461,-8.097 9.483,-12.866c0.353,-0.419 0.76,-1.426 3.981,-3.675c4.907,-3.425 10.523,-3.896 11.493,-3.978c0.667,-0.056 8.04,-0.675 8.297,-1.038c0.169,-0.238 -0.162,-0.57 -0.153,-0.862c0.009,-0.313 0.316,-0.625 0.204,-0.917c-0.453,-1.179 -16.389,-6.457 -19.725,-12.551c-3.332,-6.085 1.422,-12.492 7.575,-12.994c10.092,-0.824 11.394,3.234 19.921,9.156c3.865,2.684 9.75,10.404 12.44,10.161c1.378,-0.125 0.92,-0.912 6.237,-5.115c5.084,-4.019 5.361,-6.638 13.694,-9.78c12.613,-4.756 14.012,-9.946 30.792,-2.326c9.173,4.166 11.965,3.884 18.617,9.763c3.914,3.459 6.16,3.758 8.663,8.594c5.167,9.982 5.525,11.427 3.633,29.669c-0.823,7.93 -4.485,11.826 -2.727,14.046c2.947,3.72 7.516,4.93 10.705,13.218c1.715,4.457 6.586,7.702 9.801,21.181c1.849,7.754 0.973,7.865 2.236,18.668c0.883,7.555 0.479,12.28 -2.253,22.355c-1.754,6.469 -2.732,6.089 -4.816,12.466c-0.682,2.088 -0.954,4.151 -4.897,8.871c-0.682,0.817 -3.092,3.701 -10.002,8.772c-0.721,0.529 -2.173,1.594 -10.119,4.742c-6.797,2.692 -11.113,1.364 -18.69,2.215c-10.308,1.158 -12.185,-5.14 -15.767,-2.962c-0.035,0.021 -1.949,2.063 -3.323,-0.023c-0.332,-0.505 -0.537,-1.109 -0.967,-1.533c-0.577,-0.569 -2.204,-0.521 -2.397,0.936c-0.065,0.494 0.475,3.47 0.505,3.729c0.384,3.349 -0.027,3.596 2.215,6.142c5.06,5.743 5.784,7.776 9.149,13.446c1.787,3.01 7.25,15.577 14.439,22.556c3.787,3.676 3.743,3.684 7.24,7.652c4.968,5.636 5.523,5.113 10.137,11.016c5.381,6.883 6.991,5.375 10.483,10.449c6.641,9.651 6.384,15.861 12.099,25.461c2.153,3.617 3.532,5.049 7.202,22.521c2.567,12.22 0.296,12.526 2.842,24.764c2.078,9.989 1.019,13.023 1.3,29.889c0.136,8.164 3.839,16.582 4.2,28.585c0.292,9.709 -0.916,9.941 1.247,19.924c1.596,7.367 0.669,7.581 3.186,14.682c3.938,11.11 1.926,12.238 6.287,26.084c3.694,11.731 2.108,14.816 5.427,25.089c3.121,9.659 0.437,10.383 4.953,21.14c2.469,5.881 2.931,5.907 2.406,12.268c-0.844,10.239 -0.799,10.257 -1.163,11.069c-0.699,1.557 -4.831,4.495 -7.113,0.113c-5.193,-9.975 -1.001,-11.252 -4.034,-17.222c-3.775,-7.43 -1.38,-7.991 -2.792,-16.186c-1.664,-9.656 -5.071,-12.978 -5.611,-26.181c-0.432,-10.579 -3.97,-15.561 -4.012,-23.56c-0.009,-1.809 -0.032,-1.786 -0.065,-3.609l-0.73,-0.582Zm-606.387,-119.051c11.271,-4.85 15.876,-4.915 18.371,-6.491c0.371,-0.234 4.11,-3.819 2.5,-5.196c-1.156,-0.988 -2.61,0.322 -8.344,0.632c-12.366,0.67 -12.245,1.485 -23.734,4.533c-16.644,4.415 -24.252,9.788 -44.553,13.083c-7.019,1.139 -6.923,1.468 -13.693,3.576c-14.282,4.447 -18.192,4.362 -18.909,6.09c-0.78,1.882 -0.304,1.938 0.073,3.938c0.934,4.945 2.996,3.008 7.752,1.407c9.155,-3.081 9.02,-3.48 18.448,-5.635c15.699,-3.587 15.506,-4.4 23.704,-5.73c19.305,-3.131 22.159,-3.573 38.385,-10.209Zm-340.538,238.599c0.685,-2.462 0.767,-2.424 1.263,-4.927c2.33,-11.746 2.014,-12.59 1.629,-13.618c-0.635,-1.697 -5.875,-2.24 -6.295,-2.322c-5.067,-0.982 -7.124,-2.34 -8.885,-1.693c-0.946,0.348 -0.669,1.972 -1.393,5.192c-0.847,3.764 -0.473,3.794 -0.107,7.602c1.118,11.645 -2.045,23.22 1.813,30.928c0.908,1.814 2.633,1.537 3.605,0.039c5.256,-8.1 6.586,-14.976 8.37,-21.201Zm172.268,-335.354c-1.325,-5.108 -1.277,-5.704 -4.465,-12.182c-0.693,-1.409 -2.705,-7.776 -6.521,-3.039c-5.614,6.969 -7.172,16.754 -9.646,27.731c-0.904,4.013 1.913,3.089 2.774,2.866c5.499,-1.426 15.14,-0.962 18.52,-1.778c2.467,-0.596 2.251,-2.263 -0.663,-13.597Zm-47.842,-47.832c1.274,0.306 7.119,1.708 16.269,1.922c5.309,0.124 5.241,-2.274 10.153,-8.458c0.97,-1.221 1.361,-1.143 1.171,-2.675c-0.116,-0.933 -1.247,-1.167 -1.391,-1.196c-1.151,-0.237 -2.605,0.021 -11.17,-2.509c-6.229,-1.84 -6.18,-1.944 -12.413,-3.752c-4.773,-1.385 -7.994,-4.005 -8.869,1.265c-0.24,1.447 -1.064,9.779 -0.695,11.132c0.742,2.72 3.305,3.241 6.944,4.271Zm-0.909,293.307l-2.913,-1.41c-1.042,-0.499 -1.091,-0.718 -2.144,-0.209c-2.015,0.975 -0.405,4.528 -0.596,9.619c-0.01,0.26 -0.094,2.524 0.84,3.148c0.386,0.258 3.068,0.684 3.337,0.727c8.457,1.344 8.873,2.383 11.457,0.166c4.714,-4.045 6.049,0.862 20.861,-2.759c11.678,-2.855 12.131,0.477 14.011,4.794c0.908,2.084 2.177,2.155 12.053,3.948c7.19,1.305 10.715,0.834 16.24,1.834c4.124,0.747 2.325,-3.881 2.212,-4.34c-2.838,-11.577 -2.584,-12.48 -4.744,-12.746c-0.39,-0.048 -0.382,-0.003 -3.747,0.414c-6.16,0.764 -9.01,-0.628 -16.245,0.692c-6.735,1.23 -6.735,1.124 -13.566,1.201c-8.935,0.101 -8.986,-1.17 -18.666,-1.525c-7.419,-0.272 -9.355,-0.806 -18.391,-3.554Zm92.763,-419.299c-0.777,1.389 -0.221,2.412 -4.991,4.6c-8.645,3.966 -8.921,3.339 -18.439,3.087c-16.045,-0.425 -21.022,1.8 -33.373,-1.885c-7.471,-2.229 -25.418,-2.625 -24.626,-10.555c0.349,-3.493 12.99,-18.277 5.84,-17.552c-3.316,0.336 -3.709,4.495 -7.261,11.3c-6.711,12.858 3.639,15.952 19.654,21.104c11.619,3.738 15.05,2.406 27.361,3.536c0.792,0.073 15.798,0.497 19.862,0.106c4.676,-0.45 13.854,-2.257 16.962,-4.332c4.875,-3.256 9.656,-17.58 13.228,-25.305c0.268,-0.579 1.618,-3.498 2.541,-7.555c0.328,-1.442 0.712,-1.645 -0.378,-2.627c-0.867,-0.782 -6.747,-0 -7.631,3.776c-0.802,3.43 1.246,4.528 -3.166,11.479c-3.273,5.156 -3.038,5.272 -5.584,10.824Zm130.496,251.691c5.556,-1.114 16.28,-4.893 18.668,-5.817c3.793,-1.466 15.441,-4.847 17.593,-5.671c0.354,-0.135 2.82,-1.079 2.298,-4.144c-0.543,-3.191 -6.535,-0.461 -10.105,0.679c-8.608,2.748 -13.143,-0.031 -23.082,4.876c-6.969,3.441 -6.17,6.659 -19.037,8.813c-16.044,2.687 -18.698,5.531 -28.557,7.617c-11.364,2.405 -24.314,7.702 -28.575,8.796c-23.022,5.912 -23.536,5.585 -24.894,4.166c-1.101,-1.15 -1.05,-1.197 -1.177,-1.25c-3.347,-1.406 -1.994,4.902 -0.992,5.874c1.366,1.326 1.675,0.442 11.144,-1.725c13.067,-2.99 12.942,-3.434 26.047,-6.204c8.738,-1.847 8.762,-1.689 17.197,-4.565c9.174,-3.128 12.071,-4.508 13.607,-5.063c8.641,-3.124 28.708,-6.242 29.864,-6.382Zm464.699,-87.217c-5.726,1.758 -5.763,1.521 -8.763,2.233c-0.607,0.144 -3.735,0.886 -6.084,4.874c-1.176,1.996 -0.553,2.991 4.326,7.8c0.861,0.848 2.785,3.325 7.933,4.438c3.657,0.791 4.739,-0.359 9.927,-0.289c4.396,0.06 8.092,1.886 23.863,-11.723c5.281,-4.557 4.903,-4.959 7.41,-11.458c0.503,-1.303 0.777,-1.551 -0.335,-2.398c-1.425,-1.085 -1.621,0.138 -13.552,1.147c-12.643,1.069 -12.417,2.192 -24.725,5.377Zm-681.831,86.799c0.836,-0.322 8.598,-3.308 10.93,-2.407c3.123,1.207 1.736,2.422 5.759,12.26c3.458,8.454 2.115,8.796 2.423,9.519c0.038,0.088 1.656,0.546 1.938,0.51c0.102,-0.013 9.223,-5.983 12.555,-7.267c19.275,-7.428 24.198,-5.119 25.978,-4.771c1.814,0.354 13.751,1.099 20.882,6.912c7.319,5.965 7.041,9.355 10.867,6.699c5.543,-3.847 10.917,-4.441 14.041,-5.765c2.319,-0.983 1.507,-3.912 1.336,-7.312c-0.229,-4.568 -0.036,-11.65 0.092,-12.396c1.146,-6.709 7.706,-3.487 8.549,-3.431c0.499,0.033 1.966,0.129 5.876,-2.114c2.731,-1.567 0.819,-4.324 -3.63,-10.433c-0.864,-1.186 -5.414,-7.433 -12.63,-13.3c-10.167,-8.266 -9.563,-9.26 -15.697,-11.668c-2.87,-1.127 -6.458,-3.344 -7.413,-3.813c-11.488,-5.635 -15.59,-6.05 -16.162,-6.17c-2.841,-0.595 -5.884,-1.615 -6.963,0.201c-0.094,0.159 -0.26,4.294 -2.905,4.974c-3.955,1.017 -5.502,-4.251 -6.317,-5.149c-1.72,-1.895 -5.013,-1.004 -26.037,-0.017c-4.5,0.211 -4.086,2.033 -5.171,4.86c-1.654,4.311 -4.926,2.814 -5.622,2.158c-1.374,-1.297 -0.866,-1.555 -1.311,-3.411c-0.628,-2.613 -1.531,-2.128 -4.1,-1.336c-7.31,2.255 -10.004,3.934 -10.797,4.428c-17.896,11.155 -21.425,14.947 -22.97,16.607c-7.606,8.171 -9.673,8.974 -14.407,14.119c-6.498,7.062 -10.646,16.678 -11.619,19.606c-0.154,0.462 -1.769,5.322 1.504,5.903c0.639,0.113 3.866,-1.454 8.678,-1.554c2.591,-0.054 10.761,-0.644 14.557,2.383c2.369,1.889 3.184,4.09 3.264,4.182c0.72,0.829 1.928,0.63 2.1,0.602c0.563,-0.093 3.086,-1.818 3.343,-1.994c5.944,-4.064 7.316,-6.581 19.081,-11.615Zm657.422,-217.547c-1.081,6.824 -1.471,7.188 2.824,14.978c1.89,3.427 3.564,7.879 9.75,15.165c1.986,2.34 2.124,2.176 5.165,4.96c2.657,2.432 3.27,0.03 5.338,-0.254c1.022,-0.14 1.042,-0.143 12.409,3.482c5.59,1.783 6.455,5.152 11.199,6.038c1.181,0.221 7.741,0.668 14.897,3.879c3.805,1.707 3.619,2.052 7.465,3.692c0.766,0.327 4.785,1.304 8.22,6.595c4.614,7.109 4.118,14.215 4.574,19.552c0.461,5.395 -2.05,6.818 1.19,12.257c2.584,4.336 5.926,8.046 7.13,8.837c8.355,5.491 16.458,2.661 24.821,1.517c1.519,-0.208 9.525,-0.51 18.794,-9.962c3.157,-3.22 1.889,-4.607 5.646,-11.563c2.995,-5.547 2.459,-7.013 5.002,-14.809c2.164,-6.636 -0.258,-6.816 -0.029,-21.016c0.084,-5.196 0.231,-5.398 -2.114,-13.654c-0.628,-2.21 -0.218,-2.403 -6.381,-13.571c-4.474,-8.107 -6.776,-10.254 -7.556,-10.982c-4.772,-4.452 -5.561,-3.562 -11.958,-10.395c-3.507,-3.746 -3.843,-3.344 -13.996,-8.222c-3.511,-1.687 -8.946,-2.862 -14.564,-6.807c-1.226,-0.861 -6.44,-5.437 -16.292,-6.354c-5.498,-0.512 -5.648,1.296 -9.759,-0.154c-3.952,-1.394 -19.699,-4.531 -23.8,-4.782c-7.749,-0.474 -8.865,1.703 -12.294,0.111c-2.045,-0.949 -4.057,-2.791 -11.422,2.665c-1.617,1.198 -3.924,3.926 -4.932,5.032c-3.673,4.033 -5.875,9.158 -9.328,23.764Zm149.019,283.059c-0.016,-1.169 0.087,-3.273 -0.286,-6.246c-0.772,-6.158 -0.231,-6.163 -0.385,-12.383c-0.435,-17.532 -2.92,-24.086 -3.666,-26.054c-4.779,-12.603 -0.612,-17.182 -8.282,-30.021c-4.948,-8.283 -3.802,-11.256 -6.829,-15.775c-2.928,-4.371 -2.927,-5.092 -3.738,-6.193c-2.208,-2.997 -10.539,-2.333 -18.24,1.223c-3.084,1.424 -3.337,0.601 -6.478,1.878c-0.874,0.355 -8.055,4.518 -8.767,4.977c-9.65,6.217 -10.278,7.861 -13.744,12.588c-13.815,18.837 -15.446,30.481 -20.674,44.991c-3.436,9.539 -2.447,9.764 -4.254,19.76c-2.802,15.5 -1.608,15.661 -3.679,27.331c-1.371,7.729 -1.517,11.588 -2.232,16.194c-0.89,5.732 -1.77,7.13 2.671,8.522c4.078,1.278 10.422,3.728 16.103,5.073c10.038,2.376 10.451,3.646 16.106,5.124c5.716,1.494 5.791,1.154 11.375,3.16c10.518,3.779 13.969,1.053 27.082,5.641c8.512,2.979 20.519,2.137 26.127,2.549c3.298,0.242 5.162,0.332 4.524,-5.177c-1.449,-12.505 -0.303,-16.202 -1.231,-23.571c-1.257,-9.976 0.027,-13.714 -1.037,-19.887c-0.555,-3.222 -0.549,-3.209 -0.465,-13.704Zm-571.341,-31.169c3.216,15.119 0.804,16.066 -0.093,20.068c-0.379,1.69 -0.079,6.602 1.171,9.733c2.002,5.014 8.284,11.627 10.761,12.715c1.771,0.778 11.414,2.974 16.336,1.388c1.227,-0.395 8.599,-3.71 14.756,-4.382c7.414,-0.809 7.762,-1.024 15.214,-9.368c6.288,-7.041 5.676,-10.32 9.643,-20.111c3.871,-9.556 4.489,-9.861 5.387,-23.561c0.718,-10.949 -1.695,-11.531 0.09,-19.796c1.534,-7.105 0.161,-28.536 -1.258,-30.265c-1.191,-1.451 -2.205,-0.928 -5.32,-0.287c-3.826,0.788 -3.724,1.177 -7.585,1.76c-5.898,0.89 -6.248,2.975 -5.856,18.748c0.266,10.689 3.281,22.295 -2.817,22.177c-5.693,-0.11 -2.887,-10.068 -5.782,-21.038c-0.311,-1.179 -4.147,-11.888 -9.003,-13.838c-2.843,-1.142 -8.964,-0.164 -8.821,7.738c0.127,7.032 4.341,17.529 4.58,18.697c0.012,0.06 1.967,17.385 -4.618,16.334c-5.766,-0.921 -0.439,-11.588 -3.316,-16.587c-0.638,-1.109 -2.084,-3.895 -5.374,-4.314c-6.936,-0.883 -19.145,14.074 -19.052,24.38c0.043,4.798 0.818,9.035 0.96,9.81Zm148.213,33.494c2.689,-5.961 4.728,-9.047 3.623,-10.691c-0.538,-0.8 -6.901,-2.881 -9.586,-7.726c-5.532,-9.983 -3.709,-12.293 -2.304,-14.904c1.668,-3.098 4.354,-3.714 4.323,-4.1c-0.037,-0.477 -1.298,-1.424 -1.432,-1.524c-1.765,-1.326 -7.762,1.479 -24.212,-4.054c-5.216,-1.754 -4.965,0.851 -13.412,13.447c-8.018,11.956 -6.417,15.781 -13.553,24.919c-5.578,7.143 -6.939,11.209 -10.681,18.185c-5.088,9.485 -5.151,9.446 -5.582,10.277c-3.264,6.284 -8.014,10.488 -8.445,17.345c-0.392,6.228 0.069,8.685 5.76,11.285c10.515,4.802 10.402,5.222 15.007,5.831c10.104,1.335 10.087,1.542 24.928,7.359c6.21,2.434 5.198,-2.056 13.199,-12.354c5.229,-6.73 4.785,-7.034 10.515,-20.745c3.646,-8.724 3.552,-8.742 6.764,-17.647c2.675,-7.413 1.904,-7.665 5.088,-14.903Zm-24.427,1.557c-0.198,0.514 0.019,0.544 -0.18,1.059c-0.372,0.965 -0.58,0.829 -0.581,0.916c-0.003,0.232 0.398,0.247 0.562,0.412c0.577,0.578 1.079,1.205 1.167,1.315c4.31,5.381 3.497,15.702 3.125,17.357c-1.691,7.519 -14.462,10.271 -26.273,4.363c-12.575,-6.29 -10.242,-22.108 3.448,-25.645c5.424,-1.401 6.996,-0.932 7.516,-1.093c0.953,-0.295 1.024,-1.658 0.612,-1.961c-0.236,-0.174 -0.451,0.207 -3.194,-1.8c-1.468,-1.074 -2.512,-3.335 -2.664,-3.664c-0.591,-1.28 -3.896,-8.435 4.405,-17.071c8.003,-8.325 22.455,0.044 23.286,0.624c0.483,0.337 1.991,1.389 3.674,6.377c1.819,5.392 -0.759,10.69 -4.732,14.075c-4.473,3.811 -7.369,4.223 -10.172,4.736Zm-22.514,13.5c0.295,1.334 -0.236,2.732 3.577,5.326c4.839,3.291 10.099,1.268 13.072,-1.007c6.159,-4.713 -0.181,-14.86 -10.255,-11.436c-5.953,2.023 -6.017,5.504 -6.395,7.118Zm27.044,-25.214c0.637,-0.655 5.79,-5.169 -0.873,-8.352c-4.699,-2.245 -7.825,-4.265 -12.151,1.48c-2.49,3.307 -0.602,6.888 2.174,8.528c2.833,1.673 5.86,2.524 10.85,-1.655Zm-41.779,48.767c-0.483,-1.259 -2.535,-4.419 0.798,-6.747c0.678,-0.473 2.087,-1.458 10.323,0.414c15.199,3.456 17.212,4.444 18.598,5.124c3.313,1.627 2.055,4.682 1.665,5.244c-1.127,1.626 -2.214,2.47 -10.432,-0.055c-9.071,-2.787 -9.044,-2.868 -9.853,-3.029c-1.585,-0.315 -1.988,0.384 -2.073,0.532c-0.671,1.164 -0.122,1.197 0.464,2.4c0.774,1.59 1.004,2.317 1.071,2.526c1.019,3.221 -0.705,5.03 -1.817,5.293c-4.174,0.985 -5.632,-5.542 -8.743,-11.702Zm358.744,123.792c9.239,-1.853 9.338,-1.007 18.692,-2.241c11.107,-1.466 14.245,2.005 26.111,1.617c2.962,-0.097 15.158,-2.084 16.225,-2.297c7.856,-1.569 12.516,-0.192 26.278,-11.174c4.286,-3.42 8.586,-4.434 12.989,-8.255c0.8,-0.694 3.369,-2.923 7.412,-10.965c5.721,-11.38 5.711,-11.353 6.111,-12.383c4.769,-12.27 5.351,-13.541 5.447,-18.433c0.125,-6.355 0.614,-6.304 3.598,-19.909c1.663,-7.58 2.18,-8.061 0.587,-9.258c-1.729,-1.3 -14.683,0.729 -28.866,-3.485c-13.72,-4.076 -17.012,-2.323 -25.147,-5.298c-7.203,-2.634 -7.37,-2.065 -14.615,-4.535c-7.999,-2.727 -9.705,-2.883 -16.189,-4.861c-12.717,-3.879 -12.559,-5.064 -14.855,-4.546c-1.454,0.328 -2.088,3.381 -3.616,7.266c-0.756,1.921 -1.443,2.029 -0.393,3.825c0.299,0.511 0.443,0.333 2.736,0.83c4.589,0.995 4.413,5.729 1.008,7.187c-2.531,1.083 -10.904,-3.706 -17.238,-3.958c-6.021,-0.24 -9.172,0.097 -9.965,0.182c-7.608,0.813 -8.674,-0.028 -14.863,0.271c-6.857,0.331 -6.812,2.623 -26.033,1.02c-4.989,-0.416 -7.64,0.287 -24.838,-1.276c-8.149,-0.741 -8.127,1.013 -13.709,0.704c-10.001,-0.555 -12.679,-12.505 -18.579,-17.602c-2.149,-1.857 -4.188,-3.798 -5.979,-3.112c-0.957,0.366 -0.744,0.604 -2.103,2.739c-0.492,0.773 -3.375,3.953 -8.179,5.1c-12.194,2.912 -15.583,-7.806 -7.545,-17.228c1.545,-1.811 2.707,-1.734 1.669,-3.868c-0.817,-1.68 -5.914,1.887 -6.67,2.482c-7.528,5.924 -6.922,8.64 -3.96,14.162c3.893,7.26 3.651,7.375 5.039,9.884c3.487,6.304 3.032,6.897 7.886,9.638c0.3,0.169 2.619,1.479 2.056,3.776c-1.058,4.317 -6.95,3.823 -9.527,4.19c-6.347,0.906 -6.358,0.314 -14.96,0.482c-13.694,0.268 -13.687,-1.118 -27.348,-0.237c-11.739,0.757 -16.361,0.768 -18.552,4.358c-1.919,3.144 -1.627,5.182 -0.84,8.559c2.704,11.606 13.301,7.644 18.159,6.241c8.132,-2.348 9.315,-0.684 20.023,-3.063c8.972,-1.993 15.127,5.168 10.454,12.689c-5.157,8.3 -14.399,5.957 -20.527,5.733c-9.161,-0.334 -18.407,3.629 -22.402,7.015c-1.169,0.991 -1.459,1.021 -1.142,2.515c0.222,1.047 2.382,1.184 2.454,1.197c10.019,1.796 10.534,2.632 17.37,2.677c9.705,0.063 13.106,-1.754 13.864,-1.998c7.975,-2.559 6.959,4.001 6.87,4.217c-1.184,2.872 -4.515,3.203 -5.296,5.216c-0.634,1.633 1.963,5.489 2.245,5.908c6.043,8.976 7.071,13.281 15.804,16.47c9.026,3.296 11.308,4.768 18.673,4.686c20.23,-0.225 20.038,2.057 36.058,3.528c19.594,1.8 22.168,3.012 36.003,2.195c7.119,-0.42 10.312,1.064 14.888,1.017c10.659,-0.108 13.72,2.43 27.228,0.406Zm-297.087,-133.824c-2.899,7.105 -3.619,8.547 -2.775,9.526c0.595,0.691 0.895,0.142 10.521,4.386c1.236,0.545 7.599,3.35 16.223,4.69c4.949,0.769 4.938,0.672 9.897,1.481c16.106,2.628 16.633,-0.521 27.458,3.31c9.654,3.416 9.948,2.383 19.596,5.754c2.401,0.839 11.884,4.152 31.146,6.356c3.066,0.351 13.795,1.302 14.995,1.408c5.166,0.458 5.144,-0.36 14.86,-0.275c1.398,0.012 15.95,0.14 17.473,-0.11c2.503,-0.411 1.987,-2.499 1.922,-2.76c-0.665,-2.69 -7.961,-16.229 -8.743,-19.86c-1.323,-6.144 1.486,-10.308 10.26,-16.555c10.095,-7.188 12.359,-3.13 14.648,-6.226c1.194,-1.615 4.323,-12.07 8.928,-22.135c1.839,-4.02 1.99,-4.42 -0.034,-7.172c-0.528,-0.717 -1.36,-1.849 -4.418,-10.212c-0.813,-2.224 -1.72,-6.618 -2.011,-6.968c-2.021,-2.433 -4.649,3.61 -13.198,4.357c-22.311,1.948 -29.78,-6.9 -48.43,-4.865c-11.755,1.283 -11.621,-0.865 -29.882,-4.383c-0.305,-0.059 -0.442,0.454 -15.94,-4.558c-12.868,-4.162 -25.346,-12.976 -42.265,-10.291c-12.528,1.988 -12.826,6.54 -20.244,10.085c-1.577,0.754 -12.132,4.977 -10.304,10.327c2.543,7.444 10.765,6.462 11.831,6.334c18.826,-2.249 22.789,-8.391 27.513,-6.532c1.289,0.507 3.758,3.593 -1.756,7.338c-1.641,1.114 -10.093,4.32 -15.797,5.549c-1.51,0.325 -6.567,0.826 -7.667,3.552c-0.815,2.019 -1.547,5.461 -4.371,11.445c-1.239,2.625 -3.277,8.871 -4.047,11.029c-2.547,7.148 -1.931,7.846 -5.391,15.972Zm-320.532,-17.336c-3.037,14.954 -2.407,24.195 -16.749,33.928c-4.31,2.925 -9.172,6.57 -25.031,7.11c-3.247,0.111 -5.355,-0.284 -8.648,0.298c-5.71,1.01 -15.82,1.627 -17.663,3.169c-2.27,1.9 -1.618,3.445 -6.262,7.426c-6.827,5.852 -12.211,6.251 -13.393,6.338c-11.554,0.855 -13.185,-5.975 -15.905,-4.373c-1.698,1 -0.855,1.463 -0.306,3.345c1.623,5.572 4.06,8.15 8.417,11.607c9.397,7.457 13.836,8.274 15.208,8.526c4.46,0.82 4.703,0.145 8.612,2.433c3.121,1.827 3.322,2.08 9.967,3.882c8.173,2.216 8.329,1.156 26.203,3.191c11.375,1.295 11.305,-1.438 24.823,-1.438c6.19,0 7.004,0.761 22.364,-3.347c4.62,-1.236 4.29,-2.03 12.232,-5.417c10.567,-4.506 17.424,-10.876 18.731,-12.089c3.932,-3.652 4.032,-3.506 7.161,-5.485c3.327,-2.104 7.954,-8.221 9.426,-10.332c3.148,-4.514 5.057,-10.878 7.413,-14.976c5.824,-10.132 6.976,-19.024 8.918,-38.627c0.039,-0.394 0.45,-4.547 0.307,-4.94c-0.562,-1.539 -1.888,-1.526 -2.095,-1.524c-1.098,0.011 -12.963,4.555 -16.429,-3.398c-2.469,-5.667 -2.342,-9.75 -7.172,-8.823c-1.832,0.351 -9.771,2.295 -10.98,2.904c-2.887,1.456 -2.605,7.673 -4.054,14.465c-1.658,7.77 -5.197,10.311 -16.017,10.129c-13.113,-0.221 -12.938,-16.793 -13.026,-17.412c-0.029,-0.202 -0.294,-2.079 -0.796,-2.424c-0.316,-0.217 -1.65,-0.063 -1.804,0.141c-0.602,0.794 0.434,1.083 -2.609,12.179c-0.362,1.321 -0.33,1.301 -0.839,3.534Zm637.097,-40.927c0.116,-3.098 0.192,-3.077 0.105,-6.162c-0.142,-5.036 -2.361,-3.736 -10.489,-8.074c-7.517,-4.012 -8.445,-1.323 -16.22,-4.867c-5.747,-2.619 -11.636,-3.158 -16.411,-4.353c-1.522,-0.381 -3.395,-1.28 -6.022,4.934c-4.96,11.73 -8.344,17.586 -7.717,22.295c2.378,17.865 3.527,21.684 4.077,23.512c2.751,9.143 1.096,10.948 7.363,13.334c14.991,5.709 15.266,4.783 17.242,4.698c3.557,-0.152 4.634,0.203 7.563,-1.631c1.257,-0.787 7.14,-4.469 12.391,-13.787c3.947,-7.005 4.88,-9.294 5.506,-12.595c1.637,-8.622 1.89,-8.563 2.612,-17.304Zm-430.608,47.982c-3.223,0.823 -5.579,2.087 -17.13,-0.124c-7.612,-1.457 -10.236,-4.085 -10.909,-4.759c-0.599,-0.6 -0.562,-0.63 -6.782,-8.153c-2.652,-3.208 -4.932,-9.267 -5.242,-11.238c-0.879,-5.585 0.121,-5.673 -0.999,-11.212c-1.153,-5.698 -0.298,-11.613 -2.105,-12.673c-1.938,-1.137 -5.687,-1.188 -7.415,0.452c-1.465,1.391 -4.681,4.443 -5.783,24.578c-0.358,6.536 2.227,8.894 5.092,13.954c5.337,9.426 10.431,14.838 12.871,15.929c4.632,2.071 7.863,0.476 13.523,2.822c0.227,0.094 6.199,3.749 18.812,2.238c6.424,-0.77 6.233,-1.745 8.25,-5.333c1.37,-2.436 1.555,-2.29 3.018,-4.7c0.668,-1.101 1.139,-1.136 0.536,-2.269c-0.691,-1.297 -4.732,0.206 -5.737,0.488Zm432.354,-252.807c0.063,0.57 -1.32,0.603 -1.257,1.172c0.068,0.619 0.972,0.786 1.508,1.104c0.201,0.12 0.505,0.033 0.675,0.194c0.291,0.276 0.374,0.714 0.617,1.033c0.001,0.002 0.678,0.295 1.347,2.514c3.26,10.802 -5.554,16.361 -6.288,17.704c-1.322,2.418 3.158,3.299 1.677,13.403c-1.125,7.675 -7.378,10.736 -13.221,10.155c-9.971,-0.991 -12.161,-6.504 -12.855,-7.034c-0.191,-0.146 -0.477,0.106 -0.715,0.08c-0.36,-0.04 -0.696,-0.349 -1.051,-0.275c-1.052,0.219 -1.422,3.071 -1.46,3.362c-0.604,4.66 1.226,5.627 0.037,13.666c-0.175,1.18 -0.463,3.129 -0.395,14.909c0.026,4.613 3.091,2.141 6.498,1.154c4.359,-1.263 4.373,-1.127 8.65,-2.595c9.302,-3.193 13.673,-2.123 26.191,-4.57c7.344,-1.436 7.37,-1.036 14.865,-1.263c1.259,-0.038 5.761,0.766 4.574,-7.588c-0.544,-3.826 -4.783,-8.235 -4.532,-13.719c0.052,-1.132 1.203,-5.898 -2.351,-6.8c-3.778,-0.958 -14.96,2.768 -16.15,-11.852c-0.328,-4.027 1.885,-13.189 4.985,-17.236c0.936,-1.222 1.386,-1.114 1.166,-2.647c-0.146,-1.014 -0.351,-0.949 -1.318,-1.285c-0.454,-0.157 -7.524,-2.134 -8.757,-2.68c-0.653,-0.289 -0.555,-0.445 -1.216,-0.691c-0.599,-0.222 -0.628,0.006 -1.223,-0.215Zm-591.126,-44.27c3.569,-0.367 5.146,-0.706 11.105,-0.667c4.475,0.029 7.3,0.326 9.872,-0.167c8.816,-1.69 12.157,-4.152 23.675,-3.866c14.324,0.356 22.151,0.396 28.698,-4.285c5.861,-4.191 6.74,-3.39 9.627,-7.775c6.354,-9.652 7.005,-9.245 8.373,-12.432c0.576,-1.343 0.562,-1.666 -0.779,-2.259c-0.796,-0.352 -0.757,0.039 -1.387,0.622c-3.714,3.432 -6.243,3.779 -7.325,4.127c-5.802,1.864 -5.441,2.779 -18.765,6.998c-6.246,1.978 -8.536,1.695 -13.543,2.831c-11.066,2.51 -11.027,2.668 -22.318,3.785c-4.828,0.478 -6.203,1.005 -8.693,1.261c-10.075,1.033 -18.553,-0.791 -40.998,0.793c-0.375,0.027 -14.509,0.093 -16.109,0.043c-11.446,-0.357 -35.898,0.464 -38.447,0.091c-10.995,-1.609 -20.23,-0.339 -29.938,-1.478c-16.983,-1.993 -21.947,1.056 -32.266,-1.629c-4.379,-1.139 -4.398,-0.953 -8.801,-2.044c-2.466,-0.611 -5.189,-0.788 -7.412,-1.509c-8.481,-2.75 -11.081,-10.362 -11.543,-11.233c-0.4,-0.752 -2.494,-3.503 -3.198,-5.266c-0.773,-1.936 -0.88,-5.587 -4.652,-3.085c-5.636,3.738 -5.509,4.612 -5.781,5.438c-1.417,4.302 3.261,13.837 8.272,16.982c7.772,4.879 7.694,4.99 8.402,5.356c0.707,0.365 2.19,1.132 9.857,1.321c7.497,0.185 7.435,0.745 14.912,1.154c9.108,0.498 16.063,3.869 22.374,2.884c9.164,-1.431 9.211,-0.84 10,-0.995c2.272,-0.448 4.547,-3.843 7.168,-2.634c2.523,1.164 0.208,5.754 1.544,6.986c1.585,1.462 16.134,0.473 17.297,0.347c5.996,-0.65 5.856,-2.673 9.956,-1.583c3.35,0.89 4.374,0.624 11.109,-0.098c10.787,-1.156 29.456,3.768 37.285,3.739c16.28,-0.061 20.816,-1.489 22.431,-1.749Zm-206.393,230.175c2.385,-1.008 2.365,-1.013 2.576,-1.089c5.893,-2.127 28.946,-4.836 31.042,-7.343c1.385,-1.656 1.104,-5.196 0.733,-5.787c-0.35,-0.558 -0.941,-1.499 -8.207,0.584c-2.853,0.818 -2.758,1.244 -11.147,2.375c-1.713,0.231 -13.418,1.81 -20.814,5.809c-4.064,2.197 -4.054,2.282 -12.683,4.446c-6.833,1.714 -7.397,3.781 -10.646,0.767c-6.65,-6.167 -17.215,-10.804 -22.817,-12.061c-9.264,-2.079 -10.089,-1.028 -12.376,-0.568c-4.066,0.818 -6.566,-0.432 -10.142,3.146c-7.368,7.37 -5.063,12.724 -4.501,14.928c3.975,15.582 10.523,14.751 23.25,13.85c10.471,-0.741 14.137,-4.303 26.145,-7.278c5.619,-1.392 7.808,-3.901 14.727,-5.678c7.825,-2.01 7.553,-2.695 14.859,-6.102Zm-71.59,3.966l-0.466,-2.399c0.013,-0.922 2.442,-8.482 8.924,-9.47c11.504,-1.755 11.348,0.499 16.513,3.899c4.169,2.744 4.07,2.842 8.065,5.83c1.195,0.894 1.656,0.759 1.529,2.241c-0.103,1.197 -2.306,1.735 -2.317,1.74c-12.339,5.188 -12.459,4.924 -20.112,5.76c-8.321,0.909 -9.74,0.429 -12.135,-7.601Zm124.756,86.896c-0.256,0.764 -2.506,7.47 -1.615,9.941c0.734,2.034 2.028,1.946 9.266,6.642c3.23,2.096 5.166,3.01 10.099,3.625c1.489,0.186 4.298,0.98 8.972,-3.686c4.212,-4.205 1.394,-6.021 5.168,-9.686c3.314,-3.219 2.666,-3.66 4.068,-8.078c3.092,-9.746 3.947,-9.47 5.941,-18.382c2.668,-11.921 2.348,-11.985 5.655,-23.728c2.207,-7.839 2.949,-18.83 4.608,-26.155c0.934,-4.123 0.042,-4.164 -1.663,-5.444c-1.231,-0.924 -3.171,-3.923 1.128,-7.746c0.669,-0.595 3.694,-1.564 3.542,-7.847c-0.088,-3.649 -3.259,-12.783 -4.758,-14.066c-1.41,-1.207 -7.805,-0.296 -12.98,3.851c-5.061,4.056 -8.299,5.129 -14.559,10.372c-3.205,2.684 -4.713,1.332 -5.624,4.661c-0.839,3.064 -0.952,12.064 -3.984,25.094c-2.016,8.664 -2.119,8.622 -4.427,17.214c-2.77,10.316 -0.155,18.263 -8.836,43.417Zm399.203,-173.218c-8.442,2.743 -8.418,2.773 -16.419,6.647c-14.033,6.794 -18.346,6.776 -16.696,12.522c1.436,5.003 2.144,5.953 3.6,17.49c0.404,3.198 0.774,3.587 1.158,6.228c0.572,3.943 2.402,3.448 8.32,4.035c4.438,0.44 13.966,-0.203 17.479,-1.268c1.454,-0.441 12.506,-4.361 17.486,-7.392c5.455,-3.321 5.791,-3.529 11.33,-11.261c0.573,-0.799 3.267,-4.56 4.608,-11.396c0.919,-4.682 -2.333,-11.637 -3.868,-13.501c-8.25,-10.017 -12.45,-4.786 -22.232,-3.019c-2.388,0.431 -2.36,0.422 -4.765,0.915Zm-189.103,62.317c7.08,-2.468 7.122,-2.31 14.086,-5.111c7.583,-3.051 19.948,-2.887 29.311,-8.5c10.67,-6.396 24.442,-7.724 31.345,-9.321c15.513,-3.589 15.622,-3.174 18.346,-4.408c5.258,-2.381 16.429,-3.929 23.633,-6.23c0.234,-0.075 2.356,-0.753 2.34,-1.982c-0.032,-2.468 -1.524,-0.972 -13.336,1.076c-11.678,2.025 -11.509,2.782 -24.827,5.075c-5.558,0.957 -18.693,4.296 -20.873,5.441c-2.627,1.379 -2.848,1.645 -16.295,3.818c-3.542,0.572 -20.827,4.437 -27.563,6.458c-10.162,3.049 -17.061,3.247 -22.116,4.547c-14.039,3.608 -14.588,1.293 -23.622,4.794c-4.987,1.932 -17.577,4.671 -19.943,7.3c-1.556,1.729 -0.845,8.455 -0.419,8.983c1.348,1.674 1.759,0.715 6.689,0.031c20.468,-2.84 23.058,-6.254 29.689,-8.057c4.685,-1.273 4.837,-0.695 13.556,-3.914Zm-226.788,274.409c0.283,-0.262 0.773,-0.212 1.055,-0.474c0.659,-0.612 0.824,-2.524 0.844,-2.754c0.819,-9.509 5.776,-25.829 2.798,-31.015c-1.461,-2.543 -8.299,-2.312 -9.047,-1.755c-1.755,1.305 -0.93,2.254 -0.677,5.486c0.925,11.81 -0.442,11.932 1.352,19.804c1.333,5.848 1.688,8.304 3.676,10.708Zm75.452,-85.059c-3.426,0.175 -4.851,-0.1 -4.966,4.889c-0.14,6.087 1.557,5.834 6.119,6.742c6.145,1.222 10.03,4.693 13.342,2.592c1.586,-1.006 2.497,-7.181 -0.895,-7.814c-0.437,-0.082 -6.249,0.285 -6.293,-2.752c-0.006,-0.416 0.104,-0.847 0.31,-1.207c0.279,-0.489 0.885,-0.759 1.108,-1.276c0.081,-0.189 -0.093,-1.913 -0.173,-1.945c-0.174,-0.069 -0.145,0.103 -2.319,0.319c-3.11,0.309 -3.09,0.342 -6.231,0.453Zm112.702,65.876c0.695,1.426 4.753,9.748 10.753,16.66c0.774,0.892 0.862,0.858 2.036,0.755c1.074,-0.094 1.024,-0.372 1.031,-1.432c0.01,-1.587 -0.144,-1.572 -0.278,-19.83c-0.003,-0.37 0.074,-2.044 -0.419,-2.729c-1.206,-1.676 -2.798,-1.283 -7.827,-1.39c-0.405,-0.009 -4.574,-0.097 -5.06,-0.049c-2.495,0.251 -1.945,2.557 -1.882,2.821c0.638,2.674 0.73,2.617 1.646,5.193Zm-23.049,8.459c0.349,0.81 4.186,9.719 4.815,9.922c0.398,0.128 1.995,-0.65 2.089,-1.217c0.212,-1.272 -0.359,-1.322 1.66,-16.038c0.649,-4.73 2.312,-8.001 -1.337,-8.743c-0.889,-0.181 -10.832,-2.201 -11.148,-2.101c-0.196,0.062 -1.577,0.499 -1.404,2.147c0.053,0.505 0.318,0.425 1.849,6.075c1.604,5.919 2.578,7.892 3.475,9.955Zm-44.956,-66.726c-11.388,-0.347 -11.657,-0.705 -17.479,-2.217c-0.278,-0.072 -3.269,-0.849 -3.009,1.96c0.449,4.858 -0.299,6.016 4.33,7.544c6.013,1.986 6.102,1.614 12.442,1.644c11.654,0.055 13.886,2.371 15.182,1.127c1.186,-1.139 0.713,-1.367 0.281,-2.947c-0.43,-1.571 -0.678,-3.851 -3.05,-4.837c-4.09,-1.701 -7.982,-2.186 -8.695,-2.274Zm-85.473,-373.032c6.079,4.786 15.336,1.736 16.119,-5.986c0.107,-1.055 0.667,-6.572 -5.467,-12.075c-4.631,-4.155 -10.179,-0.866 -11.177,3.275c-0.326,1.354 -2.001,10.209 -0.439,13.488c0.056,0.117 0.071,0.096 0.965,1.297Zm743.768,20.1c-1.436,2.561 -2.562,5.599 -2.748,6.101c-1.143,3.084 -4.619,8.602 -0.201,12.944c0.521,0.512 2.552,2.508 9.101,0.731c7.583,-2.058 8.694,-13.404 3.205,-17.959c-3.268,-2.712 -3.951,-3.059 -4.337,-3.256c-3.675,-1.869 -4.219,0.486 -5.02,1.438Zm-805.277,407.409c0.864,6.544 2.883,20.276 3.352,20.693c0.067,0.059 1.685,0.103 1.77,0.045c0.227,-0.152 7.448,-25.968 6.608,-31.999c-0.532,-3.824 -3.78,-3.342 -8.831,-2.978c-1.617,0.117 -3.664,-0.136 -3.65,2.996c0.021,4.551 0.653,10.347 0.75,11.243Zm171.912,-423.414c1.81,-1.033 1.805,-1.011 2.41,-1.402c2.629,-1.695 4.481,-5.159 4.392,-8.719c-0.108,-4.357 -0.415,-6.83 -3.068,-8.778c-1.373,-1.008 -4.182,-3.562 -8.754,-1.097c-5.437,2.931 -4.883,15.479 -3.153,18.243c2.684,4.288 5.795,2.498 8.173,1.752Zm100.152,210.784c-0.352,-0.626 -0.46,-0.528 -0.806,-1.145c-0.09,-0.161 0.045,-0.513 -0.138,-0.536c-0.395,-0.049 -0.75,0.271 -1.135,0.377c-1.89,0.517 -20.28,5.545 -23.604,6.548c-11.008,3.321 -11.51,1.154 -22.401,4.832c-9.449,3.192 -9.631,2.813 -10.258,3.408c-1.897,1.799 0.684,7.249 2.864,7.502c1.3,0.15 4.456,-1.052 4.828,-1.194c13.051,-4.973 13.386,-4.074 26.045,-9.955c5.238,-2.434 8.781,-2.887 12.666,-4.439l9.853,-3.935c1.333,-0.605 1.177,-0.911 1.49,-1.173c0.169,-0.142 0.427,-0.148 0.596,-0.29Zm-268.092,4.811c-6.544,3.934 -10.248,5.507 -9.267,8.907c0.366,1.27 3.031,9.244 3.299,10.046c0.075,0.226 0.721,2.158 2.278,1.916c0.477,-0.074 1.974,-1.504 7.642,-4.324c0.116,-0.058 10.316,-5.855 11.9,-7.868c1.684,-2.141 -0.674,-4.149 -0.947,-4.381c-0.543,-0.463 -0.687,-0.268 -7.056,-5.458c-2.882,-2.349 -5.442,-0.114 -7.849,1.162Zm-22.807,225.226c0.223,-1.601 1.434,-10.29 2.982,-19.98c0.904,-5.661 1.888,-6.878 2.014,-7.577c0.034,-0.187 0.278,-1.541 -0.656,-2.289c-0.525,-0.42 -2.256,-0.344 -2.454,-0.336c-6.855,0.299 -6.854,0.246 -7.447,0.309c-3.62,0.384 -2.718,2.622 -2.529,8.675c0.561,17.941 0.746,17.992 3.201,25.048c0.502,1.443 0.983,4.477 1.698,6.126c0.043,0.099 0.439,1.012 1.148,0.718c0.234,-0.097 0.17,-0.158 0.751,-1.604c0.713,-1.773 0.446,-1.831 1.292,-9.091Zm148.789,-373.564c0.243,-0.297 2.622,-1.888 2.336,-7.814c-0.016,-0.337 -0.077,-5.184 -3.891,-7.495c-6.786,-4.112 -9.328,-2.863 -12.653,-1.788c-9.02,2.916 -10.202,10.825 -7.842,14.586c4.202,6.697 10.792,5.912 12.988,5.673c7.023,-0.762 8.477,-2.71 9.062,-3.162Zm-211.871,351.026c-4.998,19.557 -8.215,19.71 -5.209,25.844c0.12,0.245 1.45,2.96 3.362,0.602c5.088,-6.279 9.153,-15.654 11.901,-21.504c0.454,-0.967 0.449,-0.965 4.854,-12.44c1.602,-4.173 2.419,-5.861 -0.826,-7.368c-5.769,-2.679 -5.71,-4.211 -7.549,-4.002c-0.9,0.102 -1.997,0.227 -4.607,10.339c-0.175,0.677 -0.159,0.678 -1.926,8.53Zm336.75,22.634c0.424,0.468 5.185,5.72 5.325,5.828c0.172,0.133 2.576,1.981 2.525,-1.006c-0.039,-2.312 -1.614,-4.954 -1.228,-21.139c0.055,-2.291 0.358,-6.252 -0.462,-7.255c-0.854,-1.044 -2.241,-0.659 -9.676,-0.642c-7.003,0.016 -8.829,-0.023 -9.418,0.827c-0.895,1.291 1.005,3.749 1.541,4.786c2.745,5.311 5.138,11.55 11.393,18.602Zm-112.761,-393.514c7.563,-1.093 8.605,-0.996 9.63,-5.4c2.189,-9.407 3.052,-10.648 1.663,-11.319c-1.249,-0.604 -1.288,-0.438 -2.663,-0.333c-8.132,0.623 -9.093,-0.279 -19.61,4.775c-3.348,1.609 -7.277,2.846 -5.62,4.718c0.727,0.821 0.877,0.577 2.823,1.174c0.626,0.192 3.301,1.013 7.116,4.042c2.887,2.292 2.994,2.409 6.663,2.343Zm651.56,156.483c-0.066,0.271 -0.304,0.478 -0.37,0.749c-0.014,0.059 -0.278,2.421 -0.177,3.728c0.478,6.181 2.328,-0.776 2.381,-0.975l0.165,-1.073l0.626,-2.935c0.774,-4.262 0.719,-4.253 1.953,-8.428c2.707,-9.154 9.969,-22.571 11.726,-25.144c4.165,-6.102 5.263,-9.139 9.676,-13.972c3.346,-3.664 4.975,-4.682 7.834,-7.14c5.532,-4.754 12.686,-7.869 13.875,-8.386c11.71,-5.097 13.846,-5.6 20.081,-5.761c0.691,-0.018 0.901,0.172 1.068,-0.508c0.392,-1.591 0.119,-1.644 -1.029,-2.794c-2.29,-2.292 -2.238,-2.3 -11.499,-12.174c-3.931,-4.191 -3.716,-4.389 -8.14,-8.064c-3.285,-2.729 -7.55,-9 -7.83,-9.436c-3.154,-4.912 -0.19,-6.738 -5.258,-10.912c-5.027,-4.14 -4.349,-4.737 -6.696,-8.429c-0.139,-0.218 -1.425,-2.241 -2.932,-1.366c-0.603,0.35 -2.988,3.941 -3.226,4.299c-3.119,4.695 -2.296,10.216 -12.053,14.855c-7.318,3.479 -6.556,4.676 -12.134,8.019c-5.651,3.386 -7.249,4.816 -12.474,4.332c-9.644,-0.894 -10.117,2.405 -17.324,-0.974c-5.826,-2.731 -11.059,-4.759 -17.111,-10.223c-1.97,-1.779 -3.054,-0.71 -6.771,2.787c-7.615,7.164 -9.101,6.96 -12.37,9.989c-6.066,5.621 -9.546,13.155 -13.195,17.796c-4.559,5.8 -8.543,10.613 -15.027,27.148c-0.791,2.017 -9.358,19.476 -12.995,29.596c-0.525,1.462 -3.752,10.44 -7.966,17.709c-5.314,9.165 -7.927,19.486 -8.495,21.111c-1.254,3.592 -1.915,3.707 -0.56,7.255c1.599,4.187 -1.939,4.166 -4.642,7.687c-2.319,3.019 -7.631,18.9 -7.809,19.631c-0.895,3.689 1.901,4.386 4.753,6.663c0.151,0.121 1.298,1.037 2.39,0.395c0.885,-0.52 2.257,-6.608 6.628,-9.399c4.148,-2.65 12.356,0.483 12.68,6.053c0.155,2.67 -3.533,10.448 -4.966,12.65c-3.573,5.489 -0.657,5.783 2.887,11.292c4.006,6.227 4.492,7.082 12.91,6.878c10.856,-0.263 10.819,0.58 17.374,0.725c9.335,0.206 9.325,-0.029 18.665,0.376c10.39,0.45 10.357,-0.186 19.805,-1.339c1.977,-0.241 4.284,-0.523 24.892,-0.499c3.926,0.004 4.762,0.922 6.644,-2.513c3.12,-5.694 2.837,-8.341 3.221,-10.178c0.919,-4.402 0.953,-8.231 1.785,-16.082c0.95,-8.959 4.061,-21.885 4.395,-27.349c0.161,-2.639 -0.906,-2.498 -1.121,-2.47c-0.559,0.074 -5.281,11.537 -11.141,17.407c-5.358,5.368 -6.262,6.251 -12.507,7.195c-6.051,0.915 -9.228,1.19 -11.055,0.864c-0.604,-0.108 -9.128,-2.282 -9.824,-2.513c-2.581,-0.857 -8.471,-3.696 -9.855,-4.758c-6.516,-5.001 -6.694,-12.742 -7.258,-15.83c-2.917,-15.97 -5.78,-24.31 -2.866,-33.419c0.698,-2.181 4.941,-11.189 5.715,-12.661c1.54,-2.93 2.319,-6.061 4.951,-8.863c5.196,-5.532 7.965,-4.867 16.352,-1.579c6.07,2.379 6.369,1.334 12.535,3.483c9.644,3.361 10.355,1.483 18.515,6.279c7.103,4.176 10.25,5.182 11.378,8.346c0.576,1.615 0.623,1.587 0.665,1.729c0.106,0.361 0.052,0.756 0.158,1.117Zm-69.421,-75.028c0.247,-0.465 2.525,-4.749 3.274,-5.707c4.512,-5.774 8.046,-3.513 9.458,-2.867c4.879,2.233 5.527,3.831 5.343,7.507c-0.394,7.877 -0.399,8.793 -5.105,11.592c-7.614,4.528 -13.18,-2.02 -13.786,-4.208c-0.835,-3.017 0.724,-6.042 0.816,-6.316Zm-33.01,63.639c0.281,-0.408 2.028,-2.946 3.709,-4.953c5.742,-6.859 11.489,-2.689 12.988,0.059c1.126,2.065 1.054,7.148 0.463,9.705c-1.827,7.896 -7.882,7.952 -12.43,8.597c-7.12,1.01 -9.682,-5.924 -4.729,-13.408Zm-601.655,-187.587c0.048,-0.289 0.544,-3.266 0.575,-3.622c0.026,-0.301 -0.1,-0.629 0.022,-0.906c0.144,-0.326 0.513,-0.499 0.724,-0.787c1.022,-1.395 0.594,-2.284 7.825,-5.682c1.273,-0.598 1.282,-0.532 2.531,-1.144c4.779,-2.343 4.568,-2.75 9.564,-4.619c7.961,-2.978 8.758,-5.838 9.499,-12.873c0.014,-0.135 0.179,-0.27 0.118,-0.391c-0.272,-0.54 -0.873,-0.899 -1.057,-1.476c-0.1,-0.312 0.384,-0.629 0.284,-0.942c0.229,-0.356 2.828,-4.391 0.218,-5.286c-0.935,-0.32 -5.152,-0.36 -5.131,1.605c0.01,0.95 0.21,0.877 0.918,1.492c1.011,0.878 0.916,0.938 1.857,1.902c-0.001,0.829 0.399,0.743 0.397,1.573c-0,0.099 -0.22,0.011 -0.402,1.171c-0.243,1.557 0.862,5.982 -5.242,7.637c-2.685,0.728 -2.667,0.727 -5.227,1.812c-6.046,2.56 -11.917,-0.39 -5.035,-10.812c2.48,-3.756 3.019,-3.557 2.984,-4.797c-0.047,-1.693 -0.927,-1.013 -5.092,-1.714c-0.469,-0.079 -0.929,-0.206 -1.398,-0.28c-4.122,-0.646 -4.109,3.231 -5.246,8.143c-2.008,8.673 -1.531,8.734 -3.09,17.516c-1.104,6.218 -2.882,5.829 -3.141,12.137c-0.823,7.858 -1.397,7.735 -2.768,15.234c-0.054,0.293 -0.479,2.621 0.629,3.67c0.32,0.303 0.665,0.629 5.161,1.925c14.212,4.097 14.228,4.849 20.909,3.929c3.321,-0.457 11.021,-0.191 14.983,-0.56c4.563,-0.425 14.945,-3.302 16.228,-3.657c4.948,-1.371 6.586,-0.464 8.998,-2.369c5.943,-4.693 5.346,-10.942 5.394,-11.753c0.356,-6.065 1.423,-6.8 0.065,-11.038c-1.654,-5.16 -1.145,-5.884 -0.806,-12.528c0.184,-3.611 -0.652,-4.108 -1.372,-6.207c-2.905,-8.473 1.924,-11.417 -0.231,-13.344c-0.923,-0.825 -9.052,-2.334 -14.681,-2.089c-0.891,0.039 -8.249,0.36 -11.133,0.594c-0.159,0.013 -1.611,0.131 -1.728,0.992c-0.232,1.715 0.192,1.754 1.821,2.29c0.503,0.166 0.507,0.09 4.871,0.147c7.345,0.096 9.668,4.611 8.967,7.748c-1.016,4.548 -6.053,3.331 -8.835,4.048c-0.123,0.032 -1.56,0.94 -1.214,2.005c0.125,0.384 4.713,3.003 7.119,5.23c1.835,1.698 5.546,6.708 6.491,8.445c2.424,4.459 3.944,7.348 0.642,10.789c-5.674,5.912 -9.373,-0.834 -15.495,-2.628c-8.318,-2.437 -6.732,-6.817 -6.528,-10.572c0.018,-0.326 0.203,-3.732 -2.243,-3.407c-1.393,0.185 -0.977,0.73 -1.645,1.969c-2.324,4.315 -7.889,10.883 -10.507,13.062c-3.819,3.177 -5.024,0.367 -9.224,3.002c-0.485,0.304 -3.708,2.326 -7.085,0.983c-4.837,-1.923 -4.216,-5.393 -4.243,-5.567Zm599.228,158.784c-0.082,-0.366 0.567,-0.649 0.485,-1.014c-0.045,-0.199 -0.7,-0.223 -0.764,-0.226c-0.619,-0.023 -0.582,0.176 -1.219,0.153c-0.349,0.439 -0.424,0.353 -4.53,5.344c-6.774,8.234 -10.525,9.927 -18.981,20.751c-2.438,3.12 -5.1,7.288 -6.739,9.573c-3.489,4.864 -0.057,5.22 2.55,15.269c0.142,0.548 1.723,6.641 2.08,6.762c0.264,0.089 0.494,-0.322 0.773,-0.32c0.261,0.001 0.468,0.424 0.711,0.329c0.634,-0.246 0.053,-1.851 4.669,-11.626c2.376,-5.032 2.33,-5.035 4.9,-9.96c5.852,-11.213 8.695,-22.335 13.43,-29.933c2.83,-4.541 2.513,-4.835 2.635,-5.101Zm-557.595,114.686c1.634,-1.74 1.638,-1.717 1.765,-1.88c0.542,-0.694 0.734,-0.942 4.931,-9.843c3.716,-7.882 2.19,-9.332 5.8,-23.291c2.589,-10.012 3.391,-21.099 3.751,-22.358c0.122,-0.428 1.246,-4.358 4.431,-3.366c3.141,0.978 4.165,5.6 5.406,8.07c2.283,4.545 2.1,4.612 4.089,12.72c1.539,6.275 1.339,9.93 8.025,10.855c5.299,0.733 6.263,-0.343 7.401,-3.55c3.276,-9.237 1.248,-13.778 2.249,-17.458c0.849,-3.123 3.336,-4.154 -2.571,-12.092c-5.093,-6.844 -1.2,-8.983 -6.955,-15.279c-4.951,-5.416 -7.177,-12.455 -22.511,-13.424c-2.697,-0.17 -6.61,-1.016 -11.207,-0.355c-10.852,1.56 -15.539,5.092 -18.47,6.683c-4.419,2.398 -4.174,2.779 -8.59,5.181c-4.116,2.238 -4.49,2.373 -5.239,7.004c-1.55,9.593 -2.203,18.289 -2.323,19.887c-0.565,7.522 -4.651,18.719 -7.817,34.715c-2.721,13.744 -7.178,25.202 -6.907,26.089c0.069,0.224 0.42,0.222 0.589,0.386c0.174,0.168 0.19,0.517 0.419,0.592c0.78,0.255 1.473,-0.732 6.246,-1.63c7.356,-1.384 9.054,-1.464 9.85,-1.502c13.566,-0.643 14.919,0.497 18.837,-0.948c4.707,-1.736 8.179,-4.677 8.803,-5.206Zm635.3,-261.002c0.517,-0.001 0.972,0.435 1.489,0.433c0.515,-0.001 2.465,-1.253 4.99,-1.432c7.808,-0.552 7.299,4.166 7.496,5.788l2.06,0.731c0.171,-0.283 4.888,-6.728 0.592,-9.751c-1.715,-1.206 -8.023,-0.908 -10.093,-0.594c-8.217,1.244 -6.49,4.589 -6.533,4.824Zm0.585,19.974c-2.849,3.25 -3.461,4.241 -0.169,7.018c5.36,4.52 14.147,2.79 12.498,-6.079c-0.973,-5.23 -4.736,-4.327 -7.71,-3.828c-2.069,0.347 -2.515,0.461 -4.619,2.889Zm-488.694,384.906c3.917,7.243 4.065,7.159 4.091,7.172c0.364,0.192 1.982,0.1 2.104,-0.039c0.276,-0.315 -0.088,-11.931 -0.263,-13.438c-0.76,-6.535 -0.877,-6.703 -1.21,-7.182c-0.802,-1.157 -2.877,-0.188 -3.101,-0.083c-4.665,2.179 -6.806,3.01 -5.693,5.713c0.535,1.298 3.736,7.234 4.072,7.857Zm-83.238,-223.66c-0.063,-0.303 -0.706,-3.414 -0.997,-3.735c-0.591,-0.653 -1.952,-2.154 -10.871,1.744c-5.281,2.308 -4.262,4.004 -2.304,7.922c1.381,2.763 4.992,0.929 5.909,0.594c0.468,-0.171 4.798,-1.754 5.836,-2.188c3.393,-1.421 2.487,-2.802 2.426,-4.336Zm1.524,22.271c2.034,-1.181 3.168,-1.307 2.458,-4.922c-1.516,-7.718 -1.416,-7.753 -1.813,-8.305c-0.482,-0.669 -1.719,-0.597 -1.876,-0.588c-0.393,0.023 -8.101,2.842 -8.53,3.022c-5.431,2.279 -0.685,4.759 0.668,12.189c0.688,3.778 2.648,2.169 9.093,-1.396Zm-110.67,143.346c-5.541,-2.166 -5.489,-2.665 -12.266,-2.761c-0.307,-0.004 -2.803,-0.04 -3.691,1.066c-0.086,0.107 -3.209,5.558 0.051,7.283c4.558,2.412 7.637,2.399 13.58,2.431c3.925,0.021 5.451,0.392 5.208,-3.548c-0.258,-4.186 -1.397,-3.683 -2.88,-4.471Zm360.594,-273.85c-0.483,-0.765 -2.625,-5.416 -6.442,-4.612c-7.146,1.505 -9.486,9.804 -4.915,13.317c4.786,3.679 11.124,0.426 12.07,-3.671c0.615,-2.665 -0.687,-4.951 -0.714,-5.034Zm-40.277,20.199c0.978,0.908 3.2,4.365 6.708,-0.011c5.954,-7.426 -1.717,-10.964 -4.147,-9.195c-3.458,2.517 -4.147,6.375 -2.961,8.682c0.101,0.195 0.299,0.329 0.4,0.525Zm62.359,60.633c0.716,-0.251 1.924,-0.168 4.968,-2.459c0.185,-0.139 1.318,-0.992 1.61,-2.397c0.892,-4.295 -8.477,-11.383 -12.221,-4.757c-1.189,2.104 -0.023,6.514 1.116,8.083c1.52,2.094 1.955,1.483 4.526,1.53Zm-37.221,0.064c-0.05,0.057 -2.572,2.589 -2.748,4.923c-0.469,6.217 10.158,2.958 10.886,-2.5c0.209,-1.567 -1.659,-3.38 -3.14,-3.867c-2.656,-0.875 -4.07,0.659 -4.998,1.444Zm352.664,-166.439c-3.227,-1.387 -3.203,-1.388 -3.486,-1.498c-1.354,-0.526 -1.266,-0.648 -2.575,-1.225c-5.285,-2.329 -5.623,0.178 -11.343,-0.71c-4.93,-0.765 -2.142,4.391 -1.366,4.838c2.969,1.711 3.697,-1.529 12.584,-0.578c4.385,0.469 4.407,-0.108 4.751,0.054c0.62,0.292 0.867,1.122 1.48,1.426c1.48,0.735 -0.014,-0.674 -0.046,-2.308Zm-380.147,157.246c2.129,-1.015 2.154,-0.951 2.298,-1.095c1.09,-1.093 0.315,-1.935 0.203,-2.056c-0.945,-1.026 -4.552,0.593 -4.873,1.124c-0.108,0.178 -1.45,2.394 1.258,2.283c0.38,-0.016 0.733,-0.239 1.114,-0.255Zm-34.757,-11.976c-0.049,-0.126 0.267,-0.886 -0.686,-1.757c-1.386,-1.267 -2.953,0.314 -2.631,1.673c0.011,0.046 0.942,1.26 0.982,1.281c0.143,0.073 1.302,0.661 2,-0.209c0.217,-0.271 0.117,-0.716 0.335,-0.987Zm391.222,-111.246c0.299,-0.668 1.02,-1.086 1.319,-1.754c0.187,-0.418 -0.168,-1.907 -0.522,-2.195c-0.073,-0.059 -1.616,-0.086 -1.714,-0.027c-0.568,0.344 -0.907,2.302 -0.03,3.262c0.266,0.292 0.68,0.421 0.946,0.713Zm-112.925,244.127c1.847,-0.957 1.977,-0.815 2.226,-1.369c0.697,-1.544 -0.787,-2.243 -0.97,-2.328c-4.66,-2.194 -7.072,4.846 -2.433,4.098c0.409,-0.066 0.767,-0.335 1.176,-0.401Zm-531.571,-244.705c-0.249,0.219 -0.625,0.255 -0.874,0.474c-0.131,0.115 -1.189,1.045 -0.44,2.134c0.826,1.201 2.572,0.313 2.77,0.213c1.237,-0.629 0.965,-2.572 -0.167,-2.835c-0.419,-0.097 -0.87,0.111 -1.289,0.014Zm649.923,-14.93c0.548,0.62 0.317,0.764 0.861,1.379c0.077,0.088 0.539,0.61 1.152,0.898c0.338,0.159 0.77,0.006 1.108,0.165c0.001,-0.015 0.577,-1.032 0.087,-2.292c-0.044,-0.114 -0.484,-1.245 -0.715,-1.349l-2.493,1.199Zm-5.069,3.686c0.295,0.126 0.42,0.52 0.715,0.646c2.147,0.919 2.824,-1.563 1.318,-2.73c-0.687,-0.532 -2.175,-0.104 -2.257,0.978c-0.028,0.375 0.252,0.731 0.223,1.105Zm-375.401,105.004c-0.485,0.075 -5.101,0.785 -5.758,2.131c-0.137,0.28 -1.416,3.191 3.53,1.631c0.301,-0.095 3.119,-0.984 3.478,-1.855c0.09,-0.219 -1.136,-1.765 -1.25,-1.908Zm-57.921,-120.558c-4.75,9.93 -4.09,10.32 -10.703,19.134c-4.556,6.073 -2.978,12.745 -9.529,14.026c-7.019,1.373 -21.21,-9.477 -21.589,-17.449c-0.534,-11.217 16.95,-10.207 23.908,-4.753c3.01,2.36 3.614,-0.897 6.963,-7.383c1.773,-3.434 4.69,-10.982 4.527,-15.214c-0.095,-2.487 -0.533,-4.774 2.093,-6.59c1.574,-1.088 4.936,-1.007 6.588,1.516c2.188,3.342 2.775,6.734 8.213,15.221c1.232,1.923 3.263,4.407 1.67,7.31c-0.76,1.386 -3.01,1.949 -3.755,1.848c-3.519,-0.475 -6.779,-7.545 -6.787,-7.551c-0.05,-0.041 0.189,0.454 -0.71,0.39c-0.535,-0.038 -0.346,-0.465 -0.89,-0.504Zm17.052,52.966c0.29,-0.486 2.301,-3.853 4.845,-5.148c8.197,-4.173 14.592,-0.899 14.959,-0.848c0.357,0.049 1.908,-0.4 2.024,-0.538c0.393,-0.472 1.57,-7.899 1.908,-18.32c0.226,-6.969 -1.145,-11.519 2.255,-12.566c3.226,-0.993 4.296,2.055 7.173,5.387c4.064,4.707 3.857,4.886 8.608,8.917c5.063,4.294 2.458,7.779 0.478,8.372c-3.468,1.037 -5.046,-2.337 -8.878,-6.257c-1.128,-1.154 -1.042,-1.232 -1.174,-1.275c-0.143,-0.046 -0.919,-0.297 -1.782,0.602c-0.816,0.85 -0.37,1.008 -0.35,3.039c0.021,2.132 -0.659,8.785 -0.804,9.847c-1.878,13.791 -1.713,13.799 -1.944,14.985c-2.314,11.894 -26.994,11.182 -28.262,-0.045c-0.412,-3.645 0.904,-6.032 0.945,-6.152Z" style="fill:#197367;"/></g></svg>