<?xml version="1.0" encoding="UTF-8" standalone="no"?><!DOCTYPE svg PUBLIC "-//W3C//DTD SVG 1.1//EN" "http://www.w3.org/Graphics/SVG/1.1/DTD/svg11.dtd"><svg width="100%" height="100%" viewBox="0 0 1080 1044" version="1.1" xmlns="http://www.w3.org/2000/svg" xmlns:xlink="http://www.w3.org/1999/xlink" xml:space="preserve" xmlns:serif="http://www.serif.com/" style="fill-rule:evenodd;clip-rule:evenodd;stroke-linejoin:round;stroke-miterlimit:2;"><rect id="img5" x="0" y="0" width="1080" height="1044" style="fill:none;"/><g id="Gemini_Generated_Image_hbs7y0hbs7y0hbs7.png"><path d="M492.557,465.174c-4.945,16.295 -9.88,16.651 -8.884,21.148c0.778,3.514 2.182,4.086 2.586,15.837c0.026,0.758 1.014,19.493 1.419,22.571c0.306,2.329 1.047,5.318 1.96,11.845c1.118,7.989 1.53,7.903 2.717,15.896c1.412,9.517 4.845,15.376 4.996,21.275c0.288,11.291 1.416,11.389 -0.57,19.77c-3.58,15.117 -1.627,41.19 -3.932,49.041c-4.555,15.515 -5.795,22.336 -11.193,29.506c-3.699,4.914 -8.184,4.155 -6.298,8.842c0.874,2.174 1,2.1 1.826,4.295c0.679,1.805 1.117,4.863 2.793,9.235c4.216,11 2.521,11.497 6.492,22.584c8.277,23.109 7.42,23.369 7.767,26.497c1.458,13.133 6.9,24.366 5.566,27.73c-0.7,1.764 -8.572,5.96 -10.221,3.874c-0.619,-0.783 0.067,-1.019 -2.568,-10.533c-2.516,-9.086 -6.533,-32.894 -11.907,-47.777c-2.7,-7.477 -8.785,-30.728 -10.861,-31.817c-2.572,-1.35 -2.612,0.199 -17.381,5.338c-14.339,4.989 -15.012,4.583 -23.592,9.793c-10.472,6.359 -31.83,8.824 -34.68,9.153c-8.631,0.996 -8.585,1.323 -17.257,1.561c-6.275,0.172 -6.154,0.826 -9.38,1.814c-5.808,1.779 -17.024,-2.246 -31.731,-1.7c-7.351,0.273 -7.399,-1.555 -11.846,-0.328c-3.942,1.088 -3.969,0.787 -8.03,1.224c-9.442,1.016 -21.458,8.56 -37.171,6.64c-10.514,-1.285 -10.473,-1.471 -15.968,-2.425c-6.752,-1.172 -7.714,-0.525 -18.447,-2.017c-6.74,-0.937 -6.968,-0.05 -9.242,0.532c-3.766,0.964 -6.042,0.033 -14.717,2.122c-7.86,1.893 -7.769,2.193 -15.766,3.414c-11.495,1.755 -12.32,3.34 -20.064,1.114c-3.387,-0.973 -3.479,-0.297 -11.844,-1.639c-8.616,-1.382 -8.653,-0.959 -17.293,-2.179c-7.467,-1.054 -16.724,0.757 -19.934,-0.134c-2.512,-0.697 -5.036,-1.946 -7.859,-0.335c-0.384,0.219 -0.768,0.439 -3.379,4.382c-10.23,15.45 -18.5,23.191 -20.07,25.133c-4.847,5.995 -10.253,17.22 -12.403,18.128c-0.447,0.188 -2.307,0.973 -5.671,-2.13c-2.794,-2.578 0.237,-6.748 4.305,-13.749c4.75,-8.175 17.709,-23.327 19.034,-26.31c0.967,-2.178 0.889,-2.23 2.593,-3.928c1.863,-1.856 1.095,-2.83 -1.523,-3.235c-5.594,-0.866 -5.247,-2.154 -10.814,-3.111c-3.355,-0.577 -15.997,-1.022 -17.453,-11.043c-0.947,-6.516 -1.115,-8.163 -0.748,-18.596c0.293,-8.327 3.159,-7.922 7.805,-21.182c2.685,-7.665 2.651,-7.682 4.524,-11.006c2.667,-4.733 -1.508,-4.346 -4.461,-5.434c-5.925,-2.183 -5.921,-2.118 -11.901,-4.15c-8.499,-2.888 -10.689,-6.177 -15.413,-10.634c-8.866,-8.364 -7.627,-9.374 -14.8,-19.546c-0.954,-1.353 -4.54,-6.439 -10.101,-18.064c-4.707,-9.841 -5.011,-14.795 -11.742,-39.903c-0.524,-1.955 -3.308,-12.338 -2.263,-25.203c0.538,-6.621 3.138,-11.198 3.71,-15.935c1.44,-11.931 1.951,-11.855 2.973,-23.831c0.831,-9.741 2.722,-14.499 -1.569,-16.112c-6.203,-2.331 -7.32,-1.324 -13.752,-5.816c-8.879,-6.202 -9.662,-7.882 -8.504,-17.844c1.08,-9.301 3.367,-13.405 3.951,-14.452c0.929,-1.667 7.275,-15.875 9.008,-24.029c2.134,-10.041 4.341,-10.12 8.124,-23.816c4.757,-17.221 4.917,-17.158 8.936,-34.566c3.155,-13.667 4.833,-16.821 8.971,-33.229c1.184,-4.696 1.285,-4.659 3.668,-8.862c1.861,-3.282 0.363,-4.084 3.666,-8.043c3.934,-4.716 4.343,-4.334 8.116,-9.184c1.104,-1.42 2.909,-3.74 16.558,-15.211c4.206,-3.535 9.709,-6.685 15.961,-11.868c7.629,-6.325 12.388,-7.175 9.858,-10.585c-3.194,-4.305 -2.529,-4.781 -9.49,-13.185c-3.635,-4.388 -3.529,-4.454 -7.245,-8.775c-0.785,-0.913 -5.068,-5.893 -6.515,-13.56c-0.803,-4.256 0.273,-4.28 0.1,-14.644c-0.324,-19.431 -1.173,-19.696 2.14,-27.594c4.167,-9.934 1.817,-10.939 4.902,-14.686c1.89,-2.296 4.682,-3.337 8.794,-9.628c1.809,-2.767 1.76,-2.884 4.148,-4.105c4.674,-2.391 3.523,-4.066 8.261,-7.387c0.998,-0.7 15.873,-8.065 23.573,-10.06c9.466,-2.453 8.879,-5.3 18.664,-4.989c1.631,0.052 2.243,0.455 2.425,-1.16c0.156,-1.383 -0.332,-1.272 -3.951,-6.433c-6.468,-9.224 -4.87,-18.725 -5.014,-21.367c-0.352,-6.424 -0.033,-8.349 -2.696,-9.344c-5.465,-2.042 -9.874,-2.465 -19.63,-10.878c-15.029,-12.961 -16.905,-19.614 -18.125,-23.321c-1.004,-3.049 -0.823,-3.125 0.179,-13.519c0.007,-0.069 -0.273,-8.715 8.469,-11.571c0.08,-0.026 6.821,-1.448 9.194,-1.624c1.109,-0.082 6.905,-1.951 19.346,8.532c0.171,0.144 9.798,10.043 14.466,17.072c1.536,2.314 1.4,2.428 4.964,5.874c2.999,2.9 1.546,5.21 3.683,5.325c2.892,0.155 4.217,-4.268 17.176,-6.506c4.151,-0.717 4.089,-0.887 7.997,-2.442c7.902,-3.145 13.725,-1.242 19.814,-2.898c7.773,-2.113 7.309,1.748 17.236,4.434c6.139,1.661 7.442,1.246 11.755,5.326c7.394,6.993 10.345,7.233 12.121,11.701c1.216,3.059 3.052,4.954 3.811,9.295c1.72,9.837 0.778,9.903 1.414,19.861c0.694,10.87 -0.984,12.527 7.983,18.715c5.037,3.476 4.586,3.979 9.021,8.198c3.354,3.191 2.589,5.016 4.714,8.67c2.708,4.658 4.478,8.625 6.569,11.96c6.095,9.721 4.983,10.474 12.488,19.15c3.51,4.057 1.476,5.507 4.734,8.562c4.092,3.837 2.427,4.783 4.292,9.36c0.301,0.74 2.579,5.284 3.586,8.113c2.107,5.921 2.873,8.379 6.597,5.653c5.133,-3.758 5.489,-3.122 18.637,-8.994c6.038,-2.697 6.55,-1.638 11.95,-5.471c1.349,-0.957 9.618,-5.991 15.695,-1.78c1.887,1.308 1.781,1.656 5.324,2.188c6.721,1.01 6.546,1.639 13.139,3.336c9.483,2.442 13.833,8.791 18.526,9.736c6.09,1.226 5.141,3.468 10.656,7.388c10.969,7.796 13.253,13.225 20.248,19.48c9.825,8.786 9.454,9.127 18.521,18.653c18.103,19.019 24.824,34.374 31.915,43.749c13.753,18.183 12.789,18.833 16.167,26.529c1.246,2.839 5.319,11.325 5.79,12.306c3.172,6.609 3.803,6.258 7.909,14.607c2.886,5.867 2.938,5.821 5.441,11.857c1.844,4.449 6.257,10.363 7.39,25.121c0.174,2.263 0.346,3.184 -6.14,6.23c-4.215,1.979 -8.047,0.976 -8.398,5.705c-0.186,2.5 0.541,17.935 0.029,23.846c-0.865,9.987 0.365,15.547 -1.852,25.281c-2.582,11.335 -3.662,11.125 -7.57,25.304Zm-136.536,-102.479c-0.088,-0.27 -0.958,-2.958 -1.228,-3.332c-0.338,-0.47 -4.804,-3.127 -12.537,-0.139c-7.25,2.802 -7.166,2.979 -14.595,5.331c-22.968,7.272 -23.373,6.07 -28.159,8.545c-5.346,2.765 -5.47,2.449 -10.418,4.336c-5.576,2.127 -2.262,4.413 -4.103,11.965c-1.189,4.876 -0.832,12.933 -0.759,13.221c1.087,4.339 11.371,16.39 13.856,18.948c7.16,7.369 8.694,8.429 9.559,9.027c1.688,1.167 5.742,5.767 21.257,5.288c14.489,-0.447 14.867,-0.23 21.477,-4.942c9.615,-6.854 12.539,-7.386 16.435,-17.851c3.014,-8.094 2.992,-8.272 2.902,-9.025c-0.352,-2.944 -6.094,-2.581 -3.318,-7.808c1.302,-2.451 0.708,-3.372 -0.012,-5.615c-5.1,-15.901 -7.089,-20.667 -10.357,-27.95Zm-208.254,-61.744c-0.328,2.012 -0.517,9.761 -12.429,14.327c-0.25,0.096 -8.366,2.702 -9.294,2.79c-2.086,0.199 -5.621,-0.563 -7.323,-3.307c-0.172,-0.277 0.018,-0.373 -1.939,-3.579c-1.371,-2.246 -4.157,-3.889 -5.459,-9.226c-6.799,-27.868 4.502,-31.423 0.969,-35.385c-0.805,-0.903 -5.569,-3.859 -8.754,-2.919c-3.42,1.01 -8.847,5.628 -9.541,6.218c-8.151,6.935 -16.201,11.266 -17.776,12.791c-4.053,3.925 -3.96,3.987 -8.287,7.644c-6.197,5.237 -9.468,11.524 -10.066,12.673c-9.322,17.918 -8.976,18.858 -12.974,33.354c-3.042,11.03 -2.42,11.175 -9.286,37.14c-2.312,8.745 -1.805,8.855 -4.598,17.456c-3.162,9.737 -3.254,9.689 -5.355,14.593c-0.827,1.93 -1.301,5.235 -2.863,9.195c-0.751,1.905 -0.479,2.006 -9.018,23.963c-1,2.57 -2.708,11.85 -1.635,14.326c0.606,1.399 6.86,5.857 10.504,6.428c2.933,0.459 2.966,0.111 7.996,1.266c4.584,1.053 4.741,1.038 7.813,0.166c7.979,-2.263 8.316,3.385 11.947,4.325c2.122,0.549 7.455,0.183 11.953,0.39c8.628,0.396 8.611,-0.175 17.257,-0.158c8.635,0.017 8.623,-0.988 17.229,-0.266c13.031,1.092 14.534,-0.03 22.621,2.27c4.759,1.353 3.576,-2.703 4.44,-12.978c0.343,-4.081 0.487,-16.613 1.355,-23.834c1.448,-12.046 0.461,-29.145 0.915,-31.865c0.663,-3.973 4.879,-12.038 10.532,-9.439c3.21,1.476 1.807,5.164 1.641,5.601c-0.636,1.672 -1.583,1.989 -1.562,6.466c0.105,22.664 -0.477,25.753 -0.891,27.951c-0.53,2.809 -1.474,7.822 -1.714,35.694c-0.04,4.688 1.906,5.418 1.068,11.925c-0.429,3.333 -2.996,3.04 -2.199,7.897c2.771,16.892 1.656,20.111 1.022,30.566c-0.089,1.47 0.539,4.391 0.323,7.978c-0.053,0.879 -0.133,1.757 -0.187,2.636c-0.018,0.3 -0.18,2.929 1.294,3.526c2.344,0.951 21.207,-0.56 22.353,-0.594c12.286,-0.368 16.52,-0.223 22.62,-0.989c2.83,-0.355 6.277,0.2 6.206,-1.908c-0.047,-1.391 -2.388,-2.059 -3.382,-2.936c-1.041,-0.919 -1.034,-2.202 -1.033,-2.412c0.003,-0.533 0.418,-0.494 0.578,-6.635c0.125,-4.811 2.032,-12.984 5.581,-17.166c2.13,-2.511 7.622,-6.815 11.923,-7.731c4.519,-0.962 8.538,0.239 14.439,-1.836c4.868,-1.712 4.953,-1.542 9.345,-1.017c3.944,0.471 3.688,-1.216 15.97,-3.862c3.508,-0.756 6.526,-2.766 22.553,-0.753c5.237,0.658 8.672,-1.4 19.881,-3.094c10.615,-1.605 10.152,-3.131 25.279,-9.304c8.976,-3.663 13.388,-3.203 19.859,-5.278c30.413,-9.752 39.186,-8.625 40.965,-8.826c5.591,-0.632 5.352,-1.508 10.755,-2.995c4.737,-1.304 5.836,-0.903 6.716,-5.714c1.154,-6.305 0.305,-6.405 1.649,-13.197c0.292,-1.476 0.549,-1.482 0.071,-14.731c-0.173,-4.798 -2.512,-2.816 -7.272,-3.272c-6.726,-0.645 -3.536,3.772 -7.41,10.259c-1.143,1.915 -0.449,2.693 -13.947,12.689c-13.338,9.878 -22.18,7.985 -34.252,8.792c-2.126,0.142 -14.541,2.256 -32.918,-12.838c-4.437,-3.645 -5.478,-6.311 -8.75,-9.795c-6.082,-6.476 -4.366,-7.598 -7.064,-11.344c-2.295,-3.186 -4.541,-3.979 -4.237,-13.007c0.122,-3.618 0.992,-5.032 1.218,-9.285c0.286,-5.373 0.27,-5.349 0.929,-10.669c0.352,-2.839 -3.488,-6.259 1.794,-9.116c1.756,-0.95 16.027,-7.098 35.805,-11.764c11.737,-2.769 33.024,-11.901 35.753,-11.84c2.606,0.058 2.407,0.755 2.625,0.759c0.214,0.004 0.203,-0.39 0.368,-0.525c0.298,-0.244 0.837,-0.239 0.993,-0.592c0.496,-1.117 -0.589,-0.985 -7.511,-20.06c-3.516,-9.689 -3.813,-9.574 -6.275,-19.61c-4.55,-18.55 -11.336,-19.003 -12.624,-29.3c-1.704,-13.624 -2.839,-13.393 -3.908,-19.911c-1.313,-8.01 -0.512,-8.054 -0.872,-17.213c-0.024,-0.615 0.224,-10.417 0.509,-13.265c0.373,-3.733 2.768,-16.735 6.13,-22.79c0.103,-0.185 1.068,-1.923 1.038,-2.439c-0.026,-0.459 -1.222,-1.367 -1.708,-1.263c-0.6,0.128 -0.315,0.717 -6.8,3.541c-0.731,0.318 -6.581,2.376 -9.934,6.215c-2.625,3.004 1.341,6.557 3.504,16.747c1.726,8.127 -0.375,8.351 -2.2,12.165c-2.794,5.838 -2.29,7.633 -6.697,17.199c-4.199,9.114 -2.627,10.949 -9.813,14.138c-4.686,2.079 -6.585,1.239 -15.653,5.835c-6.376,3.232 -6.52,3.594 -12.05,3.902c-1.394,0.078 -1.653,-0.039 -2.113,1.292c-0.646,1.867 0.857,1.839 0.555,5.124c-0.123,1.337 -0.881,3.563 1.476,5.386c9.28,7.178 7.457,10.149 8.678,17.301c1.389,8.14 2.453,13.848 -14.292,23.131c-3.61,2.001 -8.301,4.688 -16.895,5.717c-6.762,0.809 -24.598,-11.436 -25.208,-11.574c-0.301,-0.068 -1.88,0.843 -2.061,1.266c-0.287,0.67 2.345,11.689 -2.394,19.483c-3.251,5.346 -3.861,8.06 -22.144,18.672c-5.304,3.079 -6.224,3.145 -13.305,4.891c-7.199,1.775 -10.759,-6.443 -14.907,-15.075c-0.578,-1.203 -5.409,-11.837 -6.435,-14.714c-2.5,-7.011 1.563,-11.399 0.101,-14.593c-0.351,-0.767 -1.435,-2.017 -2.415,-5.409c-0.376,-1.302 -3.137,-15.518 -4.35,-18.395c-0.089,-0.211 -1.087,-2.578 -1.156,-2.613c-0.141,-0.071 -0.139,0.011 -1.966,0.153Zm72.994,67.273c-0.314,-7.621 -2.4,-8.334 1.734,-13.507c5.408,-6.766 8.183,-5 13.697,-2.695c0.939,0.392 5.147,2.152 6.571,10.892c1.244,7.635 -0.034,9.649 -0.478,10.349c-3.304,5.206 -6.795,5.056 -7.518,5.025c-6.055,-0.261 -6.936,1.427 -11.069,-3.014c-3.367,-3.618 -2.756,-5.319 -2.936,-7.049Zm27.229,80.908c2.846,2.433 3.095,2.245 4.856,5.525c1.174,2.188 2.895,8.735 2.602,10.303c-0.57,3.059 -4.126,5.834 -7.438,5.974c-5.767,0.244 -5.97,0.191 -6.471,0.059c-7.237,-1.906 -9.078,-6.418 -9.439,-7.301c-3.499,-8.573 -0.841,-11.387 -0.177,-12.09c3.415,-3.615 5.83,-7.185 13.517,-4.029c0.221,0.091 0.808,0.332 2.55,1.559Zm-95.303,124.551c-2.001,-4.517 -2.039,-4.557 -1.967,-6.599c0.072,-2.049 0.084,-2.033 -0.223,-4.046c-0.502,-3.286 -0.009,-3.265 1.132,-6.369c0.514,-1.397 0.914,-4.492 3.743,-7.974c6.101,-7.509 7.814,-6.196 7.823,-6.727c0.012,-0.717 -0.516,-1.344 -0.876,-1.964c-0.537,-0.924 -0.794,-0.417 -1.836,-0.272c-7.26,1.014 -7.304,-0.049 -14.597,0.594c-15.818,1.395 -17.988,2.547 -21.243,0.333c-3.52,-2.394 -5.74,-20.313 -5.372,-27.911c0.461,-9.509 5.815,-9.16 3.393,-25.274c-1.006,-6.691 -0.529,-6.945 -1.748,-8.098c-1.545,-1.46 -17.196,-3.162 -17.476,-3.179c-7.297,-0.458 -7.254,-0.957 -14.55,-0.814c-2.863,0.056 -29.71,0.582 -35.78,0.822c-11.744,0.463 -12.698,-1.594 -14.53,-0.468c-0.824,0.507 -1.309,0.804 -2.351,11.863c-1.906,20.216 -5.898,29.295 -5.707,38.414c0.104,4.96 -1.234,4.96 -0.382,9.376c1.013,5.25 0.767,5.271 1.641,10.527c2.15,12.933 1.426,13.09 3.725,19.989c7.381,22.156 6.169,22.899 18.369,40.042c4.484,6.3 3.343,7.226 12.831,16.498c13.58,13.271 29.363,11.558 50.138,22.71c5.643,3.029 8.074,2.503 13.161,2.536c7.99,0.051 7.933,1.206 15.935,0.828c27.381,-1.293 39.363,0.354 55.672,-0.21c6.436,-0.223 6.227,-1.821 11.922,-1.928c8.065,-0.152 7.981,-0.763 15.842,-2.655c9.515,-2.29 9.913,-0.985 13.624,-3.183c3.449,-2.043 6.649,-1.91 10.132,-3.541c2.549,-1.194 2.641,-0.933 5.42,-0.568c5.504,0.723 8.663,-3.448 14.801,-5.041c3.89,-1.01 3.858,-1.022 7.655,-2.367c8.957,-3.173 12.328,-0.66 18.419,-4.086c4.156,-2.338 4.189,-2.241 8.462,-4.323c1.067,-0.52 11.803,-5.751 13.323,-6.537c5.75,-2.973 7.302,-2.526 7.42,-5.864c0.245,-6.929 0.163,-7.272 0.015,-7.885c-0.93,-3.853 -7.033,-2.624 -7.665,-2.496c-8.739,1.76 -9.757,0.832 -13.071,2.825c-6.361,3.826 -12.574,3.32 -20.078,5.09c-5.57,1.314 -5.804,0.622 -10.327,3.057c-5.803,3.124 -5.998,2.626 -12.173,4.965c-7.733,2.93 -7.055,4.041 -8.163,4.922c-2.845,2.26 -4.202,-1.02 -9.212,-0.132c-3.747,0.664 -14.118,8.208 -23.948,3.151c-3.907,-2.01 -4.757,-0.829 -6.542,-0.436c-2.415,0.53 -4.751,-0.532 -5.367,-0.694c-6.042,-1.59 -7.22,1.593 -17.32,-2.637c-5.906,-2.474 -8.426,-8.125 -9.495,-9.395c-2.464,-2.926 -13.721,-4.818 -15.779,-9.486c-2.476,-5.615 0.266,-7.978 -4.797,-12.331c-7.025,-6.039 -8.198,-5.172 -12.022,-13.052Zm340.069,-141.837c0.555,-23.161 0.732,-23.153 0.734,-25.168c0.013,-13.333 -0.724,-13.635 -1.773,-14.065c-2.061,-0.844 -8.478,2.85 -9.151,3.238c-6.153,3.542 -9.509,2.904 -16.848,6.112c-6.898,3.015 -6.767,3.685 -14.876,4.401c-7.233,0.639 -15.574,5.687 -29.211,7.642c-6.422,0.921 -6.487,-0.806 -11.949,0.058c-4.039,0.639 -10.189,-0.035 -11.565,0.957c-1.135,0.818 -0.916,2.645 -1.061,11.552c-0.088,5.394 -0.623,5.346 -0.779,10.595c-0.615,20.698 -1.733,21.393 -7.464,24.397c-1.285,0.674 -2.236,1.172 -17.468,4.877c-4.691,1.141 -5.166,-0.736 -10.759,0.738c-5.956,1.569 -6.026,1.118 -10.378,2.218c-9.571,2.42 -9.573,2.335 -18.883,5.65c-2.917,1.039 -5.598,-0.46 -20.861,4.971c-6.112,2.175 -5.792,4.112 -6.689,4.968c-1.732,1.651 -5.283,1.018 -8.972,3.202c-3.782,2.239 -3.969,1.815 -8.343,1.975c-3.508,0.128 -4.297,2.261 -7.958,2.297c-0.887,0.009 -1.774,-0.048 -2.661,-0.028c-3.966,0.091 -8.038,3.269 -17.218,1.717c-9.453,-1.598 -9.675,-1.598 -26.721,3.402c-4.516,1.325 -4.63,-0.092 -9.113,0.36c-0.686,0.069 -18.303,2.863 -18.535,2.914c-7.401,1.648 -10.441,4.001 -10.393,13.248c0.027,5.183 4.988,7.818 6.407,8.006c0.786,0.104 0.769,0.013 3.952,-0.36c2.263,-0.265 9.575,0.363 10.855,1.309c3.249,2.4 1.406,5.88 1.144,6.971c-0.616,2.566 1.027,4.143 -1.846,7.546c-2.423,2.87 -2.169,3.028 -4.513,5.945c-3.412,4.247 -4.724,8.072 -9.496,7.208c-3.179,-0.575 -3.163,-0.637 -8.047,-0.79c-10.035,-0.314 -10.086,-2.273 -19.947,-0.306c-4.216,0.841 -8.004,3.745 -9.159,5.624c-4.781,7.778 -2.37,10.99 1.956,17.607c3.508,5.365 4.808,3.772 15.218,3.676c7.644,-0.07 7.382,-1.48 14.757,-3.432c6.036,-1.598 11.329,2.201 6.23,8.43c-1.789,2.185 -5.548,4.423 -6.077,4.738c-7.759,4.62 -8.805,3.536 -12.241,4.773c-2.039,0.734 -3.216,3.639 1.23,4.301c9.764,1.453 10.33,-0.429 15.832,-4.559c5.71,-4.286 14.548,-0.898 11.593,5.27c-2.49,5.197 -8.092,7.391 -10.021,8.337c-2.866,1.406 -1.444,3.666 1.259,3.66c4.688,-0.01 4.71,-0.197 9.413,0.913c4.952,1.169 5.895,-1.205 10.244,1.054c10.699,5.557 15.301,-2.943 29.448,-5.182c4.844,-0.767 4.682,-1.312 9.388,-2.609c1.716,-0.473 6.636,-1.829 20.933,-7.522c12.173,-4.848 15.538,-1.105 23.752,-5.441c6.456,-3.408 9.154,-4.245 11.856,-5.548c11.649,-5.616 12.854,-4.815 22.972,-8.235c4.063,-1.374 10.563,-3.065 22.647,-9.199c10.874,-5.52 10.769,-5.716 22.155,-10.141c9.876,-3.838 23.735,-13.236 25.194,-14.39c11.248,-8.894 12.077,-7.68 23.558,-16.283c7.189,-5.387 14.477,-16.123 26.527,-25.198c10.484,-7.896 9.698,-12.533 10.758,-16.75c1.592,-6.331 4.275,-4.945 10.388,-17.382c1.767,-3.595 6.438,-16.412 7.454,-19.556c3.387,-10.483 3.002,-13.272 3.122,-14.712Zm-272.778,-117.042c12.058,-6.074 12.286,-7.351 14.7,-8.997c7.351,-5.012 9.891,-5.044 9.563,-10.52c-0.491,-8.206 -0.944,-12.187 -4.02,-17.329c-2.255,-3.769 -1.926,-3.942 -3.711,-6.794c-8.261,-13.197 -12.059,-24.307 -22.661,-37.113c-7.303,-8.821 -6.096,-9.868 -9.325,-12.131c-2.063,-1.446 -8.962,1.701 -9.447,1.965c-10.291,5.606 -13.667,8.633 -14.645,9.176c-6.707,3.724 -9.125,6.645 -13.421,9.081c-0.184,0.104 -1.856,1.052 -0.881,2.493c0.695,1.026 8.705,1.864 11.728,0.533c2.382,-1.048 8.034,-11.969 15.988,-15.683c2.759,-1.288 4.946,0.46 5.423,2.059c0.849,2.844 -1.276,4.81 -1.685,5.383c-3.023,4.232 -3.202,4.059 -6.436,8.096c-1.01,1.26 -1.213,1.404 -0.457,2.835c0.461,0.873 0.733,0.463 3.003,0.728c0.261,0.03 0.244,0.035 2.576,0.467c14.389,2.664 19.351,-4.042 23.808,7.829c1.185,3.154 3.179,3.73 6.882,9.135c6.379,9.311 5.869,9.96 4.426,13.618c-1.599,4.054 -2.941,11.774 -8.909,18.013c-4.371,4.569 -5.324,2.896 -12.971,5.468c-5.103,1.716 -9.807,-0.062 -13.266,-0.962c-8.208,-2.136 -10.107,-8.974 -11.976,-13.434c-0.314,-0.75 -2.991,-7.138 0.562,-10.144c1.429,-1.21 1.601,-0.794 3.48,-1.055c3.4,-0.473 3.611,-1.671 5.094,-6.17c2.905,-8.809 4.784,-11.445 0.258,-11.938c-8.436,-0.918 -9.645,-3.064 -12.342,1.168c-4.249,6.666 -4.046,7.546 -3.882,8.257c0.212,0.921 0.837,1.724 0.989,2.657c0.63,3.866 -11.854,8.218 -14.898,4.899c-1.822,-1.986 -1.07,-4.742 -0.96,-5.146c0.281,-1.032 2.813,-6.097 6.295,-11.519c1.943,-3.025 1.171,-3.844 -1.967,-4.879c-4.371,-1.442 -7.069,-1.876 -7.689,-2.084c-3.67,-1.234 -3.595,-1.413 -3.914,-1.517c-0.219,-0.072 -2.06,-0.675 -2.868,0.198c-1.048,1.132 0.778,7.633 1.814,11.947c0.838,3.487 0.47,3.575 1.766,6.932c1.9,4.921 2.075,25.166 2.666,27.748c0.293,1.28 0.977,1.084 4.371,15.82c2.253,9.783 4.512,9.208 9.259,10.924c9.52,3.441 15.516,-0.184 19.963,-0.789c4.844,-0.659 4.899,-0.406 12.189,-2.965c3.388,-1.189 3.283,-1.383 6.644,-2.665c4.48,-1.709 4.491,-1.63 8.884,-3.593Zm-135.434,-124.242c0.04,2.225 0.505,27.795 0.508,27.813c0.889,5.089 6.571,7.867 12.53,16.351c11.436,16.279 13.021,15.736 20.482,15.415c6.896,-0.297 9.316,-0.657 14.608,-0.111c4.131,0.426 3.53,-1.479 9.368,-4.924c13.074,-7.715 17.782,-7.871 25.608,-14.157c4.668,-3.75 5.226,-3.828 18.218,-10.888c2.436,-1.324 11.258,-5.504 11.741,-5.681c3.48,-1.271 10.191,-1.655 11.839,-0.972c2.504,1.038 6.067,5.374 6.972,7.542c2.293,5.495 9.843,13.204 11.118,15.108c5.255,7.845 12.016,22.946 14.783,26.385c2.165,2.691 5.301,5.184 5.529,5.292c3.184,1.503 3.473,-0.792 7.98,0.269c5.258,1.237 14.473,2.264 18.785,1.111c6.514,-1.742 14.661,-6.635 15.219,-7.362c0.808,-1.053 0.639,-1.15 6.197,-15.389c4.277,-10.956 4.804,-15.928 4.957,-17.365c0.629,-5.936 -0.904,-5.737 -6.29,-22.62c-1.731,-5.425 -2.115,-5.259 -4.043,-10.598c-0.229,-0.635 -3.895,-9.424 -6.57,-13.363c-3.139,-4.625 -2.911,-4.763 -7.131,-10.265c-1.003,-1.308 -7.443,-12.157 -8.076,-13.223c-3.48,-5.862 -4.408,-13.011 -13.858,-24.374c-10.519,-12.649 -13.121,-9.258 -14.972,-9.261c-3.722,-0.005 -5.997,-6.592 -11.994,-5.311c-1.207,0.258 -2.461,1.12 -5.268,0.41c-10.143,-2.565 -11.273,-4.558 -16.2,-2.095c-4.611,2.306 -11.805,4.754 -14.59,6.841c-4.834,3.622 -5.937,1.352 -15.494,3.458c-7.394,1.63 -7.676,4.601 -22.647,6.124c-6.255,0.636 -9.372,2.163 -14.597,2.474c-4.973,0.296 -5.026,0.276 -9.466,2.57c-2.56,1.323 -10.126,1.651 -18.343,5.728c-4.026,1.997 -10.038,7.908 -10.349,8.205c-4.069,3.88 -3.958,3.962 -7.624,8.199c-3.2,3.697 -3.854,6.73 -5.479,11.57c-2.069,6.164 -1.442,7.15 -2.11,9.008c-0.195,0.542 -0.466,1.053 -0.696,1.581c-1.092,2.508 -0.711,3.747 -0.645,6.507Zm158.281,24.04c1.401,-0.915 1.387,-0.916 1.513,-0.988c8.529,-4.916 14.358,-7.242 19.56,-5.739c10.466,3.024 12.225,13.803 12.709,15.945c1.03,4.554 1.161,4.524 1.274,9.18c0.076,3.141 0.976,5.607 0.108,9.138c-1.954,7.951 -6.205,9.383 -7.689,10.302c-7.211,4.462 -8.125,4.937 -18.46,0.807c-5.523,-2.207 -4.551,-6.238 -10.028,-10.28c-3.441,-2.539 -3.161,-4.658 -3.478,-11.285c-0.225,-4.716 1.084,-5.042 -0.884,-8.025c-0.936,-1.419 -3.067,-3.124 5.374,-9.056Zm17.225,32.173c6.685,-2.667 7.385,-4.811 6.504,-11.139c-1.148,-8.239 -0.536,-8.375 -2.388,-13.366c-1.693,-4.561 -5.893,-6.149 -9.401,-4.837c-5.267,1.97 -5.809,4.406 -5.829,11.568c-0.031,10.762 7.37,17.194 8.211,17.542c1.531,0.633 2.882,0.231 2.903,0.232Zm-173.452,435.721c-0.386,11.034 -0.208,16.491 3.527,17.528c5.272,1.465 6.565,0.379 17.148,4.18c10.796,3.878 10.709,-0.538 16.011,-3.315c5.353,-2.803 9.573,-1.191 10.58,1.517c1.456,3.917 2.47,3.258 8.082,3.484c9.686,0.391 11.129,2.144 15.902,1.815c9.17,-0.632 14.337,3.021 19.889,3.047c0.882,0.004 1.763,-0.054 2.645,-0.057c4.33,-0.014 5.776,1.81 10.535,0.645c7.85,-1.92 7.992,-1.026 15.884,-2.79c5.505,-1.231 5.567,-0.893 10.568,-2.585c4.478,-1.515 4.768,0.017 9.254,-1.446c8.759,-2.857 12.167,0.832 18.733,0.488c2.67,-0.14 9.596,-0.503 33.233,3.504c7.373,1.25 12.999,-2.003 25.004,-5.17c3.884,-1.025 7.043,-1.379 7.897,-1.623c4.632,-1.323 4.618,-1.448 9.445,-1.442c6.012,0.007 6.048,-0.484 11.923,0.799c4.454,0.973 7.197,-0.559 22.623,2.237c6.107,1.107 7.8,-1.543 15.858,-1.852c9.992,-0.383 9.901,-1.106 19.844,-2.009c15.256,-1.386 21.61,-5.5 37.153,-11.675c2.421,-0.962 28.267,-11.23 30.045,-12.556c4.355,-3.248 -9.036,-10.425 -3.662,-19.363c0.936,-1.557 3.926,-3.327 7.877,0.314c3.456,3.185 7.024,11.22 7.203,11.359c0.291,0.226 1.879,0.338 2.183,0.162c0.724,-0.422 4.232,-5.16 5.506,-7.711c1.77,-3.546 1.41,-3.681 4.405,-17.178c3.557,-16.031 1.153,-17.561 2.161,-23.973c0.664,-4.22 0.839,-4.188 1.135,-9.296c0.668,-11.528 3.098,-18.682 1.529,-30.492c-0.968,-7.289 -6.244,-20.114 -8.503,-46.349c-0.089,-1.034 -1.195,-9.46 -2.319,-21.251c-0.41,-4.303 -0.009,-6.28 -0.996,-6.824c-2.171,-1.197 -2.162,-0.028 -3.921,1.731c-2.93,2.931 -8.418,5.087 -10.188,7.001c-2.89,3.127 -2.732,3.256 -5.958,6.009c-0.784,0.669 -8.784,11.932 -18.853,18.065c-4.132,2.517 -11.116,6.575 -17.444,11.871c-3.964,3.318 -9.548,5.066 -19.197,11.477c-13.474,8.953 -15.327,5.256 -27.057,12.403c-5.523,3.365 -20.36,10.283 -24.75,11.459c-6.652,1.782 -6.821,1.28 -10.919,3.295c-2.069,1.017 -3.024,0.837 -2.443,3.063c0.409,1.565 5.317,0.812 5.214,7.942c-0.092,6.392 -1.345,13.691 -2.844,15.696c-5.59,7.48 -12.851,5.644 -19.253,11.194c-2.955,2.562 -2.948,2.658 -14.948,7.507c-12.274,4.96 -15.372,1.884 -17.95,5.75c-1.339,2.007 -1.22,2.227 -4.456,3.823c-6.152,3.033 -5.606,4.518 -9.403,4.683c-2.891,0.125 -2.933,-0.026 -5.543,1.178c-2.563,1.182 -3.98,0.77 -9.059,1.655c-6.307,1.099 -6.464,1.449 -11.921,0.33c-3.816,-0.783 -9.873,1.017 -21.211,5.154c-6.875,2.508 -12.775,0.817 -17.303,2.477c-2.619,0.96 -2.647,1.381 -5.356,0.653c-4.066,-1.094 -4.136,-0.487 -26.383,-0.374c-8.629,0.044 -8.605,0.224 -17.23,-0.218c-4.628,-0.237 -7.079,1.69 -15.863,0.885c-14.588,-1.337 -20.34,3.044 -32.967,-5.085c-6.312,-4.063 -8.842,-4.475 -10.136,-2.809c-0.418,0.538 -6.794,16.902 -7.737,18.926c-2.971,6.38 -3.082,10.993 -3.225,12.135Zm110.847,-570.618c1.282,-0.696 1.387,-0.404 2.683,-1.108c0.075,-0.041 0.209,-0.114 0.748,-0.755c0.799,-0.953 0.378,-1.674 -2.069,-4.189c-3.824,-3.931 -12.709,-9.238 -13.115,-9.421c-4.892,-2.203 -4.83,-2.273 -9.523,-4.868c-3.257,-1.801 -3.201,-2.675 -15.677,-2.809c-2.631,-0.028 -3.822,1.108 -5.253,0.853c-1.822,-0.324 -3.539,-5.935 -5.872,-2.857c-0.896,1.182 -0.839,10.717 -0.323,17.627c0.598,8.022 3.778,7.324 8.972,13.118c5.876,6.555 7.367,2.825 21.012,-0.02c6.095,-1.271 6.157,-1.05 18.419,-5.57Zm159.763,223.001c6.785,15.983 5.741,18.609 6.038,20.113c0.5,2.536 1.302,2.234 11.249,30.289c2.129,6.004 3.12,6.469 4.797,6.626c0.914,0.085 4.701,-0.805 3.345,5.353c-0.581,2.638 -1.016,2.687 -0.152,5.232c1.681,4.956 9.252,-1.177 19.199,0.844c5.058,1.028 5.093,0.399 17.35,0.175c9.704,-0.177 9.589,-1.041 16.023,-3.187c13.263,-4.422 14.258,-2.572 25.147,-6.786c15.246,-5.901 15.468,-5.141 18.334,-6.078c0.669,-0.219 0.587,-0.385 8.037,-3.575c3.623,-1.552 3.28,-2.065 4.592,-3.132c2.656,-2.16 13.833,-1.465 15.172,-4.666c0.659,-1.576 0.245,-6.051 -0.321,-7.673c-0.694,-1.991 -8.287,-18.349 -9.024,-19.937c-4.296,-9.255 -5.531,-8.624 -7.842,-14.657c-0.705,-1.842 -8.263,-18.52 -8.468,-18.935c-5.332,-10.818 -12.865,-15.8 -17.326,-23.863c-3.591,-6.49 -3.548,-6.493 -7.523,-12.753c-2.831,-4.459 -2.594,-5.518 -9.049,-13.373c-4.781,-5.819 -4.349,-6.196 -9.928,-11.28c-1.109,-1.01 -0.726,-1.365 -12.857,-13.651c-7.901,-8.001 -7.786,-8.077 -12.167,-13.074c-1.482,-1.691 -7.089,-7.496 -7.712,-8.141c-4.145,-4.292 -13.22,-9.246 -21.984,-15.254c-1.422,-0.975 -5.021,-2.928 -6.676,-3.947c-6.164,-3.796 -19.721,-7.408 -26.605,-5.905c-6.138,1.339 -6.211,1.687 -10.104,6.625c-3.521,4.466 -4.696,8.809 -6.886,15.585c-4.273,13.219 -2.163,31.023 -2.227,33.035c-0.227,7.134 1.369,6.905 2.538,14.513c1.062,6.912 3.038,6.57 2.779,11.979c-0.109,2.275 -0.706,2.552 2.537,7.59c6.871,10.674 9.111,23.909 11.176,29.607c0.651,1.796 5.752,15.871 8.539,22.304Zm-167.471,24.192c5.47,-3.361 9.593,-5.021 13.45,-9.177c6.019,-6.486 5.434,-9.446 5.281,-17.482c-0.105,-5.522 -2.905,-3.579 -10.949,-1.702c-8.654,2.02 -11.463,3.545 -19.746,4.656c-7.006,0.94 -10.274,-1.145 -9.173,3.659c0.365,1.591 2.508,12.451 7.36,18.919c1.697,2.262 4.184,6.339 13.776,1.127Zm43.437,-42.982c-4.209,2.177 -4.233,2.128 -4.576,2.356c-0.686,0.456 -0.676,2.407 -0.04,2.864c0.185,0.133 0.187,0.096 2.519,1.324c7.893,4.156 9.149,3.374 12.632,5.134c3.552,1.795 5.243,3.301 13.233,-1.252c0.501,-0.286 7.027,-4.648 8.45,-7.261c1.65,-3.029 0.814,-4.602 -0.015,-12.034c-0.029,-0.264 -0.055,-2.06 -0.958,-3.056c-0.644,-0.71 -8.429,-5.326 -11.987,-1.798c-1.574,1.56 -1.911,2.798 -8.657,7.073c-5.3,3.359 -5.381,3.189 -10.6,6.65Zm-13.521,-36.81c0.096,-0.945 2.029,-4.173 -5.794,-12.145c-2.968,-3.024 -3.577,-4.523 -5.702,-3.786c-0.252,0.087 -0.924,0.263 -3.778,6.82c-2.939,6.751 -3.026,7.326 -4.365,10.438c-1.458,3.39 -2.582,3.609 -3.17,4.505c-2.685,4.088 5.882,10.43 12.656,8.629c5.74,-1.526 6.941,-3.487 10.153,-14.459Zm-99.087,5.413c0.198,6.892 -0.312,12.921 5.897,20.898c3.719,4.778 10.754,-1.385 11.188,-6.339c0.731,-8.336 -3.488,-14.459 -4.218,-15.518c-2.509,-3.642 -5.234,-9.866 -10.162,-7.135c-1.242,0.688 -2.085,2.65 -2.201,2.919c-0.454,1.055 -0.5,4.759 -0.505,5.175Zm25.265,-14.564c-1.058,-4.085 -1.147,-4.03 -2.432,-8.029c-1.293,-4.024 -3.502,-2.954 -5.427,-2.518c-6.904,1.565 -12.722,0.303 -13.303,0.249c-0.413,-0.038 -3.802,-0.353 -5.045,1.183c-1.138,1.406 -0.265,5.701 1.186,6.231c0.665,0.243 3.507,-0.28 3.808,-0.336c8.314,-1.531 11.062,1.318 14.139,3.827c1.354,1.104 4.772,5.694 5.95,8.57c0.693,1.692 0.762,1.63 0.796,1.782c0.128,0.571 -0.097,6.058 1.143,8.183c0.172,0.295 0.173,0.777 0.492,0.9c2.3,0.89 2.014,-2.51 1.991,-2.783c-0.74,-8.796 -0.893,-8.774 -3.297,-17.26Zm107.726,18.247c0.381,0.012 0.694,0.376 1.075,0.388c0.176,0.005 1.708,0.052 1.746,-1.333c0.049,-1.804 -1.539,-1.835 -1.742,-1.839c-0.2,-0.004 -1.851,-0.035 -1.69,1.852c0.032,0.37 0.578,0.563 0.61,0.933Zm-54.522,250.132c2.379,-0.676 2.433,-0.524 3.491,-1.169c0.191,-0.117 1.855,-1.131 1.965,-1.996c0.027,-0.211 0.218,-1.724 -1.624,-2.109c-0.023,-0.005 -1.954,0.325 -2.631,0.467c-8.281,1.739 -6.564,4.871 -6.245,5.136c1.136,0.943 1.306,0.298 5.045,-0.329Zm498.535,-493.718c25.517,-20.437 27.865,-18.292 29.039,-18.138c5.679,0.746 6.425,2.895 7.734,12.785c1.118,8.446 0.986,42.264 2.288,47.876c0.806,3.476 3.67,1.903 10.037,0.206c24.745,-6.595 39.9,-11.852 40.503,-3.001c0.505,7.42 -6.332,23.374 -8.156,28.051c-5.618,14.409 -5.824,14.309 -6.238,15.587c-0.064,0.198 -0.571,1.765 0.413,2.566c1.062,0.864 18.254,-0.038 27.777,1.127c5.349,0.655 5.367,0.566 10.648,-0.524c1.235,-0.255 12.994,-1.28 19.796,-1.223c9.754,0.082 10.976,-0.736 13.143,-0.078c0.929,0.282 1.81,0.711 2.74,0.991c2.09,0.629 6.604,-0.107 15.947,-0.211c9.431,-0.105 9.443,-0.051 18.691,-1.934c21.986,-4.475 27.898,-3.333 30.287,-2.872c8.065,1.558 33.272,-0.395 47.792,0.098c4.746,0.161 4.765,-0.565 9.408,0.305c4.551,0.852 4.596,0.282 14.443,0.984c6.083,0.434 6.728,-1.047 10.652,-1.007c3.676,0.038 5.233,1.468 5.455,1.59c3.773,2.065 17.356,-0.548 25.148,1.015c3.876,0.777 3.89,0.477 7.812,0.16c1.166,-0.094 1.158,0.064 14.607,0.591c4.141,0.162 5.485,1.035 6.6,1.294c2.635,0.61 2.868,-0.55 13.315,-0.839c6.965,-0.193 9.027,-1.106 11.198,1.555c1.355,1.661 0.941,3.551 0.907,4.458c-0.128,3.385 1.194,3.535 -0.204,6.609c-3.556,7.814 -2.126,10.372 -3.595,18.638c-2.398,13.493 0.423,19.273 -1.617,29.119c-1.111,5.359 -0.908,5.42 -3.017,10.464c-2.721,6.509 -0.606,22.282 -5.33,38.492c-2.279,7.821 -1.632,10.004 -1.725,15.999c-0.209,13.441 0.129,13.427 0.098,14.594c-0.355,13.437 -3.025,21.188 -3.365,22.533c-2.337,9.244 -0.784,10.272 -1.363,17.236c-0.881,10.597 0.231,10.565 0.432,18.553c0.005,0.21 -0.84,8.508 -0.916,9.247c-0.272,2.673 -1.048,4.656 -1.171,7.985c-0.031,0.85 -0.328,8.862 -0.274,10.631c0.367,12.113 -0.062,13.211 0.863,15.824c0.948,2.677 0.857,2.768 -0.086,5.437c-0.818,2.313 -0.481,3.987 -1.726,6.446c-4.279,8.448 -6.328,9.196 -7.229,9.985c-2.276,1.993 -2.209,3.435 -4.536,5.964c-4.772,5.186 -4.746,5.178 -8.86,10.922c-3.67,5.124 -2.711,6.062 -7.992,9.51c-5.488,3.583 -4.701,4.453 -9.454,8.95c-6.211,5.877 -9.315,4.837 -9.387,4.837c-8.189,0.025 -8.196,0.405 -14.663,-0.315c-11.319,-1.261 -11.318,0.423 -29.1,0.547c-7.081,0.05 -9.726,1.886 -14.567,1.305c-3.053,-0.366 -3,-1.284 -26.536,-1.386c-24.31,-0.104 -24.429,1.923 -41.133,-0.967c-4.62,-0.799 -4.635,-0.383 -9.314,-0.829c-2.001,-0.191 -5.619,-0.536 -25.126,-0.221c-12.071,0.195 -16.5,3.802 -33.163,0.941c-7.865,-1.35 -7.959,-0.446 -15.851,-1.682c-6.166,-0.966 -6.367,-0.112 -10.795,-2.059c-3.932,-1.729 -12.262,-0.703 -18.459,-1.223c-3.621,-0.303 -3.683,-1.48 -13.331,0.399c-4.911,0.957 -22.888,2.462 -32.997,1.346c-14.323,-1.581 -27.881,0.62 -50.432,-0.821c-5.91,-0.378 -8.566,-1.786 -13.295,-2.319c-7.341,-0.829 -14.676,-2.359 -17.24,-2.781c-4.871,-0.801 -5.057,-0.173 -9.489,-2.335c-5.06,-2.467 -6.416,0.953 -10.507,-1.658c-5.475,-3.495 -2.214,-11.889 -4.139,-19.997c-0.861,-3.625 -0.428,-3.66 -0.496,-8.032c-0.228,-14.636 -0.221,-14.627 -1.602,-29.193c-2.103,-22.173 -0.348,-22.453 -0.994,-39.777c-0.154,-4.12 -1.847,-3.983 -1.148,-8.053c0.58,-3.377 -0.506,-4.7 -0.784,-11.809c-0.037,-0.95 -0.334,-8.54 -0.481,-11.873c-0.011,-0.256 -0.119,-2.697 -2.114,-2.404c-0.559,0.082 -6.894,3.332 -7.926,3.797c-7.441,3.356 -18.076,9.067 -25.076,12.18c-1.742,0.775 -11.646,6.648 -14.23,-1.848c-0.929,-3.054 -0.538,-13.243 0.47,-21.11c2.469,-19.266 4.807,-26.098 2.676,-27.216c-2.277,-1.194 -33.524,2.946 -40.829,2.379c-8.986,-0.697 -16.194,-2.047 -14.661,-8.295c0.407,-1.659 1.333,-5.429 11.12,-18.23c3.73,-4.879 6.318,-8.507 8.021,-10.549c0.751,-0.9 1.926,-1.802 1.404,-3.201c-0.465,-1.246 -2.738,-1.866 -3.36,-2.092c-1.574,-0.571 -14.063,-5.104 -19.582,-7.374c-19.234,-7.913 -20.032,-10.358 -20.75,-11.83c-2.68,-5.488 4.654,-7.118 32.728,-27.296c2.252,-1.619 15.31,-9.819 15.373,-9.897c0.116,-0.144 0.719,-0.891 0.27,-2.29c-0.341,-1.064 -22.474,-23.4 -30.001,-34.784c-9.807,-14.832 4.312,-13.904 35.382,-15.395c17.791,-0.854 18.234,-0.361 18.717,-1.445c0.782,-1.755 -0.526,-4.947 -0.629,-5.289c-3.832,-12.631 -8.499,-32.562 -8.944,-34.579c-3.835,-17.385 -1.289,-19.111 1.471,-19.858c4.364,-1.181 9.171,1.036 9.334,1.095c1.032,0.375 12.708,6.093 13.367,6.442c6.254,3.309 19.207,9.035 26.553,13.202c2.897,1.644 3.592,0.788 4.469,-2.423c1.511,-5.532 12.724,-37.406 17.518,-45.094c3.309,-5.306 4.347,-7.046 8.327,-6.666c4.267,0.408 5.298,1.914 6.954,3.924c9.999,12.141 25.296,37.529 27.199,40.258c5.535,7.941 5.283,8.139 5.941,8.663c0.807,0.642 1.976,0.175 2.135,0.111c0.436,-0.174 7.61,-7.866 22.784,-19.481Zm155.281,269.572c-16.456,7.661 -16.849,6.588 -27.904,9.419c-6.017,1.541 -10.911,3.339 -18.688,3.868c-2.256,0.153 -5.376,0.75 -14.596,1.209c-5.462,0.272 -17.972,2.549 -23.891,2.279c-1.347,-0.061 -2.923,-0.418 -4.336,0.821c-2.18,1.911 -2.571,2.139 -5.035,0.593c-1.735,-1.089 -1.708,-1.239 -6.653,-2.23c-3.155,-0.632 -6.767,-1.133 -11.913,-2.947c-6.61,-2.33 -23.201,-3.224 -32.804,-11.17c-4.933,-4.082 -8.828,-5.901 -12.097,-7.811c-0.21,-0.123 -2.24,-1.309 -2.744,-1.303c-1.773,0.023 -1.641,2.527 -1.628,2.784c0.337,6.419 1.308,6.41 1.864,7.865c0.306,0.801 0.96,2.513 0.715,10.697c-0.181,6.053 -2.188,5.912 -1.478,15.947c0.178,2.521 -0.145,15.439 1.526,17.457c1.43,1.727 1.844,1.274 16.242,1.217c8.247,-0.033 8.492,-1.993 13.269,-1.551c4.637,0.429 4.619,0.295 9.272,0.121c4.061,-0.152 13.417,-0.111 14.584,-0.106c7.965,0.034 7.932,0.327 15.912,0.118c1.318,-0.035 26.005,-0.079 26.518,-0.065c5.294,0.142 5.298,0.3 10.54,-0.437c4.452,-0.627 19.286,-1.378 23.787,-0.269c9.7,2.391 9.826,1.415 21.331,2.414c11.587,1.006 21.089,-0.888 30.586,0.614c10.586,1.674 10.634,1.053 21.226,2.482c8.715,1.176 21.901,0.829 23.805,0.779c7.731,-0.203 14.754,0.072 15.819,0.269c2.565,0.474 6.781,2.144 22.656,2.921c5.942,0.291 6.392,1.59 9.244,1.535c3.876,-0.075 6.484,-0.619 22.546,-0.525c10.051,0.059 16.222,1.869 37.146,1.29c1.443,-0.04 14.228,-1.295 15.395,-2.315c1.803,-1.576 0.081,-4.846 1.295,-16.735c1.011,-9.899 -0.365,-9.947 0.649,-19.833c1.303,-12.705 -1.323,-16.002 0.952,-27.906c1.002,-5.241 1.142,-5.208 1.232,-10.564c0.051,-3.035 1.72,-4.378 3.5,-14.495c1.155,-6.561 -1.143,-19.382 0.312,-26.706c0.423,-2.128 0.351,-12.429 3.768,-27.608c1.441,-6.4 1.413,-6.826 1.308,-10.747c-0.057,-2.149 0.939,-5.194 0.993,-7.947c0.092,-4.692 -0.146,-4.738 1.288,-9.212c0.464,-1.447 2.514,-7.844 3.594,-18.65c0.624,-6.249 -1.345,-10.893 -0.509,-14.419c0.93,-3.922 1.427,-3.837 1.893,-10.765c0.444,-6.603 1.585,-10.478 -2.465,-11.026c-2.78,-0.376 -3.535,1.023 -7.884,8.46c-2.252,3.851 -2.31,3.786 -4.557,7.636c-1.24,2.123 -2.733,6.308 -7.058,13.75c-0.238,0.41 -0.188,0.429 -2.908,5.169c-9.664,16.842 -13.194,20.956 -14.595,22.589c-8.316,9.692 -8.534,9.573 -12.371,16.957c-1.877,3.613 -6.094,9.612 -25.922,27.032c-4.245,3.73 -6.423,4.618 -12.111,9.116c-4.219,3.336 -12.308,8.433 -12.45,8.524c-6.054,3.876 -5.736,4.283 -11.729,8.275c-17.541,11.684 -17.38,11.961 -24.814,15.375c-7.141,3.279 -6.714,5.15 -17.376,7.845c-6.708,1.696 -6.429,3.325 -13.33,3.015c-2.495,-0.112 -2.723,0.274 -9.335,3.103c-13.946,5.965 -13.69,6.506 -27.762,12.133c-0.31,0.124 -1.419,0.567 -3.826,1.663Zm-76.973,23.731c0.168,-0.028 2.373,-1.153 4.249,0.387c1.862,1.527 2.474,4.167 2.571,4.423c1.281,3.407 2.532,4.929 -4.409,9.26c-0.335,0.209 -3.647,2.276 -4.749,-1.32c-0.249,-0.812 -0.28,-1.676 -0.432,-2.511c-1.073,-5.922 -2.447,-7.229 2.769,-10.238Zm55.013,4.921c-0.441,3.049 0.074,7.436 -4.703,8.356c-7.629,1.47 -6.334,-6.196 -6.21,-6.93c0.343,-2.028 0.241,-2.019 0.384,-4.079c0.221,-3.191 3.029,-6.903 8.513,-2.75c0.766,0.58 0.706,0.631 1.118,1.497c0.875,1.836 0.588,1.899 0.897,3.906Zm-21.736,-2.692c-0.015,0.429 1.307,2.162 -3.331,7.701c-6.319,7.546 -12.056,0.082 -9.931,-4.875c3.016,-7.036 10.745,-9.536 12.883,-4.049c0.155,0.398 0.224,0.825 0.379,1.223Zm49.051,-1.338c1.099,5.921 1.539,6.66 -3.033,10.55c-1.401,1.192 -3.124,3.003 -6.359,-1.32c-1.534,-2.05 -4.551,-7.984 -1.234,-11.577c3.062,-3.317 5.047,-2.768 7.651,-1.457c2.504,1.261 2.554,2.768 2.975,3.804Zm-118.16,4.055c-0.201,1.065 0.139,2.621 -2.564,5.486c-4.216,4.469 -10.937,-2.502 -7.403,-8.464c0.363,-0.612 4.501,-7.593 8.223,-3.392c0.694,0.784 1.233,2.285 1.31,2.497c0.581,1.616 0.323,1.654 0.433,3.873Zm19.428,-0.011c-0.051,0.723 -0.498,7.021 -2.785,8.627c-1.288,0.904 -3.905,1.305 -4.736,-0.711c-0.415,-1.006 -0.183,-1.866 -1.985,-4.93c-3.091,-5.255 3.221,-10.274 7.076,-8.026c2.776,1.619 2.307,4.19 2.429,5.04Zm-131.735,1.313c0.738,26.766 2.151,27.049 1.772,34.471c-0.484,9.489 1.212,11.096 1.228,14.608c0.011,2.459 -0.141,9.935 0.473,10.6c1.076,1.164 3.473,-0.306 3.729,-0.463c2.283,-1.4 13.905,-6.616 21.321,-16.866c3.175,-4.388 3.998,-4.399 11.852,-9.535c7.073,-4.626 13.086,-5.187 13.824,-10.199c1.579,-10.715 0.059,-10.667 -0.879,-14.488c-0.824,-3.358 1.303,-3.63 1.386,-9.443c0.1,-6.977 -0.052,-6.962 0.609,-13.234c0.614,-5.835 -1.12,-7.138 -1.314,-11.955c-0.697,-17.284 -0.538,-17.334 -1.079,-18.734c-0.744,-1.922 -3.818,-2.803 -2.48,-6.221c1.997,-5.103 3.474,-5.56 2.966,-18.783c-0.153,-3.985 -0.537,-3.911 -1.762,-10.693c-0.601,-3.323 -2.056,-5.122 -2.189,-11.85c-0.749,-38.096 -2.124,-38.108 -0.776,-51.709c0.589,-5.945 2.201,-34.408 -0.564,-42.289c-0.698,-1.99 -2.27,-4.92 -2.409,-5.388c-0.952,-3.207 -0.403,-4.181 -3.692,-4.698c-17.461,-2.747 -20.836,-0.719 -38.493,1.253c-6.344,0.709 -10.93,0.968 -8.85,8.536c0.502,1.825 3.158,9.48 1.549,29.272c-0.647,7.959 -0.121,7.966 -0.936,15.931c-0.399,3.895 0.201,15.944 -0.056,18.559c-0.329,3.344 -0.405,3.36 0.408,6.622c1.124,4.509 0.502,15.869 1.392,25.208c0.426,4.466 0.101,12.428 0.205,15.916c0.081,2.707 0.401,2.736 -0.396,5.319c-1.893,6.137 0.102,23.612 0.49,25.054c0.887,3.295 0.828,3.31 0.541,6.734c-0.238,2.832 0.782,4.721 1.085,9.345c0.045,0.688 0.015,5.464 1.059,10.453c0.838,4.006 -0.006,4.015 -0.072,8.087c-0.086,5.295 -0.028,5.272 0.059,10.581Zm340.281,-95.411c10.403,-8.055 16.516,-11.913 24.388,-20.77c11.64,-13.097 11.228,-13.427 14.644,-18.599c0.527,-0.798 4.461,-4.945 8.755,-10.995c4.888,-6.886 7.321,-8.776 12.942,-20.061c4.793,-9.624 5.152,-9.413 10.196,-18.781c1.29,-2.395 6.731,-13.984 6.864,-14.377c0.678,-2.003 -0.663,-2.54 -0.868,-2.622c-1.776,-0.711 -16.947,-0.167 -18.602,-0.209c-4.579,-0.117 -7.785,0.379 -12.022,-0.747c-4.485,-1.192 -4.533,-0.412 -9.199,-0.328c-5.269,0.095 -6.742,-1.125 -8.417,3.87c-2.434,7.261 -2.232,7.303 -3.722,12.029c-1.037,3.289 -3.061,9.944 -3.324,10.81c-4.368,14.362 -3.642,14.568 -6.09,20.953c-9.399,24.514 -15.414,31.288 -16.987,34.552c-3.802,7.891 -4.324,7.572 -7.274,11.138c-5.672,6.855 -4.934,7.401 -9.816,12.826c-11.102,12.337 -19.513,13.706 -22.862,19.696c-4.331,7.745 -12.062,10.963 -18.506,15.924c-0.627,0.483 -0.783,0.45 -0.771,1.434c0.011,0.903 0.097,1.041 1.02,1.1c1.199,0.077 6.304,-2.854 6.826,-3.153c6.826,-3.918 12.218,-6.184 13.247,-6.747c10.406,-5.694 16.951,-10.651 18.68,-11.95c6.885,-5.171 18.328,-13.062 20.899,-14.994Zm-141.758,66.786c8.535,-1.965 17.807,-5.321 22.329,-7.281c8.96,-3.885 9.394,-2.835 27.933,-11.782c0.2,-0.096 2.278,-1.099 1.136,-2.527c-0.854,-1.067 -5.4,0.252 -7.606,1.492c-7.044,3.958 -18.608,7.835 -21.384,8.139c-1.71,0.187 -10.961,1.2 -21.219,3.514c-16.615,3.747 -17.328,3.654 -34.497,3.051c-18.237,-0.64 -27.072,1.619 -39.791,-0.24c-16.27,-2.378 -19.94,-2.971 -25.34,-7.961c-4.294,-3.967 -5.336,-2.738 -12.561,-8.726c-0.339,-0.281 -11.128,-10.849 -13.949,-13.852c-1.845,-1.964 -7.193,-7.843 -7.596,-8.359c-3.685,-4.711 -3.071,1.289 -3.043,1.561c0.638,6.236 0.211,14.807 0.496,19.884c0.299,5.334 5.692,3.72 14.588,10.188c11.338,8.244 11.425,8.459 25.053,11.736c8.441,2.03 10.55,5.321 18.405,5.442c5.963,0.092 5.952,0.017 11.858,0.913c15.621,2.369 23.063,-0.217 33.198,-0.83c11.558,-0.699 11.485,-1.481 19.921,-1.627c4.245,-0.074 9.288,-1.915 12.07,-2.737Zm141.76,-113.217c3.02,-6.895 3.418,-6.691 5.544,-11.833c3.22,-7.789 14.119,-47.575 14.145,-47.864c0.019,-0.217 0.169,-1.897 -1.233,-2.422c-2.169,-0.811 -20.697,0.698 -23.849,0.024c-6.854,-1.467 -18.401,-0.235 -38.375,0.262c-3.137,0.078 -5.467,0.974 -6.651,0.866c-2.634,-0.239 -2.355,-1.953 -7.969,-1.67c-11.28,0.57 -12.41,-0.045 -17.143,0.777c-6.664,1.158 -6.651,1.076 -13.362,1.946c-3.904,0.506 -8.689,3.251 -19.803,1.253c-0.729,-0.131 -5.006,-0.9 -9.243,0.598c-3.741,1.323 -3.699,1.959 -13.386,1.651c-3.722,-0.118 -4.527,-1.371 -5.355,-1.795c-1.145,-0.586 -4.816,-0.382 -5.236,-0.359c-12.058,0.67 -12.394,0.517 -15.925,1.449c-4.805,1.268 -5.044,0.46 -7.896,-0.104c-3.727,-0.737 -13.354,0.33 -17.201,-0.294c-3.349,-0.543 -3.336,-0.943 -18.627,-0.589c-11.481,0.266 -19.785,5.106 -29.073,2.105c-4.433,-1.432 -21.479,-2.076 -31.937,-1.151c-4.218,0.373 -4.979,1.979 -7.987,2.57c-8.615,1.692 -9.784,0.932 -10.637,0.802c-1.877,-0.287 -5.304,-1.159 -3.895,3.376c1.51,4.862 2.952,4.764 3.462,23.886c0.213,7.975 -0.51,7.969 0.205,15.918c0.439,4.877 -0.975,10.746 -0.346,23.866c0.913,19.039 1.026,33.181 1.968,35.779c0.26,0.718 0.355,0.98 5.624,7.714c3.748,4.79 6.361,6.493 7.671,8.167c7.363,9.41 13.212,13.2 14.059,13.872c0.19,0.151 3.123,3.227 3.22,3.309c0.983,0.84 1.326,0.379 13.009,9.6c4.116,3.249 5.218,3.534 6.701,4.052c7.776,2.718 7.893,2.226 16.022,3.635c10.157,1.76 10.218,0.219 33.142,0.113c18.928,-0.087 25.557,0.6 35.836,-1.2c7.957,-1.393 7.93,-1.393 15.943,-2.327c2.172,-0.253 12.208,-1.424 26.242,-7.64c16.748,-7.418 18.832,-3.473 40.054,-19.317c8.081,-6.033 9.506,-4.635 27.707,-18.737c8.872,-6.874 8.985,-8.74 12.83,-13.576c3.997,-5.029 3.247,-5.523 6.84,-10.415c8.021,-10.922 10.145,-16.734 14.906,-26.295Zm-122.108,-16.104c0.927,-0.869 0.695,-1.148 5.17,-4.152c1.376,-0.924 9.501,-5.645 13.288,-6.859c6.891,-2.209 8.239,0.403 13.571,-1.784c1.268,-0.52 7.228,-4.4 8.931,3.734c1.023,4.886 -0.837,10.392 -0.325,17.228c0.515,6.88 -2.115,8.338 -3.382,14.562c-0.335,1.645 -0.421,6.72 -5.671,10.048c-3.646,2.311 -5.523,0.411 -5.852,0.078c-1.06,-1.073 -1.692,-2.86 -4.599,-1.239c-1.097,0.612 -6.403,3.571 -15.647,1.318c-5.062,-1.234 -6.649,-3.805 -9.261,-10.258c-0.239,-0.591 -0.76,-1.877 -1.575,-7.816l-1.18,0.182c-0.313,0.212 -0.816,-0.321 -1.129,-0.108c-1.261,0.855 0.381,11.41 -7.026,18.181c-3.611,3.301 -4.308,1.778 -9.019,3.121c-0.226,0.064 -7.835,3.652 -14.253,-4.538c-2.456,-3.134 -1.587,-5.578 -2.89,-9.061c-0.483,-1.29 -2.693,-5.759 -2.471,-10.573c0.022,-0.477 -0.015,-0.966 0.101,-1.429c0.1,-0.398 0.639,-0.712 0.534,-1.108c-0.092,-0.349 -1.576,-1.012 -2.04,-0.809c-0.267,0.117 0.028,0.466 -2.697,2.451c-0.148,0.108 -9.22,5.3 -13.395,6.558c-0.54,0.163 -1.089,0.296 -1.63,0.456c-5.009,1.481 -0.858,5.63 2.744,4.193c2.534,-1.011 4.269,-3.716 6.687,-3.371c0.228,0.033 0.183,0.216 2.803,0.669c2.551,0.44 2.601,0.232 3.714,0.804c2.358,1.214 1.519,4.473 1.418,4.866c-1.407,5.47 -1.905,7.011 -4.321,8.695c-1.087,0.758 -10.543,4.543 -18.249,0.859c-6.934,-3.315 -7.816,-6.791 -10.728,-10.686c-3.396,-4.543 -4.917,-9.779 -5.569,-10.2c-1.108,-0.715 -2.233,0.22 -2.381,0.343c-4.272,3.551 -3.368,4.225 -3.772,7.036c-0.489,3.4 -3.843,3.191 -4.171,7.951c-0.208,3.009 -0.532,2.935 -1.967,5.572c-1.411,2.594 -1.153,2.784 -3.363,4.772c-7.704,6.93 -12.91,-9.709 -12.753,-12.979c0.32,-6.662 0.12,-6.654 0.659,-13.311c0.328,-4.055 0.402,-4.094 -0.859,-7.936c-0.87,-2.65 -2.32,-2.402 -4.178,-1.944c-2.878,0.71 -3.108,1.629 -4.161,8.55c-1.263,8.302 1.212,11.482 -1.896,17.495c-3.103,6.001 0.145,6.817 -1.746,10.404c-1.015,1.924 -2.69,1.055 -4.792,4.352c-0.944,1.48 -2.26,3.41 -6.757,-2.027c-2.644,-3.197 -2.458,-6.197 -2.926,-16.925c-0.216,-4.943 1.249,-4.99 0.138,-9.352c-1.831,-7.192 1.248,-8.876 -2.763,-10.834c-7.665,-3.743 -7.328,-4.304 -9.748,-5.81c-1.856,-1.154 -4.858,-1.086 -2.189,-7.075c1.675,-3.758 4.902,-3.023 17.088,-3.129c5.353,-0.047 9.323,-1.821 14.591,-2.196c10.677,-0.759 10.698,-0.727 12.002,-0.259c0.918,0.329 1.762,0.849 2.689,1.15c1.212,0.394 6.274,-1.528 8.704,2.061c1.334,1.97 0.88,4.589 0.811,4.988c-0.554,3.198 -0.881,3.268 -0.386,3.972c2.725,3.87 5.667,-8.001 15.982,-4.075c2.159,0.822 2.446,1.859 4.113,0.227c0.371,-0.363 0.212,-0.727 1.921,-3.195c0.386,-0.558 1.621,-2.342 6.237,-5.743c6.882,-5.071 13.026,-4.485 14.21,-4.373c10.375,0.989 16.036,7.757 15.83,13.16c-0.085,2.228 -0.765,3.337 1.447,3.191c0.585,-0.038 0.353,-0.506 6.238,-3.842c0.803,-0.455 0.742,-0.501 1.552,-0.939c9.189,-4.977 11.538,-3.203 14.03,-11.488c1.609,-5.347 3.31,-8.858 7.109,-12.347c5.238,-4.811 11.083,-0.578 10.616,9.496c-0.546,11.761 -1.804,14.785 -3.862,19.902c0.295,0.328 -0.197,0.992 0.098,1.32c0.286,0.317 1.208,0.254 1.314,0.247c0.671,-0.046 0.558,-0.375 1.238,-0.421Zm-58.304,-8.255c-1.55,0.545 -1.913,0.015 -4.403,2.689c-1.679,1.802 -3.327,3.522 -0.977,7.173c1.726,2.681 6.187,3.934 10.216,-0.589c0.446,-0.501 3.869,-4.344 -1.158,-8.309c-0.916,-0.722 -2.033,-0.897 -2.223,-0.927c-0.479,-0.075 -0.975,0.038 -1.454,-0.037Zm44.53,21.595c0.388,-2.767 0.846,-5.668 0.61,-6.534c-0.486,-1.784 -3.884,-1.374 -3.981,-1.376c-2.025,-0.03 -4.263,-0.692 -6.579,0.177c-4.612,1.731 -7.803,7.857 -2.84,11.975c2.311,1.918 4.218,4.049 9.026,0.612c3.738,-2.672 3.151,-3.196 3.764,-4.856Zm23.863,-2.618c-0.666,5.186 -1.858,6.827 3.197,8.224c3.934,1.087 4.057,0.334 7.157,-2.298c5.132,-4.356 2.223,-10.712 0.445,-11.878c-3.149,-2.064 -9.689,-2.693 -10.534,3.312c-0.123,0.875 -0.141,1.763 -0.264,2.639Zm-98.863,49.565c-11.544,-0.564 -11.55,-0.219 -15.862,-0.642c-10.223,-1.002 -16.083,-0.831 -18.478,-2.607c-0.424,-0.315 -4.138,-3.07 -1.407,-6.455c2.583,-3.201 6.227,-2.488 7.869,-2.239c11.092,1.683 11.114,1.481 12.077,1.63c12.452,1.917 13.227,-1.958 18.725,0.031c3.149,1.139 3.209,1.036 11.69,0.923c10.693,-0.142 10.624,-0.792 13.313,-1.123c0.076,-0.009 0.077,-0.001 3.943,0.58c3.329,0.5 14.299,-1.055 19.907,-0.021c5.235,0.966 12.369,-0.404 27.81,-0.489c4.66,-0.026 4.63,-0.205 9.232,-0.913c2.785,-0.429 15.114,-1.157 15.951,-1.175c7.033,-0.15 4.263,4.968 4.006,5.444c-0.79,1.459 -0.903,1.383 -0.968,1.511c-0.347,0.688 -0.584,1.429 -0.953,2.105c-1.587,2.902 -6.061,1.16 -41.846,3.246c-9.95,0.58 -9.933,-0.114 -19.9,-0.336c-13.294,-0.296 -13.241,1.37 -22.519,0.996c-11.131,-0.448 -12.704,0.444 -22.592,-0.467Zm-24.931,5.163c0.51,-0.294 0.918,-0.745 1.428,-1.039c2.799,-1.616 6.766,1.182 5.074,7.401c-0.804,2.957 -1.658,4.985 -4.153,6.476c-2.466,1.474 -3.932,-0.765 -4.118,-1.05c-4.545,-6.943 -1.484,-9.137 1.769,-11.788Zm123.559,2.199c1.308,4.62 1.605,4.679 0.657,9.398c-0.664,3.305 -5.516,5.338 -7.709,1.327c-1.016,-1.858 -6.077,-8.564 0.138,-12.935c1.099,-0.773 4.959,-2.148 6.461,1.022c0.181,0.383 0.273,0.805 0.454,1.188Zm-61.382,5.447c0.027,1.256 0.845,4.834 -2.88,7.783c-2.253,1.783 -4.433,-0.098 -4.719,-0.345c-5.715,-4.931 -1.896,-14.511 3.469,-13.735c0.208,0.03 1.286,0.186 2.231,1.381c1.662,2.102 1.171,2.331 1.9,4.916Zm-31.18,1.291c0.294,-1.034 -0.149,-2.479 3.135,-5.381c0.354,-0.312 3.207,-2.834 5.884,-0.409c2.887,2.616 1.149,6.132 -0.036,9.928c-0.145,0.464 -1.314,4.212 -4.419,4.168c-3.159,-0.044 -3.454,-3.519 -4.104,-5.567c-0.607,-1.913 -0.386,-2.3 -0.46,-2.74Zm-14.002,-7.929c0.525,-0.154 0.977,-0.509 1.502,-0.663c1.833,-0.539 5.367,1.41 4.994,5.97c-0.766,9.357 -7.6,9.267 -9.189,4.008c-2.164,-7.166 -0.604,-7.521 2.693,-9.314Zm78.311,7.969c0.25,-2.724 -0.244,-2.977 1.57,-5.017c1.529,-1.718 3.337,-1.735 3.661,-1.738c3.787,-0.034 4.259,3.623 4.806,6.837c1.329,7.798 -5.953,7.401 -8.341,4.829c-1.824,-1.966 -1.266,-2.247 -1.697,-4.912Zm-20.854,-5.143c1.076,-1.724 0.679,-2.278 2.282,-2.571c0.185,-0.034 1.189,-0.217 2.324,0.336c3.973,1.938 3.415,4.896 3.304,6.1c-0.972,10.561 -7.457,6.803 -8.321,5.245c-1.543,-2.782 -0.071,-7.268 0.412,-9.11Zm-246.763,668.237c3.486,-8.973 2.556,-9.317 5.296,-15.915c0.62,-1.492 7.068,-17.015 7.774,-18.638c6.056,-13.939 5.008,-14.285 7.813,-29.223c3.809,-20.281 5.48,-21.752 7.383,-28.024c3.05,-10.053 3.568,-9.861 6.68,-19.878c4.176,-13.439 5.767,-12.749 10.907,-23.813c11.301,-24.329 11.543,-24.252 15.526,-37.197c3.628,-11.793 1.627,-12.53 6.738,-21.354c2.703,-4.666 11.12,-23.784 11.585,-24.624c0.783,-1.416 8.812,-15.934 9.852,-17.66c7.642,-12.692 9.235,-22.369 12.76,-30.067c4.852,-10.598 5.993,-12.124 6.697,-13.064c3.239,-4.331 3.573,-4.083 6.671,-9.366c6.954,-11.856 6.975,-15.83 20.503,-24.362c0.945,-0.596 5.24,-3.305 13.299,-4.27c11.114,-1.331 11.054,-2.63 17.235,-1.765c6.035,0.844 6.204,0.453 13.302,0.314c11.408,-0.224 11.519,2.028 15.937,3.164c5.475,1.408 6.371,0.561 6.765,0.19c1.147,-1.084 10.986,-26.229 10.584,-29.326c-0.589,-4.536 -11.749,-2.89 -8.154,-21.217c4.124,-21.022 7.146,-20.107 9.002,-27.92c1.32,-5.553 1.774,-5.387 4.82,-10.198c4.3,-6.792 2.681,-7.587 6.782,-14.526c4.923,-8.329 4.808,-8.495 8.445,-11.262c6.259,-4.761 5.792,-5.896 12.226,-7.113c7.836,-1.482 8.982,-0.167 10.636,0.383c7.245,2.408 10.32,0.041 16.951,4.592c5.448,3.74 5.004,4.5 10.683,6.63c12.751,4.785 14.873,8.173 15.208,8.493c2.944,2.819 4.833,3.227 6.288,4.22c4.114,2.808 4.89,5.213 6.735,8.08c2.85,4.428 5.697,3.412 6.545,5.368c0.435,1.002 0.245,1.042 0.366,4.083c0.004,0.107 1.375,12.227 0.452,25.181c-0.609,8.548 0.243,8.807 -1.74,12.31c-3.425,6.049 -2.347,7.009 -3.316,11.571c-2.245,10.573 -4.621,13.52 -5.398,14.482c-3.636,4.507 -2.537,5.047 -4.205,10.604c-0.259,0.863 -2.523,8.406 -3.03,10.854c-2.27,10.962 -2.486,10.979 -2.237,11.917c0.46,1.734 3.906,1.599 7.024,1.973c2.619,0.314 2.591,0.394 5.212,0.761c4.832,0.676 6.106,1.646 7.864,-2.896c1.779,-4.596 7.545,-14.523 8.26,-15.754c7.094,-12.213 17.701,-27.183 19.492,-29.443c7.835,-9.883 9.441,-12.049 13.623,-11.088c4.074,0.937 5.551,2.763 7.31,7.46c8.19,21.867 13.01,48.211 14.653,50.502c1.42,1.981 2.516,0.971 5.914,-1.345c4.908,-3.346 37.225,-24.465 55.396,-28.591c1.786,-0.406 9.113,-1.028 9.175,5.765c0.131,14.419 -4.773,23.079 -9.329,49.011c-0.279,1.589 -3.458,19.685 -3.382,19.882c1.052,2.712 2.097,1.218 11.637,0.495c12.786,-0.97 42.91,-4.237 52.835,-0.043c3.674,1.553 4.312,3.77 0.68,11.771c-4.404,9.701 -25.535,33.011 -32.887,41.75c-3.558,4.229 -7.366,7.333 -5.799,9.525c1.211,1.695 21.955,15.792 32.922,25.331c0.167,0.146 7.129,5.871 8.624,8.372c0.85,1.421 1.182,5.317 0.156,7.364c-0.688,1.374 -1.396,2.787 -17.03,8.892c-12.522,4.889 -12.43,5.069 -24.853,10.16c-12.966,5.313 -14.978,5.161 -14.566,7.69c0.117,0.715 6.563,14.08 10.863,23.706c9.105,20.384 15.41,32.118 9.147,36.392c-5.982,4.082 -34.706,-1.636 -57.343,-5.077c-4.646,-0.706 -4.16,2.048 -4.222,4.655c-0.071,3.024 -0.149,5.061 -0.156,5.295c-1.059,34.564 -1.643,39.253 -4.846,41.076c-4.285,2.438 -6.933,1.315 -13.233,-1.276c-7.262,-2.987 -24.851,-14.728 -34.082,-21.753c-3.104,-2.362 -3.507,-2.525 -7.002,-0.761c-3.413,1.723 -3.421,1.693 -3.714,1.849c-0.942,0.501 -3.506,-0.226 -6.351,16.771c-1.366,8.159 -2.021,7.963 -4.899,15.693c-2.995,8.041 -5.871,12.716 -7.588,18.695c-6.704,23.356 -6.78,23.331 -7.342,25.367c-2.196,7.949 -9.609,23.631 -12.569,38.273c-3.149,15.579 -5.732,15.056 -5.703,22.545c0.018,4.596 -0.344,4.782 -4.564,8.338c-1.531,1.29 -7.432,6.422 -8.556,7.018c-1.363,0.724 -8.66,2.125 -8.764,-2.108c-0.011,-0.44 0.143,-0.873 0.137,-1.313c-0.058,-4.289 -4.19,-2.338 -9.717,-3.783c-7.197,-1.88 -7.392,-0.677 -14.639,-2.399c-10.668,-2.536 -12.603,-0.997 -19.798,-1.315c-10.894,-0.482 -17.731,-3.044 -21.314,-4.002c-6.514,-1.742 -6.622,-0.729 -13.167,-1.104c-6.43,-0.369 -15.504,-0.693 -25.276,-2.801c-7.149,-1.542 -7.184,-1.161 -14.488,-1.689c-27.801,-2.01 -29.694,-4.032 -45.183,-10.484c-9.676,-4.03 -23.95,-3.37 -33.109,-5.259c-13.525,-2.789 -25.52,-8.877 -33.183,-10.394c-11.14,-2.206 -12.417,0.357 -22.384,-3.317c-7.412,-2.733 -15.498,-4.466 -25.422,-8.728c-7.065,-3.035 -6.235,-4.43 -11.616,-7.301c-7.253,-3.87 -10.578,-4.375 -9.526,-10.37c2.168,-12.362 9.827,-22.826 16.313,-39.636Zm229.413,-359.294c0.514,-1.064 3.791,-7.857 5.782,-13.594c5.077,-14.622 5.234,-15.708 5.441,-17.131c0.946,-6.506 -0.688,-6.828 -2.153,-8.025c-4.029,-3.292 -4.811,-6.518 -5.84,-7.27c-0.261,-0.191 -0.646,0.019 -0.969,0.009c-0.287,-0.009 -0.601,-0.192 -0.859,-0.065c-0.403,0.199 -0.276,0.315 -0.945,1.844c-3.24,7.409 -3.717,7.174 -6.5,14.741c-2.472,6.719 -5.991,11.27 -7.124,20.117c-1.172,9.153 -3.497,11.749 1.003,12.618c2.842,0.549 7.225,0.752 7.856,0.781c2.658,0.123 3.166,-1.372 4.307,-4.025Zm147.783,166.692c0.46,-5.907 -0.916,-6.123 0.549,-8.979c0.837,-1.631 2.45,-1.503 1.288,-16.003c-0.29,-3.616 0.058,-9.18 -10.195,-24.224c-3.442,-5.051 -4.156,-4.433 -9.398,-10.589c-13.273,-15.588 -21.184,-17.084 -26.78,-21.087c-5.931,-4.243 -20.23,-11.419 -25.398,-10.898c-1.532,0.154 -2.996,1.048 -5.257,0.555c-0.416,-0.091 -0.812,-0.256 -1.223,-0.365c-1.441,-0.381 -7.071,-0.422 -11.672,-2.979c-3.775,-2.098 -2.518,-4.389 -1.77,-9.974c1.796,-13.409 3.475,-20.785 3.881,-22.572c0.073,-0.32 0.745,-3.277 0.498,-4.072c-0.657,-2.111 -4.35,-0.519 -9.505,-1.589c-8.027,-1.666 -8.086,-1.249 -16.121,-2.945c-9.626,-2.032 -9.977,-0.991 -10.547,-0.842c-5.24,1.377 -4.317,-2.212 -10.657,-4.817c-5.948,-2.443 -15.598,-4.447 -18.378,-5.763c-0.509,-0.241 -0.938,-0.744 -1.5,-0.781c-0.355,-0.023 -2.073,0.905 -2.167,1.134c-0.73,1.766 0.178,2.074 -7.944,22.529c-2.319,5.841 -2.408,5.789 -4.505,11.727c-1.362,3.858 -5.704,5.955 -9.321,4.413c-6.416,-2.735 -5.893,-4.99 -17.064,-5.727c-3.969,-0.262 -3.934,-0.447 -7.93,-0.569c-7.977,-0.244 -12.785,-2.185 -25.29,1.703c-5.97,1.856 -6.897,-0.267 -12.884,4.59c-10.317,8.371 -10.279,15.226 -19.336,28.469c-9.05,13.233 -7.302,20.612 -17.72,38.979c-9.574,16.879 -15.445,30.095 -16.639,32.783c-4.51,10.152 -6.579,10.75 -9.262,21.288c-3.639,14.292 -5.082,13.795 -10.921,30.363c-8.046,22.832 -12.173,23.481 -17.207,39.808c-1.265,4.101 -2.686,5.545 -4.775,12.091c-6.678,20.929 -7.972,23.427 -10.444,37.168c-2.166,12.045 -1.29,12.302 -6.001,23.589c-3.427,8.21 -3.254,8.26 -7.027,16.32c-8.93,19.076 -5.961,20.337 -15.341,38.066c-2.707,5.116 -5.992,10.603 -7.049,17.532c-0.802,5.256 4.504,6.428 8.769,8.041c2.646,1 2.076,2.967 4.449,4.533c0.746,0.492 1.05,0.693 10.06,4.871c14.333,6.647 32.636,6.006 38.588,7.668c4.483,1.251 6.702,4.599 29.122,9.49c11.72,2.557 28.151,2.894 38.265,6.995c8.709,3.532 10.8,6.334 26.744,7.443c4.098,0.285 6.258,1.218 10.6,1.452c14.808,0.8 15.234,2.369 31.836,3.776c6.629,0.562 6.587,1.153 13.233,0.865c9.503,-0.413 9.428,0.683 22.622,4.241c2.999,0.809 6.488,1.171 10.554,1.506c4.917,0.405 5.593,-1.923 9.157,-0.877c6.368,1.868 6.419,1.617 17.384,3.41c7.969,1.303 8.005,0.912 15.972,2.289c7.12,1.231 4.446,-3.849 8.086,-7.169c2.36,-2.153 2.133,-2.369 2.741,-5.486c1.211,-6.207 6.28,-20.341 9.3,-31.797c1.769,-6.711 3.159,-6.207 6.936,-18.469c4.015,-13.034 4.12,-12.976 5.184,-17.305c2.819,-11.467 5.146,-16.191 5.799,-17.515c3.171,-6.437 2.869,-6.555 6.905,-17.091c1.806,-4.715 1.172,-6.927 3.491,-13.335c0.643,-1.776 1.36,-2.065 -0.032,-3.314c-0.79,-0.709 -0.974,-0.798 -1.742,-0.084c-0.157,0.146 0.058,0.299 -1.761,2.029c-1.727,1.642 -11.338,8.936 -13.164,9.441c-2.423,0.669 -2.602,-0.471 -8.042,1.037c-5.279,1.463 -5.206,1.614 -10.48,3.079c-10.543,2.928 -12.509,2.046 -18.472,5.373c-4.315,2.407 -5.146,0.936 -9.318,2.678c-1.365,0.57 -1.306,0.65 -2.699,1.204c-3.742,1.489 -3.885,0.916 -9.341,2.504c-6.512,1.895 -6.564,1.528 -13.314,2.153c-0.646,0.06 -1.21,0.112 -7.99,1.389c-2.179,0.41 -4.833,1.865 -10.51,1.649c-10.817,-0.412 -10.814,-0.509 -15.922,0.047c-6.015,0.655 -6.094,-0.211 -12.014,1.079c-3.874,0.844 -3.614,-1.747 -9.202,-1.779c-17.298,-0.098 -18.977,1.452 -27.84,1.593c-2.968,0.047 -21.504,0.343 -37.1,-0.056c-7.29,-0.186 -9.509,-3.854 -14.623,-3.775c-8.836,0.138 -7.703,-3.238 -17.501,-8.369c-4.303,-2.253 -3.632,-3.058 -7.156,-6.403c-0.604,-0.574 -2.432,-2.309 -5.359,-8.93c-2.313,-5.232 -1.115,-5.684 -3.853,-10.732c-5.803,-10.701 -3.58,-11.364 -3.906,-23.532c-0.088,-3.268 0.554,-3.811 0.83,-6.623c0.271,-2.762 0.051,-2.791 1.019,-5.377c2.723,-7.27 1.204,-8.362 3.713,-13.398c1.741,-3.493 1.469,-5.607 3.999,-9.336c3.943,-5.813 2.838,-8.899 6.771,-19.73c2.488,-6.852 1.627,-7.21 10.527,-25.259c2.889,-5.858 2.818,-5.864 5.762,-11.704c2.292,-4.548 2.758,-4.355 4.036,-9.304c1.558,-6.035 4.156,-7.146 14.176,-25.361c5.326,-9.682 6.116,-9.134 9.236,-13.336c2.58,-3.476 4.669,-8.614 12.381,-16.875c5.858,-6.275 3.99,-8 10.91,-14.211c4.256,-3.82 7.792,-5.093 12.955,-8.185c0.691,-0.414 3.345,-2.003 9.08,-4.334c2.651,-1.077 5.045,-1.109 7.764,-1.94c3.407,-1.042 3.43,-0.845 6.927,-1.463c3.235,-0.571 6.077,-2.225 11.89,-2.711c15.7,-1.313 15.777,-2.915 23.939,-0.921c5.785,1.413 5.874,0.874 11.682,2.275c6.295,1.518 9.294,-2.058 17.262,-0.056c8.808,2.213 17.453,0.993 26.586,2.465c8.047,1.297 8.178,0.664 19.787,4.199c3.659,1.114 3.684,0.972 6.754,1.159c4.9,0.298 4.574,1.763 13.328,3.384c2.015,0.373 5.204,0.964 22.631,12.013c2.135,1.354 4.841,3.719 7.944,5.252c6.149,3.037 6.263,2.871 11.635,7.114c2.658,2.099 2.987,1.888 4.325,4.995c1.798,4.177 3.789,5.203 6.148,12.298c0.223,0.67 0.779,1.727 0.797,1.723c0.096,-0.016 -0.369,-0.387 0.751,-0.961c0.494,-0.253 0.527,0.306 1.012,0.058Zm-84.721,-210.352c-4.752,-4.975 -4.709,-4.991 -5.182,-5.355c-1.56,-1.202 -3.02,-0.565 -8.958,-4.474c-11.563,-7.611 -13.096,-11.496 -26.697,-10.231c-5.95,0.553 -6.711,2.055 -5.112,7.819c1.927,6.944 7.854,7.476 10.293,12.054c1.421,2.668 3.452,3.047 8.055,4.004c3.91,0.813 4.749,2.749 8.053,3.587c8.737,2.216 8.257,3.993 17.208,5.1c3.052,0.377 3.948,1.095 6.467,0.208c3.596,-1.266 3.656,-1.108 3.929,-1.296c0.996,-0.684 0.893,-1.953 0.878,-2.137c-0.019,-0.235 -0.094,-0.214 -5.023,-5.234c-2.426,-2.471 -2.387,-2.489 -3.91,-4.045Zm-157.394,218.602c-4.434,7.471 -4.046,7.698 -9.219,14.65c-3.281,4.41 -7.137,12.235 -7.682,13.339c-2.784,5.65 -3.114,5.568 -4.124,11.769c-1.155,7.091 -6.3,8.82 -10.21,22.315c-1.715,5.919 -2.895,6.102 -4.302,10.884c-1.33,4.517 -1.097,4.736 -4.77,17.007c-1.604,5.359 -0.494,5.792 -3.181,9.679c-2.464,3.565 -3.186,8.565 -5.696,14.314c-3.302,7.562 -3.399,13.754 -3.968,21.213c-0.561,7.349 4.917,17.003 6.875,22.434c1.898,5.262 3.773,7.032 7.531,9.639c2.626,1.822 5.41,2.475 10.333,5.69c4.262,2.784 4.64,1.807 11.098,3.111c7.014,1.417 17.311,2.438 43.701,1.492c7.999,-0.287 7.934,-1.001 15.916,-1.042c15.366,-0.08 15.417,-0.535 18.372,0.334c5.036,1.481 5.137,0.195 13.446,0.188c5.987,-0.005 5.944,-0.671 11.929,-0.542c3.418,0.074 5.288,0.268 7.835,-0.556c5.545,-1.794 17.015,-2.149 21.447,-3.189c1.125,-0.264 7.931,-2.071 13.251,-4.181c5.151,-2.043 5.519,-1.158 11.56,-4.68c2.803,-1.634 10.072,-1.649 16.181,-3.529c6.034,-1.857 6.072,-1.658 11.976,-3.85c5.563,-2.065 6.037,-1.443 14.071,-8.616c4.118,-3.677 5.452,-3.421 8.027,-7.652c2.993,-4.918 5.01,-3.003 8.341,-7.72c4.581,-6.488 5.531,-5.924 7.889,-11.949c1.837,-4.693 1.621,-4.803 4.507,-8.952c3.227,-4.64 3.248,-8.952 5.409,-14.67c2.241,-5.931 1.901,-6.005 3.296,-12.178c1.448,-6.412 -0.277,-6.623 1.06,-11.996c0.317,-1.274 0.469,-1.217 4.332,-15.831c0.083,-0.313 0.094,-0.304 2.458,-6.706c2.462,-6.668 3.937,-6.332 3.825,-11.837c-0.163,-7.974 -0.37,-7.947 -0.23,-15.908c0.047,-2.686 -1.066,-8.455 -1.206,-9.183c-0.943,-4.887 0.749,-4.854 0.503,-8.065c-0.114,-1.484 -3.803,-11.744 -6.705,-15.854c-4.018,-5.691 -6.953,-9.804 -11.689,-13.545c-3.647,-2.881 -4.872,-2.005 -9.512,-6.332c-8.398,-7.831 -13.959,-5.813 -19.66,-9.599c-4.915,-3.264 -8.487,-2.413 -18.588,-5.505c-4.649,-1.423 -4.824,-0.502 -9.547,-1.733c-0.925,-0.241 -3.866,-1.008 -11.795,-1.908c-6.602,-0.75 -6.6,-0.606 -13.261,-0.473c-3.528,0.07 -8.93,-2.007 -14.662,-1.261c-7.529,0.98 -20.998,-2.299 -25.085,-1.831c-4.011,0.459 -3.964,0.594 -8,1.017c-3.21,0.336 -15.094,-1.203 -25.078,1.721c-13.793,4.039 -19.896,2.248 -29.715,13.842c-3.356,3.962 -3.46,3.833 -6.74,7.885c-1.282,1.584 -0.908,1.827 -15.255,20.397c-2.358,3.052 -4.896,7.295 -5.288,7.951Zm203.229,90.27c-3.939,10.288 -4.803,9.873 -9.49,19.848c-2.823,6.008 -3.774,5.335 -9.969,12.787c-0.763,0.918 -6.525,6.729 -9.593,10.142c-3.806,4.234 -4.461,3.42 -8.95,6.92c-14.035,10.941 -20.139,10.296 -30.181,12.013c-17.116,2.927 -17.343,1.073 -34.435,4.266c-3.464,0.647 -7.455,1.014 -11.939,2.703c-5.057,1.905 -5.302,0.121 -10.638,0.961c-18.281,2.878 -37.892,0.991 -56.99,2.562c-4.062,0.334 -5.908,0.106 -11.777,1.149c-5.47,0.972 -28.647,0.834 -34.635,-5.871c-3.321,-3.719 -5.494,-3.153 -6.428,-9.342c-0.689,-4.567 -0.227,-4.586 -0.819,-9.178c-0.435,-3.373 0.317,-3.382 -0.105,-6.767c-1.068,-8.564 0.409,-8.544 0.671,-17.182c0.074,-2.447 1.058,-5.203 1.095,-5.37c1.211,-5.34 0.879,-5.462 3.351,-10.368c3.515,-6.978 2.022,-7.486 4.702,-14.842c2.797,-7.678 3.26,-7.452 5.321,-10.659c1.403,-2.183 1.299,-5.18 3.082,-9.048c1.504,-3.264 1.43,-3.273 2.395,-6.738c0.611,-2.195 1.809,-3.433 2.428,-5.382c1.129,-3.552 1.512,-5.298 4.56,-8.925c2.243,-2.67 1.493,-3.155 4.097,-6.567c0.556,-0.728 2.619,-3.431 6.483,-9.445c3.18,-4.948 1.218,-6.112 6.444,-12.008c2.574,-2.904 2.322,-6.049 5.302,-10.628c2.752,-4.23 2.781,-4.267 4.044,-10.645c1.467,-7.405 3.211,-6.556 6.013,-9.718c0.864,-0.975 0.789,-1.624 3.491,-4.53c6.55,-7.045 4.501,-9.619 14.205,-13.594c6.097,-2.497 6.574,-5.004 11.895,-4.846c7.977,0.237 7.937,-0.556 15.931,-0.7c24.185,-0.434 24.407,-2.323 34.35,0.603c5.878,1.73 7.015,-1.485 22.734,0.405c5.198,0.625 7.906,-0.814 10.037,1.069c3.709,3.277 4.579,1.326 11.083,2.303c6.029,0.905 5.533,2.894 14.569,4.111c5.406,0.728 5.4,0.77 10.415,2.854c5.65,2.349 7.891,1.469 16.207,4.62c4.238,1.606 4.638,1.007 7.816,4.21c5.275,5.318 5.309,5.254 10.965,10.197c11.697,10.222 5.13,15.111 8.793,29.549c0.725,2.857 -0.141,6.219 -0.249,7.867c-2.012,30.716 -7.56,30.228 -8.645,37.198c-0.425,2.727 0.197,2.864 -1.092,5.464c-1.399,2.821 -2.034,8.447 -5.386,15.877c-0.605,1.341 -0.576,1.331 -1.159,2.676Zm-24.312,-106.687c-6.191,-0.964 -6.062,-1.446 -12.121,-3c-5.304,-1.36 -5.265,-1.424 -10.568,-2.782c-9.513,-2.437 -9.638,-1.804 -17.317,-3.734c-3.708,-0.932 -6.052,-0.702 -10.516,-1.494c-12.667,-2.247 -15.092,-0.901 -22.389,-2.207c-7.885,-1.412 -19.25,-0.222 -33.222,-0.169c-6.018,0.023 -5.716,1.707 -11.989,2.729c-4.606,0.75 -5.14,-0.101 -10.451,4.57c-4.707,4.14 -5.476,6.532 -8.018,7.896c-8.617,4.623 -7.969,11.095 -14.993,22.253c-4.441,7.056 -3.668,7.466 -7.839,14.668c-4.936,8.521 -3.803,9.141 -8.751,16.246c-11.591,16.644 -20.129,44.869 -22.301,52.986c-2.884,10.777 -3.996,10.372 -7.525,20.952c-2.925,8.769 -3.77,18.847 -3.744,20.026c0.133,6.154 -0.223,6.13 -0.182,6.661c0.149,1.896 3.868,10.907 6.097,12.6c1.228,0.932 8.351,2.067 12.797,1.872c5.366,-0.235 5.296,0.479 10.639,1.193c10.231,1.367 18.079,-6.247 34.53,-2.8c3.796,0.795 6.783,0.02 13.172,-0.098c11.138,-0.205 10.909,-2.071 18.53,-2.668c5.426,-0.425 5.322,-1.023 10.705,-1.76c13.763,-1.884 13.737,-2.533 23.81,-1.94c4.042,0.238 8.266,-1.191 11.916,-1.409c6.017,-0.358 6.056,0.143 11.956,-1.004c4.615,-0.898 4.869,1.542 9.171,-0.276c3.932,-1.662 4.263,-0.47 8.209,-2.058c5.256,-2.115 6.765,-3.858 8.308,-5.073c5.962,-4.697 5.283,-5.416 11.016,-10.376c2.097,-1.814 3.174,-1.996 15.236,-17.895c4.443,-5.856 6.267,-10.977 6.636,-12.011c2.098,-5.89 2.358,-5.831 2.707,-9.344c0.416,-4.183 3.235,-3.746 5.06,-9.29c3.068,-9.317 2.138,-15.11 7.094,-23.59c3.385,-5.793 2.109,-8.67 3.951,-17.428c2.089,-9.935 0.951,-11.226 -1.888,-21.298c-1.675,-5.94 3.088,-10.031 -6.043,-19.098c-0.584,-0.58 -5.476,-5.438 -7.453,-7.093c-3.703,-3.1 -14.116,-4.739 -14.231,-4.758Zm-127.351,38.712c-1.971,0.496 -1.922,0.75 -3.966,0.667c-0.543,-0.022 -4.436,-0.539 -5.304,-0.541c-0.331,-0.001 -4.409,-0.011 -3.39,2.366c0.803,1.874 9.923,-0.494 7.201,6.889c-1.993,5.404 -11.192,1.471 -13.013,2.837c-0.234,0.176 -2.696,2.022 1.392,3.388c1.232,0.412 1.266,0.107 2.522,0.447c3.468,0.94 2.964,5.039 1.985,6c-1.166,1.145 -5.87,1.157 -8.633,0.684c-6.047,-1.034 -5.798,-2.551 -6.184,-5.389c-0.54,-3.971 -3.862,-8.759 0.052,-12.739c2.228,-2.266 1.996,-2.434 3.752,-5.616c1.611,-2.92 1.886,-2.702 3.299,-4.457c0.415,-0.515 1.146,-2.267 2.086,-3.305c2.757,-3.045 13.649,-2.793 16.502,-1.01c5.156,3.223 2.283,6.808 2.095,7.51c-0.199,0.74 -0.196,1.525 -0.395,2.266Zm86.967,28.019c0.266,-6.032 0.568,-6.077 0.298,-6.524c-0.377,-0.623 -3.506,-3.44 -6.352,6.525c-1.798,6.295 -8.255,4.382 -9.282,2.635c-0.699,-1.19 -0.664,-1.221 -0.553,-2.586c0.368,-4.534 -0.277,-4.738 2.565,-10.867c2.186,-4.715 1.615,-6.891 3.193,-7.859c3.755,-2.303 5.739,1.916 5.996,2.186c0.702,0.734 4.235,0.904 4.561,1.017c0.924,0.321 1.767,0.852 2.698,1.154c3.297,1.071 4.956,-3.055 10.739,-1.804c0.653,0.141 4.172,0.903 6.024,5.783c1.651,4.351 -2.583,10.288 0.589,10.025c1.746,-0.144 1.69,-2.976 1.74,-3.121c0.1,-0.286 0.394,-0.473 0.509,-0.753c0.152,-0.372 0.194,-0.781 0.277,-1.174c0.165,-0.778 0.302,-1.562 0.47,-2.34c0.109,-0.504 2.403,-7.406 3.661,-9.499c2.957,-4.92 12.164,-3.549 6.408,6.554c-0.633,1.111 -3.494,6.134 -6.53,14.591c-2.674,7.449 -5.049,4.826 -7.889,4.01c-3.553,-1.02 -9.048,4.251 -14.777,0.304c-4.085,-2.814 -3.934,-4.774 -4.345,-8.256Zm11.267,-2.561c0.2,-0.55 0.699,-0.958 0.898,-1.507c0.058,-0.158 0.437,-1.202 -0.294,-2.085c-0.922,-1.114 -3.536,-0.167 -4.389,2.244c-0.484,1.368 1.068,2.778 2.297,2.322c0.555,-0.206 0.931,-0.767 1.487,-0.973Zm-99.436,68.531c-0.535,-0.153 -1.047,-0.381 -1.581,-0.534c-4.015,-1.147 -5.736,3.183 -2.563,4.924c14.537,7.977 -0.829,29.439 -11.189,17.679c-1.073,-1.218 -6.912,-6.51 0.432,-11.464c2.96,-1.997 1.508,-3.15 1.145,-4.889c-0.654,-3.132 1.834,-11.143 5.819,-13.033c3.364,-1.595 12.745,0.883 15.661,2.577c2.486,1.444 2.805,3.079 6.562,0.743c5.721,-3.557 20.086,-0.262 17.149,10.878c-3.147,11.938 -10.953,11.259 -14.351,11.744c-8.489,1.211 -10.195,-7.017 -10.203,-9.022c-0.011,-2.568 0.363,-2.5 0.361,-2.72c-0.021,-2.28 -2.172,-3.028 -3.18,-4.082c-1.733,-1.811 -1.723,-1.842 -4.062,-2.803Zm-10.071,16.955c0.276,0.108 0.464,0.386 0.74,0.494c2.749,1.073 4.328,-1.891 2.386,-3.63c-0.769,-0.689 -2.795,-0.731 -3.464,0.023c-0.809,0.912 -0.291,2.174 -0.22,2.349c0.12,0.292 0.438,0.473 0.558,0.764Zm27.229,-13.929c-0.421,0.305 -4.772,2.375 -2.727,6.603c0.803,1.66 3.405,3.376 6.253,0.84c2.86,-2.547 4.73,-6.847 0.591,-8.02c-2.229,-0.632 -3.812,0.481 -4.117,0.577Zm92.998,-113.252c0.864,0.411 9.814,3.722 12.947,9.827c2.22,4.326 -0.862,5.031 -3.575,3.404c-1.492,-0.895 -4.86,-3.595 -5.27,-3.924c-3.775,-3.028 -4.398,-0.154 -8.321,0.101c-8.56,0.556 -14.893,-0.326 -21.079,0.879c-0.577,0.112 -4.68,0.911 -7.244,-1.238c-1.905,-1.597 -1.098,-2.011 -1.368,-4.486c-0.301,-2.762 -0.776,-2.959 0.841,-5.2c2.422,-3.358 5.474,-3.976 11.63,-4.345c4.084,-0.245 6.88,0.756 11.904,1.71c5.834,1.107 8.879,2.955 9.536,3.273Zm-87.84,43.514c-4.439,-0.822 -9.81,-1.4 -10.928,-5.775c-0.519,-2.031 0.207,-11.836 3.314,-15.826c5.958,-7.65 21.028,-6.476 18.992,2.415c-1.061,4.634 -1.022,4.638 -1.64,5.712c-2.499,4.344 -7.447,1.229 -9.605,1.162c-3.15,-0.098 -1.501,2.279 -1.373,2.465c0.34,0.49 4.647,1.664 6.317,2.993c2.077,1.653 2.008,6.121 -1.088,7.144c-1.195,0.395 -1.194,0.092 -3.99,-0.289Zm1.473,-20.357c-0.227,0.224 -0.595,0.269 -0.822,0.493c-0.845,0.834 -0.139,2.422 0.532,2.561c0.257,0.053 2.96,0.614 2.732,-1.813c-0.095,-1.018 -1.045,-1.23 -1.18,-1.26c-0.411,-0.092 -0.852,0.11 -1.263,0.018Zm106.006,-9.384c-1.41,-2.622 -2.414,-5.06 -4.948,-8.23c-6.989,-8.746 -6.667,-9.078 -10.689,-12.018c-4.19,-3.063 -13.145,-2.174 -6.991,-10.367c2.744,-3.653 12.967,-3.393 16.044,2.749c1.723,3.438 5.267,8.508 6.328,12.1c1.187,4.015 1.028,4.048 2.653,7.899c2.632,6.236 2.315,6.352 2.799,13.093c0.02,0.283 0.228,3.174 -2.457,2.552c-1.486,-0.344 -1.86,-3.429 -1.9,-3.764c-0.249,-2.053 -0.312,-2.025 -0.84,-4.013Zm15.89,33.972c-2.977,0.053 -5.328,-0.302 -6.2,3.211c-0.928,3.742 4.541,2.702 5.223,6.496c0.8,4.451 -3.795,3.947 -4.254,3.897c-0.346,-0.038 -6.987,-1.178 -7.84,-1.533c-6.659,-2.765 -3.127,-10.708 -0.491,-18.347c0.522,-1.512 0.329,-1.595 1.329,-2.872c2.664,-3.402 2.07,-8.189 6.987,-8.528c3.742,-0.258 3.166,4.505 3.109,4.971c-0.336,2.775 -0.625,3.518 2.081,4.243c0.306,0.082 3.006,0.806 3.693,1.439c2.038,1.88 0.454,4.44 0.254,4.765c-1.244,2.011 -1.676,1.484 -3.891,2.258Zm-100.713,-1.878c-2.739,-0.119 -16.623,0.074 -9.695,-14.948c2.15,-4.663 0.55,-8.36 5.654,-9.471c15.645,-3.405 14.255,6.734 10.631,8.125c-2.784,1.069 -6.81,-0.847 -9.196,4.094c-2.471,5.115 4.87,1.864 6.507,5.322c0.702,1.483 1.849,5.761 -1.235,6.639l-2.666,0.238Zm17.249,1.547c-3.332,-0.081 -10.752,0.563 -5.418,-13.805c1.397,-3.763 0.457,-3.989 1.751,-7.777c1.713,-5.017 0.103,-6.089 2.337,-8.086c1.619,-1.447 5.857,-0.668 6.621,2.639c0.609,2.637 -0.012,3.27 2.485,4.366c1.641,0.721 1.816,0.467 2.439,1.301c0.911,1.22 0.135,5.873 -3.554,6.498c-2.973,0.504 -3.648,-0.156 -4.893,2.589c-1.553,3.425 2.994,4.209 3.216,4.337c1.865,1.08 1.195,4.577 1.195,4.578c-0.032,0.361 0.075,1.763 -2.29,2.669c-1.881,0.721 -3.672,0.666 -3.888,0.69Zm-58.225,-30.999c0.141,-0.31 1.165,-1.265 1.333,-3.901c0.138,-2.162 0.142,-2.174 1.23,-4.028c1.895,-3.229 7.653,-4.823 8.736,1.368c0.922,5.272 -3.196,4.284 -6.768,18.259c-1.8,7.042 -2.911,8.218 -8.34,11.474c-3.172,1.903 -4.981,-0.227 -3.069,-5.981c4.755,-14.309 6.326,-16.164 6.877,-17.191Zm44.847,96.281c0.377,0.013 4.954,-1.261 6.169,4.625c0.472,2.286 0.335,7.064 0.317,7.679c-0.09,3.143 -4.005,3.144 -5.007,0.109c-0.734,-2.223 -0.365,-2.292 -0.438,-2.479c-0.749,-1.934 -1.66,-2.421 -2.697,-0.644c-0.467,0.801 -0.351,0.816 -0.922,3.135c-0.038,0.156 -0.341,1.385 -1.086,1.688c-1.528,0.621 -3.538,-0.425 -4.177,-0.457c-1.979,-0.1 -3.784,2.615 -5.789,0.642c-1.977,-1.946 -0.734,-4.82 0.652,-9.76c1.716,-6.113 6.825,-2.582 9.048,-2.939c0.335,-0.054 0.281,-0.198 3.93,-1.598Zm15.953,-39.701c-2.21,0.067 -2.293,0.472 -3.517,-0.23c-0.892,-0.511 -0.923,-1.769 -0.927,-1.941c-0.022,-0.911 0.25,-1.807 0.302,-2.716c0.153,-2.665 -3.011,-9.182 1.514,-10.698c1.657,-0.555 6.723,-0.659 6.277,2.72c-0.094,0.71 -1.058,1.593 0.638,3.821c0.407,0.534 4.342,5.7 -1.523,8.252c-0.211,0.092 -0.205,0.059 -2.764,0.793Zm-3.581,38.989c0.991,-2.025 0.458,-2.561 2.514,-3.479c1.286,-0.574 2.369,0.511 2.516,0.658c2.342,2.346 0.185,12.363 -0.463,14.533c-1.461,4.895 -2.955,6.708 -5.071,5.769c-4.644,-2.061 0.081,-15.781 0.505,-17.481Zm-112.312,-2.886c0.647,-2.461 0.491,-2.497 1.109,-3.585c2.84,-5.003 11.258,-4.496 7.306,6.316c-2.891,7.909 -3.716,13.542 -9.542,19.565c-4.818,4.981 -7.932,-1.09 -5.299,-5.164c3.902,-6.037 3.575,-6.239 6.425,-17.132Zm24.938,12.293c-4.349,8.161 -3.641,8.452 -4.519,10.339c-1.885,4.047 -7.773,3.938 -7.485,-2.598c0.278,-6.29 3.598,-5.265 7.223,-18.671c0.202,-0.748 0.531,-5.619 7.073,-7.423c3.261,-0.899 6.431,-0.315 6.193,2.171c-0.122,1.279 -2.256,3.22 -3.39,5.472c-0.485,0.963 -1.363,3.127 -2.928,6.495l-2.166,4.216Zm144.982,-69.091c-0.005,-3.393 -0.09,-3.414 0.914,-6.637c0.557,-1.786 3.879,-10.488 6.16,-11.413c0.83,-0.336 2.826,0.537 3.282,1.211c0.328,0.485 1.208,1.786 -1.063,7.237c-1.958,4.702 -1.912,4.689 -3.608,9.504c-1.778,5.05 -4.737,3.305 -5.39,1.379c-0.141,-0.415 -0.155,-0.866 -0.296,-1.281Zm-12.504,15.632c0.597,2.093 2.587,4.648 -2.824,8.43c-4.927,3.444 -10.346,0.577 -8.046,-5.55c4.761,-12.685 10.292,-3.622 10.87,-2.88Zm40.114,-60.793c-0.141,2.628 0.046,2.64 -0.395,4.055c-0.253,0.811 -0.664,1.568 -0.912,2.381c-0.741,2.434 1.033,4.665 -0.79,6.734c-0.351,0.398 -3.683,2.322 -5.743,-0.777c-0.89,-1.338 -0.486,-1.454 -0.478,-3.058c0.011,-2.018 0.674,-3.147 -0.171,-5.44c-2.76,-7.485 -3.852,-8.275 -4.662,-11.935c-0.737,-3.329 4.822,-7.604 9.749,-3.831c3.307,2.533 3.149,6.978 3.402,11.871Zm-60.417,66.178c-0.387,0.091 -3.04,2.043 -6.049,-1.637c-2.347,-2.87 0.754,-5.534 1.116,-5.844c1.438,-1.235 1.277,-1.363 2.701,-2.635c2.947,-2.631 7.386,0.86 6.086,6.199c-0.221,0.905 -0.22,0.892 -0.839,1.62c-1.346,1.584 -2.942,2.248 -3.014,2.296Zm-39.703,-6.433c-1.633,0.009 -4.674,1.586 -4.971,-5.412c-0.304,-7.156 7.465,-8.299 9.829,-1.173c0.828,2.494 -0.316,3.868 -0.528,4.124c-1.639,1.97 -1.878,1.672 -4.33,2.461Zm-28.655,-5.339c1.187,-3.573 1.143,-3.651 3.823,-6.32c0.336,-0.335 4.29,-4.273 5.919,-0.281c0.119,0.291 -0.124,2.105 0.126,3.927c0.06,0.433 0.167,0.859 0.223,1.292c1.026,7.905 -8.122,6.558 -9.457,4.089c-0.779,-1.442 -0.615,-2.621 -0.635,-2.707Zm-12.47,-12.134c0.724,0.062 7,-1.246 2.833,8.19c-2.177,4.93 -6.586,0.686 -6.966,0.026c-1.114,-1.934 -0.92,-2.041 -0.405,-4.229c1.049,-4.455 3.138,-3.728 4.538,-3.987Zm79.868,-237.116c-1.844,6.036 -2.128,5.915 -4.215,11.876c-0.709,2.025 -0.585,4.01 -2.706,10.591c-0.855,2.654 -1.531,3.56 1.143,4.374c1.244,0.379 4.953,1.184 5.386,1.278c0.839,0.182 9.808,2.129 10.583,1.784c2.733,-1.214 0.035,-4.746 2.716,-11.438c4.508,-11.251 3.854,-14.694 7.626,-24.005c1.318,-3.254 2.455,-10.037 -2.223,-11.899c-3.714,-1.478 -10.367,-3.313 -12.093,-2.751c-1.307,0.425 -0.859,0.911 -2.961,8.055c-0.284,0.964 -0.692,2.351 -3.256,12.136Zm-33.365,14.584l-1.802,0.667c-0.555,-0.196 -0.453,-0.48 -2.265,-0.799c-0.297,-0.052 -3.596,-0.634 -3.528,1.334c0.068,1.976 6.489,2.512 9.01,3.631c3.213,1.426 10.491,3.774 11.873,3.496c3.051,-0.615 0.603,-2.596 9.039,-23.042c3.692,-8.948 3.223,-9.092 5.714,-18.445c0.581,-2.183 1.039,-2.29 -0.036,-4.258c-0.669,-1.225 -10.54,-3.638 -12.389,-3.061c-4.079,1.272 -4.011,11.736 -8.975,24.526c-1.743,4.49 -1.366,4.617 -3.313,9.005c-1.574,3.547 -1.43,3.588 -3.329,6.947Zm62.044,14.23c0.757,-0.522 0.724,-0.529 1.513,-1.043c5.397,-3.517 3.614,-11.322 6.847,-18.469c1.743,-3.852 1.721,-3.885 2.037,-8.09c0.236,-3.146 1.266,-3.992 1.906,-9.225c1.104,-9.022 0.935,-9.222 0.429,-9.824c-1.125,-1.337 -1.451,-1.121 -2.924,-0.201c-4.551,2.845 -4.978,3.285 -5.338,3.656c-2.342,2.413 -2.269,9.123 -2.767,11.688c-2.46,12.677 -7.972,27.065 -8.85,29.355c-0.206,0.537 -1.154,2.626 -0.43,3.619c1.286,1.763 1.715,0.837 3.819,0.322c2.045,-0.5 1.989,-0.607 3.757,-1.788Z" style="fill:#197367;"/></g></svg>