<?xml version="1.0" encoding="UTF-8" standalone="no"?><!DOCTYPE svg PUBLIC "-//W3C//DTD SVG 1.1//EN" "http://www.w3.org/Graphics/SVG/1.1/DTD/svg11.dtd"><svg width="100%" height="100%" viewBox="0 0 1080 762" version="1.1" xmlns="http://www.w3.org/2000/svg" xmlns:xlink="http://www.w3.org/1999/xlink" xml:space="preserve" xmlns:serif="http://www.serif.com/" style="fill-rule:evenodd;clip-rule:evenodd;stroke-linejoin:round;stroke-miterlimit:2;"><rect id="img6" x="0" y="0" width="1080" height="762" style="fill:none;"/><g id="Gemini_Generated_Image_21mluc21mluc21ml.png"><path d="M574.672,185.41c-0.36,-11.746 6.593,-27.522 8.826,-30.994c2.149,-3.34 5.033,-2.064 5.422,-1.783c1.779,1.284 1.026,2.674 -3.277,16.728c0.378,0.614 -0.537,0.684 -0.155,1.305c0.07,0.114 0.52,0.845 1.462,0.817c0.062,-0.002 2.149,-1.678 3.391,-2.313c10.835,-5.541 12.267,0.502 15.243,6.972c0.161,0.351 1.673,3.637 -0.123,4.823c-5.803,3.834 -8.047,-5.048 -9.389,-5.69c-2.229,-1.065 -7.55,3.887 -9.644,6.221c-4.856,5.414 -3.957,8.148 -6.463,11.883c-1.243,1.853 -1.474,2.465 -3.433,1.426c-1.514,-0.804 -1.767,-7.941 -1.86,-9.395Zm427.806,490.745c1.7,0.166 1.691,0.066 4.403,0.688c9.752,2.238 10.63,1.207 21.808,3.441c8.825,1.764 17.006,1.179 23.059,2.97c11.119,3.291 11.327,1.958 22.903,2.341c4.122,0.136 4.493,0.719 5.253,4.792c0.614,3.288 -1.746,3.511 -5.253,3.527c-16.975,0.076 -19.066,-1.136 -19.527,-1.257c-8.437,-2.204 -8.479,-1.943 -17.147,-2.822c-4.36,-0.442 -42.949,-6.557 -45.929,-6.166c-4.845,0.636 -8.494,7.799 -18.344,10.192c-8.124,1.974 -16.815,2.31 -17.183,2.399c-3.824,0.929 -2.471,9.481 -18.478,15.693c-3.961,1.537 -7.163,3.375 -9.325,4.18c-9.915,3.693 -12.36,3.237 -14.69,3.318c-14.126,0.491 -14.11,-0.095 -14.974,-0.22c-8.14,-1.179 -7.864,-2.551 -16.061,-3.339c-4.455,-0.428 -6.894,-1.14 -20.767,-5.638c-5.383,-1.745 -7.556,-1.638 -11.314,-2.778c-1.463,-0.444 -5.491,-1.666 -16.224,-10.099c-6.102,-4.795 -6.462,-6.584 -8.705,-12.927c-1.628,-4.602 -0.939,-5.336 4.385,-10.08c6.764,-6.026 10.527,-6.537 13.032,-10.15c1.59,-2.295 2.278,-3.496 -0.456,-4.034c-5.673,-1.117 -14.836,-1.27 -16.131,-1.292c-12.1,-0.203 -12.03,-1.058 -24.115,-1.688c-16.24,-0.847 -16.198,-1.306 -21.762,-1.669c-14.119,-0.92 -15.097,-1.601 -27.571,-3.046c-12.703,-1.472 -12.573,-2.311 -21.82,-3.286c-10.997,-1.16 -14.22,-2.367 -27.496,-2.891c-3.038,-0.12 -6.523,-0.257 -37.891,-2.94c-18.368,-1.571 -18.35,-1.545 -36.74,-2.993c-23.062,-1.817 -31.683,0.357 -41.224,-0.955c-27.43,-3.772 -27.599,-2.3 -37.93,-4.111c-13.671,-2.396 -13.661,-2.387 -14.838,-2.645c-8.207,-1.796 -10.397,-0.34 -19.68,-2.776c-6.911,-1.814 -16.059,-2.561 -29.695,-4.074c-7.135,-0.792 -14.354,-3.066 -25.215,-1.645c-6.097,0.798 -7.207,0.439 -7.865,3.07c-1.287,5.143 -1.594,5.059 -2.476,10.275c-0.474,2.803 -1.333,5.412 -1.973,9.239c-1.87,11.192 -4.488,13.152 -6.994,25.23c-2.078,10.017 -2.971,10.651 -4.703,16.056c-1.864,5.815 -6.571,12.268 -10.416,20.632c-3.328,7.239 -11.863,13.055 -18.397,19.492c-5.846,5.759 -16.343,10.811 -20.733,12.435c-11.09,4.103 -10.3,6.236 -21.849,8.788c-1.371,0.303 -15.169,3.352 -17.156,3.677c-20.584,3.359 -23.113,3.531 -34.355,2.573c-14.708,-1.254 -13.875,-4.03 -28.578,-12.759c-4.222,-2.507 -3.987,-2.81 -8.231,-6.589c-5.578,-4.966 -9.903,-7.491 -9.907,-7.493c-4.727,-3.387 -5.062,2.964 -19.988,8.092c-8.357,2.872 -11.98,7.233 -16.807,2.491c-4.795,-4.709 -8.773,-5.784 -13.014,-8.722c-3.674,-2.545 -9.38,-6.212 -14.942,-12.689c-2.645,-3.079 -2.535,-3.153 -5.264,-6.149c-8,-8.782 -7.492,-11.589 -14.381,-22.493c-3.472,-5.496 -3.8,-8.257 -5.803,-13.825c-6.685,-18.579 -7.335,-19.589 -8.318,-21.116c-10.752,-16.714 -6.634,-18.31 -13.543,-48.908c-0.445,-1.973 -0.087,-2.426 -1.99,-3.107c-0.25,-0.09 -3.046,-0.056 -3.311,-0.053c-9.407,0.113 -14.062,-0.471 -18.351,-0.71c-2.019,-0.112 -2.398,-0.297 -3.191,1.549c-0.256,0.595 -1.344,23.897 -2.908,30.824c-0.076,0.337 -1.158,5.132 -3.376,2.692c-2.699,-2.97 0.53,-32.431 -0.065,-34.635c-0.573,-2.119 -6.369,-1.899 -12.206,-2.823c-2.027,-0.321 -24.633,-3.896 -25.336,-3.995c-0.247,-0.035 -2.459,-0.348 -2.905,1.147c-0.517,1.734 -3.176,35.83 -4.034,39.975c-0.877,4.238 -3.592,2.331 -4.074,0.982c-0.458,-1.28 -1.04,-2.908 0.012,-16.996c1.835,-24.573 3.149,-25.627 0.744,-26.532c-2.529,-0.952 -2.783,0.258 -33.241,-6.004c-8.033,-1.652 -9.653,-2.156 -10.177,1.561c-3.279,23.26 -3.154,31.899 -3.546,35.551c-0.033,0.309 -0.419,3.91 -2.333,3.102c-1.328,-0.56 -1.772,-2.935 -1.827,-3.227c-2.398,-12.807 2.42,-37.011 1.975,-38.958c-0.439,-1.924 -1.929,-1.331 -10.646,-4.303c-0.228,-0.078 -2.372,-0.809 -3.009,-0.024c-0.319,0.393 -0.625,4.963 -0.665,5.506c-1.341,18.007 -1.524,17.972 -1.572,19.539c-0.68,21.93 -2.657,22.003 0.045,41.231c0.465,3.309 1.995,9.179 -2.75,9.232c-4.228,0.048 -4.183,-4.728 -4.793,-7.984c-3.219,-17.157 -0.643,-25.064 -0.548,-36.747c0.074,-9.157 0.382,-9.121 1.702,-25.264c2.432,-29.753 -3.569,-45.512 5.443,-67.875c3.979,-9.873 3.472,-10.029 6.476,-20.391c2.324,-8.015 3.574,-8.821 5.653,-13.769c6.64,-15.805 5.54,-16.346 18.023,-38.035c9.126,-15.857 13.32,-14.981 11.247,-17.907c-0.796,-1.124 -2.526,-0.926 -1.698,-6.053c1.576,-9.749 5.269,-17.138 5.346,-17.328c2.059,-5.093 2.43,-5.736 8.794,-13.186c4.594,-5.378 7.231,-4.699 8.62,-5.061c2.199,-0.574 1.142,-2.67 2.361,-5.736c1.232,-3.1 1.372,-3.072 3.1,-13.844c1.313,-8.184 3.313,-8.4 6.27,-25.149c0.787,-4.458 -1.112,-5.558 -3.32,-8.387c-3.24,-4.15 -6.107,-10.269 -6.733,-12.457c-0.529,-1.85 -1.083,-15.531 1.75,-23.955c3.921,-11.663 9.887,-9.379 12.631,-9.207c5.159,0.323 2.083,-3.313 8.932,-19.579c2.745,-6.519 2.193,-20.435 3.576,-26.314c1.152,-4.896 1.785,-4.826 2.722,-21.756c0.383,-6.923 0.944,-6.863 1.204,-13.775c0.372,-9.899 1.571,-9.734 2.947,-19.536c1.511,-10.76 3.822,-15.851 5.348,-23.039c2.278,-10.727 2.209,-22.048 6.571,-28.359c3.216,-4.653 2.978,-5.457 6.99,-10.187c6.016,-7.094 13.35,-8.06 17.806,-9.862c4.653,-1.882 4.701,-1.723 13.886,-4.291c1.585,-0.443 7.731,-2.161 20.572,0.451c13.035,2.652 13.244,0.452 26.472,1.938c8.891,0.999 9.564,0.188 13.692,1.39c18.107,5.275 22.525,7.561 24.358,8.51c7.852,4.063 10.336,5.387 12.646,6.913c9.033,5.968 13.454,6.503 16.483,9.98c7.286,8.364 8.72,8.147 9.959,15.548c1.901,11.357 -1.063,13.798 -2.061,15.324c-2.055,3.142 2.321,4.129 -0.488,12.257c-2.379,6.883 -11.412,17.106 -13.853,21.754c-3.041,5.791 -3.827,5.244 -11.79,15.824c-7.861,10.444 -13.373,12.521 -21.725,20.616c-4.968,4.814 -5.107,4.632 -10.088,9.413c-7.64,7.332 -8.46,6.264 -14.461,10.873c-4.511,3.465 -4.591,3.368 -8.499,7.487c-3.326,3.505 -4.881,2.303 -10.424,7.927c-4.983,5.057 -2.395,12.198 -1.957,13.925c2.922,11.52 0.622,14.624 3.055,16.464c1.631,1.234 19.027,0.256 16.36,8.836c-2.606,8.383 -16.69,3.828 -17.277,3.706c-0.934,-0.193 -1.002,-0.168 -1.641,0.53c-1.029,1.123 -0.013,1.191 0.735,2.514c2.472,4.371 0.603,5.709 0.174,10.487c-0.772,8.596 -1.124,8.541 -1.974,17.127c-0.488,4.933 -0.526,5.266 -5.105,9.455c-6.269,5.735 -7.5,9.953 -14.143,17.99c-4.686,5.669 -5.009,5.374 -9.495,11.206c-4.206,5.468 -6.449,5.504 -4.295,8.554c3.27,4.629 2.446,10.841 5.416,16.229c3.732,6.771 2.994,7.367 6.329,9.927c8.045,6.177 10.489,7.438 11.482,7.95c6.688,3.451 6.718,4.175 7.86,3.521c1.356,-0.776 -0.015,-2.165 3.86,-8.87c3.916,-6.776 2.096,-8.089 5.953,-17.163c1.404,-3.302 7.731,-14.709 8.776,-16.204c2.121,-3.037 10.099,-7.027 11.055,-7.506c2.866,-1.433 6.617,-5.767 7.203,-6.308c3.836,-3.546 17.915,-11.849 18.09,-11.946c7.246,-3.983 16.74,-0.623 19.672,-6.495c3.707,-7.423 4.483,-22.159 14.905,-33.307c6.947,-7.432 10.348,-9.788 14.991,-10.111c4.747,-0.331 10.847,2.937 13.331,4.952c5.054,4.1 4.742,8.421 4.764,8.683c0.961,11.638 -3.26,24.352 -3.466,25.152c-3.3,12.793 -5.332,13.242 -6.748,17.226c-4.379,12.315 -3.956,12.79 -3,13.432c1.191,0.8 6.994,-0.64 9.988,-1.016c8.084,-1.017 10.944,-1.312 12.691,3.689c2.599,7.437 -0.502,12.713 -1.331,14.87c-5.087,13.25 -4.367,13.576 -7.596,18.59c-5.964,9.26 -9.045,7.248 -11.933,15.83c-4.692,13.943 -10.544,13.971 -20.657,34.397c-3.948,7.973 -4.974,8.422 -6.143,10.716c-0.559,1.096 -3.659,7.176 -7.138,13.621c-2.262,4.19 -2.654,3.934 -2.838,4.303c-0.817,1.646 -0.611,1.843 0.676,3.141c4.587,4.626 4.493,4.7 9.421,8.965c3.063,2.651 8.84,10.415 12.125,14.261c5.565,6.517 4.802,7.157 11.01,13.067c8.369,7.968 12.579,17.915 15.961,22.906c4.148,6.123 5.919,11.463 8.528,15.745c2.756,4.523 11.85,14.322 14.916,20.664c0.208,0.43 2.517,5.206 2.652,5.355c0.13,0.143 0.326,-0.272 0.519,-0.26c0.383,0.026 0.71,0.414 1.091,0.367c0.221,-0.027 0.235,-0.382 0.383,-0.548c1.767,-1.988 5.954,-5.024 6.723,-5.991c3.318,-4.172 3.581,-3.903 7.711,-7.277c6.997,-5.716 7.268,-6.49 12,-9.605c1.49,-0.981 11.967,-7.878 18.226,-12.853c6.414,-5.099 7.095,-4.303 12.637,-10.346c3.355,-3.659 4.915,-3.633 8.165,-7.955c5.154,-6.854 8.401,-6.761 13.604,-10.407c3.039,-2.129 0.323,-11.234 1.397,-17.242c1.695,-9.484 0.418,-15.099 2.627,-34.518c0.872,-7.66 0.626,-11.016 0.896,-12.522c1.596,-8.917 4.214,-11.004 8.942,-14.77c11.006,-8.768 15.379,-5.741 15.445,-11.683c0.089,-8.096 0.364,-8.06 1.61,-16.059c1.045,-6.711 -0.889,-6.846 1.018,-20.67c0.714,-5.175 -1.265,-5.718 1.692,-10.031c1.908,-2.782 3.097,-6.108 5.346,-8.284c0.617,-0.596 3.161,-3.058 10.311,-2.941c4.987,0.081 7.16,-0.011 10.571,2.571c10.513,7.956 6.578,11.259 7.829,16.394c0.882,3.62 2.066,3.697 0.473,8.25c-2.01,5.743 -1.248,14.503 -1.244,20.447c0.003,5.799 -1.049,9.209 2.357,12.077c3.873,3.261 4.803,3.453 5.91,9.796c1.109,6.357 7.334,18.958 6.987,30.897c-0.167,5.746 -0.045,5.723 0.167,11.488c0.58,15.766 -5.651,33.734 -6.705,40.15c-0.638,3.884 4.946,4.055 5.994,10.294c1.16,6.908 2.577,6.753 2.035,11.508c-1.575,13.831 -3.958,16.373 -5.764,18.305c-5.088,5.442 -20.822,9.728 -27.583,14.824c-4.962,3.74 -6.525,3.369 -7.518,4.128c-1.458,1.115 -0.571,1.558 -1.668,9.78c-0.011,0.083 -0.84,3.456 2.359,3.005c15.852,-2.233 15.844,0.218 41.398,2.37c15.964,1.344 19.415,3.717 26.318,4.243c6.965,0.531 6.953,0.45 13.834,1.675c19.656,3.501 33.969,3.579 45.811,5.232c12.966,1.809 27.088,-0.294 39.061,0.749c2.3,0.2 6.528,1.568 7.776,-5.828c0.078,-0.461 0.408,-2.415 1.591,-5.63c6.44,-17.498 5.647,-17.761 10.273,-29.851c5.402,-14.119 5.248,-14.156 7.349,-18.658c2.961,-6.345 3.279,-6.176 3.515,-6.736c0.3,-0.713 0.197,-0.782 -0.37,-1.321c-0.149,-0.142 -0.197,-0.417 -0.394,-0.477c-0.498,-0.152 -2.044,0.628 -2.21,0.711c-3.884,1.958 -12.841,4.294 -18.453,6.69c-7.594,3.242 -7.666,3.032 -15.888,5.12c-11.737,2.981 -12.66,-0.296 -23.046,0.284c-17.397,0.972 -17.356,-2.724 -29.745,-7.62c-11.86,-4.687 -11.749,-4.914 -12.781,-5.317c-2.828,-1.104 -2.938,-1.001 -5.008,-3.226c-3.9,-4.192 -6.654,-5.076 -12.906,-11.161c-10.863,-10.572 -5.033,-13.909 -10.37,-21.642c-6.94,-10.054 -5.364,-11.143 -7.281,-20.44c-1.848,-8.961 -1.321,-10.586 -2.04,-14.961c-1.338,-8.14 -1.251,-8.38 -0.174,-18.334c1.551,-14.339 -0.605,-16.61 -0.795,-20.671c-0.437,-9.309 -0.896,-9.459 2.002,-18.325c3.479,-10.645 0.41,-12.269 2.052,-21.853c0.192,-1.119 0.504,-2.943 4.086,-13.588c2.904,-8.629 4.602,-8.248 4.888,-17.364c0.411,-13.114 1.836,-13.213 4.037,-24.047c1.291,-6.358 1.811,-6.201 3.43,-12.613c2.198,-8.7 3.612,-9.057 7.859,-19.552c1.877,-4.638 2.631,-11.689 9.461,-22.767c5.207,-8.445 5.634,-10.416 34.156,-21.933c9.267,-3.742 9.526,-2.822 19.505,-3.211c4.596,-0.179 1.331,-2.881 1.614,-16.332c0.033,-1.589 0.254,-12.075 4.372,-19.377c5.643,-10.005 6.483,-10.821 12.376,-11.355c7.283,-0.659 14.172,-1.203 18.344,0.874c4.378,2.18 6.797,12.153 7.208,16.026c0.981,9.252 2.301,9.126 2.1,18.413c-0.239,11.061 -5.642,11.565 -7.623,33.303c-0.023,0.258 -0.234,2.566 1.679,2.762c2.62,0.268 23.34,-6.461 31.142,-1.778c2.819,1.692 5.867,11.691 4.644,17.37c-2.544,11.818 -6.436,15.087 -11.305,17.753c-5.803,3.177 -21.166,4.188 -23.326,5.008c-3.016,1.145 -3.913,8.985 -6.623,18.575c-3.39,11.994 -2.337,12.208 -4.629,21.784c-3.15,13.161 -2.053,13.302 -2.203,19.468c-0.141,5.8 -2.997,5.682 -4.046,17.174c-0.777,8.511 -0.858,8.489 -0.904,9.23c-0.074,1.178 0.099,1.269 1.231,1.603c0.702,0.207 0.768,0.115 1.166,-0.485c1.267,-1.914 3.169,-3.146 4.75,-4.363c7.896,-6.076 20.176,-13.82 25.188,-18.467c5.398,-5.004 5.204,-5.199 11.038,-9.725c8.457,-6.56 8.938,-5.829 17.715,-11.936c5.13,-3.569 5.605,-2.796 10.608,-6.562c1.786,-1.345 13.909,-9.312 17.627,-11.408c13.105,-7.389 14.361,-7.52 22.069,-8.776c16.027,-2.611 22.805,-6.905 41.31,-6.209c7.569,0.285 7.347,1.343 9.153,1.875c0.163,0.048 1.352,0.398 2.103,-0.332c0.35,-0.34 2.213,-6.769 2.814,-10.081c1.6,-8.819 5.042,-19.932 6.857,-26.37c3.521,-12.489 4.619,-12.564 4.684,-13.882c0.009,-0.178 0.1,-2.06 -1.322,-1.786c-0.424,0.082 -1.399,1.497 -1.5,1.644c-0.72,1.047 -0.662,1.065 -1.357,2.116c-0.887,1.341 -7.628,9.72 -16.766,8.085c-5.106,-0.914 -11.002,-6.963 -11.559,-7.711c-0.499,-0.67 -3.143,-3.773 -3.128,-6.904c0.014,-2.913 4.983,-11.895 6.42,-13.892c4.785,-6.65 7.334,-10.161 13.919,-11.463c12.384,-2.45 12.573,6.208 14.19,11.456c1.09,3.539 0.612,3.627 1.058,5.696c0.03,0.139 0.416,1.93 1.577,0.826c0.206,-0.196 0.599,-1.471 0.64,-1.603c0.502,-1.631 2.066,-5.39 2.259,-5.853c1.525,-3.665 -0.594,-3.915 -3.111,-7.394c-2.676,-3.698 -2.719,-3.646 -5.635,-7.177c-2.039,-2.469 -5.516,-5.698 -7.676,-8.33c-3.85,-4.689 -1.39,-5.896 -6.109,-14.74c-3.682,-6.903 -6.618,-7.186 -3.114,-24.446c2.235,-11.008 3.715,-14.342 8.63,-22.68c4.977,-8.443 4.194,-10.046 6.897,-12.374c1.243,-1.07 13.984,-7.107 14.529,-7.319c6.197,-2.421 6.941,-2.05 7.97,-2.41c0.161,-0.056 1.502,-0.525 0.803,-1.977c-0.065,-0.134 -4.342,-3.035 -7.739,-5.859c-7.452,-6.196 -14.555,-6.814 -13.81,-15.05c0.327,-3.612 -0.27,-3.664 0.34,-5.652c0.299,-0.975 1.26,-4.107 12.379,-3.022c12.646,1.235 15.288,4.694 20.837,7.224c9.608,4.382 8.244,6.547 10.216,7.138c2.586,0.775 2.355,-2.25 8.809,-7.251c9,-6.974 13.551,-5.421 19.586,-8.13c6.113,-2.744 6.041,-3.828 17.494,-3.417c3.582,0.129 16.122,3.832 17.094,4.193c12.5,4.646 14.174,3.639 20.063,15.588c5.224,10.599 4.854,29.525 3.988,32.318c-1.356,4.372 -1.529,4.29 -5.042,12.891c-2.005,4.908 2.552,3.837 6.655,13.389c4.041,9.405 4.382,10.555 4.665,11.507c1.903,6.406 3.687,6.699 4.447,11.552c0.862,5.508 4.768,13.285 6.323,18.483c0.237,0.792 0.224,0.79 1.767,10.181c2.591,15.779 2.492,23.277 2.465,25.311c-0.088,6.593 -3.374,21.625 -5.721,26.608c-5.312,11.283 -1.52,12.949 -6.909,19.615c-1.299,1.607 -2.221,1.975 -0.642,3.306c0.098,0.082 9.388,1.349 18.363,3.77c17.799,4.801 20.155,3.763 29.759,8.03c15.915,7.07 19.487,9.426 23.703,15.162c7.861,10.695 7.729,18.349 9.479,26.834c1.904,9.235 0.303,9.553 0.271,21.733c-0.024,9.243 -0.679,9.191 -0.835,14.925c-0.3,11.03 -1.892,12.606 -3.818,20.616c-1.452,6.038 -2.024,6.652 -0.277,9.448c3.849,6.159 4.626,10.209 7.555,16.857c4.119,9.348 8.304,9.532 13.719,22.971c6.851,17.003 5.927,19.415 6.521,23.061c0.994,6.103 0.701,6.126 1.125,9.177c2.751,19.809 4.664,19.786 3.102,28.576c-0.94,5.294 -0.532,6.902 -0.921,10.39c-0.893,8.025 -1.258,7.989 -1.309,16.079c-0.093,14.557 -20.121,6.447 -24.061,11.212c-1.422,1.721 -1.524,16.206 -1.844,19.782c-1.302,14.58 -1.374,21.654 -3.762,28.59c-2.538,7.37 -2.573,7.396 -4.261,9.321c-2.941,3.354 -5.727,7.959 -9.114,11.531c-1.713,1.806 -1.647,1.86 -1.799,2.014c-0.123,0.125 -0.366,0.101 -0.466,0.246c-0.609,0.885 -0.812,1.186 0.156,1.668c0.29,0.144 0.664,0.037 0.954,0.181Zm-169.73,-273.772c0.047,-0.457 0.388,-0.85 0.434,-1.307c0.018,-0.18 0.134,-1.311 -0.718,-2.143c-0.6,-0.585 -0.661,-0.482 -3.08,-1.746c-5.937,-3.102 -5.658,-3.544 -6.176,-3.806c-3.169,-1.603 -6.633,2.629 -7.472,4.522c-3.398,7.667 5.606,12.034 12.131,8.809c4.146,-2.049 4.748,-4.143 4.88,-4.329Zm-679.333,-106.793c0.062,-0.376 -0.135,-2.605 2.227,-4.5c3.453,-2.769 6.752,-0.725 8.089,-1.022c0.236,-0.052 2.401,-0.725 -0.873,-2.895c-6.365,-4.218 -15.603,2.03 -13.795,10.63c1.723,8.194 7.622,9.318 8.718,9.601c9.285,2.401 11.393,0.051 12.575,-1.575c1.843,-2.534 0.2,-7.887 -0.929,-8.141c-2.123,-0.476 -2.044,1.683 -4.663,3.653c-1.543,1.16 -5.072,5.137 -8.584,0.363c-3.028,-4.116 -2.574,-5.003 -2.765,-6.115Zm-34.232,129.68c-0.249,2.167 -0.46,3.99 -0.165,4.47c1.255,2.042 5.736,-1.258 23.933,-1.194c1.01,0.004 1.963,0.18 2.68,-0.571c1.383,-1.449 0.624,-5.946 -1.339,-6.661c-0.936,-0.341 -11.141,-1.126 -19.76,-2.512c-0.268,-0.043 -2.818,-0.453 -3.369,-0.365c-1.321,0.211 -1.572,1.92 -1.603,2.131c-0.055,0.373 -0.011,0.374 -0.376,4.703Zm173.244,-92.967c-0.082,-0.543 0.081,-1.977 -1.03,-3.695c-0.173,-0.268 -1.455,-2.251 -2.838,-2.793c-2.794,-1.095 -8.76,5.034 -10.998,8.992c-3.478,6.149 3.614,7.347 4.293,7.462c2.083,0.352 5.251,1.621 8.029,-3.035c2.798,-4.69 2.352,-5.621 2.544,-6.931Zm-174.635,-5.771c0.313,0.642 5.19,15.488 25.062,23.222c1.346,0.524 14.966,6.373 33.465,0.056c0.557,-0.19 5.126,-1.75 5.512,-4.879c0.153,-1.237 -1.388,-1.846 -2.043,-1.75c-0.325,0.048 -23.705,13.915 -47.468,-4.731c-11.436,-8.973 -10.776,-17.805 -14.454,-16.165c-0.128,0.057 -0.806,0.856 -0.838,0.986c-0.381,1.542 0.127,1.485 0.763,3.26Zm211.33,290.135c-3.145,-4.46 -2.682,-4.754 -3.026,-5.078c-0.191,-0.18 -0.522,0.077 -0.785,0.07c-0.24,-0.006 -0.497,-0.217 -0.711,-0.108c-0.258,0.131 -0.689,1.533 -0.732,1.673c-2.764,8.987 -4.716,9.23 -4.646,11.679c0.016,0.548 -0.334,0.782 6.95,11.703c3.466,5.197 3.213,5.46 3.726,5.628c2.023,0.66 1.905,-0.27 2.74,-2.24c0.991,-2.339 4.726,-9.782 4.648,-11.672c-0.082,-1.988 -4.113,-5.515 -8.163,-11.653Zm-272.734,-199.58c-1.477,5.386 -1.944,7.354 0.179,8.71c1.672,1.068 9.771,1.721 12.884,2.192c1.873,0.284 5.568,1.034 6.57,0.246c1.098,-0.863 0.203,-1.23 1.36,-9.895c0.108,-0.808 1.301,-4.878 -1.034,-5.555c-0.661,-0.192 -10.769,-0.938 -13.715,-1.315c-1.789,-0.229 -1.806,-0.705 -3.52,-0.135c-0.682,0.227 -1.079,1.131 -1.134,1.255c-0.969,2.205 -0.896,2.212 -1.589,4.497Zm65.89,-21.58c-0.328,0.175 -0.787,-0.199 -1.115,-0.024c-0.397,0.212 -0.768,0.617 -0.833,1.062c-0.092,0.636 0.613,0.6 0.39,8.028c-0.104,3.449 -1.187,7.097 1.633,7.847c1.265,0.336 9.702,1.259 18.378,3.272c0.269,0.062 2.863,0.664 3.405,0.575c1.471,-0.243 1.517,-2.233 1.523,-2.464c0.185,-7.996 -0.189,-8.454 -0.647,-9.013c-0.881,-1.077 -2.523,-1.296 -14.637,-6.064c-4.068,-1.601 -4.079,-1.499 -8.098,-3.218Zm336.153,15.989c0.655,1.339 -0.069,2.865 4.661,3.159c9.639,0.599 10.185,1.736 11.193,0.108c0.284,-0.458 0.59,-0.952 0.326,-6.73c-0.053,-1.155 0.105,-3.667 -3.726,-6.574c-3.195,-2.425 -12.82,-3.145 -14.816,-0.41c-1.584,2.17 -2.721,5.377 -1.784,6.732c0.572,0.828 0.739,0.603 2.015,1.192c1.56,0.72 1.332,0.994 2.131,2.524Zm340.094,-121.735c-0.94,-5.875 -0.803,-8.167 -1.823,-10.094c-1.398,-2.64 -4.969,-1.683 -6.831,-0.546c-9.108,5.558 -9.481,13.272 -10.399,15.184c-1.462,3.046 -2.625,3.89 1.276,7.218c6.857,5.848 10.432,2.215 15.468,-2.009c4.358,-3.657 3.779,-4.468 2.309,-9.751Zm-482.159,326.039c2.044,-4.026 4.419,-8.642 4.562,-9.222c0.417,-1.692 -0.285,-2.88 -2.738,-6.722c-4.274,-6.695 -5.606,-6.248 -8.919,-11.628c-0.386,-0.627 -0.44,-0.621 -1.173,-0.662c-0.268,-0.015 -0.546,-0.16 -0.802,-0.08c-0.253,0.079 -1.387,1.627 -1.497,1.777c-2.865,3.913 -5.873,6.323 -5.955,8.082c-0.039,0.829 -0.063,1.353 5.304,8.915c6.467,9.112 7.664,11.379 7.841,11.533c0.127,0.11 0.989,0.859 2.087,0.239c0.098,-0.055 0.08,-0.075 1.29,-2.231Zm-150.112,-289.09c0.231,-0.975 3.253,-7.106 -9.623,-10.03c-3.593,-0.816 -7.332,0.592 -8.355,4.018c-1.251,4.19 2.119,11.786 6.183,12.187c8.968,0.884 10.621,-3.611 11.795,-6.174Zm-85.712,76.617c0.618,-2.443 0.554,-2.447 1.595,-5.619c0.95,-2.895 1.732,-4.25 1.895,-4.696c0.068,-0.185 0.776,-2.125 -0.695,-2.365c-1.451,-0.236 -1.349,0.217 -2.447,1.185c-3.772,3.328 -8.283,-0.689 -12.831,4.467c-3.588,4.067 -4.55,6.211 -5.919,8.047c-1.475,1.979 -0.849,2.986 1.628,2.866c6.316,-0.306 6.299,0.01 12.622,0.114c3.333,0.055 3.245,-0.799 4.152,-3.999Zm783.189,-115.007l2.072,0.397c0.228,0.144 0.564,0.024 0.792,0.169c0.35,0.222 1.089,1.067 1.176,1.166c1.846,2.11 2.121,6.758 -1.062,8.531c-1.877,1.046 -1.892,1.03 -3.363,2.602c-0.523,0.558 -1.084,1.056 -1.182,1.144c-0.638,0.566 -0.88,0.453 -0.912,1.295c-0.057,1.496 2.022,1.414 2.233,1.406c7.664,-0.302 8.871,-2.932 10.338,-11.741c0.889,-5.34 -2.412,-5.549 -6.85,-6.694c-0.284,-0.025 -3.127,-0.274 -3.543,-0.369c-0.302,-0.069 -0.574,-0.396 -0.873,-0.316c-0.647,0.172 -1.089,0.838 -1.736,1.01c-0.941,-0.181 -1.306,-0.571 -4.17,-0.217c-0.37,0.046 -2.312,0.286 -4.534,1.062c-0.483,0.169 -2.711,0.947 -4.674,4.372c-2.76,4.816 -2.698,6.909 1.497,9.764c1.444,0.983 1.835,1.821 2.813,0.361c0.616,-0.919 0.354,-0.985 0.111,-2.065c-0.461,-2.046 -0.177,-4.578 0.204,-5.749c1.211,-3.721 4.388,-3.867 4.446,-3.886c2.657,-0.856 3.005,-2.348 4.185,-2.38c0.545,-0.015 1.069,0.24 1.613,0.264c0.474,0.022 0.944,-0.148 1.419,-0.127Zm-33.08,-3.462c0.236,0.367 -0.09,0.934 0.147,1.301c0.137,0.212 0.503,0.05 0.752,0.093c1.576,0.272 1.635,0.124 1.615,-0.004c-0.073,-0.448 -0.688,-0.682 -0.76,-1.13c0.071,-0.32 0.431,-0.526 0.502,-0.846c0.473,-2.147 -2.154,-5.184 -4.992,-4.873c-1.055,0.116 -1.262,0.209 -1.193,1.274c0.086,1.33 0.599,1.013 1.655,1.797c1.793,1.331 1.573,1.544 2.275,2.387Zm-679.824,140.379c0.06,0.471 -0.707,2.852 2.416,2.985c4.501,0.191 2.256,-3.674 2.076,-3.985c-1.546,-2.663 -1.953,-2.691 -3.199,-2.453c-1.309,0.25 -1.19,2.544 -1.293,3.452Zm690.4,-128.531c-0.585,-0.414 0.026,-0.806 -0.566,-1.224c-0.087,-0.062 -0.451,-0.319 -1.33,-0.118c-0.529,0.121 -1.157,1.86 -0.826,2.396c0.093,0.151 0.949,1.535 2.203,0.254c0.328,-0.335 0.19,-0.973 0.518,-1.308Zm-10.566,-7.496c-2.355,2.342 -5.551,6.463 -10.711,4.028c-0.234,-0.11 -1.703,-0.803 -2.328,-2.236c-0.054,-0.124 -0.635,-1.453 -0.647,-1.568c-0.022,-0.203 0.212,-0.376 0.198,-0.58c-0.013,-0.18 -0.274,-0.287 -0.273,-0.468c0.001,-0.255 0.293,-0.458 0.279,-0.712c-0.01,-0.182 -0.258,-0.265 -0.343,-0.427c-0.515,-0.986 -0.57,-1.41 -1.539,-0.89c-0.254,0.136 -0.157,0.559 -0.284,0.818c-0.389,0.789 -0.441,0.762 -0.543,1.645c-0.543,4.685 -0.711,5.21 3.01,8.112c6.289,4.904 8.459,4.283 9.235,4.061c0.56,-0.16 7.219,-3.428 8.211,-6.524c1.339,-4.177 -1.592,-4.681 -2.235,-4.994c-0.974,-0.474 -1.15,-0.112 -1.419,-0.114c-0.21,-0.001 -0.401,-0.149 -0.61,-0.151Zm-580.994,220.892c-0.208,0.529 -1.01,0.666 -1.218,1.195c-0.133,0.337 0.962,2.177 1.068,2.355c1.977,3.322 1.994,3.292 3.885,6.666c0.623,1.111 7.124,12.709 7.892,13.829c1.571,2.29 3.412,1.11 6.771,-0.987c0.165,-0.103 1.458,-0.91 0.88,-2.263c-0.626,-1.464 -15.447,-17.202 -16.825,-18.665c-1.528,-1.623 -1.622,-1.506 -2.451,-2.13Zm-49.318,-44.739c8.666,7.154 8.628,7.183 9.383,7.803c1.247,1.024 3.191,2.762 4.452,2.781c0.197,0.003 2.312,-0.168 -0.145,-2.463c-1.479,-1.381 -8.105,-6.708 -8.818,-7.281c-2.094,-1.683 -4.715,-4.944 -5.992,-4.148c-0.15,0.094 -1.078,0.672 -0.066,2.21c0.071,0.108 0.088,0.081 1.186,1.099Zm691.1,-158.553c0.398,-0.027 0.336,-0.213 0.726,-0.24c0.781,-0.053 0.749,0.168 0.806,0.135c0.017,-0.01 0.695,-1.59 0.746,-1.75c0.064,-0.199 0.633,-1.978 -0.295,-2.596c-1.591,-1.059 -2.052,1.13 -2.093,1.324c-0.319,1.514 -0.079,1.513 0.11,3.128Zm-741.432,107.042l-0.049,2.213c0.183,1.742 0.878,2.144 1.05,2.244l1.888,-0.042c-0.17,-1.185 0.001,-1.207 -0.653,-3.417c-0.043,-0.147 -0.534,-1.807 -0.592,-1.822c-0.291,-0.079 -0.395,0.667 -0.685,0.589l-0.959,0.236Zm-91.318,29.57c2.908,-7.691 3.792,-7.65 3.133,-9.19c-0.52,-1.216 -2.778,-0.973 -3.447,-0.484c-0.571,0.417 -0.542,0.439 -5.809,6.66c-3.304,3.902 -3.138,4.695 -2.44,5.352c0.417,0.392 3.393,0.508 4.433,0.567c3.344,0.19 3.24,-1.101 4.131,-2.906Zm563.201,10.442c2.265,11.017 2.683,10.9 5.063,21.91c2.324,10.748 4.123,10.211 10.099,32.197c2.838,10.444 4.442,9.809 7.534,18.153c0.384,1.037 1.594,4.302 5.968,12.468c1.863,3.479 7.693,9.651 8.478,9.975c2.127,0.88 2.106,-0.034 3.506,-1.835c2.275,-2.925 2.909,-4.932 5.639,-9.21c1.791,-2.808 1.087,-3.154 3.874,-7.768c5.054,-8.365 4.878,-8.443 9.532,-17.028c3.171,-5.849 6.172,-8.43 7.583,-11.724c3.931,-9.174 5.426,-8.842 5.119,-13.772c-0.326,-5.238 0.34,-15.783 1.555,-21.858c2.508,-12.543 5.499,-22.864 14.899,-41.361c9.211,-18.125 31.36,-40.806 40.711,-48.798c12.919,-11.041 17.447,-13.332 19.149,-14.193c1.148,-0.581 1.036,-0.717 1.42,-1.035c0.15,-0.124 0.489,-0.125 0.488,-0.319c-0.002,-0.312 -0.759,-1.675 -0.885,-1.699c-0.115,-0.021 -15.724,2.848 -18.153,3.438c-7.463,1.815 -7.439,1.831 -15.001,3.152c-3.271,0.572 -5.703,0.711 -17.501,7.445c-3.344,1.909 -3.356,1.858 -6.493,4.087c-1.017,0.723 -1.119,0.553 -13.008,8.601c-4.369,2.958 -16.694,9.366 -22.541,14.338c-5.89,5.01 -6.295,4.504 -11.836,9.93c-4.469,4.375 -12.789,10.503 -13.891,11.172c-2.756,1.673 -6.577,3.425 -18.438,12.585c-0.522,0.403 -3.6,2.781 -6.249,5.384c-4.036,3.966 0.253,7.758 -4.711,11.381c-2.48,1.81 -1.825,2.291 -1.909,4.379Zm-0.074,-64.134c1.026,-7.071 2.854,-12.426 4.862,-21.947c2.792,-13.241 3.511,-13.051 6.453,-26.242c0.59,-2.644 -0.47,-5.56 0.827,-5.928c0.898,-0.255 0.885,-0.043 2.348,0.246c2.141,0.423 2.984,-0.464 6.676,-2.797c3.108,-1.964 15.542,-2.282 22.12,-6.355c4.345,-2.691 7.653,-13.409 5.139,-19.432c-1.798,-4.308 -14.573,1.036 -24.806,2.858c-4.544,0.809 -7.176,3.585 -10.037,1.265c-1.53,-1.241 -1.315,-3.968 -1.287,-4.328c0.853,-10.854 -1.243,-10.916 -0.133,-17.226c1.471,-8.362 1.446,-8.362 1.597,-9.084c0.966,-4.646 3.181,-6.142 4.543,-10.298c1.459,-4.453 1.121,-12.765 0.965,-13.906c-2.071,-15.187 -1.85,-19.348 -9.376,-18.706c-8.719,0.743 -10.354,0.121 -12.707,4.895c-6.357,12.9 -4.172,25.826 -3.469,31.063c1.25,9.3 -2.745,8.067 -3.985,10.545c-0.807,1.614 0.75,9.712 -0.379,25.012c-1.082,14.664 -1.393,17.433 -9.225,19.65c-13.22,3.743 -21.542,5.917 -27.635,4.722c-7.823,-1.534 -18.733,-9.014 -20.222,-10.035c-1.118,-0.766 -1.255,-1.439 -2.625,-1.394c-1.546,0.051 -1.023,0.839 -3.41,7.733c-2.914,8.416 -4.713,7.763 -6.454,16.144c-1.243,5.983 -1.931,7.253 -3.516,12.641c-0.578,1.964 -3.455,11.741 -4.819,25.136c-0.705,6.925 -1.182,6.836 -4.565,14.985c-5.017,12.083 -4.848,18.774 -4.5,23.986c0.67,10.021 -3.166,15.985 -3.224,22.979c-0.047,5.581 0.078,8.831 0.494,11.483c0.979,6.25 0.426,6.266 0.059,12.598c-0.699,12.053 -1.346,12.083 -0.301,18.422c1.923,11.668 1.025,26.222 5.7,33.461c3.657,5.663 3.455,5.792 5.206,12.32c1.887,7.037 1.97,7.412 14.897,18.169c10.38,8.638 14.508,8.338 24.831,13.289c9.613,4.61 9.815,4.543 23.157,4.641c10.48,0.077 10.885,2.719 22.87,-1.846c2.525,-0.962 9.428,-3.591 32.332,-9.767c2.145,-0.578 3.07,-0.625 2.254,-2.678c-0.25,-0.63 -1.481,-0.468 -9.81,-12.169c-0.694,-0.975 -3.403,-4.78 -6.988,-13.219c-5.342,-12.573 -6.635,-12.077 -7.963,-18.291c-2.646,-12.383 -2.943,-12.285 -6.046,-21.766c-2.571,-7.854 -4.509,-10.917 -7.243,-23.984c-2.952,-14.106 -3.089,-14.082 -3.518,-18.364c-0.751,-7.492 3.111,-8.274 4.909,-11.396c2.248,-3.901 0.686,-14.348 2.881,-28.857c0.405,-2.678 1.856,-4.228 3.124,-18.228Zm284.634,151.91c-0.208,0.612 -0.355,0.549 -0.592,1.745c-1.777,8.939 -6.405,15.001 -7.881,16.153c-3.918,3.055 -4.452,2.269 -8.217,5.518c-3.51,3.029 -6.026,3.502 -9.949,5.27c-10.564,4.761 -44.83,1.225 -50.295,-4.334c-3.427,-3.485 -8.253,-23.16 -8.337,-23.727c-0.255,-1.711 -0.559,-12.069 1.369,-21.717c2.761,-13.817 2.654,-13.825 2.897,-15.024c1.205,-5.962 1.54,-5.89 2.24,-12.603c0.829,-7.942 9.272,-9.887 12.08,-4.731c1.531,2.811 2.186,2.126 5.385,2.086c32.733,-0.412 32.694,0.678 37.89,1.394c6.707,0.924 7.554,0.558 8.153,0.299c1.622,-0.702 -0.599,-1.555 1.59,-22.033c0.003,-0.029 -0.166,-7.156 7.431,-33.219c7.234,-24.82 16.76,-33.132 21.366,-39.355c0.088,-0.119 3.388,-5.143 8.904,-9.584c0.782,-0.63 1.067,-0.494 1.13,-1.502c0.093,-1.496 -0.364,-1.367 -1.702,-2.052c-5.178,-2.649 -12.69,-7.606 -15.817,-8.586c-3.052,-0.956 -3.914,-0.924 -10.526,-2.751c-0.267,-0.074 -2.828,-0.781 -3.397,-0.668c-1.322,0.264 -1.29,2.31 -1.287,2.538c0.108,7.112 1.042,10.582 -2.406,24.015c-0.448,1.745 -1.268,4.939 -9.372,20.472c-5.793,11.102 -15.799,20.695 -18.308,22.683c-7.045,5.581 -7.025,5.609 -7.737,5.927c-6.788,3.027 -13.42,-6.2 -18.61,-11.931c-11.45,-12.642 -12.556,-18.907 -14.584,-19.724c-1.604,-0.646 -2.978,-0.064 -5.661,-0.127c-1.252,-0.029 -2.662,-0.422 -3.79,0.851c-0.867,0.978 -2.76,7.022 -7.416,17.625c-3.31,7.539 -14.391,36.514 -16.514,43.423c-3.244,10.557 -13.499,47.936 -16.125,59.67c-4.623,20.655 -8.912,34.022 -11.604,52.778c-1.345,9.369 -6.223,30.708 -6.129,50.542c0.015,3.257 0.745,3.524 5.416,4.139c14.94,1.964 15.018,1.071 22.832,2.112c14.46,1.927 16.786,0.643 28.805,2.486c9.876,1.514 15.484,-0.955 25.143,1.705c5.652,1.556 5.895,0.43 7.429,-2.102c0.357,-0.589 4.483,-6.985 9.152,-12.491c5.182,-6.11 9.985,-6.132 10.992,-6.137c6.292,-0.03 6.29,0.108 12.677,-0.694c4.165,-0.523 3.752,1.57 14.757,4.499c8.682,2.311 11.199,2.807 20.804,7.529c1.379,0.678 2.081,1.53 3.441,1.374c0.967,-0.111 1.017,-0.312 0.946,-1.284c-0.061,-0.827 -0.192,-0.798 -1.457,-10.26c-0.727,-5.438 -0.623,-5.791 -2.912,-7.049c-3.009,-1.655 -0.71,-2.771 -1.016,-18.252c-0.371,-18.79 -0.699,-21.177 -0.95,-23.002c-1.751,-12.752 1.992,-28.262 0.014,-31.15c-0.918,-1.34 -2.216,-2.322 -3.396,-3.621c-1.021,-1.124 -4.407,-5.458 -4.642,-5.813c-0.146,-0.22 -0.243,-0.469 -0.373,-0.699c-0.121,-0.215 -0.141,-0.577 -0.381,-0.634c-0.071,-0.017 0.057,0.322 -0.85,0.339c-0.364,0.007 -0.245,-0.319 -0.609,-0.312Zm-111.365,9.843c-0.045,0.292 0.089,2.135 -1.486,4.623c-3.383,5.348 -13.012,2.995 -11.773,-5.826c1.267,-9.02 12.747,-8.736 13.259,0.009c0.023,0.397 -0.023,0.797 -0,1.194Zm16.824,-86.153c0.197,0.125 3.024,0.993 3.874,4.557c1.29,5.413 -2.21,11.067 -7.358,10.583c-9.181,-0.864 -6.271,-16.808 2.376,-15.44c0.378,0.06 0.73,0.241 1.108,0.3Zm-40.928,151.762c0.338,-0.383 0.56,-0.859 0.899,-1.242c4.282,-4.853 11.835,-1.943 11.133,5.584c-0.755,8.095 -9.734,9.111 -12.406,3.444c-1.82,-3.859 -0.059,-6.718 0.375,-7.786Zm-7.837,-39.345c0.814,-4.83 2.566,-11.83 4.6,-20.673c6.241,-27.138 6.617,-27.026 13.782,-53.937c9.185,-34.499 13.079,-41.478 21.875,-63.158c6.17,-15.21 8.444,-16.407 6.169,-16.61c-0.64,-0.057 -3.908,2.972 -4.895,3.649c-11.468,7.871 -20.64,9.568 -22.581,9.927c-9.331,1.727 -16.861,-7.491 -16.679,-22.042c0.113,-8.986 2.542,-12.811 2.789,-13.758c0.05,-0.192 1.182,-4.522 -2.214,-1.131c-0.422,0.422 -12.522,14.893 -13.607,16.191c-3.004,3.593 -13.739,17.291 -14.947,20.564c-1.292,3.5 -1.252,3.514 -3.462,6.916c-12.169,18.728 -11.381,19.169 -21.878,38.954c-2.234,4.21 -17.547,25.376 -22.81,37.924c-1.692,4.034 -5.382,10.129 -6.501,12.763c-2.668,6.278 -8.9,16.496 -9.423,17.209c-7.153,9.756 -5.96,10.496 -10.449,17.122c-0.964,1.422 -3.791,5.596 -8.926,19.527c-5.593,15.175 -8.811,27.314 -9.45,29.726c-3.737,14.097 -4.648,14.475 -3.283,15.655c1.204,1.041 14.315,0.919 19.164,1.547c10.006,1.296 10.048,0.555 21.856,1.769c12.675,1.303 30.55,1.941 34.41,2.571c6.827,1.114 6.8,1.16 13.694,1.859c8.075,0.819 8.019,1.035 16.042,2.266c6.365,0.977 9.275,2.004 9.196,-1.617c-0.03,-1.374 -0.208,-9.524 0.518,-17.166c0.313,-3.295 2.366,-19.218 2.982,-22.992c2.824,-17.305 3.645,-21.222 4.029,-23.055Zm163.904,-60.644c-2.335,13.879 -0.523,15.168 -0.919,36.642c-0.222,12.055 -1.776,13.924 -0.488,27.535c0.871,9.205 0.764,15.395 1.692,16.43c1.532,1.709 2.033,0.358 13.099,1.461c19.546,1.949 22.548,-1.119 40.09,-2.178c9.211,-0.556 9.15,-1.2 18.388,-1.232c8.624,-0.03 11.621,-1.827 35.542,-3.307c3.95,-0.245 3.668,-1.434 3.927,-5.391c0.134,-2.048 1.471,-10.689 2.181,-18.356c0.441,-4.764 1.512,-6.425 0.877,-10.373c-0.689,-4.276 -4.024,-22.276 -4.2,-24.116c-1.042,-10.895 -0.812,-14.145 -8.335,-31.027c-4.022,-9.026 -8.592,-9.567 -13.171,-21.57c-0.071,-0.185 -3.68,-11.573 -11.182,-21.882c-3.088,-4.243 -3.913,-4.266 -6.31,-8.376c-5.445,-9.338 -8.174,-13.533 -25.263,-28.926c-4.23,-3.81 -5.902,-5.577 -10.48,-1.437c-5.375,4.86 -7.525,5.21 -12.448,11.515c-6.375,8.164 -6.931,7.961 -10.171,17.804c-2.967,9.015 -2.139,9.209 -4.474,18.428c-4.165,16.446 -3.658,16.541 -4.04,24.205c-0.32,6.411 -2.429,11.802 -4.317,24.151Zm-880.953,-34.597c7.72,-28.974 9.968,-28.73 8.986,-31.129c-0.433,-1.059 -3.368,-1.265 -5.146,-1.488c-3.504,-0.44 -3.821,-0.115 -5.535,2.969c-10.724,19.292 -13.196,27.204 -13.679,28.688c-2.37,7.295 -4.276,9.184 -2.926,10.564c1.305,1.335 12.547,4.244 13.026,4.245c2.599,0.008 2.238,-2.084 5.274,-13.85Zm57.349,-41.398c1.015,-2.126 1.019,-2.108 1.096,-2.296c0.49,-1.19 0.456,-1.356 -0.546,-2.184c-0.446,-0.369 -5.359,-0.659 -5.828,-0.686c-9.166,-0.541 -9.152,-0.095 -13.75,-0.12c-10.023,-0.054 -15.576,-2.388 -17.455,-0.47c-0.545,0.556 -0.772,1.471 -1.113,2.442c-2.327,6.618 -2.904,8.225 -1.975,9.156c0.989,0.989 2.861,0.662 10.258,2.188c7.686,1.586 18.488,4.405 19.505,4.641c3.756,0.871 4.935,1.664 6.062,-2.032c1.996,-6.546 3.275,-9.432 3.745,-10.639Zm49.527,147.08c-0.673,-20.517 0.794,-20.932 -0.521,-22.116c-1.281,-1.153 -2.568,-0.101 -6.078,-0.076c-9.778,0.067 -12.456,-1.961 -14.153,0.103c-0.494,0.601 -0.52,1.978 -0.576,2.592c-0.614,6.817 -2.144,20.592 -2.444,24.078c-0.308,3.583 2.873,3.168 4.571,3.344c6.153,0.638 13.991,2.04 17.208,2.31c2.729,0.229 2.874,-0.659 2.582,-3.388c-0.368,-3.436 -0.336,-3.412 -0.59,-6.845Zm-142.379,-40.17c0.052,9.573 0.363,9.535 0.74,17.192c0.48,9.756 -0.791,10.84 1.873,11.692c1.523,0.487 10.01,2.299 10.387,2.316c2.415,0.111 2.546,-1.724 2.643,-2.453c2.079,-15.633 2.149,-15.603 4.984,-31.117c0.799,-4.373 -1.966,-3.422 -10.944,-7.077c-6.643,-2.704 -6.504,-3.446 -8.133,-3.163c-0.768,0.134 -0.53,0.761 -0.538,0.804c-0.03,0.16 -0.202,0.271 -0.229,0.432c-0.553,3.302 -0.756,10.463 -0.782,11.375Zm820.119,-162.878c-0.364,2.588 -1.241,5.087 2.947,6.878c14.234,6.089 20.583,5.44 29.797,3.159c3.927,-0.972 5.705,-2.745 8.377,-6.459c0.407,-0.566 3.114,-4.329 2.921,-8.205c-0.012,-0.242 -0.103,-2.078 -2.072,-2.203c-4.636,-0.294 -4.579,0.515 -11.464,1.021c-6.328,0.466 -6.25,1.068 -12.607,1.381c-16.009,0.79 -16.199,0.32 -17.077,1.097c-0.701,0.62 -0.778,2.951 -0.822,3.33Zm-513.314,281.097c3.097,-4.505 4.131,-6.392 4.449,-6.973c4.81,-8.775 7.528,-9.908 4.479,-13.55c-3.404,-4.065 -3.252,-4.166 -6.497,-8.339c-1.673,-2.151 -3.585,-4.92 -3.92,-5.133c-0.092,-0.059 -1.512,-0.052 -1.625,0.01c-0.044,0.024 -6.766,10.765 -11.059,16.48c-6.693,8.908 -6.925,9.062 -6.55,10.589c0.366,1.488 9.342,12 10.453,13.683c1.301,1.971 1.165,2.047 1.283,2.215c0.106,0.152 0.957,1.368 1.988,1.179c0.333,-0.061 3.225,-4.842 7,-10.163Zm-197.327,-272.29c-8.031,-1.495 -8.011,-3.646 -18.441,-4.212c-11.994,-0.65 -12.28,1.329 -12.589,2.246c-0.172,0.511 -3.59,13.474 -3.317,14.867c0.389,1.987 1.327,1.138 13.561,2.758c0.924,0.122 0.92,0.102 11.581,1.319c5.348,0.611 3.888,-2.129 4.518,-7.483c0.024,-0.202 0.639,-7.733 1.998,-8.216c0.578,-0.206 0.625,0.045 1.192,-0.225c0.843,-0.401 0.662,-0.658 1.495,-1.054Zm148.739,153.134c2.119,3.484 5.503,8.806 14.663,24.721c0.392,0.681 0.472,0.63 5.057,8.425c1.924,3.272 6.196,9.878 6.216,9.895c0.162,0.138 1.28,1.089 2.654,-0.138c0.195,-0.174 0.122,-0.229 5.356,-6.097c2.819,-3.161 2.202,-3.758 0.165,-7.459c-0.691,-1.255 -0.878,-1.596 -9.041,-15.453c-4.868,-8.263 -12.332,-13.789 -18.56,-22.469c-1.052,-1.467 -0.893,-2.084 -2.693,-1.822c-0.613,0.089 -5.639,3.846 -5.882,4.377c-0.948,2.068 0.912,4.103 2.065,6.02Zm646.432,-231.992c-0.055,-0.645 -0.348,-4.05 -1.584,-7.934c-1.722,-5.413 -1.66,-5.412 -1.82,-5.877c-1.111,-3.24 -5.206,-3.562 -6.78,-2.888c-0.997,0.427 -2.769,3.5 -2.962,3.836c-6.917,12 -7.4,16.647 -2.169,22.329c4.855,5.275 7.527,4.042 9.265,2.848c6.868,-4.715 6.038,-11.952 6.05,-12.315Zm-832.478,106.64c-0.552,3.445 -1.539,6.801 0.278,7.423c1.276,0.437 6.722,-0.376 11.664,0.068c8.074,0.726 8.076,0.496 16.142,1.301c2.534,0.253 2.74,-0.428 2.792,-2.959c0.16,-7.826 1.272,-9.87 -1.644,-10.516c-0.596,-0.132 -18.999,-2.259 -20.651,-2.45c-4.037,-0.467 -7.18,-1.73 -7.765,1.535c-0.353,1.971 -0.757,5.149 -0.815,5.598Zm783.165,-104.346l-0.232,-3.419c-0.03,-0.175 -0.232,-1.346 -1.181,-1.875c-0.652,-0.364 -0.701,-0.151 -3.299,-0.149c-4.381,0.003 -7.788,-1.417 -9.148,-0.255c-0.316,0.27 -0.275,0.295 -1.501,2.025c-6.168,8.696 -11.696,5.715 -12.149,8.298c-0.319,1.823 0.29,1.707 1.047,3.39c0.763,1.695 1.93,4.992 5.851,6.432c3.556,1.306 13.467,-1.778 15.626,-3.347c6.074,-4.413 4.995,-10.519 4.986,-11.1Zm-831.31,213.306c6.265,-27.077 6.807,-27.202 6.087,-28.499c-0.446,-0.803 -1.646,-1.076 -7.987,-3.328c-6.507,-2.311 -7.663,-4.624 -9.068,-1.309c-2.384,5.624 -2.636,8.317 -2.792,9.069c-1.688,8.157 -5.68,13.668 -7.495,21.908c-0.629,2.855 0.288,3.188 6.944,5.209c10.075,3.06 10.411,3.027 11.344,2.935c2.039,-0.201 2.511,-4.198 2.966,-5.985Zm183.382,191.491c3.432,3.359 8.294,4.282 15.88,10.185c2.608,2.03 3.155,0.464 12.183,-3.37c8.475,-3.601 11.851,-6.267 14.378,-8.341c3.348,-2.748 0.74,-3.832 -2.233,-7.813c-6.905,-9.244 -6.546,-10.281 -8.569,-9.983c-0.656,0.096 -13.509,9.373 -22.88,13.939c-1.43,0.697 -1.418,0.69 -3.248,1.576c-1.168,0.566 -1.15,0.551 -2.322,1.099c-1.151,0.537 -1.242,0.297 -2.305,0.987c-0.13,0.084 -0.063,0.122 -0.882,1.721Zm-125.231,-206.235c-0.402,2.472 -0.174,2.481 -4.466,30.985c-0.03,0.201 -0.283,1.882 0.22,2.537c1.103,1.435 3.775,1.606 7.279,2.392c1.671,0.375 27.531,5.632 28.799,5.481c2.76,-0.329 1.497,-1.841 3.51,-29.97c0.481,-6.721 0.79,-7.666 -2.264,-8.49c-3.96,-1.067 -30.422,-6.453 -31.09,-6.368c-1.772,0.227 -1.898,3.047 -1.988,3.433Zm94.162,64.022c-4.624,-10.216 -11.105,-28.052 -11.199,-28.151c-1.068,-1.13 -2.866,0.509 -3.051,0.678c-0.721,0.658 -6.598,6.016 -9.13,8.093c-4.094,3.359 -3.357,5.185 -3.474,13.821c-0.237,17.523 0.694,19.015 1.81,25.374c0.308,1.758 -0.071,2.539 1.712,2.412c1.383,-0.098 1.194,-0.523 2.321,-1.346c3.74,-2.732 19.997,-13.289 21.398,-14.308c2.36,-1.717 0.448,-4.708 -0.388,-6.571Zm294.235,-71.076c1.241,-2.82 1.286,-2.784 2.291,-5.711c0.266,-0.774 1.38,-4.022 0.205,-10.228c-1.319,-6.965 -3.327,-8.143 -17.179,-10.163c-4.332,-0.632 -6.526,-1.861 -10.189,-0.886c-7.702,2.049 -11.037,2.521 -13.618,11.119c-1.545,5.144 -1.62,6.156 -0.534,9.2c0.996,2.792 1.26,7.672 4.271,10.866c4.094,4.343 4.044,4.611 9.693,6.49c2.45,0.815 11.749,5.155 18.652,-1.154c3.171,-2.898 4.695,-6.039 6.41,-9.533Zm409.427,-123.826c0.27,-6.318 0.357,-6.304 0.372,-6.853c0.058,-2.127 -0.881,-2.912 -2.325,-1.344c-5.353,5.815 -3.395,8.779 -9.473,17.083c-1.538,2.102 -8.844,7.916 -13.369,8.178c-10.405,0.602 -10.451,2.313 -20.683,0.373c-3.462,-0.657 -3.148,1.698 -4.529,4.397c-1.95,3.811 -5.706,3.775 -3.273,7.903c3.528,5.988 5.973,9.073 9.075,12.664c6.197,7.171 9.85,11.525 11.375,11.649c3.236,0.263 15.617,-12.425 20.189,-21.008c10.451,-19.622 11.487,-21.743 12.639,-33.041Zm-702.102,184.905c4.137,9.625 4.472,11.347 6.083,11.341c1.293,-0.005 1.063,-0.582 12.698,-7.931c0.104,-0.066 17.529,-11.298 18.669,-12.392c1.88,-1.804 0.237,-3.567 -3.681,-10.759c-8.978,-16.483 -11.933,-21.253 -12.049,-21.424c-1.54,-2.264 -2.51,-1.685 -7.237,1.391c-0.254,0.165 -13.592,9.795 -19.944,14.283c-3.522,2.488 -3.983,3.062 -2.348,7.033c3.815,9.269 3.704,9.299 7.809,18.458Zm115.384,114.852c1.469,-1.618 1.488,-1.593 1.611,-1.736c1.793,-2.091 1.96,-2.854 -1.277,-6.056c-11.702,-11.574 -11.212,-13.488 -13.488,-12.463c-0.189,0.085 -0.279,0.126 -1.795,1.872c-8.544,9.842 -13.088,13.891 -20.811,20.543c-3.69,3.178 -3.626,3.208 -7.3,6.41c-3.467,3.022 -5.802,3.985 -5.141,6.01c0.273,0.836 9.973,15.488 10.342,15.82c2.408,2.172 6.388,-3.967 18.919,-11.625c6.758,-4.13 14.546,-13.901 18.94,-18.775Zm-81.618,-147.221c9.641,16.421 9.297,18.388 11.283,17.99c1.864,-0.373 10.773,-7.262 21.922,-14.359c2.643,-1.682 0.262,-3.947 -3.047,-10.655c-10.247,-20.769 -9.895,-21.164 -10.839,-21.496c-1.889,-0.664 -3.993,0.99 -6.792,2.318c-1.572,0.746 -19.299,10.295 -19.747,11.249c-0.87,1.853 0.361,3.023 4.631,10.537c0.202,0.356 1.686,2.967 2.59,4.415Zm-68.36,18.403c0.497,-5.205 1.406,-14.233 6.409,-11.677c3.194,1.632 -0.27,12.175 0.097,12.799c0.073,0.124 1.574,0.236 2.004,0.013c0.191,-0.099 0.163,-0.404 0.295,-0.575c0.557,-0.72 0.596,-0.652 1.156,-1.39c3.571,-4.703 9.266,-7.788 9.218,-10.603c-0.009,-0.547 -4.643,-15.397 -4.992,-16.004c-0.757,-1.314 -1.343,-1.455 -11.448,-3.1c-14.27,-2.322 -15.698,-3.175 -18.303,-3.757c-3.596,-0.804 -3.549,0.91 -3.646,3.345c-0.436,10.947 -0.535,10.92 -1.687,29.866c-0.162,2.669 -0.53,3.317 2,4.216c0.163,0.058 9.872,1.493 14.787,1.921c3.972,0.346 3.723,-1.094 4.11,-5.055Zm-24.074,-49.35c3.06,-28.161 8.77,-33.211 4.906,-35.146c-0.974,-0.488 -14.978,-4.597 -19.408,-5.81c-7.5,-2.053 -11.339,-3.885 -12.607,-2.657c-0.822,0.796 -1.757,5.904 -2.496,9.19c-1.759,7.83 -5.329,30.586 -5.385,31.046c-0.428,3.524 1.644,3.086 9.107,4.514c18.379,3.516 22.91,4.879 24.075,4.635c1.35,-0.282 1.387,-2.115 1.806,-5.772Zm-46.943,78.036c0.064,0.769 -0.301,1.533 -0.237,2.302c0.146,1.76 2.659,2.135 2.949,2.178c34.818,5.195 35.233,6.052 36.584,4.643c1.088,-1.135 1.248,-10.189 3.061,-25.19c0.189,-1.566 0.617,-4.279 -1.689,-4.878c-0.115,-0.03 -8.205,-1.307 -19.72,-3.791c-1.181,-0.255 -13.839,-2.986 -14.803,-3.014c-2.581,-0.075 -2.582,1.354 -3.764,9.391c-1.343,9.136 -2.023,15.381 -2.382,18.36Zm222.252,33.035c-3.927,-5.822 -3.913,-5.823 -4.26,-6.325c-4.71,-6.829 -5.181,-8.224 -6.475,-8.291c-1.255,-0.065 -2.16,1.204 -2.751,1.786c-1.296,1.276 -5.869,5.778 -17.087,15.005c-1.379,1.134 -4.05,2.609 -2.894,4.9c0.328,0.65 5.503,8.711 7.679,11.669c10.344,14.06 9.983,14.292 10.976,15.437c0.365,0.421 1.748,0.742 2.533,0.081c0.292,-0.246 13.128,-18.14 16.291,-23.75c1.824,-3.234 0.786,-3.918 -4.011,-10.512Zm-270.695,-54.704c-2.293,15.088 -2.398,15.086 -2.302,15.93c0.254,2.241 1.382,1.352 15.639,4.294c5.738,1.184 25.018,4.469 26.338,4.414c2.604,-0.108 2.581,-2.658 2.607,-2.871c1.134,-9.211 1.093,-9.191 2.26,-18.374c1.132,-8.912 2.294,-10.684 -0.289,-11.524c-2.244,-0.73 -2.425,0.059 -28.632,-7.078c-7.487,-2.039 -10.486,-3.96 -11.934,-2.54c-0.559,0.548 -0.702,0.575 -3.686,17.748Zm164.501,44.764c-6.74,-14.403 -6.403,-15.871 -7.801,-16.182c-1.661,-0.37 -1.585,0.267 -9.115,4.722c-15.954,9.439 -16.218,8.954 -17.493,9.936c-1.658,1.277 -1.08,2.837 -0.512,5.929c3.29,17.89 2.678,23.547 10.752,38.09c4.01,7.224 5.82,13.676 6.193,14.719c1.906,5.323 2.417,7.937 4.41,7.732c0.643,-0.066 4.093,-1.108 11.618,-5.155c5.082,-2.733 19.909,-12.692 20.399,-13.042c2.976,-2.126 2.457,-2.842 1.075,-5.437c-10.117,-19.002 -13.154,-27.696 -19.526,-41.313Zm729.191,15.912c2.517,17.537 1.019,21.566 6.758,27.351c3.643,3.672 3.721,4.254 9.052,9.309c6.738,6.389 7.758,7.545 10.118,12.781c1.929,4.279 3.358,4.04 3.328,7.977c-0.021,2.778 -0.733,6.964 2.51,6.792c1.235,-0.065 9.212,-1.305 10.221,-1.564c6.632,-1.701 9.799,-6.797 12.906,-8.285c0.019,-0.009 6.287,-2.084 14.819,-10.63c3.302,-3.308 9.951,-11.879 11.649,-17.203c3.047,-9.556 3.687,-35.596 4.344,-41.394c0.385,-3.394 0.395,-3.394 0.383,-3.5c-0.219,-1.909 -0.808,-1.78 -2.724,-1.559c-7.932,0.916 -7.911,1.024 -18.33,1.153c-7.794,0.096 -26.404,2.932 -29.813,3.069c-14.445,0.582 -22.157,-0.366 -24.068,-0.6c-3.609,-0.443 -3.589,0.174 -8.069,0.318c-3.251,0.104 -1.802,1.816 -3.084,8.081c-0.804,3.931 -0.582,3.952 -0.001,7.906Zm-834.948,-146.895c2.67,-12.806 3.091,-12.698 3.295,-13.815c0.174,-0.954 -0.492,-2.476 -0.924,-2.753c-1.065,-0.683 -19.864,-5.169 -23.816,-6.011c-8.016,-1.708 -9.341,-2.389 -10.677,-0.582c-0.929,1.255 -6.785,20.951 -8.463,27.908c-1.744,7.227 -3.84,14.386 -3.286,15.788c0.542,1.371 4.667,1.641 5.213,1.736c4.016,0.699 4.016,0.584 8.03,1.227c8.574,1.374 8.553,1.428 9.298,1.546c12.279,1.951 14.363,2.965 15.734,2.15c1.571,-0.935 0.663,-1.529 5.596,-27.192Zm391.653,4.772l0.843,-0.649c0.363,-0.2 0.795,0.652 1.158,0.453c0.335,-0.185 -2.657,-9.902 -4.358,-17.099c-1.784,-7.548 -4.364,-5.976 -7.645,-10.544c-2.525,-3.515 -0.864,-9.701 -1.292,-18.171c-0.485,-9.587 0.487,-10.634 -1.255,-11.531c-3.032,-1.562 -10.721,-1.289 -15.987,-2.663c-0.785,-0.205 -4.073,-1.944 -4.535,1.614c-1.151,8.863 0.604,9.683 -1.621,20.554c-1.614,7.886 1.521,12.636 -7.986,17.97c-6.155,3.453 -14.891,6.489 -17.042,14.2c-0.922,3.306 0.225,7.42 -1.446,18.318c-2.495,16.272 -0.541,18.135 -2.661,31.107c-0.447,2.737 -0.283,2.752 0.475,10.301c0.362,3.605 2.873,1.949 7.186,1.258c9.121,-1.461 9.106,-1.841 18.337,-1.345c5.079,0.273 7.321,1.578 13.765,2.358c8.295,1.004 9.081,1.132 17.422,5.297c0.033,0.016 2.999,1.718 4.139,1.174c0.535,-0.255 0.83,-0.447 2.121,-5.449c2.312,-8.962 3.073,-15.667 3.23,-17.046c0.815,-7.175 3.316,-13.567 0.684,-13.534c-0.972,0.012 -0.848,0.373 -2.215,4.367c-0.874,2.556 -1.824,5.022 -5.795,9.186c-0.131,0.138 -5.769,7.737 -17.301,7.153c-1.686,-0.085 -2.145,0.113 -11.327,-3.024c-11.092,-3.79 -12.723,-10.611 -14.896,-15.748c-2.019,-4.77 -3.984,-7.055 -0.966,-18.198c0.53,-1.956 1.559,-7.458 7.303,-12.05c2.106,-1.684 2.225,-1.468 5.879,-3.392c0.949,-0.5 5.811,-4.924 23.201,-0.722c1.829,0.442 3.354,0.728 9.154,3.498c0.3,0.143 1.205,0.576 3.43,2.356Zm348.119,34.384c-0.814,4.555 -0.843,4.535 -1.694,9.089c-0.626,3.35 -0.758,12.702 -0.483,14.881c0.141,1.117 0.716,5.686 3.414,13.651c2.092,6.176 3.467,6.823 4.06,7.101c2.27,1.068 2.481,0.262 9.26,2.012c6.774,1.748 23.671,1.182 27.38,-0.069c4.123,-1.391 16.482,-7.455 18.913,-13.255c1.26,-3.008 0.902,-3.108 3.141,-12.789c3.06,-13.23 0.696,-13.315 -2.135,-25.353c-1.052,-4.473 -1.59,-9.702 -2.307,-10.489c-1.933,-2.122 -4.357,-0.094 -12.935,-2.006c-9.694,-2.161 -29.563,-1.077 -37.897,-1.975c-3.727,-0.402 -4.482,-0.343 -5.337,3.155c-1.105,4.524 -3.125,14.759 -3.379,16.046Zm-58.065,-116.051c-1.103,3.625 -3.688,10.888 -1.771,20.696c0.669,3.42 3.01,9.104 6.621,8.975c2.669,-0.095 13.541,-3.101 25.04,-12.632c5.764,-4.777 6.97,-5.356 5.002,-7.901c-6.127,-7.919 -0.983,-16.483 2.417,-18.991c0.593,-0.438 4.54,-2.306 3.746,-4.782c-0.029,-0.091 -2.057,-4.287 -2.661,-8.258c-0.459,-3.019 0.131,-3.649 -5.784,-8.271c-3.994,-3.122 -5.193,-2.287 -8.363,-1.3c-2.205,0.687 -2.558,1.512 -5.976,4.611c-14.389,13.048 -18.234,27.752 -18.27,27.852Zm-72.787,75.716c0.346,0.155 0.372,0.029 0.73,0.19c0.839,0.376 0.767,0.519 0.846,0.516c0.191,-0.008 2.447,-4.448 3.581,-6.46c5.791,-10.276 5.879,-10.206 6.379,-11.1c1.892,-3.378 3.636,-3.847 5.37,-7.097c5.639,-10.569 9.725,-15.164 11.581,-18.286c8.304,-13.968 14.175,-21.457 40.657,-48.756c4.225,-4.355 3.957,-5.329 8.407,-8.86c2.98,-2.364 2.735,-2.602 5.697,-5.731c4.745,-5.012 6.31,-5.545 6.564,-5.963c0.136,-0.224 0.182,-1.453 0.071,-1.661c-0.349,-0.654 -4.947,-2.01 -6.553,-2.212c-2.538,-0.318 -2.228,0.8 -9.232,5.186c-2.747,1.72 -2.755,1.694 -2.993,1.845c-4.492,2.839 -18.541,14.407 -27.037,23.292c-9.034,9.447 -8.789,9.648 -15.355,17.826c-1.174,1.462 -7.928,9.651 -11.382,16c-13.004,23.898 -15.147,38.839 -16.829,47.922c-0.191,1.032 -0.171,1.019 -0.503,3.349Zm-148.016,-162.647c-1.165,2.885 -1.666,3.583 1.015,5.149c12.561,7.336 15.415,8.312 16.854,8.805c7.973,2.727 14.571,-0.041 25.295,-2.89c4.411,-1.172 6.85,-1.195 8.003,-7.817c0.523,-3.002 0.141,-8.145 0.64,-12.549c0.782,-6.893 -0.18,-6.915 0.343,-13.841c0.226,-2.998 0.229,-4.569 -3.152,-4.255c-7.669,0.71 -10.869,0.722 -26.231,8.121c-8.445,4.067 -12.826,4.111 -18.752,12.077c-0.394,0.529 -1.095,1.472 -4.015,7.202Zm-508.2,196.147c-0.475,2.016 -5.337,22.654 -6.016,25.176c-1.016,3.775 -0.401,4.401 3.312,5.431c2.725,0.756 22.128,6.141 34.309,8.538c3.267,0.643 4.177,0.754 4.813,-2.509c0.844,-4.328 3.969,-27.49 4.292,-29.884c0.44,-3.262 1.416,-4.953 -3.298,-5.831c-14.883,-2.77 -14.864,-2.733 -27.516,-4.746c-2.599,-0.414 -7.074,-1.861 -8.138,-0.954c-0.323,0.276 -0.762,1.203 -0.814,1.315l-0.944,3.464Zm81.784,-361.47c4.86,16.662 17.984,22.855 20.709,24.502c8.704,5.26 14.651,5.164 27.818,5.665c15.694,0.597 23.569,-2.272 39.024,-3.927c11.402,-1.221 11.306,-2.181 29.861,-2.944c6.203,-0.255 6.112,-1.15 12.605,-1.255c5.098,-0.083 14.886,1.447 13.923,-10.656c-0.279,-3.502 -1.601,-5.381 -5.447,-9.588c-4.001,-4.376 -4.617,-3.596 -14.448,-9.522c-4.887,-2.946 -18.047,-8.755 -19.399,-9.209c-22.484,-7.552 -22.673,-6.968 -28.537,-7.469c-6.328,-0.54 -6.289,-0.997 -12.639,-0.753c-16.925,0.65 -23.841,-6.65 -43.654,0.863c-8.926,3.385 -13.411,4.599 -18.078,13.998c-0.503,1.013 -1.515,3.774 -1.679,4.397c-0.931,3.537 -0.133,5.453 -0.059,5.899Zm706.352,539.058c1.356,2.801 3.835,7.512 13.157,13.222c6.489,3.974 7.335,1.647 24.476,7.265c10.758,3.526 11.333,1.674 22.729,4.258c2.234,0.507 5.174,2.181 21.924,0.777c6.778,-0.568 7.776,-1.915 18.466,-6.754c2.673,-1.21 9.833,-3.447 11.624,-9.369c1.426,-4.716 2.876,-4.589 1.872,-9.219c-1.286,-5.931 0.73,-6.475 -1.303,-10.209c-4.462,-8.198 -4.961,-7.865 -9,-11.474c-7.319,-6.539 -6.263,-7.899 -14.875,-12.617c-6.258,-3.428 -13.696,-8.965 -22.819,-10.69c-8.196,-1.549 -7.859,-3.041 -16.162,-3.904c-12.631,-1.314 -14.324,0.629 -17.186,2.927c-1.531,1.229 -8.345,10.364 -8.263,12.658c0.069,1.908 4.669,4.788 0.574,7.396c-1.953,1.244 -3.923,0.149 -5.838,3.044c-1.063,1.606 -4.21,8.549 -4.811,9.051c-1.881,1.572 -2.997,-0.716 -8.148,3.284c-1.413,1.098 -3.274,2.443 -4.569,3.481c-3.153,2.526 -3.192,3.076 -1.848,6.874Zm-624.074,-68.906c1.127,2.388 12.8,28.034 14.682,29.793c1.532,1.432 4.549,-1.389 4.734,-1.516c6.116,-4.212 21.377,-16 23.618,-17.88c6.401,-5.369 9.521,-5.726 7.264,-9.193c-6.325,-9.714 -12.468,-21.866 -18.305,-32.157c-0.809,-1.427 -0.574,-1.536 -9.729,-18.054c-0.1,-0.18 -0.909,-2.148 -2.103,-2.26c-1.902,-0.178 -3.801,2.301 -28.328,17.578c-4.703,2.93 -4.809,3.563 -4.892,4.065c-0.294,1.767 1.96,4.813 11.168,25.366c0.532,1.188 0.523,1.167 1.06,2.33c0.293,0.635 0.538,1.292 0.831,1.927Zm24.4,47.475c6.972,11.868 15.63,25.686 16.411,26.214c1.928,1.306 3.722,-0.995 7.271,-4.25c8.55,-7.839 11.873,-9.571 23.516,-22.389c4.488,-4.941 4.521,-5.034 4.719,-5.584c0.817,-2.276 -1.351,-4.015 -2.832,-6.062c-6.343,-8.767 -6.558,-8.588 -12.46,-17.664c-0.279,-0.429 -0.392,-0.343 -3.685,-5.227c-0.939,-1.393 -0.743,-1.631 -1.603,-1.928c-1.933,-0.668 -2.468,0.614 -9.223,5.59c-0.473,0.348 -10.698,8.412 -18.362,13.759c-8.06,5.623 -8.111,5.544 -8.637,6.213c-1.199,1.524 1.16,5.04 1.183,5.082c0.283,0.507 0.353,0.455 3.701,6.246Zm683.762,-124.254c-0.242,-1.102 -0.136,-1.111 -0.482,-2.195c-1.353,-4.234 -1.422,-5.111 -0.666,-16.095c0.076,-1.103 0.162,-1.085 1.747,-13.713c1.083,-8.635 1.707,-8.542 2.34,-17.214c0.958,-13.125 3.252,-12.707 5.179,-25.32c1.37,-8.964 4.266,-16.94 4.785,-18.367c3.532,-9.725 3.891,-9.573 8.811,-16.401c7.824,-10.859 12.711,-12.277 15.149,-14.797c1.126,-1.163 2.407,-4.166 6.079,-4.236c1.889,-0.036 1.913,0.061 2.235,-0.15c1.174,-0.772 0.933,-1.103 0.183,-2.282c-0.265,-0.417 -6.3,-6.417 -6.855,-6.968c-2.991,-2.973 -10.975,-10.187 -11.947,-10.915c-0.311,-0.233 -2.9,-2.172 -4.27,-2.301c-3.45,-0.325 -22.607,22.072 -27.626,35.143c-0.234,0.609 -1.244,1.549 -9.184,29.84c-3.874,13.804 -3.432,29.568 -3.36,32.153c0.182,6.496 0.048,6.797 2.426,9.043c5.761,5.442 2.394,14.671 4.855,26.436c1.043,4.986 0.64,5.445 4.493,11.376c1.35,2.078 4.206,7.755 4.571,7.756c0.138,0.001 0.113,-0.058 1.537,-0.792Zm-88.475,-232.303c0.374,-0.06 0.23,0.371 0.619,0.309c1.026,-0.165 0.784,-0.571 0.863,-0.547c0.446,0.135 0.675,0.665 0.892,1.078c0.08,0.153 -0.206,0.23 0.532,2.088c1.449,3.647 9.309,3.51 11.335,-1.204c0.835,-1.942 0.378,-2.707 -0.515,-3.776c-3.731,-4.462 -6.167,-3.723 -9.789,-2.147c-2.529,1.1 -3.89,1.196 -4.48,1.379c-4.844,1.503 -6.683,2.613 -15.897,-4.913c-0.145,-0.118 -1.24,-1.013 -2.29,0.443c-0.043,0.06 -4.036,12.109 -5.021,17.051c-1.393,6.985 -3.826,14.262 -4.995,19.666c-0.255,1.178 -2.977,13.77 -3.124,14.743c-0.79,5.235 3.534,4.738 6.19,5.38c2.214,0.535 10.182,5.729 11.683,6.921c3.245,2.578 3.643,1.998 6.771,4.737c2.691,2.356 3.075,1.993 5.693,3.368c5.268,2.765 7.435,1.925 13.617,1.864c13.668,-0.135 13.486,-1.768 24.045,-3.047c5.839,-0.707 5.643,-1.724 11.494,-2.269c4.774,-0.444 4.231,-3.157 4.681,-8.852c0.633,-8.016 1.414,-8.012 0.611,-13.699c-1.379,-9.767 0.715,-10.895 -0.094,-17.219c-0.663,-5.179 -0.642,-5.161 -1.046,-10.379c-0.586,-7.566 1.122,-7.478 1.409,-17.224c0.089,-3.028 1.064,-3.207 1.428,-4.572c0.294,-1.103 0.588,-2.209 -3.091,-13.93c-0.103,-0.328 0.125,-2.517 -9.485,-5.794c-7.27,-2.479 -14.864,-7.857 -18.521,-8.806c-3.588,-0.931 -14.518,1.099 -15.942,1.388c-5.128,1.038 -5.174,0.447 -10.412,0.716c-6.325,0.325 -6.324,0.107 -6.873,0.143c-1.815,0.12 -2.455,2.448 -2.01,3.183c0.821,1.357 4.088,-0.87 6.831,-0.559c1.545,0.175 1.534,-0.005 3.084,-0.033c1.897,-0.034 5.925,-0.575 8.236,2.959c2.774,4.241 3.209,9.284 3.414,10.364c0.037,0.195 0.402,2.115 2.212,1.13c0.168,-0.092 1.731,-3.374 4.902,-5.188c4.289,-2.453 11.328,-2.552 12.336,-2.566c7.885,-0.11 16.794,-1.016 19.513,5.495c1.107,2.65 2.203,5.244 1.23,10.349c-1.639,8.6 -2.251,9.93 -4.992,12.222c-3.464,2.897 -0.466,3.909 -1.174,15.275c-0.496,7.978 -11.619,13.051 -16.801,14.104c-7.952,1.617 -9.628,1.214 -10.444,1.017c-9.825,-2.363 -12.213,-9.531 -14.03,-13.825c-1.748,-4.131 -1.268,-4.398 -1.835,-5.925c-0.98,-2.638 -6.573,-5.181 -2.601,-9.246c0.582,-0.595 0.638,-0.507 1.291,-1.03c0.216,-0.173 0.333,-0.451 0.55,-0.624Zm-689.667,175.163c-0.511,2.159 -3.795,16.025 -4.317,27.391c-0.188,4.099 1.507,3.526 10.643,6.075c8.743,2.44 8.73,2.416 17.368,5.222c3.424,1.112 4.655,-1.564 6.471,1.546c1.699,2.91 6.396,16.615 6.489,16.738c1.005,1.323 2.619,0.086 2.797,-0.05c0.671,-0.514 0.465,-0.728 8.155,-6.717c7.386,-5.752 16.634,-11.813 17.032,-12.624c0.868,-1.769 -1.036,-4.095 -2.709,-6.976c-1.991,-3.427 -2.016,-3.399 -5.438,-8.694c-2.61,-4.039 0.897,-4.657 2.559,-3.441c2.531,1.852 7.834,10.091 7.942,10.248c2.46,3.627 2.419,5.921 6.205,3.709c6.392,-3.735 8.566,-5.336 21.67,-11.701c0.248,-0.121 2.872,-1.395 3.053,-1.61c1.547,-1.834 -1.715,-4.114 -4.309,-6.61c-6.147,-5.913 -6.781,-5.325 -8.698,-8.336c-2.278,-3.578 -3.783,-2.67 -8.36,-5.662c-16.867,-11.026 -19.677,-16.707 -21.63,-12.243c-2.25,5.141 -7.204,18.858 -7.397,19.241c-0.148,0.294 -1.61,3.194 -2.094,3.551c-0.541,0.399 -2.204,0.422 -2.605,-1.025c-0.601,-2.164 1.265,-4.086 -3.204,-5.638c-5.912,-2.053 -23.697,-7.285 -32.101,-10.436c-0.269,-0.101 -2.928,-1.098 -3.411,-1.11c-2.221,-0.057 -2.537,3.315 -2.8,4.3l-1.308,4.848Zm747.588,-171.133c-1.377,5.201 -0.675,6.147 0.38,12.625c0.84,5.162 -0.254,7.975 0.868,20.695c1.48,16.776 -0.366,16.955 0.384,18.204c0.043,0.072 1.713,0.453 1.928,0.42c1.524,-0.235 6.723,-6.188 11.366,-5.358c2.201,0.394 4.105,0.171 4.572,1.67c0.71,2.278 -2.117,4.585 -0.29,6.109c0.739,0.616 2.293,0.597 2.661,0.632c10.043,0.931 19.818,9.135 33.382,14.752c1.647,0.682 9.155,3.791 17.966,13.19c1.312,1.399 1.288,1.907 2.56,1.885c1.471,-0.025 1.065,-0.656 1.426,-2.074c1.314,-5.174 6.049,-13.964 13.536,-16.029c8.513,-2.349 13.12,1.07 14.028,1.744c6.682,4.959 8.557,13.964 8.846,15.352c1.335,6.411 -0.548,18.536 -0.747,19.572c-1.089,5.681 -4.706,6.656 -7.227,4.495c-2.248,-1.927 -0.313,-5.157 0.288,-17.18c0.435,-8.706 -3.434,-14.315 -5.038,-15.935c-1.924,-1.943 -7.711,-2.474 -11.243,-0.013c-3.804,2.651 -6.68,9.247 -7.076,10.155c-1.748,4.008 -2.527,4.795 -0.503,7.699c0.452,0.648 3.215,4.612 5.127,8.445c1.867,3.742 7.44,6.444 14.254,13.331c11.421,11.544 18.861,25.295 19.284,25.307c0.429,0.012 0.818,-0.278 1.191,-0.491c0.789,-0.45 0.502,-0.639 0.605,-1.546c0.4,-3.536 2.28,-7.746 2.359,-13.69c0.112,-8.449 1.138,-8.404 0.806,-16.075c-0.407,-9.397 1.999,-10.528 -0.164,-21.861c-1.852,-9.708 -1.159,-10.428 -3.742,-16.038c-4.641,-10.077 -8.985,-12.924 -18.508,-17.063c-4.134,-1.797 -9.804,-4.946 -19.434,-7.092c-14.41,-3.21 -14.206,-3.979 -28.621,-7.186c-8.514,-1.894 -9.419,-2.496 -12.48,-0.402c-8.401,5.749 -18.365,6.189 -20.904,6.104c-8.471,-0.284 -10.991,-1.934 -11.797,-2.462c-4.19,-2.742 -6.273,-6.104 -6.724,-21.191c-0.157,-5.255 0.692,-5.412 0.716,-6.85c0.06,-3.575 -2.176,-3.309 -1.915,-12.619l-1.018,-0.934l-1.1,-0.298Zm-642.677,381.107c-12.987,-20.058 -13.769,-21.606 -20.271,-33.524c-2.448,-4.487 -3.298,1.164 -22.905,10.928c-13.377,6.661 -15.544,4.689 -15.506,7.58c0.019,1.427 5.494,10.127 6.165,11.409c6.253,11.937 7.822,13.422 12.813,19.32c7.724,9.129 8.623,9.403 10.96,7.923c6.596,-4.178 18.382,-10.801 25.642,-16.669c3.827,-3.093 5.337,-3.504 3.103,-6.967Zm1.404,-112.607c3.612,6.492 8.127,15.324 12.182,22.051c0.358,0.594 0.293,0.615 4.271,7.553c2.928,5.106 3.695,5.404 4.218,5.608c0.952,0.37 1.164,0.255 10.323,-7.525c0.942,-0.8 6.677,-5.672 11.454,-10.363c2.829,-2.778 1.111,-3.88 -2.216,-9.343c-10.29,-16.9 -10.092,-16.986 -20.098,-34.06c-4.61,-7.867 -4.609,-7.9 -5.25,-8.361c-1.62,-1.167 -3.474,1.051 -13.911,7.947c-10.136,6.697 -10.979,6.933 -10.22,9.322c0.206,0.65 9.159,17.024 9.245,17.172Zm-140.451,-130.897c-0.623,1.944 -2.432,5.736 0.522,6.667c2.923,0.921 18.317,4.596 28.653,8.1c4.558,1.546 4.044,-0.906 5.659,-5.448c2.913,-8.193 7.294,-20.98 9.418,-21.389c1.848,-0.356 2.257,0.01 2.168,1.878c-0.089,1.879 -7.717,25.117 -7.653,26.403c0.084,1.674 1.548,2.24 1.766,2.324c6.932,2.677 21.98,6.724 33.446,12.272c0.753,0.364 1.462,0.837 2.258,1.094c1.595,0.513 2.41,-1.558 2.5,-1.787c2.076,-5.274 1.888,-5.325 4.143,-10.531c0.339,-0.783 0.7,-1.556 1.044,-2.337c1.612,-3.653 0.877,-4.085 -2.321,-6.451c-28.663,-21.205 -32.538,-19.177 -31.105,-22.363c1.594,-3.542 22.869,10.208 30.409,16c4.571,3.511 6.077,4.134 6.666,3.697c0.141,-0.104 0.955,-0.707 -0.099,-2.185c-0.391,-0.548 -4.454,-3.45 -7.68,-6.072c-9.069,-7.371 -18.187,-13.433 -19.825,-14.521c-3.788,-2.518 -4.035,-3.571 -6.798,-2.435c-4.821,1.981 -5.05,0.922 -10.347,1.822c-5.158,0.876 -5.263,-0.482 -19.535,1.149c-15.535,1.775 -16.193,0.846 -17.137,0.977c-2.762,0.383 -2.993,2.833 -3.674,5.175c-0.762,2.619 -0.783,2.586 -2.478,7.962Zm833.8,-132.826c0.551,-1.621 3.709,-10.906 4.873,-20.845c0.416,-3.548 -0.165,-14.534 -0.767,-18.291c-1.948,-12.164 -1.574,-16.262 -3.584,-20.563c-5.169,-11.059 -3.011,-11.836 -7.861,-23.025c-5.111,-11.79 -3.881,-12.792 -10.01,-18.66c-5.642,-5.401 -5.622,-5.552 -9.36,-6.825c-8.764,-2.983 -7.898,-5.08 -31.142,-13.299c-9.106,-3.22 -12.091,-0.369 -18.016,-4.115c-6.914,-4.372 -9.401,-2.423 -14.317,-6.064c-0.619,-0.459 -1.944,-1.44 -8.998,-3.436c-3.018,-0.854 -5.712,0.676 -6.687,0.998c-6.013,1.988 -11.435,-1.181 -16.31,1.725c-10.093,6.016 -11.545,4.302 -13.667,8.305c-2.373,4.476 -7.224,11.672 -8.549,15.193c-1.108,2.945 -3.555,14.998 -3.686,15.878c-1.381,9.255 -1.615,10.607 1.166,15.836c4.387,8.249 3.095,11.35 6.33,15.257c5.657,6.83 6.896,5.857 12.016,14.517c0.702,1.188 0.626,1.537 1.984,1.44c0.94,-0.067 0.891,-0.289 1.053,-1.235c0.541,-3.166 -0.156,-5.422 6.962,-5.516c5.241,-0.069 5.188,-0.418 10.339,-1.26c9.459,-1.546 9.427,-1.712 13.782,-2.064c2.842,-0.23 6.035,-1.055 10.185,0.12c9.278,2.628 10.769,5.272 16.05,7.851c9.447,4.614 9.441,4.696 17.338,6.636c6.147,1.51 5.335,5.963 3.939,7.386c-1.449,1.477 -3.57,0.433 -3.957,0.51c-0.12,0.024 -1.348,1.153 -1.366,1.253c-0.171,0.905 0.716,0.708 2.614,8.038c0.887,3.423 0.372,4.805 3.424,5.287c2.777,0.438 4.35,-2.987 4.952,-3.78c3.782,-4.977 7.737,-3.29 12.207,-3.239c0.352,0.004 2.764,0.031 4.269,1.076c4.905,3.405 4.743,8.494 5.845,12.223c0.363,1.228 0.456,1.181 0.832,2.4c0.455,1.475 3.145,10.203 -0.75,19.276c-0.255,0.594 -1.193,2.779 -5.555,5.877c-7.143,5.074 -9.213,5.057 -13.894,2.324c-0.907,-0.529 -0.807,-0.641 -1.267,-0.939c-0.137,-0.089 -1.253,-0.811 -2.027,-0.23c-1.005,0.755 -0.68,0.966 -0.439,2.203c0.105,0.536 1.009,6.731 1.724,9.106c2.584,8.586 18.533,3.411 22.866,0.276c8.637,-6.25 11.651,-6.752 14.229,-17.54c1.233,-5.157 1.341,-5.106 3.228,-10.063Zm-815.34,-159.079c-0.81,0.937 -1.464,0.669 -1.564,2.975c-0.061,1.404 -0.172,3.954 -3.872,17.13c-3.172,11.299 -1.913,11.545 -4.482,22.973c-1.14,5.07 -0.615,5.126 -1.051,10.317c-0.916,10.897 -0.981,10.866 -1.799,21.747c-0.237,3.15 -3.77,18.834 -3.827,25.281c-0.047,5.286 -0.359,6.721 3.082,7.163c10.222,1.312 13.626,-1.824 26.427,-0.281c8.571,1.033 8.587,0.622 17.205,1.23c6.711,0.474 9.483,2.516 19.604,5.248c3.081,0.832 4.109,-0.622 4.445,-0.821c2.303,-1.363 2.813,-0.141 5.867,-2.106c1.009,-0.649 9.874,-7.833 16.385,-13.402c7.549,-6.456 8.498,-5.317 14.633,-11.842c8.452,-8.988 15.042,-12.35 20.218,-17.617c12.419,-12.637 23.615,-30.303 24.56,-31.731c6.431,-9.715 8.218,-10.587 5.688,-13.955c-2.415,-3.216 -13.631,-1.093 -19.599,-0.939c-27.549,0.71 -52.111,6.824 -67.708,6.122c-17.222,-0.775 -20.639,-0.396 -29.704,-4.231c-10.317,-4.366 -10.183,-4.811 -17.882,-12.928c-4.289,-4.521 -5.707,-9.381 -5.709,-9.385c-0.137,-0.197 -0.422,-0.24 -0.589,-0.413c-0.145,-0.15 -0.181,-0.384 -0.326,-0.535Zm296.84,78.689c0.157,-0.765 1.502,-7.3 2.582,-9.411c0.806,-1.576 0.642,-1.668 1.806,-3.007c2.417,-2.782 8.189,-6.487 11.335,-7.915c5.615,-2.547 10.849,-1.757 12.319,-1.179c4.064,1.599 10.405,10.752 11.257,12.435c2.424,4.786 1.745,13.064 0.912,17.157c-2.277,11.189 -3.649,11.725 -7.16,14.081c-8.412,5.642 -12.099,5.218 -18.544,2.722c-6.593,-2.554 -9.648,-5.28 -10.801,-6.126c-4.655,-3.416 -4.892,-4.973 -3.707,-18.756Zm11.056,-4.611c-3.019,5.618 -2.866,8.32 -2.186,12.543c0.76,4.723 3.435,6.228 8.797,9.516c1.489,0.913 4.299,3.501 9.147,-0.561c3.855,-3.23 5.3,-18.166 2.859,-22.86c-1.806,-3.472 -2.189,-3.198 -4.41,-6.022c-1.001,-1.272 -1.632,-3.834 -4.839,-1.431c-5.786,4.336 -6.704,3.96 -9.367,8.814Zm282.568,-33.342c0.097,-7.621 1.213,-9.966 2.464,-12.846c3.61,-8.311 7.799,-11.91 12.079,-13.435c7.637,-2.721 9.187,-0.792 10.159,-2.455c0.606,-1.036 -0.762,-5.677 -0.777,-5.735c-1.789,-6.616 -6.239,-5.574 -10.473,-7.045c-2.276,-0.791 -3.858,-4.719 2.235,-5.219c1.534,-0.126 13.578,-2.116 15.794,7.799c2.858,12.788 4.075,17.256 1.91,28.723c-1.984,10.507 0.376,13.401 -1.23,18.412c-1.232,3.844 -4.746,2.83 -5.196,2.7c-3.017,-0.871 -1.945,-4.083 -3.46,-4.792c-1.275,-0.597 -1.055,0.42 -4.03,2.511c-0.861,0.605 -5.521,3.879 -13.15,-0.251c-5.651,-3.058 -5.639,-4.76 -6.324,-8.366Zm24.173,-12.469c0.045,-0.226 1.549,-6.578 0.819,-8.249c-0.517,-1.184 -5.069,-2.408 -10.084,1.712c-6.636,5.452 -8.885,18.929 -3.814,21.276c3.861,1.787 6.285,-2.183 8.428,-5.426c4.368,-6.613 4.573,-9.077 4.652,-9.313Zm-354.112,60.706c-0.64,-7.427 -0.916,-13.266 5.473,-18.95c10.648,-9.473 15.618,-3.336 16.68,-7.431c0.016,-0.06 1.242,-14.909 2.317,-18.348c1.5,-4.798 8.711,-5.995 9.731,-1.13c0.134,0.637 -1.131,20.984 -1.873,26.323c-2.909,20.932 -3.209,24.907 -7.832,28.902c-5.615,4.853 -8.953,3.778 -11.525,2.865c-11.593,-4.116 -12.059,-7.391 -12.972,-12.23Zm10.718,-0.109c0.239,0.371 2.091,3.246 3.595,4.183c2.183,1.36 3.368,-1.343 3.491,-1.626c1.355,-3.092 3.028,-15.519 2.9,-16.206c-0.529,-2.822 -8.691,-3.125 -10.897,5.795c-0.362,1.462 -0.253,3.068 -0.235,3.334c0.182,2.691 1.055,4.27 1.146,4.519Zm143.664,-65.204c-2.173,7.188 -3.514,9.548 1.183,13.098c4.557,3.444 5.469,1.81 8.975,-2.717c1.979,-2.554 1.838,-2.644 3.945,-5.105c0.325,-0.379 2.999,-4.423 6.09,-1.884c0.674,0.554 2.707,2.224 -3.076,10.463c-5.465,7.786 -7.907,11.747 -17.447,7.674c-1.616,-0.69 -9.572,-5.801 -9.946,-13.622c-0.196,-4.102 7.166,-27.36 15.826,-36.51c2.244,-2.371 5.385,-5.401 11.237,-6.109c2.33,-0.282 7.531,0.388 9.367,3.508c4.75,8.072 -1.206,24.731 -4.835,26.337c-4.331,1.917 -14.944,-3.769 -16.069,-4.013c-1.736,-0.376 -2.708,1.859 -2.82,2.118c-0.817,1.88 -2.249,6.216 -2.429,6.761Zm11.043,-23.085c-3.602,5.771 -4.236,6.882 -1.373,8.495c0.833,0.469 5.578,2.673 7.285,2.242c2.486,-0.627 5.536,-13.13 2.931,-14.743c-0.912,-0.565 -4.751,-0.308 -7.29,2.098c-0.344,0.326 -0.313,0.335 -1.553,1.909Zm-221.906,77.931c0.385,-1.74 4.334,-19.599 5.085,-21.684c1.525,-4.238 5.607,-3.914 7.177,-2.753c1.972,1.458 2.077,3.158 1.844,6.18c-0.349,4.525 -1.215,8.442 -1.31,9.154c-0.334,2.497 0.393,2.536 6.116,5.654c1.563,0.851 4.876,4.034 5.325,0.051c0.093,-0.824 0.858,-7.605 1.46,-10.265c1.395,-6.167 7.817,-7.123 8.407,-0.016c1.311,15.798 -2.544,26.735 -3.596,42.49c-0.549,8.218 -5.478,5.38 -7.146,4.749c-5.342,-2.02 -3.531,-4.297 -2.549,-12.834c1.154,-10.029 2.409,-12.182 -0.855,-13.66c-4.643,-2.102 -7.256,-3.663 -7.995,-3.686c-2.994,-0.096 -2.079,6.726 -6.906,16.229c-0.255,0.501 -2.508,4.937 -6.717,2.072c-2.875,-1.957 -2.954,-3.929 -2.177,-6.576c2.199,-7.497 1.989,-7.527 3.836,-15.106Zm457.824,-186.861c1.524,18.21 0.653,19.534 -1.504,21.075c-0.833,0.595 -7.364,2.441 -7.029,-3.907c0.155,-2.94 0.252,-2.933 0.095,-3.543c-1.078,-4.187 -6.116,3.939 -16.387,-0.937c-5.934,-2.817 -10.624,-11.425 -5.744,-19.672c1.749,-2.956 9.456,-7.371 18.426,-6.836c2.611,0.156 3.88,0.283 3.578,-3.452c-0.96,-11.842 -5.616,-10.112 -7.167,-13.687c-1.147,-2.644 0.383,-5.785 4.737,-5.816c9.798,-0.07 13.207,20.182 11.36,27.516c-1.114,4.422 -0.85,4.461 -0.364,9.26Zm-10.699,1.156c-0.066,-1.822 0.351,-1.944 -0.565,-3.324c-0.104,-0.156 -3.032,-3.418 -3.22,-3.571c-0.436,-0.354 -3.196,-2.594 -7.006,-0.394c-3.338,1.927 -5.798,5.045 0.579,11.41c0.424,0.423 3.636,3.629 7.479,0.253c1.979,-1.738 1.783,-1.905 2.733,-4.374Zm-236.758,68.872c-0.557,0.343 -1.401,-0.194 -1.959,0.149c-0.496,0.306 -0.505,1.052 -0.803,1.552c-0.129,0.217 -0.327,0.386 -0.475,0.591c-3.357,4.638 -4.136,5.819 -8.144,5.785c-3.134,-0.026 -6.974,0.298 -11.754,-3.171c-4.295,-3.118 -4.261,-6.1 -1.764,-14.099c1.896,-6.073 2.599,-9.438 8.044,-12.196c7.922,-4.012 11.472,0.324 13.181,-0.905c1.923,-1.383 -0.661,-12.442 -0.962,-13.321c-1.256,-3.67 -2.008,-3.223 -5.699,-4.358c-3.836,-1.179 -4.678,-7.011 2.387,-6.817c6.946,0.191 8.85,3.196 10.821,9.833c2.878,9.69 2.976,14.674 3.048,18.508c0.239,12.851 1.679,13.779 1.658,18.341c-0.005,1.018 -0.768,4.224 -2.914,4.498c-3.037,0.388 -4.255,-3.568 -4.666,-4.391Zm-8.83,-3.406c0.293,-0.631 2.434,-5.248 2.88,-8.205c0.28,-1.861 0.351,-1.95 -0.723,-3.511c-0.908,-1.321 -8.414,-3.786 -11.425,5.908c-1.167,3.756 -2.993,8.123 2.236,9.892c4.772,1.614 5.892,-2.106 7.032,-4.083Zm116.259,-89.703c0.262,-2.088 0.251,-2.076 0.283,-2.255c1.736,-9.682 2.626,-14.188 5.993,-14.792c4.565,-0.819 3.149,6.2 3.128,6.789c-0.188,5.298 -0.601,6.223 2.466,7.257c15.042,5.075 15.16,5.18 16.427,4.669c1.214,-0.489 0.981,-1.583 2.304,-9.579c1,-6.04 0.052,-9.157 3.064,-10.617c3.121,-1.512 4.419,-0.011 5.156,1.156c2.112,3.346 -1.829,24.123 -2.574,26.679c-0.233,0.8 -0.569,1.569 -0.786,2.373c-2.074,7.671 1.142,18.329 -5.078,19.516c-8.012,1.529 -3.418,-15.034 -3.624,-18.489c-0.179,-3.017 -4.787,-3.227 -8.993,-4.691c-7.532,-2.622 -7.491,-2.719 -8.158,-2.904c-1.317,-0.365 -2.089,0.559 -2.208,0.701c-0.549,0.657 -1.115,9.371 -1.04,13.771c0.183,10.761 -0.22,13.025 -4.607,14.105c-6.316,1.556 -5.537,-4.228 -5.522,-4.915c0.362,-16.916 1.722,-19.728 3.769,-28.774Zm-364.847,208.8c0.769,-3.402 0.698,-3.404 1.846,-6.705c1.425,-4.097 3.771,-13.333 10.073,-17.347c1.96,-1.248 9.716,-7.136 16.267,-2.472c4.184,2.979 4.297,4.179 4.811,5.875c1.309,4.317 2.609,5.555 3.676,7.326c1.194,1.983 3.512,6.53 3.574,6.694c0.505,1.361 -0.156,3.827 -3.195,2.518c-7.472,-3.22 -9.121,-12.326 -11.437,-13.982c-4.023,-2.877 -10.427,5.111 -10.956,5.853c-0.749,1.05 -3.036,5.812 -3.419,6.771c-2.337,5.836 -3.771,17.351 -3.876,19.346c-0.047,0.882 -0.345,6.525 4.874,9.913c0.27,0.175 2.482,1.611 3.899,-0.977c3.89,-7.101 5.684,-11.378 6.112,-12.397c1.838,-4.383 5.6,-4.046 7.11,-2.451c2.684,2.836 -0.001,7.612 -0.999,9.521c-7.436,14.213 -7.778,16.753 -13.104,15.297c-7.05,-1.927 -15.614,-8.804 -17.167,-13.125c-1.481,-4.119 1.576,-18.114 1.913,-19.658Zm447.254,-197.242c-0.059,0.742 -0.277,3.465 -1.587,9.17c-1.386,6.039 -8.374,7.293 -15.995,8.386c-6.613,0.948 -14.332,-0.974 -15.933,-5.015c-2.712,-6.843 0.495,-24.034 10.183,-28.541c0.064,-0.03 5.671,-3.392 12.618,-1.329c2.89,0.858 4.156,3.185 5.933,5.7c5.148,7.287 4.777,11.581 4.782,11.628Zm-25.229,2.34c-0.239,3.134 -0.441,3.125 -0.176,4.484c0.509,2.606 4.74,1.91 6.652,2.146c2.538,0.314 11.199,2.91 9.78,-8.918c-0.48,-4.006 -2.145,-5.209 -4.845,-8.403c-1.785,-2.11 -3.832,-2.537 -7.555,1.152c-3.07,3.041 -3.172,5.892 -3.856,9.539Zm-57.254,141.182c0.042,-0.183 1.844,-11.402 8.533,-18.552c8.633,-9.228 14.743,-8.683 15.049,-8.704c5.399,-0.356 8.252,-0.49 7.617,4.156c-0.56,4.089 0.066,7.457 -0.466,11.565c-1.402,10.82 -5.041,12.087 -6.088,12.451c-5.958,2.074 -12.781,-0.892 -13.699,-1.101c-0.223,-0.051 -2.259,-0.515 -2.637,1.106c-1.368,5.866 1.216,8.533 1.729,9.063c4.682,4.835 8.662,2.042 10.938,0.856c0.245,-0.128 2.548,-1.328 3.384,0.683c2.219,5.335 -8.097,13.86 -18.403,4.889c-8.421,-7.33 -6.683,-11.354 -5.956,-16.413Zm12.001,-10.465c-0.473,1.101 -1.724,2.586 -0.202,3.81c0.507,0.407 7.477,2.433 9.063,1.434c1.596,-1.006 2.969,-11.094 3.103,-12.083c0.685,-5.034 -4.05,-1.547 -4.071,-1.535c-3.544,2.082 -4.71,3.024 -7.893,8.374Zm-165.845,-13.568c1.165,-2.783 2.209,-5.513 4.894,-8.546c7.049,-7.963 13.845,-9.754 15.262,-10.128c9.998,-2.636 13.579,-2.762 16.13,3.584c4.659,11.589 5.282,15.249 4.044,16.808c-1.686,2.122 -3.916,-1.552 -4.103,-1.86c-6.075,-10.009 -4.214,-13.538 -9.086,-12.374c-8.136,1.943 -7.979,2.424 -9.66,3.78c-7.506,6.053 -9.157,10.126 -10.32,14.186c-2.255,7.873 -0.649,14.554 -0.496,14.957c1.329,3.5 4.877,5.574 6.781,4.905c1.087,-0.382 5.386,-8.093 9.013,-9.489c3.291,-1.267 5.557,0.827 2.605,5.961c-4.368,7.598 -6.864,15.695 -15.125,11.194c-5.458,-2.974 -11.07,-7.1 -11.709,-14.769c-0.768,-9.22 -0.877,-9.332 1.77,-18.209Zm212.032,17.163c1.011,-2.198 1.051,-2.168 1.091,-2.373c0.019,-0.097 0.151,-0.769 0.041,-1.236c-0.4,-1.699 -6.501,-2.508 -11.563,-4.791c-4.514,-2.035 -8.058,-3.713 -8.502,-5.362c-0.999,-3.707 5.145,-6.343 10.892,-2.752c7.767,4.854 10.107,4.007 14.674,6.142c0.904,0.422 5.204,2.432 0.897,12.439c-5.585,12.977 -7.582,12.138 -15.619,16.461c-4.406,2.37 -4.496,2.791 -4.59,3.23c-0.459,2.142 0.543,1.829 2.358,3.055c0.663,0.448 0.638,0.457 1.303,0.911c8.901,6.083 9.679,4.396 12.151,5.444c3.743,1.587 1.941,7.044 -1.072,7.66c-1.227,0.251 -9.113,-0.526 -17.329,-6.628c-3.504,-2.603 -8.511,-5.24 -8.66,-5.339c-3.197,-2.12 -3.205,-6.249 0.939,-8.216c6.087,-2.89 5.853,-3.274 11.624,-6.73c7.225,-4.326 7.106,-4.672 11.365,-11.916Zm-199.931,-74.723c0.165,-0.445 1.627,-4.384 1.553,-5.728c-0.211,-3.827 -6.743,-5.326 -7.257,-5.351c-2.946,-0.143 -8.517,5.436 -12.138,12.473c-3.87,7.521 -2.564,7.978 -3.73,11.321c-0.691,1.981 -2.861,1.729 -4.299,0.545c-4.272,-3.515 -2.161,-8.61 -1.436,-10.888c3.648,-11.457 3.6,-26.831 9.005,-26.939c4.772,-0.095 1.285,9.467 1.366,9.664c0.151,0.365 1.608,1.108 2.008,1.015c0.167,-0.039 0.113,-0.336 0.236,-0.456c0.267,-0.26 0.625,-0.41 0.906,-0.654c2.148,-1.869 2.064,-2.058 4.794,-2.902c5.241,-1.619 13.953,3.55 15.807,8.798c3.804,10.769 -5.574,22.689 -8.124,32.031c-1.678,6.147 -7.39,3.792 -8.48,1.043c-0.902,-2.275 0.585,-2.146 9.788,-23.972Zm118.104,57.41c0.31,9.008 -1.433,28.4 0.519,29.349c0.998,0.486 2.115,-1.345 2.228,-1.53c6.417,-10.52 7.64,-10.626 9.831,-14.17c3.081,-4.984 6.106,-16.41 11.737,-15.059c2.731,0.655 1.4,4.52 1.268,4.903c-0.009,0.026 -4.112,10.183 -6.59,14.042c-3.709,5.775 -5.717,8.104 -7.379,11.136c-1.509,2.754 -5.601,7.074 -7.739,9.441c-0.42,0.465 -1.513,2.029 -3.814,2.962c-1.762,0.714 -4.627,0.646 -5.698,-0.893c-3.121,-4.488 -2.768,-15.919 -2.479,-39.047c0.035,-2.797 0.54,-3.967 2.251,-5.078c1.734,-1.125 4.999,-0.716 5.707,2.849c0.072,0.362 0.086,0.734 0.158,1.095Zm-177.489,-84.925c-0.696,3.623 -1.021,3.506 -2.372,6.944c-2.939,7.481 -3.637,13.621 -3.775,14.838c-0.601,5.293 0.029,7.852 8.35,12.404c3.671,2.009 4.358,0.261 6.524,-4.459c1.82,-3.967 1.683,-4.026 4.081,-7.683c4.186,-6.385 1.973,-19.928 7.616,-20.094c4.214,-0.124 2.67,6.973 1.974,12.928c-0.767,6.552 -1.764,7.897 -6.138,16.32c-4.184,8.057 -6.962,14.012 -15.155,8.687c-4.355,-2.831 -11.899,-6.795 -14.027,-15.767c-1.411,-5.948 1.597,-13.933 4.411,-21.908c0.162,-0.458 1.515,-4.295 2.776,-5.4c2.133,-1.868 4.944,-0.897 5.596,2.027c0.085,0.381 0.054,0.781 0.139,1.162Zm293.978,-46.946c2.749,-12.78 2.232,-12.87 2.476,-13.979c0.109,-0.497 0.971,-4.409 5.167,-3.701c5.608,0.947 0.758,15.488 -0.223,25.6c-0.73,7.525 -1.045,7.47 -2.004,14.954c-0.313,2.445 -3.568,15.613 -3.717,15.985c-0.92,2.287 -5.221,4.427 -6.873,4.02c-3.237,-0.798 -1.855,-5.411 -0.8,-9.645c3.337,-13.39 2.951,-16.533 5.974,-33.235Zm69.877,3.446c0.211,-0.652 1.956,-6.046 3.484,-7.824c0.308,-0.358 3.093,-3.598 5.589,-1.908c1.122,0.76 3.336,1.103 -0.116,13.109c-5.17,17.98 -5.042,18.011 -5.498,19.573c-2.122,7.276 -7.376,5.374 -8.406,3.35c-1.621,-3.182 0.133,-7.488 4.947,-26.3Zm-431.456,230.595c-0.354,1.513 -0.47,3.369 -2.246,4.939c-1.87,1.653 -8.742,2.512 -8.151,-4.978c0.133,-1.685 0.148,-1.682 4.511,-20.636c0.081,-0.353 0.752,-6.103 4.405,-6.999c8.057,-1.977 4.155,14.342 1.481,27.675Zm421.914,-184.799c0.068,-0.37 0.091,-0.748 0.159,-1.118c1.551,-8.473 10.471,-10.145 12.733,-8.445c4.666,3.508 1.818,13.15 1.292,14.344c-2.06,4.671 -13.824,6.364 -14.206,-3.63c-0.015,-0.383 0.037,-0.767 0.022,-1.15Zm-410.428,130.747c0.206,2.418 1.118,6.361 -3.398,9.751c-3.382,2.539 -5.903,0.924 -8.468,-0.384c-2.712,-1.383 -4.218,-3.79 -3.633,-9.336c1.059,-10.034 12.984,-8.728 15.24,-1.138c0.108,0.364 0.15,0.745 0.258,1.108Zm374.593,10.433c0.247,3.156 0.582,3.688 -1.759,8.114c-3.815,7.212 -13.273,2.376 -9.355,-6.98c1.829,-4.367 7.04,-7.616 9.867,-4.301c0.841,0.986 0.604,1.096 1.247,3.167Z" style="fill:#197367;"/></g></svg>