<?xml version="1.0" encoding="UTF-8" standalone="no"?><!DOCTYPE svg PUBLIC "-//W3C//DTD SVG 1.1//EN" "http://www.w3.org/Graphics/SVG/1.1/DTD/svg11.dtd"><svg width="100%" height="100%" viewBox="0 0 1080 993" version="1.1" xmlns="http://www.w3.org/2000/svg" xmlns:xlink="http://www.w3.org/1999/xlink" xml:space="preserve" xmlns:serif="http://www.serif.com/" style="fill-rule:evenodd;clip-rule:evenodd;stroke-linejoin:round;stroke-miterlimit:2;"><rect id="img8" x="0" y="0" width="1080" height="992.058" style="fill:none;"/><clipPath id="_clip1"><rect x="0" y="0" width="1080" height="992.058"/></clipPath><g clip-path="url(#_clip1)"><g id="Gemini_Generated_Image_74yp5474yp5474yp.png"><path d="M569.721,268.263c-0.323,-2.253 -0.176,-2.257 -0.765,-4.341c-2.313,-8.179 -1.537,-8.332 -3.695,-16.528c-4.839,-18.383 -2.733,-28.353 -3.552,-42.915c-0.821,-14.588 -0.782,-25.272 -1.391,-29.704c-1.319,-9.594 -1.17,-9.601 -1.329,-10.427c-2.568,-13.319 -2.088,-13.364 -4.022,-26.776c-2.857,-19.811 0.845,-23.214 -0.812,-39.981c-1.096,-11.093 0.175,-13.697 -0.45,-20.752c-0.419,-4.728 0.262,-4.676 1.463,-10.567c3.998,-19.618 7.505,-18.352 13.819,-28.22c5.567,-8.701 2.442,-12.694 21.164,-20.22c15.923,-6.4 19.511,-10.614 35.452,-11.019c10.914,-0.277 10.98,-0.915 17.714,0.636c10.171,2.343 10.155,-0.973 17.933,-0.951c5.275,0.015 17.97,3.368 19.222,3.735c7.277,2.132 7.641,0.601 14.755,3.181c13.087,4.748 13.069,6.424 20.082,13.784c7.861,8.25 10.625,9.834 13.685,17.147c5.776,13.803 6.212,13.67 6.836,17.535c0.926,5.733 2.073,5.43 5.314,10.615c2.092,3.346 9.963,26.545 11.09,29.358c2.759,6.888 7.517,21.968 8.003,26.944c0.925,9.464 5.802,16.771 7.776,29.67c0.872,5.698 2.535,7.32 4.507,17.814c2.209,11.749 7.152,25.439 8.555,40.119c0.462,4.83 3.409,17.286 4.408,19.502c2.492,5.53 8.896,-2.057 14.862,4.623c2.783,3.117 4.135,2.408 10.86,2.209c6.515,-0.193 8.497,1.352 14.858,1.49c10.347,0.225 10.276,0.999 17.839,1.332c1.916,0.085 13.343,0.589 23.702,3.569c26.541,7.635 26.943,5.723 37.083,7.718c17,3.345 20.613,6.439 22.197,7.288c10.237,5.487 13.872,3.995 18.787,10.634c4.656,6.289 4.513,6.506 10.581,10.575c4.621,3.099 5.458,5.584 10.606,8.686c10.499,6.327 9.627,7.414 18.62,16.834c12.173,12.752 25.071,19.963 32.311,31.578c8.124,13.032 5.208,14.454 9.212,20.607c4.809,7.389 3.473,9.178 7.668,17.768c3.879,7.942 4.088,7.914 5.643,16.61c1.907,10.66 9.411,23.484 14.628,38.604c3.101,8.986 0.154,9.546 2.627,17.932c3.27,11.088 2.39,11.285 5.486,22.394c0.385,1.383 2.447,8.781 2.921,17.709c0.594,11.198 -2.069,11.688 5.558,35.43c2.611,8.129 3.825,8.014 3.176,16.523c-0.141,1.841 1.207,16.953 1.947,20.823c2.623,13.708 3.28,27.793 3.21,29.624c-0.428,11.315 0.77,15.351 -0.377,22.195c-2.043,12.184 -1.13,12.449 -3.045,16.137c-2.404,4.631 -1.484,6.372 -2.223,12.18c-1.008,7.929 0.336,8.331 -3.758,17.524c-4.015,9.016 -14.681,20.771 -16.087,22.187c-5.201,5.238 -4.53,5.839 -9.874,10.938c-6.642,6.336 -6.473,6.628 -14.624,10.906c-7.718,4.051 -17.621,18.025 -38.679,31.024c-15.125,9.336 -19.438,14.574 -30.524,24.134c-2.011,1.734 -2.125,1.557 -4.12,3.345c-12.655,11.346 -18.082,11.502 -38.098,23.022c-13.628,7.844 -14.913,12.079 -25.862,18.25c-2.58,1.454 -23.323,10.094 -23.718,10.247c-13.523,5.233 -12.078,8.234 -31.034,18.265c-8.752,4.631 -9.009,4.033 -14.461,6.727c-16.307,8.058 -17.98,9.073 -19.477,9.982c-11.982,7.271 -12.29,6.71 -24.099,14.296c-6.501,4.176 -31.762,14.454 -39.707,19.909c-8.528,5.855 -9.31,4.39 -18.364,9.419c-13.946,7.746 -21.553,9.089 -32.194,11.547c-5.824,1.346 -20.708,7.063 -32.938,12.539c-13.118,5.874 -13.809,4.021 -33.83,12.592c-10.208,4.37 -10.79,2.611 -21.051,6.798c-9.499,3.876 -25.908,6.053 -34.036,7.665c-27.919,5.534 -31.809,5.373 -50.674,11.297c-22.136,6.951 -26.936,6.247 -30.867,7.084c-16.508,3.512 -22.314,3.356 -32.781,6.914c-3.341,1.136 -13.405,3.368 -17.873,4.05c-8.917,1.361 -10.325,2.236 -14.667,1.345c-4.91,-1.008 -4.925,-0.387 -12.014,0.409c-9.117,1.024 -9.016,1.514 -13.153,3.532c-5.354,2.61 -11.957,1.855 -19.392,3.139c-8.213,1.418 -8.182,1.419 -16.456,2.205c-13.747,1.307 -13.734,5.829 -22.086,2.73c-5.351,-1.985 -5.512,-1.096 -12.032,-1.363c-11.049,-0.453 -24.306,2.21 -29.716,2.072c-2.91,-0.074 -15.559,-4.373 -37.054,-6.694c-12.214,-1.319 -14.208,-2.671 -22.361,-3.747c-16.116,-2.127 -16,-2.712 -25.295,-4.185c-19.229,-3.047 -22.624,-5.299 -31.13,-5.912c-14.764,-1.063 -14.315,-3.458 -29.715,-6.181c-18.221,-3.222 -35.031,-10.017 -39.865,-12.497c-7.158,-3.673 -18.197,-7.998 -23.364,-13.549c-4.009,-4.307 -4.021,-4.322 -9.124,-7.486c-6.141,-3.806 -12.109,-9.831 -16.851,-12.484c-7.864,-4.4 -10.71,1.073 -24.669,-6.925c-7.555,-4.329 -8.54,-2.37 -14.004,-6.409c-8.835,-6.53 -10.047,-8.718 -11.784,-12.13c-5.143,-10.096 -5.311,-10.044 -8.328,-20.988c-2.246,-8.144 0.136,-8.917 -0.709,-13.189c-0.206,-1.041 -0.488,-2.067 -0.69,-3.109c-0.47,-2.426 -0.937,-10.82 -0.99,-11.763c-0.221,-3.979 0.55,-35.249 0.271,-46.056c-0.134,-5.178 1.262,-39.718 1.523,-43.076c0.845,-10.881 0.672,-10.88 0.764,-11.823c0.615,-6.3 2.567,-5.959 2.777,-13.393c0.21,-7.435 0.387,-7.398 1.648,-14.76c1.527,-8.914 1.343,-8.913 2.869,-17.842c3.892,-22.768 2.757,-23.05 5.898,-31.093c2.437,-6.239 3.854,-5.597 6.451,-13.696c5.709,-17.799 7.239,-17.14 10.477,-23.811c7.068,-14.558 7.459,-14.326 17.863,-29.724c6,-8.881 5.848,-12.436 8.125,-17.426c2.777,-6.086 1.834,-6.487 5.176,-12.28c3.819,-6.62 5.09,-19.361 4.681,-23.472c-1.115,-11.183 -2.709,-12.722 -3.588,-15.112c-1.706,-4.636 -1.269,-6.208 -2.376,-10.082c-0.34,-1.19 -1.305,-4.568 -3.471,-15.072c-1.334,-6.466 -1.11,-25.453 -1.478,-29.601c-0.761,-8.59 0.815,-10.865 1.128,-14.754c0.493,-6.122 0.833,-6.044 2.183,-12.013c2.439,-10.784 4.234,-11.247 5.712,-20.778c0.718,-4.634 0.845,-4.605 3.4,-10.41c4.526,-10.282 10.124,-14.858 13.316,-19.378c3.631,-5.142 0.939,-6.352 3.819,-11.366c3.572,-6.217 2.823,-6.63 5.102,-9.43c0.904,-1.11 3.208,-3.941 13.855,-11.323c2.831,-1.963 21.5,-11.428 25.288,-13.06c15.271,-6.583 15.304,-6.465 20.148,-8.82c17.844,-8.673 18.955,-5.58 37.449,-12.697c8.369,-3.221 18.492,-5.614 26.893,-8.418c8.084,-2.698 8.788,-1.292 11.699,-0.332c2.559,0.844 2.648,0.477 14.809,-1.991c7.59,-1.54 7.487,-1.875 15,-3.766c1.788,-0.45 16.217,-4.083 22.324,-5.71c15.344,-4.088 15.618,-2.657 31.154,-5.946c13.153,-2.785 13.931,-2.411 23.588,-3.904c8.163,-1.262 10.751,-2.534 15.014,-3.575c0.4,-0.098 24.862,-3.583 32.544,-3.891c11.953,-0.479 21.297,-4.16 35.783,-1.748c5.85,0.974 5.897,-0.428 11.82,0.111c6.855,0.624 6.9,0.456 14.928,-1.827c9.347,-2.658 12.087,0.147 12.839,-5.036c1.429,-9.849 2.224,-12.542 2.406,-17.729c0.321,-9.168 1.473,-8.978 3.306,-17.965c2.973,-14.576 4.703,-14.013 9.805,-27.985c7.068,-19.354 7.263,-27.214 8.298,-31.369c1.702,-6.827 10.861,-31.356 16.912,-44.336c4.67,-10.017 3.215,-10.559 7.531,-20.755c8.47,-20.009 7.559,-25.718 10.195,-32.76c4.725,-12.621 4.713,-12.619 5.228,-13.67c8.896,-18.153 6.764,-18.979 10.021,-26.23c3.028,-6.744 10.925,-13.505 11.226,-13.717c1.7,-1.198 3.935,-2.877 6.287,-1.691c1.79,0.903 -0.434,5.628 -0.642,6.069c-0.609,1.294 -3.725,7.912 -6.365,16.704c-1.098,3.656 -2.425,22.503 -1.753,26.466c0.752,4.439 0.607,4.429 0.419,8.963c-0.14,3.377 0.379,6.774 0.148,10.371c-0.29,4.52 -0.36,4.497 -0.053,8.987c0.492,7.192 0.625,7.169 2.213,13.275c1.777,6.831 -2.43,9.647 1.608,16.203c3.038,4.931 0.235,5.58 -2.735,10.873c-5.925,10.557 -5.403,10.843 -5.411,13.07c-0.051,13.917 -3.167,13.297 -7.901,29.857c-2.449,8.566 -3.425,9.038 -5.419,16.062c-2.901,10.217 1.187,11.005 -2.832,20.792c-2.533,6.167 -2.192,6.249 -3.263,10.35c-2.444,9.36 -4.704,10.34 -5.317,16.482c-0.706,7.076 -2.858,6.465 -4.38,13.387c-1.205,5.482 -1.955,7.224 -1.06,8.471c1.123,1.565 10.419,0.836 11.325,0.765c7.693,-0.603 28.629,-0.097 32.638,-0.377c6.145,-0.429 12.009,0.021 17.811,-0.142c4.331,-0.122 3.693,-2.234 2.027,-16.232Zm-355.919,213.746c-2.995,12.645 -2.031,12.825 -5.134,25.431c-3.098,12.582 0.173,13.399 -0.978,16.045c-0.925,2.125 -3.482,2.664 -3.852,2.742c-7.064,1.489 -10.764,0.282 -11.65,-0.007c-13.113,-4.277 -13.685,-4.94 -14.502,-5.888c-1.533,-1.778 -0.504,-2.082 -0.515,-9.985c-0.007,-5.192 0.318,-5.184 -0.285,-10.358c-0.823,-7.066 1.093,-6.9 1.638,-13.413c1.207,-14.422 2.222,-14.242 5.984,-28.228c2.248,-8.357 8.07,-22.256 9.179,-31.131c1.96,-15.679 5.875,-17.507 10.534,-32.59c5.861,-18.976 10.61,-19.627 18.528,-28.699c0.393,-0.45 3.361,-3.85 5.162,-5.397c1.293,-1.111 1.923,-1.377 0.771,-2.648c-1.303,-1.438 -1.663,-0.152 -9.898,0.124c-1.304,0.044 -18.426,1.652 -23.883,3.509c-14.521,4.94 -15.115,2.77 -29.551,7.859c-5.211,1.837 -17.659,4.575 -25.009,12.05c-6.356,6.463 -8.181,4.388 -13.947,11.376c-3.866,4.685 -18.122,33.207 -16.98,40.254c0.255,1.575 0.45,1.51 0.677,3.101c0.499,3.486 -1.638,7.226 -4.263,28.149c-0.473,3.771 -0.123,3.793 -0.852,7.541c-0.724,3.722 -0.899,4.009 1.107,17.691c2.399,16.355 8.915,24.868 12.134,43.005c1.485,8.369 6.225,13.59 4.196,26.824c-0.728,4.748 -1.108,12.906 -8.793,26.855c-1.258,2.284 -6.364,9.636 -8.616,13.543c-0.858,1.488 -2.669,4.631 -12.114,17.72c-17.61,24.406 -19.357,24.163 -22.891,38.299c-1.586,6.342 -2.173,6.159 -4.344,14.876c-1.364,5.474 -4.23,12.72 -6.009,20.779c-2.386,10.808 -3.918,11.8 -5.074,22.385c-0.13,1.188 -0.324,1.158 -1.916,14.811c-1.041,8.925 -2.584,13.838 -3.455,20.726c-1.777,14.049 -1.676,16.439 -1.614,17.873c0.318,7.462 -0.176,7.417 -0.971,14.842c-0.716,6.693 -1.264,6.631 -1.222,13.351c0.061,9.661 -0.054,9.629 0.235,19.283c0.632,21.125 0.446,21.163 1.628,26.573c1.153,5.276 -0.347,14.416 2.175,25.435c2.015,8.807 1.632,8.863 3.357,17.736c0.378,1.945 0.638,9.057 5.281,18.062c2.868,5.561 8.452,4.952 23.11,17.05c16.855,13.911 24.997,16.78 27.46,17.647c8.535,3.007 7.678,5.075 16.429,7.309c13.155,3.359 12.688,5.149 28.446,7.779c9.278,1.548 12.038,4.732 25.13,5.589c13.339,0.872 18.61,4.439 31.29,6.287c19.151,2.791 19.09,3.011 20.753,3.252c6.482,0.941 11.164,0.532 19.396,2.733c9.267,2.478 9.341,2.068 14.71,2.232c6.271,0.191 7.718,1.559 14.761,0.559c16.268,-2.309 16.379,2.021 32.696,0.164c6.821,-0.776 6.85,-0 7.421,-0.163c1.937,-0.551 1.941,-2.074 1.942,-2.316c0.005,-1.835 -12.769,-20.891 -14.173,-35.589c-1.168,-12.221 -3.854,-13.972 -5.744,-26.739c-0.58,-3.916 -0.207,-6.022 -1.248,-14.884c-1.562,-13.299 -1.477,-13.311 -1.015,-26.712c0.288,-8.358 3.72,-9.659 3.123,-20.816c-0.458,-8.56 3.795,-15.675 3.748,-22.254c-0.051,-7.131 0.146,-7.116 1.844,-19.262c0.939,-6.715 2.487,-6.393 3.553,-16.431c0.566,-5.33 2.6,-14.398 4.068,-17.546c3.486,-7.478 2.321,-7.911 4.303,-11.93c1.831,-3.715 1.981,-3.611 3.835,-7.713c2.534,-5.607 4.277,-7.027 4.607,-10.282c1.105,-10.894 1.435,-10.859 5.623,-20.962c4.756,-11.474 5.029,-14.774 5.141,-16.123c0.615,-7.433 0.669,-7.395 1.948,-14.751c1.722,-9.903 0.62,-9.956 0.187,-26.826c-0.323,-12.596 -2.048,-12.387 -3.339,-25.302c-2.126,-21.263 -2.999,-21.341 -3.619,-26.669c-2.279,-19.597 -3.744,-19.387 -4.71,-32.649c-0.105,-1.439 -0.344,-1.407 -2.075,-17.914c-0.14,-1.334 -1.743,-9.751 -1.589,-13.283c0.212,-4.851 0.325,-4.825 -0.176,-11.912c-0.083,-1.183 -0.228,-3.233 1.926,-14.697c0.765,-4.074 2.689,-6.332 2.76,-12.005c0.117,-9.354 0.26,-14.632 8.036,-26.983c5.087,-8.079 6.499,-20.77 12.545,-29.275c6.28,-8.835 4.957,-9.871 11.917,-19.269c3.139,-4.239 3.06,-5.672 8.695,-12.016c6.659,-7.498 5.43,-8.664 13.305,-14.895c2.578,-2.04 1.243,-3.232 7.04,-9.261c1.168,-1.215 1.622,-1.816 1.608,-2.641c-0.024,-1.447 -1.954,-2.488 -5.321,-4.966c-1.503,-1.107 -5.695,-4.192 -21.22,-9.705c-5.079,-1.803 -8.143,-1.821 -14.616,-3.738c-9.018,-2.67 -9.048,-2.503 -17.952,-5.466c-3.283,-1.093 -26.763,-7.758 -41.591,-10.41c-3.884,-0.695 -6.998,-3.135 -20.891,-0.216c-4.528,0.951 -5.614,3.745 -13.768,14.86c-1.153,1.572 -8.108,12.246 -10.148,15.018c-5.04,6.846 -3.734,7.548 -11.967,23.761c-7.393,14.559 -5.386,15.395 -12.304,30.213c-3.417,7.318 -2.292,7.668 -8.113,30.842c-0.176,0.699 -0.147,0.696 -2.047,8.772Zm21.377,-135.218c1.71,0.052 2.993,0.54 6.12,-0.963c1.062,-0.511 1.131,-0.607 1.14,-1.781c0.017,-2.054 -0.808,-1.726 -2.877,-1.59c-0.378,0.025 -3.617,0.569 -4.205,0.717c-0.392,0.098 -0.294,0.252 -0.679,0.34c-0.664,0.151 -0.666,-0.034 -1.345,0.121c-0.416,0.037 -4.443,0.398 -5.122,1.021c-0.273,0.25 -2.136,3.334 3.912,2.476c1.536,-0.218 1.509,-0.168 3.055,-0.34Zm578.323,30.031c0.92,6.608 1.043,6.57 1.393,13.248c0.645,12.325 3.137,11.922 5.95,32.575c1.91,14.025 4.594,20.698 4.848,26.839c0.074,1.784 0.435,10.529 2.109,22.218c1.072,7.488 1.668,7.37 2.316,14.925c0.587,6.838 1.863,6.584 2.832,13.391c0.951,6.68 0.798,6.676 2.157,13.269c1.978,9.596 0.573,9.775 2.47,19.395c1.601,8.116 2.691,28.491 4.538,38.593c1.851,10.128 1.125,10.23 3.017,19.295c2.982,14.286 0.959,14.544 3.019,26.711c2.482,14.656 -0.064,15.02 3.398,28.11c3.262,12.333 0.409,31.594 3.372,47.46c1.257,6.73 1.056,6.737 1.875,13.542c0.3,2.487 5.323,17.372 4.53,32.592c-0.51,9.799 -0.52,9.787 -0.022,14.908c0.972,9.996 -3.279,10.711 -4.043,29.656c-0.048,1.185 0.055,1.176 0.617,14.809c0.099,2.391 0.663,3.841 -0.421,7.515c-0.618,2.093 -1.668,2.597 0.187,3.741c1.746,1.077 1.55,-0.771 8.619,-3.493c8.795,-3.386 8.611,-3.762 19.255,-9.078c10.747,-5.368 16.199,-13.753 44.38,-27.047c2.604,-1.228 13.244,-7.907 17.715,-11.915c20.512,-18.388 22.198,-19.737 31.816,-25.819c15.04,-9.511 19.168,-13.146 36.594,-28.992c6.688,-6.082 15.941,-11.115 19.238,-14.882c17.564,-20.069 18.891,-21.997 20.32,-24.073c6.448,-9.368 5.426,-9.914 6.231,-15.936c1.403,-10.496 4.318,-21.828 4.799,-23.702c2.04,-7.933 3.219,-29.189 -0.113,-48.986c-0.503,-2.991 -3.233,-24.304 -2.695,-32.671c0.493,-7.678 -1.155,-7.423 -3.283,-14.815c-3.432,-11.923 -3.491,-15.019 -3.517,-16.357c-0.301,-15.682 0.238,-15.758 -2.453,-28.195c-2.934,-13.56 -3.387,-13.429 -6.904,-26.854c-2.345,-8.951 1.158,-9.732 -1.59,-17.805c-2.502,-7.349 -12.388,-26.436 -15.553,-41.393c-2.082,-9.837 -3.039,-9.51 -12.481,-31.478c-0.42,-0.978 -2.817,-6.553 -5.97,-11.894c-2.45,-4.15 -3.071,-3.65 -5.915,-7.51c-2.535,-3.442 -2.942,-4.516 -7.498,-7.658c-4.438,-3.061 -5.115,-2.351 -8.997,-7.101c-0.853,-1.044 -4.185,-5.121 -11.671,-12.166c-5.205,-4.899 -14.82,-8.55 -25.438,-14.819c-5.966,-3.523 -6.276,-2.763 -14.974,-5.869c-8.346,-2.98 -14.759,-2.14 -26.84,-3.027c-11.593,-0.851 -14.865,0.638 -16.035,1.171c-2.656,1.209 -13.408,6.897 -24.2,9.105c-0.769,0.157 -14.119,4.159 -17.876,6.198c-3.367,1.827 -3.799,3.456 -10.331,5.946c-5.082,1.937 -4.902,2.405 -10.161,3.775c-1.38,0.36 -1.301,0.555 -16.6,6.511c-9.64,3.752 -10.572,5.307 -9.679,9.194c1.898,8.263 2.318,8.151 3.586,16.507c0.278,1.829 1.721,8.689 4.077,22.334Zm-1.653,436.347c-0.241,-3.275 -0.185,-3.269 -0.777,-19.22c-0.28,-7.546 0.088,-8.22 0.058,-10.398c-0.081,-5.99 0.492,-5.935 0.88,-11.92c0.386,-5.947 0.827,-5.896 0.817,-11.838c-0.008,-4.746 1.039,-7.076 -0.126,-11.88c-5.798,-23.913 -3.209,-31.689 -3.066,-32.676c0.603,-4.149 -0.2,-12.429 -0.362,-20.768c-0.434,-22.381 0.044,-25.995 0.341,-28.235c0.614,-4.64 -1.132,-4.472 -2.227,-14.884c-0.627,-5.966 0.695,-6.029 -1.508,-23.774c-0.599,-4.825 1.197,-15.188 0.331,-29.611c-0.224,-3.726 -1.774,-6.837 -2.127,-10.444c-2.08,-21.256 -5.284,-28.222 -5.051,-38.575c0.221,-9.801 -0.56,-9.731 -2.885,-19.246c-1.339,-5.48 -1.551,-5.391 -3.518,-10.698c-2.001,-5.401 -5.092,-17.544 -6.472,-25.025c-0.862,-4.673 -3.298,-13.413 -3.235,-20.751c0.083,-9.701 -0.548,-9.633 -1.815,-19.25c-2.63,-19.96 -6.576,-23.224 -9.921,-40.156c-0.521,-2.636 -2.638,-8.699 -3.603,-16.25c-1.351,-10.577 -1.575,-10.527 -4.756,-23.975c-2.121,-8.967 -2.535,-8.829 -5.041,-17.679c-1.693,-5.976 -10.78,3.098 -17.882,4.271c-18.417,3.043 -24.784,6.526 -29.554,7.982c-9.119,2.785 -8.785,4.312 -14.96,4.26c-15.512,-0.128 -15.874,6.789 -34.126,5.433c-5.97,-0.443 -5.935,0.089 -11.901,0.294c-8.234,0.282 -8.212,-0.038 -16.377,-1.123c-5.739,-0.763 -7.23,-0.209 -7.431,2.646c-0.398,5.645 3.091,7.092 6.176,11.753c6.904,10.431 9.825,17.692 10.482,19.324c0.647,1.608 4.97,12.352 5.762,20.888c1.944,20.933 2.173,27.987 -5.421,55.106c-5.367,19.166 -6.897,19.134 -5.544,25.192c1.414,6.334 -0.093,7.081 0.599,11.752c0.552,3.722 0.499,3.7 0.42,7.461c-0.069,3.275 2.708,18.904 2.426,26.706c-0.593,16.445 -0.788,16.424 -0.839,17.853c-0.496,14.071 0.438,15.236 5.475,17.349c1.229,0.516 8.79,3.688 14.857,7.527c9.737,6.161 11.845,8.875 6.209,21.325c-5.481,12.109 -6.29,14.264 -8.505,17.133c-4.584,5.937 -3.096,6.884 -7.717,12.804c-4.237,5.428 -3.175,7.506 -7.501,14.693c-4.126,6.854 -0.416,8.451 -1.837,16.062c-0.734,3.935 -1.369,3.931 -0.533,10.43c1.585,12.319 -0.042,29.545 0.581,38.534c0.618,8.913 0.706,8.889 0.807,17.84c0.146,13.015 -3.094,29.597 -3.001,37.115c0.169,13.724 -2.198,27.659 -1.649,37.161c0.37,6.411 2.729,6.148 2.473,19.264c-0.175,8.923 1.442,9.022 -0.558,17.744c-1.855,8.093 -0.74,8.288 -3.638,20.981c-2.717,11.901 -5.013,29.462 -5.019,29.567c-0.08,1.289 0.006,1.346 1.042,2.148c1.146,0.888 3.315,-0.037 3.531,-0.09c12.821,-3.152 12.906,-2.933 32.498,-11.094c14.036,-5.847 24.832,-6.917 37.222,-11.617c5.886,-2.232 26.583,-13.219 28.536,-14.346c9.492,-5.475 9.442,-5.513 19.21,-10.463c12.194,-6.18 13.382,-4.472 22.149,-10.723c8.204,-5.849 18.541,-10.944 22.432,-12.999c10.445,-5.518 13.471,-5.484 14.086,-9.577c0.571,-3.796 0.545,-3.791 1.754,-7.417c1.664,-4.991 0.615,-5.088 -0.38,-10.232c-0.107,-0.553 -0.188,-1.111 -0.295,-1.665Zm-195.828,-583.514c-1.023,8.185 -1.399,8.361 0.79,13.373c6.02,13.781 0.22,34.486 5.774,35.884c1.235,0.311 6.717,-0.382 7.361,-0.623c2.91,-1.086 3.031,-2.579 4.704,-9.937c2.84,-12.494 2.468,-12.544 4.799,-25.165c0.178,-0.963 0.097,-0.958 1.916,-12.092c0.672,-4.114 2.301,-22.82 2.377,-25.119c0.176,-5.374 0.106,-5.386 2.804,-19.287c3.041,-15.669 4.594,-17.111 2.915,-29.739c-1.711,-12.874 0.56,-44.118 -3.624,-54.703c-3.661,-9.262 -3.574,-9.284 -8.215,-18.116c-3.573,-6.799 -9.35,-7.897 -7.266,-16.18c0.927,-3.681 2.832,-4.446 14.556,-4.592c6.344,-0.079 14.666,2.449 19.051,4.969c3.803,2.185 9.877,4.135 14.363,10.471c2.498,3.529 2.319,3.639 5.267,6.823c5.268,5.692 4.469,6.232 7.195,13.492c3.816,10.161 1.154,30.501 1.173,37.068c0.071,23.546 1.131,26.516 0.645,29.717c-0.778,5.129 -1.223,5.036 -1.94,11.821c-0.708,6.702 -1.135,6.616 -1.66,13.354c-1.167,15 -2.886,15.125 -2.427,28.246c0.161,4.613 -2.701,35.414 -4.882,44.487c-0.556,2.312 -1.422,2.802 0.553,4.124c1.139,0.762 6.128,-0.815 11.582,-1.612c6.052,-0.884 5.914,-1.517 11.962,-2.422c7.86,-1.175 15.057,-5.68 23.727,-7.569c0.46,-0.1 4.871,-1.061 5.615,-1.764c2.102,-1.985 -0.687,-5.593 -1.778,-21.825c-0.693,-10.314 -4.645,-17.549 -6.208,-25.412c-1.48,-7.442 -1.394,-7.43 -3.385,-14.775c-6.068,-22.382 -5.463,-22.506 -5.968,-29.661c-0.483,-6.854 -2.657,-12.343 -3.578,-17.717c-0.84,-4.903 -2.952,-11.814 -4.413,-19.309c-1.103,-5.657 -3.277,-9.597 -5.615,-19.358c-2.258,-9.427 -14.317,-33.969 -19.479,-39.865c-4.824,-5.511 -10.732,-6.697 -23.57,-11.862c-4.365,-1.756 -4.464,-1.404 -8.777,-3.304c-11.105,-4.894 -14.452,0.006 -22.255,0.639c-3.088,0.25 -8.448,0.341 -13.46,3.815c-0.248,0.172 -6.233,6.05 -7.274,11.961c-0.507,2.877 -0.769,8.469 -2.133,13.186c-0.302,1.046 -0.686,2.067 -1,3.11c-2.322,7.703 3.999,9.113 2.355,22.206c-0.223,1.779 -1.419,11.305 -1.614,22.351c-0.036,2.061 1.05,4.997 1.273,13.348c0.301,11.254 0.611,11.219 2.782,22.24c2.405,12.21 -0.959,14.804 2.078,35.784c1.384,9.558 0.344,9.682 2.37,19.136c1.101,5.137 0.79,5.158 0.533,10.4Zm-69.75,181.134c0.116,-0.953 0.799,-6.567 2.09,-11.813c3.534,-14.363 6.855,-19.342 6.911,-19.485c1.342,-3.404 -3.706,-3.507 -6.879,-3.426c-7.463,0.192 -7.442,0.263 -14.888,-0.441c-6.529,-0.617 -7.379,-2.063 -16.203,1.304c-7.068,2.698 -8.518,1.644 -11.971,1.503c-5.543,-0.225 -9.758,6.42 -16.347,6.042c-4.584,-0.263 -5.022,-1.365 -10.568,2.32c-2.366,1.572 -2.407,1.475 -6.829,3.928c-1.553,0.861 -1.485,0.957 -18.427,12.381c-11.531,7.776 -19.435,11.39 -29.046,18.739c-12.545,9.593 -15.746,21.024 -23.758,33.82c-8.001,12.78 -8.252,20.113 -13.824,33.887c-3.713,9.179 -2.661,9.669 -4.092,14.958c-3.546,13.104 -1.811,13.37 -3.256,22.181c-1.357,8.274 -1.731,8.21 -2.293,17.832c-0.597,10.228 1.095,10.035 3.029,17.944c1.623,6.637 2.112,30.015 3.248,39.997c1.512,13.295 0.941,13.317 1.377,26.69c0.178,5.459 0.205,5.451 0.219,5.925c0.461,15.602 1.978,15.624 2.637,20.848c0.57,4.517 0.625,4.489 1.484,8.966c0.721,3.758 0.117,3.819 1.462,14.803c0.867,7.078 -0.615,7.101 -0.076,13.338c0.787,9.107 -0.226,9.984 -3.306,22.327c-4.306,17.255 -8.408,27.198 -10.092,35.66c-3.441,17.294 -10.259,33.541 -13.018,38.224c-3.058,5.191 -2.075,5.653 -5.102,10.869c-4.581,7.893 -8.458,22.143 -7.414,33.867c0.578,6.493 -3.919,12.532 -2.806,23.773c0.629,6.357 -1.384,8.405 -1.192,13.424c0.517,13.48 0.326,13.473 0.829,16.27c2.363,13.14 4.103,17.702 4.665,19.177c4.18,10.961 3.987,13.527 8.182,19.658c6.53,9.545 5.51,12.609 9.666,18.808c3.265,4.871 2.376,5.501 6.491,9.68c6.278,6.375 8.778,9.807 9.869,10.972c3.342,3.57 4.217,1.544 11.508,2.682c2.91,0.454 2.864,0.604 5.751,1.106c0.862,0.15 1.807,0.304 21.023,-4.11c1.179,-0.271 10.887,-2.501 14.779,-3.185c6.658,-1.172 6.819,0.167 13.41,-1.41c7.985,-1.911 8.057,-1.461 11.664,-2.364c20.828,-5.216 21.49,-3.125 31.164,-5.963c37.867,-11.11 41.678,-10.378 61.083,-15.582c8.646,-2.319 11.384,-2.012 12.511,-5.073c0.209,-0.566 0.083,-0.593 1.583,-7.377c2.298,-10.4 2.667,-10.282 5.322,-20.588c4.692,-18.212 4.967,-24.649 5.06,-26.831c0.446,-10.43 1.126,-10.331 2.625,-20.679c1.613,-11.134 1.883,-11.082 2.903,-22.295c1.113,-12.239 1.933,-12.191 1.409,-20.849c-0.682,-11.259 0.811,-13.984 0.739,-19.273c-0.168,-12.287 -0.036,-12.267 -0.081,-13.333c-0.062,-1.491 -0.067,-1.594 -1.343,-2.399c-0.119,-0.075 -5.677,-1.526 -8.564,-1.552c-8.246,-0.074 -14.822,-3.102 -25.101,-6.876c-10.431,-3.829 -10.987,-2.044 -21.215,-6.354c-5.665,-2.387 -10.95,-3.786 -18.864,-7.015c-13.836,-5.646 -19.321,-3.996 -28.426,-8.398c-2.391,-1.156 -10.177,-6.779 -11.279,-8.006c-0.841,-0.936 -3.955,-4.406 -0.144,-15.727c5.022,-14.917 4.694,-15.001 9.314,-30.036c5.321,-17.317 7.162,-16.66 12.206,-34.053c1.998,-6.887 11.113,-27.278 14.081,-32.34c4.719,-8.049 4.472,-8.157 8.931,-16.346c8.079,-14.839 8.747,-20.139 11.113,-24.178c7.124,-12.163 6.962,-12.242 7.643,-13.259c5.461,-8.149 25.677,-1.034 34.278,0.317c9.912,1.556 9.947,2.47 12.144,1.612c1.563,-0.61 1.123,-5.637 1.028,-7.745c-0.538,-11.922 -3.565,-11.148 -10.919,-32.92c-6.183,-18.305 -9.224,-19.6 -14.496,-35.249c-2.552,-7.577 -3.664,-7.218 -5.155,-15.066c-2.239,-11.783 -4.551,-15.8 -5.588,-20.873c-3.082,-15.087 -3.297,-25.798 -3.343,-28.058c-0.13,-6.497 -1.364,-7.192 0.477,-25.306Zm-55.096,314.992c-1.75,7.561 -3.006,9.382 4.004,12.744c7.367,3.534 23.274,3.582 39.614,12.813c9.27,5.237 10.36,2.172 27.047,8.235c16.887,6.136 17.594,5.967 19.146,5.595c2.457,-0.589 3.456,-1.255 8.581,-15.905c3.258,-9.313 3.829,-9.051 5.785,-13.49c3.35,-7.603 2.837,-10.121 7.563,-19.242c3.868,-7.464 5.156,-16.337 20.488,-43.27c6.663,-11.705 4.836,-13.233 7.434,-17.774c3.507,-6.131 4.244,-5.617 7.964,-11.619c7.404,-11.947 15.686,-29.729 15.106,-32.572c-0.505,-2.475 -11.663,-8.303 -19.395,-8.562c-4.691,-0.157 -4.921,-0.017 -7.93,-2.78c-5.977,-5.489 -28.771,-7.613 -47.079,-12.089c-8.65,-2.115 -26.471,-5.444 -29.476,-4.412c-1.951,0.67 -1.973,4.007 -8.048,14.24c-6.293,10.601 -16.249,33.631 -19.501,40.031c-11.039,21.725 -10.855,21.823 -18.187,43.511c-6.314,18.679 -9.854,23.946 -11.965,38.519c-0.272,1.876 -0.313,1.845 -1.151,6.028Zm20.775,-22.198c1,-2.601 4.013,-11.014 12.078,-20.07c4.102,-4.605 3.717,-6.334 6.173,-10.073c7.528,-11.458 14.995,-15.44 19.243,-18.256c2.586,-1.715 8.641,-9.491 16.722,-7.92c10.83,2.105 13.67,3.795 14.727,4.424c10.032,5.971 12.17,8.168 13.057,9.08c5.974,6.14 8.253,16.239 7.972,23.303c-0.762,19.148 -9.501,25.265 -9.945,25.727c-9.266,9.634 -9.9,9.305 -12.126,10.478c-6.333,3.335 -16.419,1.984 -24.117,-1.888c-3.577,-1.799 -3.662,-4.103 -5.835,-4.111c-1.465,-0.005 -1.632,0.878 -2.927,3.969c-1.474,3.521 -4.81,9.366 -8.874,13.429c-5.857,5.855 -17.613,9.172 -24.19,-4.383c-5.348,-11.021 -4.571,-13.566 -1.959,-23.71Zm44.934,-25.697c-0.707,1.378 -3.62,6.005 -1.304,10.769c1.773,3.648 7.608,4.323 9.073,4.657c0.467,0.106 4.434,1.01 5.944,0.758c7.955,-1.328 10.914,-19.992 3.058,-21.934c-4.042,-0.999 -9.407,0.529 -10.194,0.753c-4.812,1.37 -5.079,2.799 -6.578,4.998Zm18.241,-68.054c-4.536,-1.188 -4.587,-1.779 -9.092,-0.595c-7.7,2.023 -10.466,-3.145 -10.305,-6.837c0.4,-9.216 15.653,-4.652 17.918,-4.526c5.987,0.334 5.977,0.361 11.761,1.958c3.676,1.015 3.752,0.53 7.459,1.413c15.622,3.722 17.914,2.532 26.899,5.317c7.107,2.203 8.103,7.035 2.644,10.252c-4.391,2.588 -23.737,-1.441 -25.206,-1.824c-10.997,-2.865 -11.256,-1.716 -22.078,-5.159Zm-27.942,7.261c-1.06,-2.235 -1.683,-2.084 -1.46,-4.25c0.136,-1.321 0.854,-1.698 0.998,-1.773c2.511,-1.316 2.72,-0.008 10.551,1.933c22.456,5.566 23.202,5.649 25.264,5.877c8.254,0.915 7.92,2.62 14.824,3.253c12.016,1.102 11.814,2.399 23.843,3.59c10.244,1.014 10.326,7.769 7.506,9.513c-3.177,1.964 -6.623,2.669 -17.865,0.798c-20.364,-3.39 -20.74,-1.834 -35.521,-7.299c-22.142,-8.187 -23.751,-5.798 -28.139,-11.642Zm-0.218,17.864c-1.524,-0.77 -6.789,-2.485 -5.236,-8.97c1.194,-4.987 5.44,-3.069 6.633,-2.556c7.726,3.317 10.687,3.464 14.515,4.833c1.715,0.613 20.635,7.379 21.431,7.701c6.659,2.694 12.5,1.33 19.187,4.775c3.541,1.824 3.625,1.561 7.379,2.961c5.893,2.198 7.811,8.581 1.278,10.222c-2.749,0.69 -14.261,-2.234 -16.112,-2.88c-7.562,-2.641 -7.622,-2.359 -15.185,-4.915c-11.49,-3.883 -11.776,-2.967 -20.575,-6.61c-6.517,-2.698 -6.748,-1.964 -13.316,-4.562Zm59.615,-59.251c-0.031,-0.515 0.139,-1.029 0.108,-1.543c-0.206,-3.39 -3.665,-4.324 -5.147,-1.671c-0.999,1.789 -0.948,1.793 -1.979,3.548c-0.149,0.253 -1.43,2.432 -0.29,3.652c0.336,0.36 2.251,0.84 2.454,0.891c1.715,0.43 1.783,0.686 3.398,-0.069c1.402,-0.655 0.779,-1.128 1.456,-4.808Zm22.859,-142.512c1.216,29.923 1.574,29.897 1.596,35.688c0.002,0.442 0.019,4.968 0.776,5.471c0.309,0.205 0.767,0.284 1.104,0.129c0.272,-0.125 0.208,-0.568 0.38,-0.813c0.191,-0.272 0.553,-0.416 0.692,-0.718c0.049,-0.105 2.443,-16.496 2.357,-22.005c-0.329,-21.051 -3.622,-30.298 -4.51,-32.792c-1.972,-5.539 -2.75,-5.663 -3.272,-5.746c-2.847,-0.454 -0.668,1.689 0.877,20.787Zm162.124,-172.225c0.107,0.486 1.205,5.471 1.678,5.994c0.159,0.175 1.159,1.28 2.882,0.654c1.035,-0.376 2.443,-1.585 7.798,-3.344c9.61,-3.155 9.338,-3.959 19.204,-6.261c0.093,-0.022 2.679,-0.379 2.862,-1.593c0.307,-2.044 -0.559,-1.793 -2.581,-2.129c-10.798,-1.795 -30.264,-1.069 -31.752,1.974c-1.069,2.186 -0.39,2.272 -0.091,4.705Zm-176.93,285.083c-0.773,-0.601 -0.068,-1.063 -0.827,-1.653c-0.109,-0.085 -0.598,-0.465 -1.695,-0.308c-1.191,0.171 -1.346,1.701 -1.365,1.886c-0.327,3.236 3.296,3.277 3.78,1.307c0.098,-0.4 0.008,-0.832 0.106,-1.232Zm-56.533,-105.439c0.702,8.943 1.812,8.763 2.628,17.728c0.537,5.907 3.585,9.824 6.139,22.182c1.167,5.646 1.536,5.525 5.601,17.836c2.375,7.193 5.07,10.924 6.77,16.67c0.531,1.795 0.104,2.157 1.724,3.082c0.946,0.54 1.33,0.738 1.631,-0.319c0.274,-0.966 -1.976,-24.207 -2.13,-28.202c-0.315,-8.184 0.38,-8.237 -1.271,-16.276c-1.011,-4.922 -0.849,-6.834 -1.806,-22.332c-0.123,-1.994 -0.414,-14.662 -0.057,-17.775c0.385,-3.359 1.42,-4.991 0.107,-11.829c-1.124,-5.853 0.917,-7.16 -0.775,-23.883c-1.709,-16.9 -0.987,-18.372 -4.567,-18.914c-3.239,-0.49 -4.413,0.612 -4.691,0.873c-1.181,1.108 -0.277,3.631 -1.819,7.393c-1.204,2.935 -4.303,7.348 -7.727,30.041c-0.283,1.877 -0.936,6.207 0.243,23.725Zm-294.729,-94.04c10.548,1.928 11.543,-0.408 17.604,-2.904c7.809,-3.217 8.151,0.694 13.475,0.019c4.22,-0.536 10.616,-3.692 23.756,-4.651c5.256,-0.384 4.918,1.316 7.516,1.827c2.632,0.518 2.579,-0.552 10.364,-0.933c5.281,-0.258 5.192,-0.802 13.285,-2.191c4.429,-0.76 7.489,-2.053 10.482,-2.431c0.994,-0.126 8.144,-0.78 17.921,-4.28c4.723,-1.691 5.137,0.37 10.368,-1.572c5.071,-1.883 5.134,-1.6 10.377,-2.853c6.007,-1.435 8.053,-3.533 22.15,-5.204c2.769,-0.328 9.404,-1.983 11.955,-2.238c8.16,-0.817 8.094,-1.448 16.294,-1.562c9.794,-0.137 11.705,-5.192 37.1,-4.255c10.416,0.384 34.566,-2.38 41.541,-1.387c1.684,0.24 4.727,1.274 8.847,0.38c10,-2.17 21.97,-1.368 23.879,-1.24c5.389,0.361 9.661,0.709 10.339,0.205c1.437,-1.069 1.51,-4.197 0.276,-4.674c-3.307,-1.278 -6.5,2.143 -10.085,-1.676c-3.822,-4.072 -10.503,0.478 -15.303,-0.156c-1.88,-0.248 -11.177,-2.526 -20.808,-1.65c-8.201,0.746 -9.338,-0.619 -16.455,0.202c-6.327,0.73 -22.264,-0.271 -24.804,1.18c-2.069,1.182 -1.252,3.581 -9.281,3.954c-9.86,0.457 -9.898,-0.882 -32.695,1.081c-10.921,0.94 -20.9,3.303 -23.731,3.331c-8.985,0.089 -8.99,-0.231 -17.879,0.973c-8.915,1.207 -9.867,0.325 -25.092,2.596c-6.063,0.904 -6.133,0.414 -12.029,2.122c-5.757,1.667 -8.585,0.36 -17.864,4.432c-8.384,3.678 -9.612,2.728 -32.627,5.682c-3.847,0.494 -8.918,0.803 -11.917,1.542c-7.978,1.966 -8.091,0.357 -14.726,0.677c-5.044,0.243 -12.692,3.215 -17.806,3.412c-6.335,0.244 -8.156,-0.267 -12.837,4.35c-4.455,4.394 -6.243,3.997 -6.675,5.271c-0.705,2.081 -0.512,2.712 1.695,2.931c1.056,0.105 3.953,-0.643 7.364,-0.613c0.483,0.004 0.472,0.113 6.028,0.304Zm363.029,-11.395c0.234,4.177 0.102,5.673 5.147,5.553c7.232,-0.172 7.201,-0.583 16.345,-0.692c21.265,-0.253 21.342,-0.08 29.57,-2.352c0.946,-0.261 4.718,-1.303 11.998,-2.528c6.774,-1.14 6.8,1.795 10.157,0.765c2.569,-0.788 2.436,-1.152 9.076,-2.576c23.301,-4.996 30.964,-12.303 35.781,-15.92c2.526,-1.897 4.521,-2.879 3.646,-8.919c-0.05,-0.348 -0.536,-3.697 -1.097,-4.26c-1.277,-1.281 -2.051,-0.364 -9.877,1.846c-11.333,3.2 -12.264,4.454 -20.877,5.795c-8.537,1.329 -21.232,6.466 -29.791,6.686c-7.502,0.192 -7.473,0.361 -14.773,1.993c-8.092,1.808 -19.431,-0.093 -29.677,1.634c-2.792,0.471 -4.751,1.789 -10.505,1.987c-2.538,0.087 -2.604,-0.355 -4.507,0.413c-1.95,0.786 -1.004,4.343 -0.907,6.042c0.13,2.273 0.144,2.241 0.291,4.534Zm117.147,-50.711c-1.34,-4.728 -1.605,-7.17 -5.062,-7.555c-5.015,-0.559 -10.494,2.922 -11.764,3.579c-9.784,5.065 -10.34,3.932 -19.769,9.596c-3.814,2.291 -13.098,4.481 -16.028,4.845c-12.749,1.583 -19.092,1.872 -20.758,1.948c-5.812,0.265 -7.307,2.133 -10.386,2.717c-5.018,0.954 -4.334,-2.804 -10.387,-3.367c-7.075,-0.659 -7.11,-0.028 -13.43,3.2c-4.429,2.263 -4.562,0.555 -7.587,-0.986c-1.052,-0.536 -3.283,-0.502 -3.973,0.011c-1.432,1.065 -1.214,3.158 -1.146,3.99c0.886,10.732 1.646,11.224 2.451,11.746c0.692,0.448 0.967,0.627 10.293,0.494c11.9,-0.169 11.895,0.743 23.752,-0.371c6.331,-0.595 17.077,-4.602 25.246,-4.666c11.933,-0.094 21.874,-4.931 31.251,-6.844c1.933,-0.394 5.62,-0.868 5.771,-0.896c4.032,-0.752 17.264,-5.966 21.071,-8.05c3.067,-1.679 1.566,-5.347 0.452,-9.391Zm-541.931,196.303c1.21,-5.487 1.194,-5.48 1.302,-5.956c2.09,-9.202 3.697,-9.256 4.227,-14.925c1.397,-14.955 4.488,-16.127 10.359,-31.129c5.028,-12.849 4.903,-12.878 6.446,-16.067c10.728,-22.181 10.976,-22.565 12.156,-24.399c5.631,-8.747 7.175,-13.435 13.624,-22.141c5.195,-7.012 5.62,-6.676 5.992,-7.337c0.466,-0.828 0.244,-2.566 -1.352,-2.621c-4.007,-0.139 -7.317,5.429 -10.384,7.105c-1.871,1.022 -2.087,0.786 -17.207,15.518c-9.834,9.582 -8.571,14.532 -14.087,27.53c-6.017,14.178 -4.432,17.402 -11.112,37.39c-3.432,10.269 -2.395,10.575 -6.186,20.717c-5.904,15.794 -5.46,18.139 -5.733,23.668c-0.215,4.339 -1.482,4.723 -1.47,10.327c0.023,10.883 -0.346,10.932 0.2,12.247c0.385,0.925 4.977,4.278 7.176,1.52c0.686,-0.861 0.43,-0.954 0.93,-3.359c0.999,-4.802 1.823,-6.673 2.556,-14.883c0.46,-5.151 1.08,-5.028 2.562,-13.206Zm595.882,-191.583c0.387,1.901 0.457,3.948 1.873,4.296c1.927,0.474 3.09,-0.474 5.82,-1.592c5.479,-2.243 6.836,-3.313 10.504,-3.045c6.739,0.493 5.735,-2.226 10.842,-6.63c4.49,-3.872 5.64,-1.679 15.605,-6.974c4.107,-2.182 4.615,-0.486 11.935,-3.015c11.113,-3.841 13.328,-6.331 28.396,-5.48c0.338,0.019 3.787,0.214 4.227,-0.229c0.159,-0.16 0.117,-2.104 -0.075,-2.334c-1.437,-1.724 -34.078,-5.209 -39.919,-3.881c-3.014,0.685 -2.777,1.383 -5.816,2.007c-6.009,1.233 -6.006,1.191 -11.671,3.489c-9.551,3.875 -11.074,3.657 -15.185,5.02c-1.319,0.437 -11.171,3.704 -16.057,6.635c-3.387,2.032 -1.901,5.448 -0.48,11.733Zm-225.957,38.567c-0.272,-3.943 0.092,-5.221 -3.871,-5.361c-5.219,-0.184 -5.166,0.278 -8.899,0.541c-25.567,1.801 -25.718,-0.216 -26.829,-0.456c-0.8,-0.172 -4.575,-0.572 -7.249,-0.212c-8.132,1.094 -8.133,0.774 -16.324,1.622c-13.509,1.399 -26.265,-0.197 -34.239,0.504c-12.078,1.062 -12.018,1.425 -13.368,1.668c-7.388,1.33 -7.547,-0.157 -14.872,1.407c-5.15,1.1 -5.112,1.178 -10.34,1.701c-5.264,0.526 -6.341,3.058 -14.846,3.086c-10.315,0.035 -11.267,3.424 -23.835,5.447c-4.782,0.77 -4.657,1.168 -9.07,2.698c-6.239,2.164 -14.544,1.238 -22.032,3.644c-5.159,1.658 -5.185,1.435 -10.494,2.405c-5.102,0.932 -5.294,-0.123 -20.57,3.982c-10.679,2.87 -14.204,1.002 -13.88,4.125c0.271,2.618 3.903,-0.023 12.539,3.764c1.937,0.849 11.448,5.215 23.466,8.126c12.122,2.936 11.917,3.51 23.611,7.78c13.361,4.878 16.873,12.636 22.618,10.324c5.536,-2.228 10.187,-8.313 10.707,-8.913c12.484,-14.41 16.346,-12.188 23.575,-16.172c6.417,-3.537 6.297,-3.684 12.81,-6.988c7.564,-3.837 11.218,-6.823 16.62,-8.306c12.407,-3.407 17.027,-0.869 25.217,-3.054c9.572,-2.553 9.7,-1.948 19.229,-4.717c5.917,-1.719 19.331,-3.986 20.861,-4.118c12.433,-1.069 15.008,-1.036 16.316,-1.02c14.019,0.176 19.046,2.126 20.8,2.328c3.63,0.418 2.896,-2.276 2.348,-5.835Z" style="fill:#197367;"/></g></g></svg>