<?xml version="1.0" encoding="UTF-8" standalone="no"?><!DOCTYPE svg PUBLIC "-//W3C//DTD SVG 1.1//EN" "http://www.w3.org/Graphics/SVG/1.1/DTD/svg11.dtd"><svg width="100%" height="100%" viewBox="0 0 1017 1080" version="1.1" xmlns="http://www.w3.org/2000/svg" xmlns:xlink="http://www.w3.org/1999/xlink" xml:space="preserve" xmlns:serif="http://www.serif.com/" style="fill-rule:evenodd;clip-rule:evenodd;stroke-linejoin:round;stroke-miterlimit:2;"><rect id="img9" x="0" y="0" width="1017" height="1080" style="fill:none;"/><clipPath id="_clip1"><rect x="0" y="0" width="1017" height="1080"/></clipPath><g clip-path="url(#_clip1)"><g id="Gemini_Generated_Image_in8co4in8co4in8c.png"><path d="M905.669,992.781c-10.606,6.152 -10.271,6.645 -20.822,12.893c-4.122,2.441 -20.97,9.668 -21.523,9.89c-13.728,5.522 -21.135,9.788 -28.336,12.785c-14.331,5.963 -15.027,6.605 -19.409,8.674c-22.963,10.842 -24.356,7.252 -40.311,14.697c-16.396,7.651 -26.189,7.083 -39.656,10.548c-11.264,2.898 -13.964,2.467 -21.758,4.138c-16.458,3.528 -16.61,2.276 -46.29,5.359c-8.224,0.854 -8.154,1.347 -16.395,1.942c-8.685,0.627 -12.902,2.613 -13.668,2.849c-1.766,0.544 -4.608,1.421 -22.999,2.104c-18.499,0.688 -18.453,1.721 -34.028,1.195c-11.729,-0.396 -11.807,0.638 -17.585,-0.638c-5.048,-1.115 -5.048,-1.391 -21.847,-1.458c-24.528,-0.098 -24.5,-1.65 -38.085,-0.789c-7.534,0.477 -9.582,-0.98 -13.613,-1.239c-18.931,-1.214 -39.735,-0.681 -44.879,-0.645c-18.912,0.13 -18.885,0.619 -24.445,0.92c-5.17,0.28 -48.194,-0.666 -62.608,-1.686c-36.954,-2.614 -41.188,-0.472 -80.252,-4.051c-15.009,-1.375 -20.852,-0.604 -32.556,-2.06c-31.119,-3.87 -31.133,-3.776 -36.685,-5.301c-20.357,-5.592 -30.171,-9.526 -32.724,-10.55c-17.945,-7.195 -23.923,-6.684 -40.945,-11.786c-21.274,-6.376 -25.273,-8.347 -27.348,-9.369c-6.153,-3.032 -12.771,-6.294 -20.329,-11.107c-15.146,-9.645 -23.431,-8.549 -38.143,-21.791c-13.437,-12.095 -16.263,-13.497 -28.174,-26.249c-15.43,-16.519 -12.044,-21.083 -15.425,-31.051c-4.019,-11.848 -8.104,-12.433 -0.798,-31.288c7.908,-20.407 19.01,-28.966 26.758,-37.008c4.512,-4.683 2.557,-7.207 9.632,-12.165c6.765,-4.741 13.183,-9.552 30.196,-14.169c8.879,-2.409 11.537,-0.551 20.378,-2.763c8.195,-2.05 9.973,-0.482 16.162,-0.614c3.093,-0.066 2.15,-2.136 2.047,-2.364c-0.017,-0.036 -1.161,-1.155 -1.263,-1.255c-1.15,-1.125 -7.661,-7.492 -13.979,-14.46c-13.345,-14.72 -10.903,-20.987 -20.565,-29.813c-6.977,-6.374 -7.691,-11.249 -10.808,-16.241c-1.723,-2.759 -4.213,-6.796 -5.929,-10.614c-3.589,-7.985 -6.607,-11.424 -8.756,-15.372c-6.78,-12.457 -8.428,-16.276 -12.689,-36.424c-2.753,-13.017 -7.114,-20.884 -7.905,-32.641c-0.06,-0.895 -3.473,-18.114 -3.921,-28.563c-0.494,-11.503 -1.98,-13.153 -2.805,-24.501c-0.359,-4.948 -2.199,-11.08 -2.281,-23.07c-0.08,-11.626 1.74,-11.559 1.074,-23.155c-0.736,-12.818 2.527,-15.769 4.232,-21.899c1.792,-6.446 -0.169,-6.88 6.347,-29.663c4.271,-14.934 0.985,-16.188 3.337,-24.696c2.04,-7.381 1.816,-11.291 4.782,-20.186c3.074,-9.222 3.456,-13.637 5.313,-19.086c4.624,-13.566 0.365,-15.244 7.483,-28.884c9.221,-17.672 8.821,-21.537 14.873,-30.085c3.163,-4.467 3.225,-4.391 6.33,-8.906c6.946,-10.099 7.351,-11.195 18.911,-20.382c7.668,-6.094 8.295,-5.391 19.302,-14.674c5.976,-5.04 30.379,-19.993 36.59,-23.065c17.114,-8.464 28.636,-12.68 31.193,-13.616c45.536,-16.662 47.575,-16.673 55.461,-18.673c13.146,-3.334 35.288,-7.163 35.562,-7.2c11.121,-1.538 24.541,-7.15 44.75,-5.358c9.432,0.836 9.619,-3.506 27.243,-4.779c12.345,-0.891 15.145,-0.351 21.779,-0.25c13.416,0.203 13.623,-2.281 27.176,-1.755c18.897,0.734 28.843,-0.966 61.225,-0.666c24.345,0.226 24.321,-0.584 36.732,-0.45c3.074,0.033 27.599,1.764 31.252,2.118c27.04,2.619 47.259,0.285 59.809,1.643c11.595,1.254 11.602,0.773 23.231,1.678c14.401,1.12 36.75,7.082 37.985,7.48c11.751,3.789 18.33,4.866 25.826,6.899c19.918,5.401 19.979,5.119 21.706,5.6c12.696,3.533 11.701,6.384 24.562,9.287c13.037,2.943 12.82,3.621 21.883,6.355c14.601,4.405 39.074,15.686 46.388,20.282c8.256,5.189 18.872,9.97 26.453,15.964c4.482,3.544 4.083,4.013 12.681,10.374c14.576,10.783 18.282,20.698 19.375,21.345c0.328,0.194 1.882,0.144 2.141,-0.045c0.217,-0.158 9.26,-18.117 10.206,-19.881c17.577,-32.778 20.406,-46.39 38.182,-73.334c12.475,-18.909 11.172,-19.87 19.874,-28.928c8.518,-8.867 11.27,-14.406 20.749,-18.33c6.788,-2.81 6.95,-2.34 13.603,-5.519c1.23,-0.588 10.056,-5.137 17.359,-4.147c11.24,1.525 20.402,7.739 21.969,8.802c9.8,6.647 13.757,4.832 22.573,26.228c7.142,17.335 1.469,24.945 -2.004,36.662c-4.27,14.404 -6.267,18.94 -17.226,41.799c-9.049,18.876 -11.687,30.994 -16.744,38.583c-3.546,5.321 -10.676,17.872 -24.955,39.131c-10.545,15.699 -16.057,21.205 -18.792,27.348c-5.898,13.247 -10.99,13.934 -10.802,17.6c0.079,1.545 6.731,11.288 10.125,24.633c0.409,1.61 4.301,20.495 5.154,25.632c1.834,11.056 3.211,11.06 1.454,23.291c-2.095,14.59 0.188,14.711 -1.803,48.883c-1.003,17.224 0.249,22.315 -5.455,40.849c-4.194,13.627 -4.083,13.656 -4.468,14.834c-4.522,13.841 -7.52,20.597 -10.14,27.476c-6.981,18.328 -5.996,18.7 -14.35,36.42c-0.708,1.501 -4.133,8.767 -10.323,17.997c-4.286,6.392 -6.923,12.937 -13.823,20.291c-11.386,12.134 -14.382,19.821 -31.855,40.306c-8.426,9.879 -9.453,8.822 -18.758,17.893c-5.674,5.532 -8.036,7.79 -8.103,8.32c-0.268,2.127 2.96,2.171 5.507,2.947c25.666,7.82 28.4,9.663 28.46,9.689c12.018,5.3 16.618,1.878 32.555,12.265c10.245,6.677 10.637,5.931 21.76,11.028c1.503,0.689 6.731,3.085 17.635,10.776c4.988,3.519 6.331,7.197 7.709,8.511c5.683,5.415 8.063,5.779 15.547,21.068c3.756,7.673 8.007,8.345 8.328,20.314c0.399,14.927 -4.129,20.506 -5.265,21.906c-2.508,3.09 -2.512,3.064 -4.671,6.396c-5.41,8.347 -3.322,9.693 -10.09,16.979c-13.563,12.942 -22.685,17.551 -24.746,18.83Zm-454.301,-377.787c0.02,-0.003 6.808,-1.841 10.548,1.161c4.778,3.836 3.131,8.867 7.012,8.649c3.988,-0.224 7.04,-3.273 42.193,-2.349c12.615,0.331 13.02,0.155 16.686,-3.526c17.813,-17.892 20.202,-16.203 25.681,-28.843c0.386,-0.89 4.477,-10.329 4.789,-11.137c1.323,-3.43 -0.563,-5.354 -2.18,-5.024c-1.248,0.255 -0.898,0.703 -1.817,2.213c-8.527,14.015 -17.425,11.403 -20.046,11.219c-3.664,-0.257 -7.675,1.222 -10.828,0.834c-8.049,-0.99 -8.913,-5.678 -14.741,-13.353c-4.916,-6.474 -4.142,-7.105 -4.799,-7.352c-0.193,-0.073 -1.745,0.482 -2.103,0.884c-0.449,0.503 -1.761,5.982 -8.07,13.672c-5.29,6.447 -6.111,8.88 -13.998,7.233c-8.642,-1.805 -7.683,-3.725 -17.203,-13.219c-6.856,-6.838 -6.57,-7.132 -7.286,-7.573c-1.416,-0.873 -2.559,0.811 -2.687,1.001c-1.085,1.599 -1.149,1.523 -2.457,2.969c-4.805,5.316 -8.782,9.884 -9.627,10.785c-13.22,14.106 -14.42,13.47 -14.742,16.308c-0.596,5.246 4.939,3.347 9.786,7.499c6.069,5.199 4.623,9.656 7.648,9.946c0.675,0.065 0.637,-0.065 8.242,-1.997Zm-411.615,46.663c0.292,0.028 0.587,0.019 0.879,0.047c2.138,0.207 2.04,-0.524 2.657,-0.834c5.464,-2.743 4.827,7.901 5.107,9.426c1.911,10.383 9.668,8.223 17.025,15.854c5.42,5.622 5.636,5.389 10.137,7.798c6.714,3.594 6.987,6.804 18.056,11.532c8.449,3.609 10.788,5.946 20.265,8.589c0.346,0.096 11.798,1.558 9.482,9.186c-0.927,3.053 -2.733,2.658 -9.867,11.935c-1.746,2.27 -1.681,2.278 -3.377,4.59c-4.957,6.758 -5.901,7.708 -6.419,8.424c-7.102,9.808 -10.114,8.022 -12.507,17.346c-1.689,6.582 -4.243,5.905 -5.568,6.968c-2.346,1.881 2.032,4.08 8.208,15.916c4.041,7.744 5.313,6.779 10.923,13.476c3.531,4.216 23.753,34.873 31.321,39.156c2.766,1.565 3.555,-0.494 9.438,2.762c3.218,1.781 8.315,4.145 8.867,10.065c0.414,4.449 1.724,4.846 10.089,11.993c17.572,15.015 24.48,17.207 36.687,25.844c2.293,1.622 25.059,14.926 36.615,17.731c9.802,2.379 10.337,0.671 19.237,5.165c17.512,8.843 18.13,7.207 40.554,12.745c28.546,7.05 39.361,4.511 50.421,6.255c8.054,1.27 8.077,0.629 16.223,0.893c2.611,0.084 23.422,0.758 32.649,0.357c22.432,-0.975 22.413,-0.749 44.886,-1.199c58.833,-1.179 58.819,-0.901 63.932,-1.057c13.665,-0.417 13.489,-1.725 23.048,-3.121c1.631,-0.238 14.76,-2.155 20.441,-2.604c13.219,-1.044 22.588,-3.12 31.296,-3.936c16.492,-1.546 16.483,-1.572 32.754,-4.758c8.522,-1.669 8.289,-2.639 13.367,-4.841c6.161,-2.672 6.206,-2.488 12.318,-5.244c16.581,-7.475 34.581,-12.186 47.884,-18.435c1.983,-0.931 10.677,-5.015 24.11,-12.986c14.87,-8.823 24.626,-12.448 30.422,-16.941c4.218,-3.27 0.635,-5.662 4.637,-9.17c2.885,-2.529 4.875,-1.644 24.56,-17.607c5.768,-4.678 10.284,-9.284 16.846,-12.867c5.18,-2.829 6.675,-4.724 16.366,-15.045c6.273,-6.68 6.406,-6.527 12.73,-13.153c9.015,-9.446 9.8,-9.026 9.747,-10.15c-0.166,-3.523 -9.35,3.7 -14.396,5.703c-1.928,0.765 -6.342,3.496 -9.269,1.808c-6.228,-3.592 -0.167,-11.1 0.384,-11.965c2.855,-4.478 6.237,-18.316 6.451,-19.961c0.675,-5.183 0.882,-5.137 3.213,-9.816c7.177,-14.403 6.614,-14.643 10.35,-22.713c1.336,-2.886 0.801,-3.011 0.981,-5.607c0.291,-4.187 5.03,-7.181 8.204,-7.093c6.36,0.177 8.803,7.83 10.188,10.874c2.751,6.048 3.847,10.245 5.907,14.004c0.399,0.728 3.086,4.776 3.28,4.945c0.13,0.113 1.031,0.894 2.154,0.128c1.701,-1.162 -0.334,-3.962 -0.534,-4.239c-3.556,-4.894 -3.238,-5.076 -5.529,-10.679c-6.077,-14.869 -7.727,-14.258 -8.014,-17.489c-0.167,-1.885 1.198,-4.981 3.412,-6.779c5.542,-4.502 7.237,-5.936 16.319,-8.193c16.448,-4.087 13.563,-11.409 30.367,-30.867c3.927,-4.547 8.562,-7.793 14.659,-28.9c5.025,-17.398 4.955,-20.083 6.448,-51.703c0.077,-1.632 0.451,-2.335 -1.18,-2.329c-0.874,0.003 -0.905,-0.013 -1.5,0.641c-2.743,3.016 -11.409,11.227 -12.419,12.185c-4.315,4.089 -15.12,12.838 -19.969,15.452c-0.935,0.504 -18.027,10.214 -18.049,10.226c-27.071,14.594 -26.993,14.769 -36.305,18.526c-17.188,6.935 -16.776,8.404 -28.752,10.149c-4.503,0.656 -29.261,8.801 -46.125,15.519c-28.495,11.352 -34.082,9.061 -61.26,14.826c-23.771,5.042 -23.989,3.788 -47.741,8.895c-6.882,1.48 -6.804,1.951 -10.88,5.929c-4.818,4.701 -6.058,0.772 -18.97,2.232c-6.53,0.738 -26.528,2.353 -33.865,3.749c-14.068,2.677 -14.301,1.041 -47.657,6.56c-3.104,0.514 -35.051,4.129 -38.075,4.324c-14.909,0.964 -18.533,2.262 -29.953,2.502c-37.892,0.796 -37.897,1.018 -50.325,-0.248c-9.379,-0.956 -27.009,3.22 -53.121,-2.311c-9.401,-1.991 -55.47,-9.322 -63.841,-10.036c-32.038,-2.733 -42.425,-7.621 -65.314,-10.613c-29.125,-3.807 -64.044,-17.47 -71.819,-21.078c-17.937,-8.324 -34.576,-14.955 -39.916,-19.577c-11.283,-9.768 -11.798,-11.961 -12.083,-12.459c-3.594,-6.28 -5.467,-7.315 -9.769,-10.487c-6.27,-4.624 -5.312,-5.539 -10.113,-11.658c-6.763,-8.619 -9.129,-14.578 -12.352,-18.943c-1.459,-1.977 -1.48,-1.938 -2.975,-3.906c-10.387,-13.678 -15.502,-34.361 -18.355,-41.868c-2.787,-7.334 -2.221,-7.525 -2.558,-8.117c-0.162,-0.285 -0.644,-0.158 -0.933,-0.314c-0.315,-0.17 -0.498,-0.687 -0.854,-0.65c-0.523,0.054 -0.891,2.99 -0.925,3.259c-1.332,10.637 -6.571,25.655 -8.01,35.485c-0.438,2.995 -0.995,21.736 -0.589,35.382c0.441,14.783 4.295,42.277 5.529,47.196Zm463.042,168.528c-20.281,5.618 -21.174,3.429 -31.014,6.368c-10.988,3.282 -13.239,4.528 -20.6,2.705c-17.514,-4.338 -19.322,4.034 -28.524,1.154c-5.872,-1.837 -4.668,-6.166 -6.55,-9.79c-1.775,-3.419 -2.976,-4.821 2.659,-13.39c2.463,-3.744 2.831,-3.52 6.849,-12.237c3.908,-8.477 11.296,-14.817 12.523,-15.87c5.075,-4.355 1.486,-7.088 7.724,-16.845c1.455,-2.275 5.145,-6.034 9.506,-5.869c6.885,0.261 11.875,7.667 16.52,12.426c6.765,6.931 5.816,7.721 12.394,14.848c6.96,7.542 6.739,9.032 10.754,13.725c5.317,6.214 7.655,6.151 11.92,9.818c3.668,3.153 9.531,4.722 6.965,9.492c-0.855,1.589 -1.337,1 -11.128,3.464Zm215.242,-67.301c3.151,-4.208 3.19,-4.167 3.454,-4.539c0.317,-0.447 3.175,-5.532 5.888,-6.484c5.024,-1.763 9.237,3.221 9.781,3.864c11.634,13.761 12.987,20.113 16.123,27.383c1.623,3.763 8.533,9.477 2.786,15.124c-3.715,3.65 -9.05,10.086 -13.898,11.576c-6.091,1.872 -19.81,3.529 -21.547,3.738c-10.022,1.21 -12.738,4.864 -24.649,1.278c-8.822,-2.656 -9.747,-0.007 -12.57,-2.654c-2.454,-2.301 0.044,-5.716 0.231,-6.039c4.939,-8.551 10.929,-10.889 17.016,-21.364c7.048,-12.128 8.504,-11.018 17.386,-21.883Zm-159.323,-3.625c0.642,0.122 2.813,0.119 4.569,1.524c3.563,2.851 -0.814,4.912 -2.233,8.598c-0.298,0.773 -0.051,0.851 -3.452,9.767c-9.561,25.066 -11.933,25.028 -16.303,32.698c-5.116,8.978 -10.958,5.892 -15.218,3.931c-0.276,-0.127 -4.178,-0.747 -12.368,-12.143c-8.21,-11.424 -7.086,-12.376 -16.71,-21.3c-3.308,-3.068 -13.033,-9.693 -7.897,-14.432c2.505,-2.311 5.958,-0.961 9.85,-2.218c7.098,-2.293 7.303,-0.888 31.205,-1.572c12.719,-0.364 13.146,1.371 20.593,-2.324c3.792,-1.881 3.799,-1.876 7.964,-2.528Zm-46.26,21.028c0.237,-0.248 0.675,-0.23 0.911,-0.478c0.584,-0.612 -0.028,-2.312 -0.758,-2.445c-2.252,-0.409 -2.069,1.736 -2.05,1.962c0.03,0.349 0.366,0.644 0.678,0.803c0.366,0.185 0.853,-0.028 1.219,0.157Zm278.386,-19.177c-1.489,2.713 -1.49,2.712 -2.036,5.743c-0.76,4.221 -4.282,8.237 -7.048,12.182c-3.59,5.12 -10.958,6.607 -13.692,1.45c-2.487,-4.691 -0.991,-6.093 -2.315,-9.701c-0.09,-0.246 -6.297,-14.362 -7.735,-17.253c-1.707,-3.432 -1.904,-3.303 -7.322,-14.016c-1.126,-2.227 -5.625,-6.308 0.099,-10.317c1.883,-1.318 2.132,-0.664 12.029,-2.794c6.248,-1.345 12.313,-0.232 23.112,-2.813c4.018,-0.96 3.995,-0.927 8.029,-1.91c8.414,-2.049 13.145,-4.661 13.858,0.217c0.431,2.951 -0.175,5.269 -12.595,31.233c-1.198,2.504 -2.834,5.082 -4.383,7.979Zm-217.023,22.104c0.842,-1.431 7.022,-11.935 10.743,-17.761c0.414,-0.647 3.529,-5.524 9.314,-2.335c9.636,5.312 9.252,13.449 14.631,19.165c6.282,6.676 6.989,8.054 17.834,26.896c4.52,7.853 1.829,9.766 -0.307,15.036c-2.085,5.145 -1.78,9.569 -8.806,8.998c-6.813,-0.553 -6.806,-0.268 -13.631,-0.032c-8.528,0.295 -9.564,-0.936 -14.915,-0.52c-10.969,0.852 -11.065,-0.393 -21.917,1.502c-12.243,2.137 -10.118,-5.523 -10.487,-7.551c-0.506,-2.779 -3.952,-3.907 0.032,-9.243c8.808,-11.797 5.685,-14.871 17.509,-34.155Zm-215.395,20.492c-5.043,-10.691 -5.532,-11.941 -8.933,-15.365c-6.041,-6.082 -3.161,-8.578 -8.867,-17.143c-4.976,-7.468 -2.267,-11.838 1.846,-11.271c2.535,0.349 2.511,0.897 9.534,0.375c12.703,-0.944 29.636,-0.116 38.032,1.241c13.671,2.21 23.159,-0.738 28.341,2.939c5.513,3.912 2.212,8.727 1.247,10.271c-3.85,6.163 -7.93,19.103 -13.254,23.327c-0.303,0.24 -2.644,2.097 -3.669,3.143c-0.541,0.552 -1.012,1.032 -5.182,8.155c-4.025,6.876 -4.172,6.753 -8.807,13.208c-2.798,3.896 -8.916,6.501 -13.745,4.336c-3.108,-1.394 -11.984,-13.289 -16.544,-23.217Zm-117.79,1.662c-3.587,1.514 -3.539,1.682 -5.883,4.781c-0.17,0.225 -3.641,5.389 -7.683,3.678c-3.322,-1.406 -3.784,-4.455 -5.865,-7.427c-5.637,-8.051 -4.652,-8.842 -11.008,-16.187c-7.486,-8.652 -6.553,-13.785 -15.088,-29.948c-0.711,-1.346 -2.603,-3.629 -3.302,-9.812c-1.036,-9.16 6.454,-8.195 13.239,-8.633c11.207,-0.724 10.807,2.257 21.881,4.054c1.504,0.244 1.541,-0.228 18.88,2.486c10.513,1.645 10.924,0.186 20.584,4.638c8.257,3.805 12.42,-1.073 17.384,3.161c1.742,1.486 1.448,1.927 0.218,3.871c-1.334,2.109 -4.037,3.456 -7.742,9.763c-3.209,5.462 -3.985,4.834 -8.035,9.719c-6.489,7.827 -6.655,7.67 -14.303,14.346c-7.423,6.48 -8.029,8.755 -13.278,11.512Zm48.905,24.79c-14.493,-2.913 -15.269,0.006 -28.685,-6.221c-5.274,-2.448 -6.513,-6.01 -4.558,-8.476c1.353,-1.707 1.573,-1.438 4.092,-3.067c1.567,-1.013 4.693,-4.356 5.361,-5.223c5.93,-7.681 5.939,-7.656 12.634,-14.652c3.379,-3.53 5.114,-6.504 6.62,-8.287c8.2,-9.704 13.453,-10.766 15.469,-11.417c8.673,-2.8 8.586,-3.051 9.354,-3.246c7.889,-2.004 9.415,5.405 16.76,15.972c9.107,13.101 7.423,13.982 13.569,28.7c2.382,5.705 4.425,5.007 7.737,6.991c2.787,1.67 2.184,4.292 1.171,5.202c-0.507,0.456 -3.6,1.36 -3.921,1.454c-6.358,1.859 -6.392,6.041 -13.549,5.402c-16.332,-1.46 -25.583,0.409 -42.054,-3.133Zm380.755,-21.153c-3.708,6.279 -3.242,9.966 -13.633,9.334c-6.202,-0.377 -5.661,-2.957 -15.215,-15.985c-8.39,-11.44 -12.722,-15.076 -16.24,-23.224c-3.15,-7.295 -3.947,-6.841 -7.71,-13.839c-1.272,-2.365 -5.727,-7.672 -1.874,-10.995c1.685,-1.453 2.895,-0.758 9.799,-2.182c13.979,-2.883 24.495,0.887 29.758,-1.844c5.357,-2.781 4.763,-5.164 15.073,-5.055c11.61,0.123 13.591,1.363 20.662,-2.357c10.536,-5.544 14.638,-0.164 15.693,1.122c1.99,2.426 0.399,4.679 0.168,5.006c-3.38,4.785 -2.93,5.038 -6.09,9.971c-3.797,5.925 -4.332,5.547 -7.812,11.646c-3.681,6.451 -8.048,12.13 -12.561,20.958c-0.732,1.433 -3.591,7.026 -10.018,17.445Zm-551.777,-48.714c5.546,-10.558 6.872,-12.396 11.942,-16.361c10.9,-8.525 11.547,-7.45 17.643,-9.325c6.001,-1.846 6.509,0.693 13.006,6.834c8.97,8.479 7.199,13.28 12.477,20.103c2.884,3.729 5.089,6.992 5.09,6.994c10.751,17.638 9.952,21.17 12.214,27.085c1.364,3.567 5.52,6.446 1.312,14.376c-0.742,1.397 -3.038,4.086 -6.151,4.469c-3.408,0.419 -9.558,-2.88 -13.375,-5.795c-10.302,-7.865 -22.382,-8.532 -28.796,-9.203c-16.193,-1.692 -24.451,-10.151 -27.427,-11.847c-2.053,-1.17 -2.178,-0.908 -5.243,-3.089c-5.089,-3.622 -2.086,-11.096 0.497,-14.677c3.445,-4.775 3.762,-4.535 6.811,-9.564Zm-1.619,24.583c2.463,0.964 2.435,1.131 2.64,1.033c1.337,-0.643 0.648,-2.296 0.569,-2.484c-0.333,-0.798 -2.354,-0.815 -2.809,0.101c-0.209,0.421 -0.192,0.93 -0.4,1.35Zm769.636,188.706c12.886,-10.638 14.716,-12.614 16.707,-14.572c21.52,-21.154 22.836,-22.2 22.908,-34.413c0.041,-6.953 1.37,-7.307 -1.857,-13.444c-3.258,-6.196 -6.432,-11.853 -20.219,-20.367c-13.673,-8.444 -13.211,-9.208 -19.127,-11.995c-1.627,-0.767 -18.801,-8.857 -20.383,-9.499c-10.081,-4.093 -10.781,-2.061 -22.805,-7.538c-0.573,-0.261 -6.08,-2.769 -7.174,-3.253c-14.676,-6.49 -15.314,-4.272 -30.945,-7.789c-8.984,-2.021 -9.528,-2.189 -13.957,1.455c-14.749,12.134 -16.454,9.936 -31.109,23.363c-8.44,7.733 -17.934,11.636 -27.24,18.978c-12.249,9.665 -19.089,10.685 -25.946,14.704c-17.129,10.038 -26.451,13.266 -32.197,15.864c-15.823,7.155 -16.342,5.982 -31.687,14.108c-13.589,7.197 -39.027,12.176 -48.776,12.132c-11.935,-0.054 -20.945,2.719 -29.891,3.524c-10.251,0.922 -10.237,0.812 -20.492,1.92c-26.285,2.837 -32.13,2.334 -46.185,2.377c-23.505,0.071 -24.15,2.631 -39.447,2.755c-12.977,0.105 -12.844,2.066 -25.841,1.982c-28.656,-0.183 -28.679,0.591 -35.306,-0.32c-8.162,-1.121 -8.171,-0.677 -16.374,-1.014c-2.305,-0.095 -7.079,-0.291 -28.51,-4.299c-17.023,-3.184 -24.109,-1.581 -35.459,-3.499c-5.817,-0.983 -30.98,-4.16 -59.641,-16.926c-9.869,-4.396 -10.177,-3.397 -20.672,-6.041c-8.447,-2.128 -22.423,-8.78 -22.804,-8.977c-8.37,-4.351 -8.238,-4.542 -12.823,-7.085c-3.34,-1.852 -19.1,-8.586 -36.881,-24.551c-6.504,-5.84 -17.795,-11.381 -29.579,-23.524c-5.506,-5.674 -5.526,-6.59 -13.429,-6.696c-17.35,-0.233 -17.296,1.067 -20.008,2.992c-2.352,1.67 -4.013,1.841 -8.521,2.404c-26.716,3.333 -31.799,7.252 -38.175,13.305c-11.628,11.037 -12.207,10.505 -15.586,15.47c-9.636,14.161 -10.249,13.814 -14.74,23.827c-1.026,2.288 -4.254,5.053 -1.929,9.566c1.695,3.291 2.153,3.102 5.14,12.4c3.26,10.148 2.098,13.148 14.836,24.605c8.037,7.228 12.335,10.295 13.472,11.107c17.729,12.649 17.884,12.453 23.271,14.807c12.895,5.636 13.348,4.885 24.656,13.293c10.501,7.808 14.684,7.179 32.413,12.792c24.465,7.746 25.776,3.842 48.953,14.845c8.682,4.122 28.368,9.403 28.649,9.47c7.98,1.898 27.54,4.066 29.953,4.223c14.799,0.964 25.958,2.497 58.528,3.019c15.643,0.251 18.105,1.22 32.645,1.529c17.725,0.376 17.649,1.32 35.347,1.971c33.796,1.243 33.785,1.455 36.725,1.487c20.485,0.225 68.169,-1.819 77.676,0.545c12.579,3.127 12.74,-1.298 25.664,-0.404c1.631,0.113 17.576,1.215 20.374,1.539c12.163,1.409 20.735,-0.894 25.885,-1.054c4.795,-0.148 4.763,-0.178 9.565,-0.606c7.541,-0.672 8.802,0.896 14.885,1.517c2.386,0.244 3.451,0.353 29.98,-0.075c10.932,-0.176 10.82,-1.412 21.737,-2.039c6.916,-0.397 6.781,-1.364 13.666,-1.966c0.287,-0.025 0.309,0.248 24.412,-3.33c11.577,-1.719 14.156,1.814 32.634,-2.678c32.448,-7.89 32.517,-7.584 35.331,-8.299c11.941,-3.037 12.446,-1.624 20.48,-3.758c7.445,-1.977 26.633,-12.529 40.893,-17.446c18.68,-6.441 45.3,-20.063 47.35,-21.021c19.765,-9.243 19.871,-8.998 21.567,-9.848c12.814,-6.42 17.985,-10.438 19.412,-11.547Zm-414.936,-576.086c13.905,2.678 13.938,2.962 17.79,2.31c7.517,-1.273 10.783,-2.251 19.085,-0.607c7.155,1.417 32.705,-1.781 65.238,-0.057c5.752,0.305 5.683,1.168 19.021,1.359c1.63,0.023 19.45,-0.734 50.279,4.726c23.374,4.14 27.733,5.469 30.083,6.186c12.182,3.714 11.86,4.686 24.197,7.887c2.838,0.736 11.572,3.726 20.487,5.19c17.8,2.923 18.999,6.222 28.571,9.302c15.235,4.901 15.243,8.791 27.353,14.598c11.561,5.543 20.194,12.32 21.811,13.59c3.134,2.46 3.28,2.223 6.468,4.622c3.389,2.55 3.237,-1.362 6.954,-9.916c6.234,-14.348 13.095,-24.644 20.247,-36.821c2.365,-4.026 2.022,-4.576 -0.861,-8.258c-0.225,-0.287 -3.763,-5.306 -5.862,-7.839c-14.231,-17.164 -16.541,-15.396 -30.93,-24.945c-5.227,-3.469 -26.962,-14.722 -30.082,-16.104c-14.817,-6.563 -14.524,-7.281 -29.939,-12.253c-7.166,-2.311 -12.857,-5.579 -23.12,-6.987c-12.412,-1.702 -11.255,-5.539 -24.642,-8.711c-9.302,-2.204 -9.422,-1.679 -21.746,-5.623c-2.052,-0.657 -22.828,-6.466 -29.787,-7.394c-11.387,-1.519 -11.396,-1.436 -19.185,-3.379c-12.819,-3.198 -16.445,-2.132 -43.458,-4.017c-12.233,-0.854 -22.118,1.438 -51.696,-1.316c-30.983,-2.885 -31.029,-1.348 -54.358,-1.287c-17.678,0.046 -21.38,-1.007 -35.408,0.182c-18.018,1.528 -45.423,-0.552 -56.965,2.431c-9.036,2.336 -9.133,0.447 -16.469,-0.087c-4.252,-0.31 -15.102,0.311 -22.961,2.771c-10.686,3.345 -10.703,3.684 -25.972,3.937c-21.756,0.361 -21.54,2.226 -54.377,8.054c-10.797,1.916 -10.958,1.807 -46.123,13.853c-11.847,4.058 -20.91,8.642 -29.999,12.003c-12.809,4.736 -26.27,12.757 -34.194,17.285c-8.047,4.598 -26.799,18.404 -28.145,19.578c-10.698,9.328 -10.408,9.622 -16.839,15.754c-5.262,5.017 -9.613,7.801 -19.852,28.964c-1.987,4.108 -1.928,4.106 -4.057,8.155c-7.117,13.53 -3.66,14.647 -8.354,29.805c-3.072,9.92 -3.372,17.427 -3.434,18.968c-0.243,6.084 0.995,8.487 -0.264,15.094c-0.285,1.494 -2.954,8.424 3.568,29.802c2.774,9.092 5.553,11.306 7.049,16.241c4.605,15.189 4.482,15.355 14.262,30.285c2.712,4.14 8.313,13.583 8.347,13.635c0.603,0.915 0.52,1.35 1.585,1.043c0.306,-0.088 0.381,-0.511 0.584,-0.756c0.171,-0.208 0.523,-0.334 0.537,-0.603c0.063,-1.216 -4.731,-10.23 0.523,-13.064c3.376,-1.821 2.39,-2.71 3.033,-7.245c3,-21.16 4.227,-20.89 8.541,-35.555c2.794,-9.497 1.064,-10.776 9.775,-24.457c1.739,-2.731 4.239,-6.151 8.386,-10.711c4.497,-4.945 12.909,-18.685 29.917,-25.728c11.998,-4.968 12.051,-8.258 18.858,-11.275c7.077,-3.137 7.369,-2.409 15.181,-6.368c18.587,-9.421 19.863,-6.226 28.646,-10.691c7.985,-4.06 15.398,-9.491 32.367,-12.986c24.125,-4.969 23.07,-9.131 51.834,-14.202c19.974,-3.521 26.096,-4.616 34.163,-8.054c14.74,-6.281 29.814,-9.176 32.477,-9.687c4.502,-0.864 23.857,-3.717 25.824,-3.888c1.08,-0.094 1.082,0.03 13.508,-1.045c6.984,-0.604 7.55,-1.824 24.478,-2.824c4.996,-0.295 15.037,-2.098 16.336,-2.331c8.23,-1.477 19.984,-0.657 21.718,-0.536Zm509.343,-72.518c0.536,-1.527 5.098,-14.534 6.294,-19.229c2.605,-10.223 -1.287,-18.957 -1.337,-19.096c-1.813,-5.045 -3.641,-6.434 -12.503,-14.743c-5.735,-5.377 -10.742,-7.397 -12.215,-7.964c-6.185,-2.38 -9.84,2.216 -19.05,7.522c-8.174,4.709 -10.747,2.63 -24.831,23.052c-4.1,5.945 -4.174,5.859 -8.579,11.558c-4.761,6.159 -15.679,27.981 -20.704,39.167c-0.697,1.553 -3.654,8.133 -10.027,18.765c-6.616,11.037 -8.466,17.465 -11.146,23.014c-14.64,30.312 -16.273,29.433 -22.822,42.316c-7.639,15.028 -9.753,14.79 -22.971,44.97c-6.79,15.502 -4.832,20.907 -9.78,29.776c-4.015,7.198 -5.997,17.797 -9.975,30.295c-4.155,13.053 -5.593,14.917 -0.182,19.941c9.135,8.479 8.219,9.417 9.188,9.895c2.063,1.017 3.327,-0.419 5.738,-2.483c9.546,-8.174 9.389,-8.304 18.567,-16.86c3.194,-2.977 3.239,-2.879 6.488,-5.82c10.712,-9.694 10.657,-11.442 17.833,-20.086c11.953,-14.399 30.784,-32.317 36.586,-40.87c10.117,-14.913 22.272,-30.798 32.306,-46.91c3.316,-5.325 5.134,-6.822 21.032,-33.106c8.642,-14.287 7.341,-20.255 14.837,-34.044c5.114,-9.406 13.865,-28.928 17.253,-39.059Zm-646.229,316.828c-4.589,13.633 -8.615,15.104 -0.189,25.548c6.312,7.823 8.225,11.768 21.671,16.081c9.409,3.018 10.194,-0.076 22.799,4.971c4.736,1.896 5.179,3.323 21.794,-2.317c14.655,-4.974 14.673,-12.468 23.419,-19.751c4.471,-3.723 4.452,-3.729 8.385,-8.033c1.959,-2.144 5.954,-5.122 4.629,-6.788c-0.684,-0.86 -2.054,-0.226 -2.215,-0.152c-2.455,1.136 -4.909,5.637 -12.205,-0.275c-9.808,-7.948 -7.426,-9.758 -14.717,-29.932c-0.316,-0.874 -3.688,-10.205 -4.445,-10.726c-0.164,-0.113 -1.234,-0.85 -2.487,0.186c-0.772,0.639 -0.294,1.02 -7.798,9.803c-3.792,4.439 -4.002,4.197 -8.339,8.078c-3.685,3.298 -4.097,2.606 -9.995,4.796c-1.164,0.432 -7.922,4.401 -19.342,-4.718c-7.121,-5.686 -6.957,-13.421 -11.878,-11.421c-3.673,1.492 -4.499,8.504 -9.087,24.65Zm311.089,-68.141c1.287,2.584 1.265,2.608 1.376,2.677c0.647,0.402 2.104,0.083 2.23,-0.135c0.426,-0.734 -0.57,-3.988 -1.206,-5.087c-0.074,-0.129 -0.805,-1.39 -1.074,-1.517c-0.168,-0.079 -2.298,-1.081 -2.035,1.122c0.27,2.259 0.576,2.385 0.709,2.939Zm-412.137,18.588c-1.099,0.156 -2.182,-0.283 -6.659,2.12c-0.425,0.228 -3.667,1.968 -5.243,2.981c-7.317,4.703 -13.898,5.894 -18.013,11.704c-6.482,9.151 -2.661,12.276 6.89,16.019c7.858,3.08 11.177,-3.585 19.355,-12.947c6.841,-7.831 14.577,-12.663 8.849,-17.766c-2.137,-1.904 -2.374,-1.481 -5.179,-2.111Zm367.098,-49.505c-4.947,-1.839 -6.791,-2.763 -9.659,-0.755c-4.968,3.477 -3.872,4.83 -3.053,8.686c2.66,12.535 -7.861,9.721 -8.444,16.236c-0.568,6.349 2.044,8.427 3.399,9.7c4.634,4.353 6.822,3.858 8.331,3.668c9.827,-1.24 14.813,-5.995 18.74,-20.312c1.41,-5.142 1.692,-5.02 2.725,-8.16c1.779,-5.402 -2.853,-6.261 -12.039,-9.063Zm-161.605,-47.466c2.911,-0.768 4.867,-1.153 7.033,-2.679c4.219,-2.973 7.41,-4.145 7.498,-5.985c0.093,-1.953 -0.548,-1.72 -1.836,-3.207c-5.63,-6.503 -6.682,-8.404 -11.415,-7.454c-4.865,0.976 -4.864,0.834 -9.561,0.81c-9.812,-0.052 -11.055,10.41 -8.636,14.202c3.371,5.287 5.232,7.459 16.916,4.314Zm-59.812,95.01c-7.007,4.075 -17.753,11.733 -17.757,17.39c-0.002,3.495 4.467,11.173 7.985,10.405c1.758,-0.384 5.588,-3.171 6.371,-4.097c1.187,-1.404 4.552,-6.415 8.882,-11.592c3.327,-3.979 6.708,-9.587 6.718,-9.646c0.028,-0.175 0.231,-1.424 -0.603,-2.128c-0.481,-0.406 -5.571,-2.642 -8.9,-1.564c-0.226,0.073 -0.2,0.091 -2.696,1.234Zm314.435,-74.846c3.027,-4.476 3.674,-4.394 3.225,-5.641c-0.501,-1.39 -0.845,-2.344 -17.387,-6.22c-12.419,-2.91 -12.376,-3.053 -13.459,-3.285c-7.44,-1.596 -10.893,7.099 -9.6,10.848c0.355,1.029 2.157,2.886 2.375,3.111c9.824,10.12 13.159,13.257 15.378,13.466c3.987,0.377 13.442,-6.477 13.846,-6.795c4.09,-3.227 4.027,-3.306 5.622,-5.484Zm-215.297,28.223c-0.956,0.014 -4.126,-2.159 -9.757,8.117c-0.092,0.167 -3.54,3.532 2.46,11.362c6.324,8.252 8.895,9.287 11.392,5.104c3.219,-5.392 6.998,-14.91 8.725,-18.795c0.796,-1.79 4.034,-5.901 -1.943,-5.6c-6.159,0.31 -6.149,0.261 -10.877,-0.188Zm314.188,-39.356c0.505,-1.371 2.412,-5.913 1.036,-6.339c-1.569,-0.487 -2.442,1.912 -2.533,2.163c-0.171,0.47 -2.718,5.699 -1.087,6.655c0.869,0.51 0.956,0.19 1.526,-0.63c0.184,-0.264 0.47,-0.453 0.63,-0.733c0.198,-0.346 0.229,-0.77 0.427,-1.116Zm-52.95,85.975c-13.352,3.906 -19.156,3.595 -20.918,7.665c-1.468,3.392 2.013,6.589 5.867,6.834c4.856,0.309 8.167,-0.956 17.796,2.557c6.237,2.276 6.74,1.543 11.781,-2.786c2.4,-2.061 6.136,-5.981 6.853,-7.86c0.916,-2.402 -2.855,-5.938 -5.071,-8.145c-3.359,-3.345 -4.901,-1.798 -12.223,0.395c-0.567,0.17 -0.575,0.102 -4.085,1.339Zm-237.936,-81.86c0.185,0.333 -0.012,0.797 0.173,1.13c0.098,0.176 0.886,1.597 2.495,0.34c1.697,-1.325 -0.097,-2.505 -0.273,-2.621c-1.028,-0.677 -1.852,0.203 -1.96,0.319c-0.214,0.229 -0.22,0.604 -0.434,0.833Zm-443.58,210.782c0.429,0.977 0.293,1.022 0.851,1.938c0.65,1.069 0.79,1.46 1.863,0.791c1.005,-0.627 0.521,-5.662 -1.323,-5.772c-0.184,-0.011 -1.503,-0.09 -1.594,1.666c-0.024,0.463 0.227,0.913 0.203,1.376Zm463.696,-175.358c-1.058,-1.079 -1.963,-1.883 -2.14,-2.04c-4.229,-3.757 -6.954,2.57 -7.167,3.339c-1.844,6.654 10.928,23.039 12.346,24.132c1.855,1.429 6.256,0.547 7.689,-0.231c3.066,-1.665 12.644,-12.114 9.706,-15.724c-4.745,-5.831 -12.949,-2.188 -20.435,-9.475Zm99.518,33.982c-4.611,7.621 -3.531,8.81 -5.828,11.982c-5.566,7.69 -11.159,6.425 -18.773,7.099c-9.557,0.846 -9.954,0.777 -10.808,0.628c-4.884,-0.85 -9.659,-6.596 -12.159,-5.64c-1.786,0.684 -5.646,5.364 -6.395,6.63c-7.577,12.816 -9.274,17.846 -0.323,22.262c8.354,4.12 8.756,3.142 33.754,3.227c10.211,0.035 10.161,-0.967 20.391,-0.861c3.784,0.039 5.124,0.946 8.079,-4.654c0.985,-1.867 12.298,-19.521 11.749,-22.986c-0.167,-1.053 -0.289,-1.007 -7.255,-11.174c-4.609,-6.727 -7.733,-13.785 -10.915,-9.122c-0.136,0.199 -0.101,0.217 -1.519,2.608Zm-64.071,63.07c-3.435,0.192 -3.468,-0.149 -6.804,0.692c-1.856,0.468 -2.685,0.952 -2.898,1.077c-6.252,3.65 -9.758,9.1 -10.384,10.073c-6.098,9.479 -4.256,17.042 -2.075,20.47c3.414,5.367 6.045,6.015 12.679,5.82c10.046,-0.296 9.901,-1.67 27.21,-2.955c13.16,-0.977 38.482,-4.969 42.153,-5.747c11.469,-2.432 12.643,-3.154 12.792,-8.224c0.258,-8.821 -0.971,-12.633 -15.481,-16.524c-21.362,-5.729 -23.151,-1.437 -34.043,-2.656c-10.422,-1.167 -10.383,-1.351 -23.149,-2.026Zm113.388,-64.529c-0.18,4.198 -0.388,4.149 -1.425,8.23c-0.063,0.247 -0.775,3.048 0.889,3.053c1.827,0.005 1.223,-0.87 1.946,-2.524c0.102,-0.233 0.153,-0.205 1.359,-2.874c1.409,-3.12 5.487,-8.205 8.496,-14.266c3.548,-7.146 4.146,-6.773 8.254,-13.598c0.606,-1.007 5.348,-9.617 6.446,-9.983c2.102,-0.702 3.591,0.516 7.558,0.73c5.919,0.32 9.651,0.092 11.091,8.098c1.009,5.61 1.339,5.513 2.749,9.46c1.515,4.242 0.841,10.146 6.655,8.608c4.357,-1.153 17.717,-4.427 19.882,-8.73c1.993,-3.96 1.009,-6.269 0.795,-6.77c-1.151,-2.701 -5.688,-3.495 -9.478,-12.224c-1.884,-4.339 -2.927,-4.787 -15.317,-5.845c-8.838,-0.754 -12.378,-0.12 -23.32,2.907c-5.85,1.618 -5.449,3.304 -20.187,4.967c-6.546,0.738 -9.849,2.086 -12.441,4.83c-3.868,4.097 2.33,4.3 5.141,17.882c0.938,4.53 0.824,6.589 0.907,8.049Zm-95.81,-104.803c0.185,-0.24 2.137,-2.779 2.293,-3.015c9.267,-14 5.877,-15.312 3.858,-18.982c-6.64,-12.071 -3.789,-18.688 -7.397,-18.429c-0.679,0.049 -0.631,0.141 -8.047,2.753c-6.842,2.41 -11.929,7.903 -12.835,8.637c-11.11,9.011 -12.521,11.569 -16.427,16.384c-3.513,4.331 -4.355,4.135 -4.004,6.151c0.368,2.108 8.188,0.626 14.371,4.834c9.578,6.52 6.116,10.777 6.955,12.509c0.073,0.15 1.802,0.648 2.428,0.52c0.16,-0.033 6.537,-4.681 12.239,-6.902c3.788,-1.476 3.921,-1.383 6.566,-4.46Zm-271.943,119.227c2.231,-0.164 16.227,-0.101 26.152,-5.719c9.989,-5.655 9.422,-11.373 9.696,-12.674c0.684,-3.254 3.902,-9.879 -1.871,-10.451c-9.17,-0.91 -8.784,-2.834 -12.239,-11.371c-0.61,-1.508 -1.673,-4.395 -6.62,-1.194c-4.511,2.92 -2.889,4.441 -6.799,8.097c-3.698,3.457 -13.428,10.326 -14.659,11.303c-11.179,8.872 -11.833,12.984 -12.069,14.473c-0.151,0.947 0.26,7.86 0.402,8.267c0.92,2.636 2.086,0.433 18.008,-0.731Zm606.64,-47.061c0.516,-0.482 3.483,-3.006 3.586,-3.136c2.24,-2.817 0.654,-18.121 -2.456,-26.683c-3.577,-9.848 -4.949,-12.481 -5.488,-13.516c-2.519,-4.833 -4.986,0.427 -5.397,1.013c-6.157,8.765 -7.216,8.826 -13.531,14.95c-5.899,5.72 -5.72,5.867 -10.909,12.26c-7.276,8.964 -7.929,8.37 -14.065,16.022c-2.256,2.813 -0.303,3.073 2.354,8.472c7.253,14.739 4.9,29.042 4.874,31.476c-0.02,1.897 1.421,1.844 1.617,1.837c1.15,-0.042 0.964,-0.445 2.682,-1.909c8.429,-7.186 8.309,-7.294 16.27,-15.008c11.349,-10.998 10.664,-14.127 20.463,-25.779Zm-625.58,-49.547c-0.764,-0.087 -7.274,-0.83 -9.585,-0.7c-8.888,0.499 -15.55,12.125 -17.402,16.377c-1.496,3.436 -2.526,13.776 -2.275,21.67c0.093,2.921 0.729,4.682 7.44,4.137c10.865,-0.883 11.719,1.049 13.485,-1.514c1.471,-2.134 -0.682,-3.388 9.388,-16.429c6.849,-8.869 6.449,-9.366 7.512,-17.432c0.826,-6.266 -3.582,-5.766 -8.564,-6.109Zm120.625,-0.542c-2.788,-4.715 -1.301,-5.047 -0.809,-8.376c0.353,-2.391 -1.254,-2.356 -1.476,-2.351c-0.21,0.005 -0.3,0.203 -3.891,2.758c-0.766,0.545 -0.75,0.522 -1.541,1.074c-10.692,7.456 -10.627,13.181 -11.278,21.616c-2.019,26.153 -2.217,32.085 -0.619,36.6c1.429,4.039 7.575,13.851 8.677,15.389c2.038,2.842 11.209,15.558 19.463,15.678c7.249,0.105 6.142,-2.672 17.444,-14.819c11.486,-12.345 11.477,-13.503 16.18,-17.878c9.279,-8.631 7.974,-10.886 6.404,-17.413c-0.96,-3.988 -2.22,-9.934 -3.33,-10.706c-1.277,-0.887 -5.07,0.388 -6.894,0.776c-1.823,0.388 -14.115,3.002 -23.234,-1.701c-2.609,-1.345 -4.873,-2.274 -8.238,-8.451c-3.36,-6.166 -3.268,-6.185 -6.857,-12.196Zm1.791,-483.128c3.459,4.094 6.371,5.76 10.393,19.233c0.255,0.856 2.506,6.2 -0.061,18.833c-1.987,9.776 -6.145,16.746 -13.945,27.675c-0.857,1.201 -5.704,7.991 -12.41,13.647c-6.285,5.3 -17.58,6.315 -23.271,1.998c-1.528,-1.159 -8.177,-7.687 -9.661,-9.313c-7.425,-8.139 -9.62,-17.198 -10.022,-18.859c-3.426,-14.146 -3.217,-14.245 -2.43,-20.53c0.344,-2.748 0.341,-6.022 2.483,-10.977c0.129,-0.299 1.481,-3.426 1.29,-3.858c-0.595,-1.338 -1.851,-0.908 -2.017,-0.851c-0.017,0.006 -3.653,3.569 -3.971,3.879c-8.606,8.432 -7.717,9.195 -9.52,16.013c-1.947,7.36 -3.817,6.656 -9.958,25.716c-4.309,13.375 -4.265,13.371 -7.047,27.162c-1.66,8.231 -1.88,8.165 -3.231,16.474c-3.75,23.067 -10.775,24.523 -11.201,24.784c-3.061,1.883 -13.137,8.832 -12.942,-3.126c0.18,-11.053 1.692,-10.838 5.942,-32.626c1.458,-7.477 1.758,-7.402 2.724,-14.963c1.118,-8.749 4.48,-12.298 16.626,-48.859c5.076,-15.279 7.382,-15.31 13.46,-18.76c10.041,-5.7 16.607,-14.283 25.589,-16.935c6.264,-1.849 7.316,-1.186 15.302,-4.637c3.887,-1.68 4.801,-2.197 17.45,-0.949c0.105,0.01 9.906,1.413 13.908,3.778c3.166,1.871 3.093,2.153 6.52,6.049Zm-21.879,3.028c-1.357,-0.129 -6.299,-1.261 -9.494,2.453c-1.84,2.139 -6.803,6.506 -10.951,21.759c-2.771,10.189 -2.551,11.797 -1.521,15.066c3.015,9.563 2.215,14.34 10.88,23.293c2.619,2.706 3.41,2.855 6.189,0.315c4.357,-3.982 12.875,-11.522 18.122,-27.9c3.531,-11.02 0.673,-21.877 -4.783,-28.613c-5.126,-6.328 -6.02,-5.568 -8.441,-6.373Zm430.712,150.704c0.403,-5.61 1.188,-7.303 -0.909,-7.078c-0.651,0.07 -1.987,1.826 -2.929,2.694c-4.387,4.044 -7.319,5.083 -8.047,5.341c-8.377,2.969 -20.176,-5.029 -26.756,-12.102c-2.765,-2.973 -6.251,-10.881 -6.986,-14.693c-1.15,-5.964 -3.156,-11.213 2.533,-21.781c2.061,-3.828 9.47,-13.045 15.255,-17.322c15.643,-11.566 31.762,4.52 32.536,4.897c0.166,0.081 1.505,0.734 2.303,-0.021c0.461,-0.436 0.485,-2.254 0.487,-2.454c0.197,-14.906 -3.678,-16.529 -5.147,-30.005c-1.057,-9.696 -6.557,-8.299 -13.352,-18.601c-4.506,-6.83 2.024,-10.293 4.699,-10.333c4.126,-0.063 12.259,5.621 15.314,8.18c4.991,4.181 7.553,6.675 10.074,20.905c0.983,5.55 4.095,13.515 5.381,19.079c0.365,1.581 1.932,8.359 0.553,20.276c-1.615,13.957 0.811,19.462 -1.533,32.614c-3.148,17.663 0.009,23.201 -5.137,42.239c-0.204,0.753 -2.043,7.557 -8.245,5.211c-3.281,-1.241 -5.815,-7.788 -6.293,-9.475c-0.733,-2.588 -0.926,-2.524 -2.857,-4.417c-2.721,-2.668 -2.018,-3.209 -0.946,-13.155Zm-5.317,-33.024c3.71,-3.459 4.616,-4.655 3.138,-7.779c-1.569,-3.316 -1.243,-3.408 -2.513,-6.878c-0.969,-2.65 -2.712,-5.93 -8.539,-4.497c-4.483,1.102 -12.028,11.155 -13.546,14.083c-7.605,14.667 1.065,21.654 3.031,22.658c5.172,2.641 10.263,-9.395 18.428,-17.587Zm-338.776,-77.278c-0.027,-3.058 0.822,-10.963 -1.966,-21.682c-1.754,-6.744 -7.683,-10.353 -11.174,-10.515c-0.151,-0.007 -8.424,1.258 -12.9,-6.776c-1.971,-3.537 -0.058,-7.647 4.792,-7.838c5.217,-0.205 7.47,0.623 8.08,0.847c1.894,0.696 10.658,3.916 20.293,14.97c0.947,1.087 3.138,2.618 6.912,14.842c0.727,2.355 2.479,11.073 2.181,16.289c-0.546,9.554 -0.995,9.511 -0.847,19.063c0.051,3.298 -1.243,5.662 -1.098,9.515c0.282,7.491 0.6,7.46 0.826,24.494c0.061,4.592 1.508,17.04 -6.478,17.37c-2.09,0.086 -6.725,-1.054 -8.561,-6.332c-1.143,-3.286 -0.526,-4.187 -2.306,-4.185c-2.079,0.002 -3.354,4.456 -14.639,11.374c-5.855,3.589 -9.727,2.51 -20.528,-6.238c-7.935,-6.427 -8.614,-6.052 -12.671,-14.606c-2.773,-5.847 -3.887,-5.792 -4.612,-15.109c-0.691,-8.889 8.952,-16.339 17.738,-28.002c0.299,-0.397 4.99,-5.671 7.453,-10.077c3.32,-5.939 10.879,-7.76 16.718,-4.69c0.048,0.025 5.75,2.515 9.02,6.272c0.142,0.164 1.776,2.041 1.785,2.04c0.111,-0.016 -0.038,-0.223 1.128,-0.826c0.407,-0.211 0.457,0.007 0.853,-0.198Zm-17.144,51.904c0.652,-0.653 4.358,-4.367 7.983,-8.331c3.717,-4.065 1.842,-5.115 1.649,-8.064c-0.146,-2.236 1.488,-8.614 1.931,-9.755c1.151,-2.97 5.572,-5.818 3.022,-10.454c-1.943,-3.532 -5.4,-6.989 -5.942,-7.531c-3.77,-3.77 -5.229,-3.08 -13.131,4.251c-11.271,10.457 -14.431,13.403 -17.012,20.889c-3.731,10.819 1.13,20.99 7.939,25.579c2.969,2.001 4.644,1.933 13.562,-6.583Zm311.931,-63.904c-3.481,18.194 -6.501,18.261 -13.46,34.212c-2.387,5.471 -1.666,6.443 -1.331,6.894c2.443,3.294 11.585,4.583 11.651,11.853c0.033,3.653 -3.12,8.793 -10.813,6.261c-3.21,-1.057 -7.038,-3.833 -8.381,-0.847c-0.042,0.094 -5.946,14.993 -7.801,21.869c-4.686,17.375 -4.739,17.34 -4.908,18.892c-0.768,7.046 6.594,15.699 22.513,3.094c3.797,-3.006 8.539,-6.443 13.489,-0.415c1.191,1.45 3.973,6.287 2.348,9.51c-2.638,5.229 -15.807,15.135 -29.536,11.801c-10.401,-2.525 -14.919,-5.955 -16.029,-6.797c-5.861,-4.449 -7.706,-6.807 -9.943,-14.404c-1.854,-6.297 0.002,-7.755 2.312,-20.468c1.272,-6.998 1.786,-6.855 7.45,-24.335c3.147,-9.71 4.844,-11.461 2.211,-13.324c-1.946,-1.377 -13.998,-7.077 -10.289,-13.773c3.316,-5.985 13.573,0.274 15.955,0.327c2.747,0.061 2.672,-0.862 8.359,-14.037c2.014,-4.667 5.662,-9.349 8.892,-21.952c0.646,-2.519 0.917,-4.023 2.954,-5.656c2.233,-1.79 14.887,-2.953 14.672,8.474c-0.004,0.227 -0.023,0.209 -0.316,2.821Zm-241.064,44.902c-8.348,17.789 -5.409,23.703 -11.326,26.504c-0.761,0.36 -5.184,1.551 -8.065,-3.394c-4.522,-7.765 -6.091,-10.698 4.142,-38.206c1.74,-4.676 1.539,-4.746 2.21,-13.602c0.332,-4.376 -1.97,-11.359 7.396,-11.586c7.893,-0.192 8.497,5.275 8.59,6.113c0.05,0.452 0.023,0.91 0.045,1.365c0.049,0.999 -0.228,1.228 0.662,1.664c0.458,0.224 0.917,0.626 1.423,0.561c0.288,-0.037 8.241,-7.303 24.62,-4.73c14.4,2.263 16.904,8.373 18.866,13.516c1.899,4.975 1.447,11.82 -0.478,25.689c-2.352,16.944 -10.637,23.9 -19.27,43.808c-0.65,1.498 -2.78,9.909 -10.018,8.129c-3.846,-0.946 -9.794,-7.342 -7.092,-15.238c5.884,-17.196 16.14,-26.573 18.341,-33.779c0.326,-1.067 4.989,-19.189 2.629,-24.704c-3.02,-7.056 -18.592,-1.813 -29.011,12.195c-2.76,3.71 -2.737,4.037 -3.665,5.694Zm73.545,-21.612c1.589,-1.826 1.57,-1.804 3.289,-3.488c13.554,-13.283 24.143,-12.779 30.334,-11.35c8.934,2.062 11.077,4.92 12.624,6.037c2.852,2.06 8.605,0.233 10.38,7.242c1.494,5.901 -2.365,10.137 -3.886,12.184c-1.328,1.787 -7.065,7.045 -8.375,7.792c-5.643,3.219 -11.987,-3.48 -12.129,-6.421c-0.193,-3.996 7.827,-8.434 4.578,-11.328c-0.843,-0.751 -10.934,-4.249 -21.902,8.806c-8.785,10.456 -13.872,33.576 -4.964,42.597c6.251,6.33 9.468,5.858 12.7,4.393c5.915,-2.682 9.649,-8.544 11.441,-9.981c4.372,-3.506 16.215,1.233 8.895,12.96c-11.389,18.246 -24.72,11.998 -28.162,10.631c-14.964,-5.941 -19.452,-12.605 -22.848,-18.869c-5.381,-9.924 -4.624,-22.953 -1.425,-32.292c4.597,-13.418 5.109,-13.689 9.449,-18.915Zm72.222,24.425c2.609,-5.813 3.447,-6.653 3.668,-6.979c3.567,-5.275 13.112,-3.544 14.82,1.389c1.128,3.258 -0.843,6.856 -1.344,8.073c-2.586,6.287 -4.359,12.711 -8.424,21.63c-5.196,11.4 -5.048,14.128 -12.186,29.952c-8.073,17.898 -6.839,18.46 -9.728,22.931c-4.307,6.665 -8.105,5.601 -8.906,5.376c-5.38,-1.507 -4.427,-5.737 -7.469,-10.082c-3.136,-4.479 -0.159,-7.25 2.045,-12.592c1.899,-4.601 2.115,-4.47 6.43,-12.422c6.991,-12.884 5.213,-13.66 10.293,-24.088c3.704,-7.603 4.069,-7.417 10.801,-23.188Zm20.385,-62.438c0.45,-0.423 0.798,-0.947 1.248,-1.37c5.101,-4.793 14.799,-2.632 17.041,2.538c0.248,0.572 1.327,3.061 -1.62,7.617c-2.709,4.187 -2.708,4.172 -6.022,11.383c-4.825,10.499 -14.01,2.984 -15.995,-1.65c-2.069,-4.83 1.704,-13.627 5.348,-18.517Z" style="fill:#197367;"/></g></g></svg>