<?xml version="1.0" encoding="UTF-8" standalone="no"?><!DOCTYPE svg PUBLIC "-//W3C//DTD SVG 1.1//EN" "http://www.w3.org/Graphics/SVG/1.1/DTD/svg11.dtd"><svg width="100%" height="100%" viewBox="0 0 1080 736" version="1.1" xmlns="http://www.w3.org/2000/svg" xmlns:xlink="http://www.w3.org/1999/xlink" xml:space="preserve" xmlns:serif="http://www.serif.com/" style="fill-rule:evenodd;clip-rule:evenodd;stroke-linejoin:round;stroke-miterlimit:2;"><rect id="img1" x="0" y="0" width="1080" height="736" style="fill:none;"/><clipPath id="_clip1"><rect x="0" y="0" width="1080" height="736"/></clipPath><g clip-path="url(#_clip1)"><g id="Gemini_Generated_Image_3oio2w3oio2w3oio.png"><path d="M724.963,526.114c-1.667,-1.279 -8.519,-6.535 -10.404,-24.109c-5.045,-47.051 7.424,-51.317 54.767,-52.487c4.901,-0.121 1.956,-9.183 5.097,-21.051c12.274,-46.377 20.992,-51.07 31.833,-61.687c7.827,-7.666 20.31,-7.509 10.616,-10.921c-7.09,-2.495 -6.353,0.948 -11.235,6.898c-17.57,21.413 -19.634,19.646 -20.528,21.873c-8.539,21.249 -49.291,11.08 -55.555,-0.493c-5.745,-10.615 -10.009,-1.123 -7.792,6.277c5.153,17.193 -17.005,11.228 -23.188,19.342c-43.357,56.894 -47.558,73.846 -48.291,75.468c-19.613,43.366 -20.28,55.846 -23.045,64.377c-23.501,72.508 -20.349,73.112 -28.471,109.203c-2.426,10.782 2.551,35.052 -5.396,39.875c-13.471,8.175 -8.646,-7.672 -7.932,-15.022c3.58,-36.847 3.952,-36.562 12.399,-72.532c0.771,-3.284 -10.481,-1.412 -14.934,-1.973c-57.785,-7.284 -50.994,-30.5 -50.074,-60.831c0.132,-4.351 -70.599,2.434 -70.94,-15.461c-0.83,-43.685 25.353,-107.87 23.15,-111.225c-37.041,-56.422 82.396,-97.61 126.883,-53.095c31.801,31.821 4.47,111.584 10.747,125.963c6.689,15.323 14.978,-3.499 15.5,-4.684c23.649,-53.699 56.553,-85.068 57.106,-88.852c3.089,-21.147 14.209,-12.982 20.516,-20.19c9.62,-10.996 10.085,-10.671 10.343,-11.906c5.985,-28.73 -0.876,-29.292 5.419,-62.748c1.52,-8.078 -48.185,0.665 -20.392,-23.777c1.74,-1.53 -0.873,-5.237 -1.189,-11.87c-1.373,-28.841 11.041,-21.923 19.085,-22.385c5.094,-0.292 -7.4,-5.684 -11.384,-10.143c-3.249,-3.636 0.797,-36.36 7.101,-51.509c6.636,-15.947 40.273,-23.407 43.388,-22.978c27.32,3.759 -42.828,-19.94 -27.27,-33.029c9.436,-7.939 29.656,7.022 31.773,8.589c10.609,7.85 11.859,15.032 17.294,7.101c8.486,-12.383 37.075,-16.735 48.177,-13.149c52.181,16.857 37.291,47.094 34.684,59.188c-1.619,7.511 25.739,31.672 24.424,52.177c-5.025,78.34 -23.95,77.2 -67.275,85.928c-23.268,4.687 -2.167,23.013 6.777,19.191c44.643,-19.076 46.201,-6.314 101.081,4.59c5.745,1.141 15.799,7.82 18.042,8.655c9.301,3.461 7.635,5.731 15.715,11.682c19.043,14.026 24.746,42.941 30.605,41.471c16.466,-4.13 7.822,6.439 7.133,6.824c-6.068,3.394 -0.04,6.06 3.539,13.95c34.795,76.695 36.774,76.111 42.544,108.117c2.137,11.853 32.641,66.121 22.559,75.904c-10.317,10.012 -6,-9.752 -15.639,-29.416c-0.869,-1.773 -3.451,-1.857 -2.73,2.165c2.449,13.65 -0.565,16.522 -9.577,28.864c-4.467,6.118 -1.513,8.216 -23.434,32.493c-27.819,30.807 -85.815,20.529 -87.228,21.17c-5.958,2.705 13.012,45.821 10.873,50.634c-10.07,22.658 -25.278,-47.781 -31.463,-66.608c-7.229,-22.004 -14.909,-8.257 -27.252,-2.71c-37.883,17.025 -124.772,6.651 -128.131,6.37c-26.328,-2.203 -22.911,-9.757 -42.541,-27.638c-9.847,-8.97 -4.444,-56.64 -1.092,-60.07c7.34,-7.51 -1.733,-6.014 -10.841,-11.207c-12.074,-6.883 -8.154,-29.513 14.195,-36.349c1.153,-0.975 0.571,-1.315 1.859,-2.231Zm212.228,25.734c-2.887,-52.01 -26.87,-118.442 -30.135,-121.087c-9.544,-7.731 -11.155,-24.078 -23.848,-33.1c-0.907,-0.645 -10.294,-7.317 -11.735,-7.468c-21.764,-2.28 -22.295,-4.045 -42.481,4.345c-6.978,2.9 -24.248,54.345 -9.331,115.658c5.744,23.608 1.467,32.069 25.662,33.374c23.08,1.246 22.259,5.764 45.16,7.767c39.989,3.497 45.335,10.619 46.708,0.51Zm-64.606,-202.687c-1.66,-0.157 -20.097,-1.902 -20.077,5.605c0.003,1.098 20.849,17.21 24.379,21.795c15.573,20.231 18.821,17.296 33.114,38.361c8.001,11.792 41.739,-2.845 63.61,-0.035c21.336,2.741 3.133,-15.67 1.55,-18.801c-13.266,-26.232 -39.786,-36.186 -102.576,-46.926Zm-319.445,58.854c-35.232,25.956 9.894,24.865 25.943,16.275c0.784,-0.42 13.209,-7.069 11.103,-0.617c-2.53,7.752 -13.055,0.816 -14.046,15.423c-0.302,4.443 -1.295,4.238 -10.648,54.642c-7.013,37.791 -6.555,43.571 -20.239,51.537c-1.616,0.941 -8.257,35.385 10.687,46.45c20.949,12.236 43.468,9.465 44.506,7.451c4.031,-7.821 18.038,-55.457 19.469,-60.322c8.345,-28.379 10.652,-29.176 8.311,-30.032c-12.607,-4.609 -18.244,-3.879 -18.18,-12.77c0.367,-51.137 29.793,-129.256 -41.347,-137.786c-43.591,-5.227 -96.936,20.31 -79.369,52.205c3.03,5.501 5.439,1.228 10.698,4.459c3.88,2.384 45.961,-10.228 54.191,-14.331c20.149,-10.043 22.207,-5.894 21.365,-4.366c-0.978,1.776 -2.989,-1.394 -22.445,11.782Zm247.031,-162.889c4.28,-1.055 4.289,-0.953 4.622,-1.139c25.969,-14.49 48.4,22.669 24.623,44.974c-12.792,12 -10.022,14.056 -7.883,31.386c0.484,3.926 29.6,0.302 44.806,-10.027c15.554,-10.565 29.981,-61.44 8.093,-95.27c-6.674,-10.316 -35.682,-21.71 -44.606,-18.425c-3.503,1.29 -3.8,-4.368 -5.747,-4.9c-6.362,-1.738 -4.947,-3.551 -10.01,-7.479c-33.738,-26.181 -67.837,-7.578 -72.972,-4.776c-13.207,7.205 -16.198,51.909 -13.406,55.456c12.855,16.331 36.151,11.239 72.48,10.201Zm-3.295,326.503c-2.568,-1.772 -29.957,-20.665 -32.498,-21.56c-35.491,-12.498 -41.13,-21.077 -47.92,-8.589c-8.692,15.989 -1.009,17.31 16.054,23.5c14.655,5.316 -4.774,12.913 -4.564,16.562c0.583,10.115 -3.881,41.246 1.273,47.283c7.438,8.711 8.152,7.825 15.112,16.884c8.447,10.994 69.754,14.956 83.154,12.807c17.31,-2.776 18.441,5.87 58.129,-7.156c40.004,-13.13 50.336,-85.545 40.431,-86.38c-16.304,-1.375 -15.801,-3.645 -29.736,-5.539c-18.579,-2.525 -18.522,-1.57 -36.855,-5.874c-8.241,-1.935 -9.733,12.324 -14.191,16.03c-18.829,15.657 -44.872,3.653 -48.391,2.031Zm-258.049,-158.738c-2.185,-1.089 -2.014,-1.183 -2.185,-1.089c-16.229,8.881 -19.218,7.312 -37.948,9.847c-5.891,0.797 -14.936,42.073 -15.767,45.863c-1.014,4.629 2.385,3.61 58.458,9.535c8.493,0.898 15.063,8.676 16.366,1.151c6.434,-37.161 7.119,-37.043 7.229,-40.318c0.168,-4.977 -56.301,2.415 -26.153,-24.99Zm236.735,75.909c-5.286,-12.334 -4.829,-12.462 -3.943,-25.988c0.199,-3.03 -1.357,-5.243 -37.932,-1.479c-7.347,0.756 -14.581,47.534 2.564,61.839c10.861,9.062 37.446,4.342 38.713,3.34c17.366,-13.735 10.241,-17.917 0.597,-37.712Zm12.68,-141.619c8.431,-0.772 8.212,-0.888 16.765,-1.535c7.884,-0.596 2.998,-35.348 2.569,-38.397c-0.809,-5.756 2.07,-11.306 -5.109,-13.675c-15.57,-5.139 -0.676,-24.381 -7.003,-23.765c-12.017,1.17 -14.083,0.825 -16.831,12.49c-0.787,3.34 6.685,12.202 2.31,20.084c-10.619,19.131 -18.638,13.691 -34.213,2.595c-5.101,-3.634 -3.996,0.989 -5.179,6.948c-4.201,21.156 -1.511,21.199 -1.646,42.821c-0.047,7.519 44.601,-6.402 48.338,-7.567Zm232.316,195.272c6.573,23.089 8.846,22.393 11.589,46.137c0.379,3.28 15.791,9.578 15.87,-2.314c0.172,-26.188 -2.304,-25.82 -4.357,-35.622c-0.861,-4.114 -0.702,-17.283 -6.527,-31.818c-15.541,-38.779 -17.046,-37.971 -33.579,-76.347c-8.483,-19.693 -22.622,-21.358 -18.842,-13.087c16.007,35.023 10.077,36.96 24.476,72.581c0.823,2.036 -1.441,8.824 2.444,10.464c8.166,3.447 10.397,4.428 8.925,30.007Zm-156.378,-160.603c-0.031,-1.753 -0.175,-1.913 -11.921,-12.607c-11.491,-10.462 -32.361,-1.88 -33.765,-0.822c-30.451,22.946 -34.319,67.892 -35.615,102.718c-0.714,19.174 19.178,29.163 16.159,40.354c-0.675,2.5 -3.278,12.15 13.097,29.606c9.055,9.653 -12.268,-42.091 -10.152,-78.263c4.415,-75.475 19.045,-71.191 20.956,-72.079c26.801,-12.449 27.732,-8.484 41.242,-8.906Zm-92.769,-114.995c-3.502,-10.447 -6.898,-2.808 -6.574,-2.555c2.186,1.71 2.306,1.2 4.377,2.861c-0.165,1.585 0.805,11.45 -6.989,10.356c-6.597,-0.926 -1.493,2.569 -1.265,2.616c11.557,2.372 10.546,-11.93 10.451,-13.279Zm166.792,326.646c-3.867,19.409 -4.912,18.976 -15.159,35.792c-2.171,3.563 5.546,19.012 9.27,32.883c2.133,7.946 51.769,12.63 75.307,-1.678c7.523,-4.573 28.106,-29.513 22.916,-29.159c-18.835,1.284 0.825,-34.693 -15.536,-31.25c-1.944,0.409 -3.134,0.66 -24.825,0.28c-12.964,-0.227 -44.395,-5.527 -50.007,-7.913c0.851,-0.932 0.552,-2.586 1.403,-3.518c7.209,-7.896 19.61,-1.9 21.134,-1.163c7.593,3.671 40.515,6.989 52.392,2.064c4.906,-2.034 4.163,-3.054 3.852,-8.323c-1.058,-17.92 -3.163,-17.332 -8.837,-34.327c-1.97,-5.902 -11.025,-4.195 -15.869,-11.152c-9.716,-13.953 1.669,-34.754 1.542,-35.152c-8.825,-27.701 -6.111,-31.873 -22.294,-68.916c-3.535,-8.093 -4.235,-10.352 -20.06,-7.949c-31.373,4.764 -31.541,3.11 -34.229,3.713c-1.887,0.423 14.356,40.648 17.083,52.988c14.811,67.039 16.815,80.072 11.03,82.758c-12.547,5.827 -5.567,13.568 -9.113,30.024Zm-164.346,-338.261c9.027,4.132 4.214,10.523 9.725,10.587c27.574,0.318 17.099,-13.333 15.464,-13.367c-12.017,-0.246 -11.776,-0.748 -23.664,0.472c-14.611,-1.963 -18.14,0.972 -15.378,3.076c0.523,0.398 12.747,-0.671 13.853,-0.768Zm-34.103,-4.016c-1.692,0.437 -2.316,-0.209 -2.306,1.439c0.009,1.478 5.211,2.946 2.306,-1.439Zm-261.18,278.809c-0.379,-0.056 -4.726,-0.698 -4.767,0.468c-0.112,3.197 11.631,2.858 4.767,-0.468Zm1.368,-52.765c0.108,3.493 3.528,0.692 2.152,-0.334c-0.14,-0.104 0,0 -2.152,0.334Zm330.874,-192.489c15.007,11.659 28.312,-27.318 8.405,-34.541c-2.205,-0.8 -9.671,-3.509 -13.247,26.153c-0.645,5.351 1.009,4.826 4.842,8.389Zm-256.841,213.522c1.421,-11.89 -18.381,-12.5 -18.705,-11.877c-4.463,8.614 -2.329,10.876 7.227,12.424c6.531,1.058 7.831,5.057 11.477,-0.548Zm487.352,117.817c11.53,-5.326 6.451,-16.092 -4.872,-15.782c-5.262,0.144 -3.86,28.896 -0.316,22.523c2.144,-3.856 2.119,-3.715 5.188,-6.742Zm-551.071,-81.558c12.211,1.119 8.691,-4.871 9.79,-17.157c0.231,-2.579 -9.71,-4.261 -10.503,-1.036c-1.293,5.257 -5.605,16.349 0.713,18.194Zm38.857,-12.448c-2,12.231 -4.88,13.925 -0.711,15.295c15.456,5.076 17.672,-6.511 17.968,-8.058c0.849,-4.438 5.193,-7.885 -3.788,-9.615c-7.975,-1.537 -10.437,-5.261 -13.469,2.378Zm206.77,-235.058c0.262,-1.588 0.763,-3.131 1.025,-4.719c1.088,-6.605 -37.638,8.616 -20.919,12.834c21.5,5.423 18.975,-4.73 19.894,-8.114Zm39.377,97.373c2.407,-1.733 21.485,-15.472 25.179,-27.213c1.591,-5.058 -13.479,-0.811 -14.604,-0.494c-22.054,6.215 -21.872,6.524 -44.988,7.639c-5.024,0.242 -9.587,17.281 4.75,18.878c7.838,0.873 9.382,11.287 29.662,1.19Zm48.55,184.705c11.972,-4.486 12.253,-4.046 13.852,-5.847c10.996,-12.379 -13.795,-6.676 -17.338,-7.387c-22.529,-4.521 -28.61,-29.197 -31.921,-26.514c-17.007,13.782 -52.054,4.685 -28.414,10.194c26.3,6.129 41.788,30.526 63.822,29.553Zm185.324,-42.216c-0.135,-3.87 0.224,-4.879 -3.541,-5.135c-5.384,-0.366 0.092,14.022 3.541,5.135Zm-245.518,-223.458c9.924,6.355 11.369,-12.452 -0.216,-12.762c-0.722,-0.019 -7.751,-0.208 -8.31,3.521c-0.675,4.503 1.601,3.518 8.526,9.241Zm-282.774,201.389c4.333,-0.232 6.912,1.415 6.008,-2.88c-0.28,-1.331 -7.667,-3.173 -9.611,-2.402c-9.531,3.78 3.094,5.224 3.602,5.282Zm36.774,32.08c10.687,-2.667 -7.903,-4.685 -7.817,-1.731c0.064,2.207 1.17,1.112 7.817,1.731Zm217.779,-268.837c3.536,12.453 4.883,-7.671 1.902,-6.742c-1.527,0.476 -1.869,6.183 -1.902,6.742Zm-239.666,220.778c-0.085,2.684 8.677,10.729 11.567,-4.678c0.184,-0.981 -6.8,-15.183 -11.567,4.678Zm20.719,19.071c5.807,-0.03 8.977,2.174 8.021,-3.504c-0.623,-3.703 -15.66,-5.028 -13.917,2.289c0.289,1.213 0.661,0.697 5.896,1.215Zm202.553,-243.402c0.318,8.822 -0.478,14.011 7.269,10.13c1.487,-0.745 3.428,-20.588 0.31,-20.528c-7.912,0.151 -7.092,2.58 -7.579,10.398Zm31.008,15.594c-1.263,-6.751 -2.776,-5.752 -2.86,-5.72c-3.653,1.376 5.626,17.391 2.86,5.72Zm-2.839,-23.834c-0.747,-4.999 -2.406,-3.326 -2.6,-3.069c-1.405,1.862 0.159,11.969 2.6,3.069Zm-359.956,191.098c3.695,17.677 3.72,17.554 3.991,19.091c11.866,67.421 10.257,67.64 11.402,73.478c7.963,40.612 7.344,131.404 4.715,133.106c-17.704,11.462 -6.321,-7.758 -9.219,-28.666c-3.169,-22.862 1.508,-59.958 -8.333,-118.731c-17.548,-104.799 -21.502,-103.813 -27.673,-116.284c-0.343,-0.693 -25.487,1.54 -25.861,1.693c-9.439,3.867 -0.858,6.07 6.317,13.128c31.972,31.452 18.996,41.619 13.733,67.106c-0.841,4.073 6.162,0.455 12.955,0.732c20.398,0.831 -7.135,12.031 -17.95,10.526c-9.476,-1.319 -2.368,20.721 -44.752,39.117c-4.061,1.762 -8.565,9.283 -16.405,3.653c-6.907,-4.961 -29.015,-8.137 -45.22,-29.384c-3.546,-4.65 -24.421,-32.021 -42.616,-59.394c-9.356,-14.075 29.685,-32.151 25.56,-35.18c-4.912,-3.607 -9.218,8.628 -36.326,-11.354c-8.849,-6.522 -5.98,-18.992 5.804,-52.801c5.882,-16.876 -8.248,0.083 -33.225,13.507c-6.794,3.652 -3.085,5.538 -0.537,7.032c30.68,17.987 19.943,79.525 19.138,88.586c-0.416,4.679 -21.044,49.68 -21.752,50.704c-11.241,16.268 -20.809,19.444 -9.951,23.539c10.091,3.806 10.573,3.181 17.568,11.259c3.12,3.603 67.76,-1.873 97.287,5.027c3.091,0.722 24.782,5.791 23.774,31.773c-0.352,9.077 -14.001,12.262 -16.586,11.935c-18.685,-2.364 -18.534,-1.229 -20.115,-1.557c-11.468,-2.384 -4.12,6.48 -10.89,29.946c-8.482,29.399 -72.049,26.314 -76.618,30.148c-21.144,17.746 -25.577,6.795 -36.244,12.164c-25.242,12.705 -26.969,6.024 -49.505,11.483c-5.562,1.347 4.516,12.262 -0.514,18.395c-6.181,7.537 -4.282,28.9 -9.106,31.193c-14.438,6.862 -5.734,-25.986 -4.681,-45.168c0.203,-3.702 -28.407,-5.704 -31.848,-7.685c-15.49,-8.918 -26.571,-23.385 -28.44,-25.825c-12.552,-16.386 0.852,-113.847 10.538,-136.169c55.826,-128.656 85.799,-138.456 114.953,-142.59c16.745,-2.374 17.575,-1.628 45.474,-23.254c10.624,-8.235 27.288,-12.167 31.233,-16.309c9.329,-9.798 10.903,-7.978 11.035,-9.116c2.24,-19.319 1.594,-19.196 6.674,-38.071c1.113,-4.136 -4.392,-0.217 -6.194,-2.536c-4.742,-6.105 -6.983,-3.384 -12.115,-9.333c-19.586,-22.703 4.25,-36.66 3.999,-37.938c-11.689,-59.378 16.924,-90.538 20.961,-92.244c25.611,-10.822 26.435,-6.3 42.682,-3.147c67.025,13.005 78.469,38.49 81.977,41.874c15.483,14.933 6.775,18.34 8.585,30.978c2.731,19.066 -34.61,24.507 -46.868,18.155c-13.105,-6.79 3.317,19.993 4.575,29.399c2.198,16.427 9.895,10.125 23.817,19.347c33.515,22.2 21.239,36.245 -13.853,55.635c-5.528,3.054 34.143,24.659 34.96,44.93c0.575,14.256 11.224,26.979 21.46,41.797c17.684,25.602 37.921,75.361 39.097,79.429c6.898,23.862 11.918,22.043 16.665,46.236c6.08,30.984 18.774,64.867 24.326,99.628c0.71,4.447 -9.741,8.814 -11.012,2.429c-9.984,-50.147 -12.845,-49.205 -13.575,-53.565c-5.93,-35.435 -8.691,-34.762 -9.129,-37.846c-3.242,-22.807 -4.195,-22.466 -14.619,-43.007c-10.327,-20.349 -3.951,-23.076 -31.478,-72.023c-1.725,0.797 -1.705,0.736 -2.045,1.018Zm-217.868,24.77c1.817,-7.518 1.875,-7.457 1.962,-8.12c4.938,-37.744 3.23,-37.814 0.734,-52.272c-7.768,-44.995 -36.28,-25.07 -46.185,-26.304c-40.954,-5.103 -98.474,122.349 -106.34,153.454c-9.243,36.548 -9.844,92.433 -8.449,104.263c1.217,10.314 25.239,29.76 31.729,30.465c22.03,2.395 21.904,3.841 23.786,3.447c4.46,-0.934 7.017,-20.802 14.424,-3.038c0.913,2.189 43.45,-2.625 38.329,-7.734c-18.138,-18.094 -18.09,-29.356 -17.186,-53.919c0.398,-10.816 7.699,-13.584 9.101,-16.795c1.147,-2.626 8.596,-19.684 20.762,-29.186c19.151,-14.957 21.675,-9.917 24.638,-12.256c0.898,-0.709 -13.894,-9.35 -22.642,-7.555c-5.309,1.089 -3.807,-3.94 -9.362,-4.143c-61.44,-2.249 -56.511,-21.132 -52.212,-22.628c6.212,-2.162 18.069,-15.896 33.171,-11.721c18.646,5.155 18.092,6.713 31.036,21.046c7.236,8.013 30.785,-52.109 32.703,-57.004Zm155.988,-269.093c13.198,5.447 13.766,3.087 27.248,8.119c0.844,0.315 3.023,0.696 3.293,-10.765c0.163,-6.939 -14.393,-19.904 -20.422,-25.845c-0.246,-0.243 -0.495,-0.441 -0.745,-0.597c-0.139,-0.123 -0.264,-0.224 -0.365,-0.308c-0.861,-0.716 -35.55,-17.027 -38.856,-17.9c-39.67,-10.471 -41.596,-9.357 -58.981,-1.216c-3.813,1.786 -15.309,27.094 -15.986,33.942c-2.696,27.285 -5.92,27.943 4.272,53.307c2.227,5.544 9.539,-3.904 2.457,-16.66c-1.933,-3.482 17.641,-12.335 19.729,-12.645c12.586,-1.868 11.381,-5.134 23.624,-7.785c28.238,-6.114 50.413,-2.375 54.733,-1.647Zm-74.913,264.52c-6.677,-19.531 -5.902,-19.499 -11.492,-39.344c-1.645,-5.84 -19.811,11.067 -21.252,12.408c-11.693,10.883 -2.807,13.462 21.275,50.426c17.147,26.319 46.978,49.901 38.305,38.5c-3.856,-5.069 -6.128,-4.022 -26.835,-61.99Zm85.783,-140.931c12.606,-7.459 12.584,-7.322 13.615,-8.056c22.495,-16.029 -15.597,-34.217 -21.098,-35.704c-44.893,-12.137 -56.676,34.379 -49.608,40.859c9.648,8.845 13.852,9.563 15.284,9.808c21.564,3.683 38.803,-5.336 41.807,-6.907Zm-19.818,198.899c4.72,0.751 26.682,-26.546 33.506,-50.972c5.926,-21.211 -2.875,-34.101 -15.374,-44.548c-4.834,-4.041 -6.71,71.176 -9.494,74.075c-5.046,5.253 -3.584,5.896 -8.637,21.444Zm-18.37,-275.276c-1.141,-1.274 -0.926,-2.173 -2.414,-1.211c-0.118,0.076 -1.718,7.8 2.414,1.211Zm19.335,211.009c6.317,0.365 2.599,-62.636 1.679,-66.044c-0.984,-3.645 -17.716,3.3 -17.762,4.592c-0.243,6.862 0.148,7.015 -4.083,12.202c-3.166,3.882 14.045,33.234 20.166,49.25Zm-64.44,-74.099c1.651,-0.169 18.969,-1.945 18.835,-8.683c-0.158,-7.922 -9.092,-6.203 -11.44,-7.677c-9.89,-6.208 -20.739,-2.384 -30.097,-4.991c-9.274,-2.583 -1.031,8.2 1.728,12.386c7.045,10.686 8.327,11.019 20.974,8.965Zm45.612,-177.557c18.308,12.977 24.276,27.761 54.781,11.612c7.343,-3.887 -51.338,-18.832 -54.781,-11.612Zm-9.946,58.35c0.703,0.376 11.237,2.907 2.701,-9.591c-0.647,-0.947 -0.226,-8.527 -0.185,-9.267c0.753,-13.576 13.407,-5.076 13.105,-8.326c-0.567,-6.112 -19.624,-4.468 -16.925,10.68c0.623,3.494 -3.902,1.779 -6.05,4.637c-3.18,4.232 6.449,11.211 7.354,11.867Zm-21.257,217.006c0.025,-0.034 1.597,-0.085 1.376,-1.84c-4.308,-34.169 0.389,-33.931 3.191,-64.272c0.448,-4.847 -13.511,-0.787 -16.19,-19.049c-1.311,-8.941 -4.966,-5.959 -13.537,-3.576c-4.937,1.373 22.756,81.761 25.159,88.737Zm-136.716,144.752c-16.648,-1.89 -16.556,-2.519 -17.947,-2.126c-2.781,0.785 0.15,9.989 0.412,10.814c12.444,39.08 45.468,19.489 44.404,18.248c-0.822,-0.959 -2.726,0.684 -14.027,-20.421c-3.804,-7.104 -4.954,-6.079 -12.842,-6.516Zm200.226,-229.781c1.646,5.796 3.915,1.916 9.93,1.618c9.359,-0.464 16.513,1.051 11.941,-12.402c-1.424,-4.19 4.793,-5.744 4.084,-8.195c-2.717,-9.402 -39,-42.98 -45.282,-36.44c-4.45,4.633 2.578,7.742 2.859,8.084c8.845,10.766 9.069,10.592 9.449,11.735c0.917,2.754 -0.331,2.967 7.019,35.601Zm-126.541,8.103c11.981,7.979 13.087,4.491 27.24,6.714c1.659,0.261 1.378,-0.909 -2.037,-20.893c-3.052,-17.862 -17.924,-14.635 -14.283,-48.67c1.445,-13.505 -14.04,28.679 -14.347,29.802c-6.88,25.207 -4.866,26.603 3.426,33.047Zm-81.139,121.475c-11.521,-15.762 -28.414,-16.053 -36.137,-10.444c-18.708,13.588 30.047,15.293 38.801,15.966c3.977,0.306 -2.296,-5.198 -2.665,-5.522Zm165.397,-143.977c40.045,19.006 23.239,-29.768 17.827,-23.583c-9.274,10.597 -10.819,8.412 -24.893,9.836c-6.601,0.668 6.173,12.892 7.067,13.747Zm-33.317,-137.445c0.892,1.18 11.872,15.705 17.619,5.6c2.852,-5.015 -0.665,-8.027 -1.9,-6.771c-1.531,1.558 -4.522,14.83 -13.082,-1.425l-1.562,-7.041l1.747,-1.917l1.937,-1.391c4.808,0.151 4.903,0.131 7.631,3.858c1.288,1.76 5.694,-7.307 -6.521,-6.892c-4.917,0.167 -4.209,1.428 -6.701,5.485c-2.029,5.657 -3.804,7.197 0.833,10.493Zm15.292,325.544c-11.732,-0.466 -7.652,10.169 -6.826,11.344c7.025,9.987 22.696,-3.457 6.826,-11.344Zm180.26,-538.394c-3.288,17.332 -5.18,18.969 -10.416,16.954c-6.513,-2.507 12.311,-38.194 6.031,-38.136c-6.976,0.064 -16.128,-6.489 -20.096,21.319c-0.923,6.467 -0.83,29.337 -9.206,23.232c-5.128,-3.737 6.585,-44.983 5.505,-45.69c-0.122,-0.08 -31.164,1.153 -22.294,-4.572c5.103,-3.293 37.582,-2.792 53.202,0.101c4.11,0.761 34.205,-24.193 32.693,39.944c-0.274,11.621 -8.797,8.892 -8.884,2.404c-0.232,-17.26 2.844,-19.561 -2.475,-20.938c-9.058,-2.346 -19.61,0.528 -21.252,0.975c-1.887,0.514 -2.773,4.324 -2.808,4.407Zm9.935,-11.246c11.987,-0.664 11.91,-0.664 12.946,-0.717c4.546,-0.234 -9.113,-27.656 -18.461,-0.831c-0.151,0.433 -0.84,2.41 5.515,1.548Zm20.119,102.446c-14.987,-3.088 -32.719,-18.403 -11.615,-37.333c6.293,-5.645 30.884,-8.756 33.928,10.41c4.672,29.413 -13.968,25.736 -22.314,26.924Zm-7.589,-22.367c-4.569,19.507 26.139,20.956 20.813,-3.447c-0.262,-1.202 -2.179,-9.984 -13.186,-7.902c-3.577,0.677 -7.239,10.326 -7.627,11.349Zm184.301,22.999c-19.468,-15.869 -14.695,-33.613 6.156,-35.381c7.865,-0.667 6.454,-3.786 4.099,-16.09c-4,-20.899 9.531,-18.126 10.158,-12.938c3.649,30.16 4.239,30.454 -1.535,47.384c-6.88,20.171 -10.259,21.715 -18.879,17.025Zm-0.032,-14.44c5.894,9.755 7.527,-2.55 9.898,-9.552c0.227,-0.67 1.816,-6.076 -8.498,-2.429c-3.961,1.4 -1.627,11.043 -1.4,11.981Zm38.033,-28.866c1.737,-0.813 16.617,-7.781 23.929,1.458c15.238,19.253 -12.315,33.91 -14.746,36.289c-9.838,9.625 -32.156,-18.467 -9.183,-37.747Zm1.614,18.084c3.984,21.881 22.247,-5.981 12.7,-12.878c-1.965,-1.42 -6.374,0.085 -7.884,1.372c-3.509,2.992 -4.665,10.52 -4.817,11.506Zm-75.215,-16.518c-15.084,-10.029 -14.023,-12.243 -12.771,-12.988c2.985,-1.776 32.115,3.466 33.933,37.705c0.482,9.083 -7.361,0.789 -14.099,6.992c-12.026,11.069 -48.641,-24.354 -7.113,-29.882c0.145,-0.019 0,0 0.049,-1.826Zm-7.256,19.005c9.554,16.408 14.015,-8.497 4.994,-10.403c-7.896,-1.668 -5.21,9.505 -4.994,10.403Zm-223.322,14.261c0.324,1.277 3.921,15.462 0.405,16.463c-9.579,2.727 -9.214,-24.023 -14.216,-23.922c-2.804,0.057 -5.572,0.656 -8.368,0.873c-7.713,0.598 -10.706,-5.383 -12.815,1.775c-4.775,16.208 -4.403,35.736 -13.088,30.539c-3.807,-2.278 -0.178,-54.986 30.692,-55.431c8.267,-0.119 16.141,26.421 17.39,29.702Zm-21.008,-14.787c5.591,-1.308 7.387,-3.794 2.485,-6.775c-3.148,-1.914 -8.966,3.128 -9.732,4.756c-0.256,0.545 -0.581,2.192 7.248,2.019Zm205.725,1.747c2.961,-6.048 3.071,-5.842 5.331,-12.133c3.199,-8.908 -8.816,1.256 -13.962,-5.793c-0.9,-1.233 -1.425,-3.47 16.821,-9.021c16.059,-4.886 8.74,5.862 9.118,7.845c1.737,9.099 -0.863,8.695 -9.522,28.39c-2.813,6.397 21.203,0.805 26.44,3.449c7.484,3.779 -0.244,9.998 -25.016,7.415c-23.614,-2.462 -13.69,-12.817 -9.212,-20.152Zm-1.784,-72.612c-1.795,-8.368 -5.273,-4.138 -16.305,-4.642c-29.841,-1.364 8.739,-38.383 23.886,-20.359c7.63,9.079 -12.231,3.104 -13.27,2.792c-2.66,-0.8 -10.281,5.879 -10.654,6.796c-1.927,4.733 2.153,2.459 19.059,3.327c10.908,0.56 7.591,29.332 -10.722,33.426c-11.822,2.643 -9.762,-8.721 -3.552,-8.156c8.754,0.796 8.517,-2.134 11.558,-13.184Zm166.632,70.902c-7.73,-3.438 -10.381,-4.253 -10.052,-18.674c0.222,-9.746 40.685,-11.432 28.792,-4.984c-13.551,7.346 -27.776,5.206 -16.426,15.689c4.463,4.123 25.658,-5.987 14.909,18.821c-6.905,15.934 -33.212,4.644 -25.325,0.694c9.001,-4.508 11.412,-2.187 13.766,-3.309c13.261,-6.32 -4.868,-8.157 -5.663,-8.237Zm-291.232,15.796c-2.493,14.531 -10.901,5.375 -10.124,0.046c3.595,-24.661 4.101,-25.805 2.025,-25.899c-14.698,-0.664 -7.915,-7.221 -7.14,-7.517c2.616,-0.998 9.578,0.872 9.87,-3.382c0.101,-1.476 1.183,-17.222 4.415,-17.963c12.963,-2.972 -1.508,15.879 10.547,20.686c8.172,3.259 -5.068,6.81 -5.364,8.097c-2.995,13.016 -2.52,12.816 -4.23,25.931Zm74.018,-76.835c-8.192,1.791 -8.177,0.481 -14.743,-4.566c-4.099,-3.151 -11.424,16.129 -15.467,6.823c-3.199,-7.363 11.827,-7.89 3.175,-20.681c-0.728,-1.076 -11.776,-17.408 -0.432,-16.234c4.8,0.497 7.244,16.577 11.568,9.198c5.167,-8.82 2.464,-13.073 10.995,-12.785c11.277,0.38 -12.166,19.294 -3.23,26.854c5.726,4.844 7.234,4.033 8.134,11.392Zm6.883,64.906c-6.135,9.626 -5.423,9.761 -7.612,17.667c-1.416,5.113 -9.528,1.629 -9.701,-2.205c-1.702,-37.735 1.293,-38.642 4.383,-38.449c10.182,0.634 1.713,19.065 10.845,12.679c13.101,-9.161 23.624,16.708 9.447,11.142c-3.953,-1.552 -4.12,-3.577 -7.363,-0.834Zm-4.84,-64.948c0.428,-4.41 0.551,-4.617 4.925,-6.23c1.619,-0.597 6.916,-27.427 2.421,-27.676c-15.912,-0.879 -2.964,-7.388 -2.342,-7.425c1.57,-0.091 28.53,-1.659 18.901,5.397c-0.543,0.398 -5.206,0.98 -5.463,2.524c-0.349,2.102 -4.218,25.38 -1.207,26.603c9.127,3.706 2.49,11.144 -7.627,9.293c-3.911,-0.715 -4.05,0.079 -9.607,-2.486Zm-112.723,83.296c-7.118,-2.857 -7.448,-2.232 -12.536,-7.928c-4.906,-5.492 0.061,-19.813 2.211,-21.982c10.485,-10.575 3.464,17.362 7.196,20.79c11.844,10.878 4.904,-23.288 16.375,-26.618c5.137,-1.491 4.2,36.84 -13.246,35.737Zm255.379,361.725c-23.718,-6.513 -1.63,-30.667 3.583,-26.221c11.56,9.859 15.227,12.932 4.667,23.709c-3.228,3.295 -3.613,2.037 -8.251,2.513Zm-54.231,179.18c2.4,-16.583 18.511,-11.811 20.767,-10.318c16.211,10.733 -13.217,37.112 -20.767,10.318Zm-317.091,-27.052c10.953,-9.894 19.094,-6.057 20.963,2.165c4.776,21.01 -32.788,23.006 -20.963,-2.165Zm4.427,-70.327c18.011,-6.366 19.658,7.129 16.695,13.128c-9.164,18.554 -35.041,3.129 -16.695,-13.128Zm354.641,-4.782c-8.087,25.289 -32.678,4.444 -18.378,-7.919c4.415,-3.817 18.662,-4.14 18.378,7.919Zm-102.815,-437.453c-9.207,-3.131 -4.894,-14.848 -4.303,-26.646c0.051,-1.012 0.641,-12.801 8.806,-9.105c4.31,1.951 4.248,31.897 -4.503,35.751Zm-34.289,179.803c1.201,4.426 11.527,32.63 2.327,28.118c-6.081,-2.982 -16.154,-45.369 -4.089,-31.292c0.189,0.22 0,0 1.762,3.173Zm-69.049,135.212c-17.414,-4.694 -17.341,-4.542 -18.807,-5.07c-6.073,-2.188 -3.769,-6.956 -0.129,-5.91c28.664,8.236 33.215,3.791 32.802,10.026c-0.367,5.555 -12.952,1.132 -13.866,0.954Zm104.403,-357.873c-20.499,-5.788 5.116,-21.8 9.197,-13.388c5.602,11.547 -7.908,13.227 -9.197,13.388Zm-81.715,284.243c8.918,8.26 -1.042,6.728 -1.511,6.478c-0.342,-0.182 -26.5,-17.271 -25.444,-20.334c1.193,-3.458 3.443,-3.287 26.955,13.856Zm80.246,-55.441c3.006,12.524 -4.827,5.88 -5.24,5.439c-6.496,-6.953 -11.043,-28.699 -2.902,-23.126c2.915,1.995 1.998,2.486 8.142,17.687Zm-79.937,15.039c-3.216,-17.501 20.564,14.121 20.045,17.009c-0.372,2.07 -3.853,4.177 -20.045,-17.009Zm-23.082,78.696c-11.71,-7.02 -11.697,-6.859 -12.645,-7.56c-10.75,-7.953 14.802,-2.418 23.241,7.603c8.568,10.175 -9.848,0.356 -10.596,-0.043Z" style="fill:#1ea4b2;"/></g></g></svg>